G04*
G04 #@! TF.GenerationSoftware,Altium Limited,Altium Designer,24.2.2 (26)*
G04*
G04 Layer_Color=32896*
%FSLAX26Y26*%
%MOIN*%
G70*
G04*
G04 #@! TF.SameCoordinates,B184214D-E36B-41BB-B0D7-08C86D9F1EC7*
G04*
G04*
G04 #@! TF.FilePolarity,Positive*
G04*
G01*
G75*
%ADD13C,0.007874*%
%ADD16C,0.010000*%
D13*
X839064Y2072392D02*
X882371D01*
X839064Y2170817D02*
X882371D01*
D16*
X404896Y42843D02*
Y82830D01*
X384902D01*
X378238Y76165D01*
Y62836D01*
X384902Y56172D01*
X404896D01*
X391567D02*
X378238Y42843D01*
X344915D02*
X358244D01*
X364908Y49507D01*
Y62836D01*
X358244Y69501D01*
X344915D01*
X338250Y62836D01*
Y56172D01*
X364908D01*
X324921Y69501D02*
X311592Y42843D01*
X298263Y69501D01*
X244947Y42843D02*
X231618D01*
X238283D01*
Y82830D01*
X244947Y76165D01*
X211625Y42843D02*
Y49507D01*
X204960D01*
Y42843D01*
X211625D01*
X178302Y76165D02*
X171637Y82830D01*
X158308D01*
X151644Y76165D01*
Y49507D01*
X158308Y42843D01*
X171637D01*
X178302Y49507D01*
Y76165D01*
X1674422Y84768D02*
Y44781D01*
X1654429D01*
X1647764Y51445D01*
Y78103D01*
X1654429Y84768D01*
X1674422D01*
X1614442Y44781D02*
X1627771D01*
X1634435Y51445D01*
Y64774D01*
X1627771Y71439D01*
X1614442D01*
X1607777Y64774D01*
Y58110D01*
X1634435D01*
X1567790Y71439D02*
X1587784D01*
X1594448Y64774D01*
Y51445D01*
X1587784Y44781D01*
X1567790D01*
X1487816D02*
X1514474D01*
X1487816Y71439D01*
Y78103D01*
X1494480Y84768D01*
X1507809D01*
X1514474Y78103D01*
X1474487D02*
X1467822Y84768D01*
X1454493D01*
X1447829Y78103D01*
Y51445D01*
X1454493Y44781D01*
X1467822D01*
X1474487Y51445D01*
Y78103D01*
X1407842Y44781D02*
X1434500D01*
X1407842Y71439D01*
Y78103D01*
X1414506Y84768D01*
X1427835D01*
X1434500Y78103D01*
X1374519Y44781D02*
Y84768D01*
X1394513Y64774D01*
X1367854D01*
X716165Y2125834D02*
X724495Y2134164D01*
X741157D01*
X749487Y2125834D01*
Y2092511D01*
X741157Y2084180D01*
X724495D01*
X716165Y2092511D01*
X699504Y2125834D02*
X691173Y2134164D01*
X674512D01*
X666181Y2125834D01*
Y2117503D01*
X674512Y2109172D01*
X666181Y2100842D01*
Y2092511D01*
X674512Y2084180D01*
X691173D01*
X699504Y2092511D01*
Y2100842D01*
X691173Y2109172D01*
X699504Y2117503D01*
Y2125834D01*
X691173Y2109172D02*
X674512D01*
X792362Y1383608D02*
X800693Y1391939D01*
X817354D01*
X825685Y1383608D01*
Y1350286D01*
X817354Y1341955D01*
X800693D01*
X792362Y1350286D01*
X742379Y1391939D02*
X759040Y1383608D01*
X775701Y1366947D01*
Y1350286D01*
X767371Y1341955D01*
X750709D01*
X742379Y1350286D01*
Y1358617D01*
X750709Y1366947D01*
X775701D01*
X950602Y1386052D02*
X958932Y1394383D01*
X975594D01*
X983924Y1386052D01*
Y1352730D01*
X975594Y1344399D01*
X958932D01*
X950602Y1352730D01*
X933940Y1386052D02*
X925610Y1394383D01*
X908948D01*
X900618Y1386052D01*
Y1377722D01*
X908948Y1369391D01*
X917279D01*
X908948D01*
X900618Y1361061D01*
Y1352730D01*
X908948Y1344399D01*
X925610D01*
X933940Y1352730D01*
X920276Y1095845D02*
X928607Y1104176D01*
X945268D01*
X953599Y1095845D01*
Y1062523D01*
X945268Y1054192D01*
X928607D01*
X920276Y1062523D01*
X903615Y1054192D02*
X886954D01*
X895284D01*
Y1104176D01*
X903615Y1095845D01*
M02*
