G04*
G04 #@! TF.GenerationSoftware,Altium Limited,Altium Designer,24.2.2 (26)*
G04*
G04 Layer_Color=255*
%FSLAX26Y26*%
%MOIN*%
G70*
G04*
G04 #@! TF.SameCoordinates,B184214D-E36B-41BB-B0D7-08C86D9F1EC7*
G04*
G04*
G04 #@! TF.FilePolarity,Positive*
G04*
G01*
G75*
%ADD18R,0.005181X0.040000*%
%ADD19R,0.040000X0.005181*%
%ADD20R,0.141732X0.217716*%
%ADD21R,0.217716X0.141732*%
%ADD22R,0.023622X0.004921*%
%ADD23R,0.011811X0.029528*%
%ADD24R,0.029528X0.011811*%
%ADD25R,0.072835X0.072835*%
%ADD26R,0.037402X0.039370*%
%ADD29C,0.066929*%
%ADD30R,0.066929X0.066929*%
%ADD31C,0.064961*%
%ADD32R,0.064961X0.064961*%
%ADD33C,0.057000*%
%ADD37O,0.015000X0.004000*%
G04:AMPARAMS|DCode=38|XSize=14mil|YSize=5.181mil|CornerRadius=0mil|HoleSize=0mil|Usage=FLASHONLY|Rotation=135.000|XOffset=0mil|YOffset=0mil|HoleType=Round|Shape=Round|*
%AMOVALD38*
21,1,0.008819,0.005181,0.000000,0.000000,135.0*
1,1,0.005181,0.003118,-0.003118*
1,1,0.005181,-0.003118,0.003118*
%
%ADD38OVALD38*%

%ADD39C,0.039370*%
G04:AMPARAMS|DCode=40|XSize=14mil|YSize=5.181mil|CornerRadius=0mil|HoleSize=0mil|Usage=FLASHONLY|Rotation=225.000|XOffset=0mil|YOffset=0mil|HoleType=Round|Shape=Round|*
%AMOVALD40*
21,1,0.008819,0.005181,0.000000,0.000000,225.0*
1,1,0.005181,0.003118,0.003118*
1,1,0.005181,-0.003118,-0.003118*
%
%ADD40OVALD40*%

%ADD41O,0.004000X0.015000*%
D18*
X591819Y20000D02*
D03*
X1129615Y20000D02*
D03*
D19*
X1701435Y400000D02*
D03*
Y937795D02*
D03*
Y1475591D02*
D03*
X20000Y2013387D02*
D03*
X1701435D02*
D03*
X20000Y1475591D02*
D03*
Y937795D02*
D03*
Y400000D02*
D03*
D20*
X1040639Y108859D02*
D03*
X1218591D02*
D03*
X502843Y108858D02*
D03*
X680796D02*
D03*
D21*
X1612577Y1924410D02*
D03*
Y2102363D02*
D03*
Y1386614D02*
D03*
Y1564567D02*
D03*
Y848819D02*
D03*
Y1026772D02*
D03*
Y311024D02*
D03*
Y488976D02*
D03*
X108858D02*
D03*
Y311024D02*
D03*
Y1026772D02*
D03*
Y848819D02*
D03*
Y1564567D02*
D03*
Y1386614D02*
D03*
Y2102363D02*
D03*
Y1924410D02*
D03*
D22*
X965050Y1247989D02*
D03*
Y1257911D02*
D03*
X756130Y1257819D02*
D03*
Y1247897D02*
D03*
D23*
X831190Y1158370D02*
D03*
X850875D02*
D03*
X870560D02*
D03*
X890245D02*
D03*
Y1276480D02*
D03*
X870560D02*
D03*
X850875D02*
D03*
X831190D02*
D03*
D24*
X919772Y1187897D02*
D03*
Y1207582D02*
D03*
Y1227267D02*
D03*
Y1246952D02*
D03*
X801662D02*
D03*
Y1227267D02*
D03*
Y1207582D02*
D03*
Y1187897D02*
D03*
D25*
X860717Y1217425D02*
D03*
D26*
X648967Y1295018D02*
D03*
X711960D02*
D03*
X1072467D02*
D03*
X1009475D02*
D03*
D29*
X910174Y1961884D02*
D03*
D30*
X810174D02*
D03*
D31*
X760717Y2238223D02*
D03*
D32*
X960717D02*
D03*
D33*
X1081781Y68898D02*
D03*
Y155906D02*
D03*
X1177450D02*
D03*
Y68898D02*
D03*
X543985Y68897D02*
D03*
Y155905D02*
D03*
X639654D02*
D03*
Y68897D02*
D03*
X1652537Y1965552D02*
D03*
X1565529D02*
D03*
Y2061221D02*
D03*
X1652537D02*
D03*
Y1427756D02*
D03*
X1565529D02*
D03*
Y1523425D02*
D03*
X1652537D02*
D03*
Y889961D02*
D03*
X1565529D02*
D03*
Y985630D02*
D03*
X1652537D02*
D03*
Y352165D02*
D03*
X1565529D02*
D03*
Y447835D02*
D03*
X1652537D02*
D03*
X68897D02*
D03*
X155905D02*
D03*
Y352165D02*
D03*
X68897D02*
D03*
Y985630D02*
D03*
X155905D02*
D03*
Y889961D02*
D03*
X68897D02*
D03*
Y1523425D02*
D03*
X155905D02*
D03*
Y1427756D02*
D03*
X68897D02*
D03*
Y2061221D02*
D03*
X155905D02*
D03*
Y1965552D02*
D03*
X68897D02*
D03*
D37*
X354151Y1750602D02*
D03*
Y662785D02*
D03*
Y675011D02*
D03*
X1367284D02*
D03*
X354151Y1738376D02*
D03*
X1367284Y1750602D02*
D03*
Y1738376D02*
D03*
Y662785D02*
D03*
D38*
X328430Y1759760D02*
D03*
Y684169D02*
D03*
X875989Y328430D02*
D03*
X1393005Y1729217D02*
D03*
Y653626D02*
D03*
D39*
X119105Y119105D02*
D03*
D40*
X328430Y653626D02*
D03*
X1393005Y684169D02*
D03*
X328430Y1729217D02*
D03*
X845446Y328430D02*
D03*
X1393005Y1759760D02*
D03*
D41*
X854604Y354151D02*
D03*
X866830D02*
D03*
M02*
