G04*
G04 #@! TF.GenerationSoftware,Altium Limited,Altium Designer,24.2.2 (26)*
G04*
G04 Layer_Color=16711935*
%FSLAX26Y26*%
%MOIN*%
G70*
G04*
G04 #@! TF.SameCoordinates,B184214D-E36B-41BB-B0D7-08C86D9F1EC7*
G04*
G04*
G04 #@! TF.FilePolarity,Positive*
G04*
G01*
G75*
%ADD11C,0.003937*%
%ADD13C,0.007874*%
%ADD14C,0.005000*%
%ADD59C,0.004997*%
D11*
X1254221Y197D02*
X1326466D01*
X1005009D02*
X1254221D01*
X932765D02*
X1005009D01*
X1247725Y-379527D02*
Y-332283D01*
X1011505Y-377559D02*
X1247725Y-379527D01*
X1011505Y-377559D02*
Y-332283D01*
X991820D02*
X1011505Y-320472D01*
X991820Y-332283D02*
X1267410D01*
X1247725Y-320472D02*
X1267410Y-332283D01*
X991820Y-308661D02*
X1011505Y-320472D01*
X1247725D01*
X1267410Y-308661D01*
X1247725Y-296850D02*
X1267410Y-308661D01*
X991820D02*
X1267410D01*
X991820D02*
X1011505Y-296850D01*
X1247725Y-285039D02*
X1267410Y-296850D01*
X991820D02*
X1267410D01*
X991820D02*
X1011505Y-285039D01*
X991820Y-273228D02*
X1011505Y-285039D01*
X1267410D01*
X1247725Y-273228D02*
X1267410Y-285039D01*
X991820Y-273228D02*
X1006190Y-261417D01*
X991820Y-273228D02*
X1247725D01*
X1267410Y-261417D01*
X1253040Y-249606D02*
X1267410Y-261417D01*
X1006190D02*
X1267410D01*
X991820Y-249606D02*
X1006190Y-261417D01*
X1253040Y-249606D02*
X1267410Y-237795D01*
X991820Y-249606D02*
X1253040D01*
X991820D02*
X1006190Y-237795D01*
X1253040Y-225984D02*
X1267410Y-237795D01*
X1253040D02*
X1267410D01*
X1011505D02*
X1253040D01*
X991820D02*
X1011505D01*
X991820D02*
X1006190Y-225984D01*
X1247725Y-214173D02*
X1267410Y-225984D01*
X1247725D02*
X1267410D01*
X1011505D02*
X1247725D01*
X991820D02*
X1011505D01*
X991820D02*
X1011505Y-214173D01*
X1247725Y-202362D02*
X1267410Y-214173D01*
X1247725D02*
X1267410D01*
X1006190D02*
X1247725D01*
X991820D02*
X1006190D01*
X991820D02*
X1006190Y-202362D01*
X1247725D02*
X1267410Y-190551D01*
X1006190Y-202362D02*
X1247725D01*
X991820Y-190551D02*
X1006190Y-202362D01*
X1247725Y-178740D02*
X1267410Y-190551D01*
X1253040D02*
X1267410D01*
X1011505D02*
X1253040D01*
X991820D02*
X1011505D01*
X991820D02*
X1011505Y-178740D01*
X1006190Y-68504D02*
Y175591D01*
Y-68504D02*
X1253040D01*
Y175591D01*
X1006190D02*
X1253040D01*
X716426Y197D02*
X788670D01*
X467213D02*
X716426D01*
X394969D02*
X467213D01*
X709930Y-379528D02*
Y-332284D01*
X473709Y-377559D02*
X709930Y-379528D01*
X473709Y-377559D02*
Y-332284D01*
X454024D02*
X473709Y-320473D01*
X454024Y-332284D02*
X729615D01*
X709930Y-320473D02*
X729615Y-332284D01*
X454024Y-308662D02*
X473709Y-320473D01*
X709930D01*
X729615Y-308662D01*
X709930Y-296851D02*
X729615Y-308662D01*
X454024D02*
X729615D01*
X454024D02*
X473709Y-296851D01*
X709930Y-285040D02*
X729615Y-296851D01*
X454024D02*
X729615D01*
X454024D02*
X473709Y-285040D01*
X454024Y-273229D02*
X473709Y-285040D01*
X729615D01*
X709930Y-273229D02*
X729615Y-285040D01*
X454024Y-273229D02*
X468394Y-261418D01*
X454024Y-273229D02*
X709930D01*
X729615Y-261418D01*
X715245Y-249607D02*
X729615Y-261418D01*
X468394D02*
X729615D01*
X454024Y-249607D02*
X468394Y-261418D01*
X715245Y-249607D02*
X729615Y-237796D01*
X454024Y-249607D02*
X715245D01*
X454024D02*
X468394Y-237796D01*
X715245Y-225984D02*
X729615Y-237796D01*
X715245D02*
X729615D01*
X473709D02*
X715245D01*
X454024D02*
X473709D01*
X454024D02*
X468394Y-225984D01*
X709930Y-214173D02*
X729615Y-225984D01*
X709930D02*
X729615D01*
X473709D02*
X709930D01*
X454024D02*
X473709D01*
X454024D02*
X473709Y-214173D01*
X709930Y-202363D02*
X729615Y-214173D01*
X709930D02*
X729615D01*
X468394D02*
X709930D01*
X454024D02*
X468394D01*
X454024D02*
X468394Y-202363D01*
X709930D02*
X729615Y-190552D01*
X468394Y-202363D02*
X709930D01*
X454024Y-190552D02*
X468394Y-202363D01*
X709930Y-178740D02*
X729615Y-190552D01*
X715245D02*
X729615D01*
X473709D02*
X715245D01*
X454024D02*
X473709D01*
X454024D02*
X473709Y-178740D01*
X468394Y-68504D02*
Y175590D01*
Y-68504D02*
X715245D01*
Y175590D01*
X468394D02*
X715245D01*
X1721238Y2137993D02*
Y2210237D01*
Y1888780D02*
Y2137993D01*
Y1816536D02*
Y1888780D01*
X2053718Y2131497D02*
X2100962D01*
X2098994Y1895276D02*
X2100962Y2131497D01*
X2053718Y1895276D02*
X2098994D01*
X2041907D02*
X2053718Y1875591D01*
Y2151182D01*
X2041907Y2131497D02*
X2053718Y2151182D01*
X2030096Y1875591D02*
X2041907Y1895276D01*
Y2131497D01*
X2030096Y2151182D02*
X2041907Y2131497D01*
X2018285D02*
X2030096Y2151182D01*
Y1875591D02*
Y2151182D01*
X2018285Y1895276D02*
X2030096Y1875591D01*
X2006474Y2131497D02*
X2018285Y2151182D01*
Y1875591D02*
Y2151182D01*
X2006474Y1895276D02*
X2018285Y1875591D01*
X1994663D02*
X2006474Y1895276D01*
Y2151182D01*
X1994663Y2131497D02*
X2006474Y2151182D01*
X1982852Y1889961D02*
X1994663Y1875591D01*
Y2131497D01*
X1982852Y2151182D02*
X1994663Y2131497D01*
X1971041Y2136812D02*
X1982852Y2151182D01*
Y1889961D02*
Y2151182D01*
X1971041Y1875591D02*
X1982852Y1889961D01*
X1959230Y2151182D02*
X1971041Y2136812D01*
Y1875591D02*
Y2136812D01*
X1959230Y1889961D02*
X1971041Y1875591D01*
X1947419Y2136812D02*
X1959230Y2151182D01*
Y2136812D02*
Y2151182D01*
Y1895276D02*
Y2136812D01*
Y1875591D02*
Y1895276D01*
X1947419Y1889961D02*
X1959230Y1875591D01*
X1935608Y2131497D02*
X1947419Y2151182D01*
Y2131497D02*
Y2151182D01*
Y1895276D02*
Y2131497D01*
Y1875591D02*
Y1895276D01*
X1935608D02*
X1947419Y1875591D01*
X1923797Y2131497D02*
X1935608Y2151182D01*
Y2131497D02*
Y2151182D01*
Y1889961D02*
Y2131497D01*
Y1875591D02*
Y1889961D01*
X1923797D02*
X1935608Y1875591D01*
X1911986Y2151182D02*
X1923797Y2131497D01*
Y1889961D02*
Y2131497D01*
X1911986Y1875591D02*
X1923797Y1889961D01*
X1900175Y2131497D02*
X1911986Y2151182D01*
Y2136812D02*
Y2151182D01*
Y1895276D02*
Y2136812D01*
Y1875591D02*
Y1895276D01*
X1900175D02*
X1911986Y1875591D01*
X1545844Y1889961D02*
X1789939D01*
Y2136812D01*
X1545844D02*
X1789939D01*
X1545844Y1889961D02*
Y2136812D01*
X1721238Y1600197D02*
Y1672441D01*
Y1350985D02*
Y1600197D01*
Y1278740D02*
Y1350985D01*
X2053718Y1593701D02*
X2100962D01*
X2098994Y1357481D02*
X2100962Y1593701D01*
X2053718Y1357481D02*
X2098994D01*
X2041907D02*
X2053718Y1337795D01*
Y1613386D01*
X2041907Y1593701D02*
X2053718Y1613386D01*
X2030096Y1337795D02*
X2041907Y1357481D01*
Y1593701D01*
X2030096Y1613386D02*
X2041907Y1593701D01*
X2018285D02*
X2030096Y1613386D01*
Y1337795D02*
Y1613386D01*
X2018285Y1357481D02*
X2030096Y1337795D01*
X2006474Y1593701D02*
X2018285Y1613386D01*
Y1337795D02*
Y1613386D01*
X2006474Y1357481D02*
X2018285Y1337795D01*
X1994663D02*
X2006474Y1357481D01*
Y1613386D01*
X1994663Y1593701D02*
X2006474Y1613386D01*
X1982852Y1352166D02*
X1994663Y1337795D01*
Y1593701D01*
X1982852Y1613386D02*
X1994663Y1593701D01*
X1971041Y1599016D02*
X1982852Y1613386D01*
Y1352166D02*
Y1613386D01*
X1971041Y1337795D02*
X1982852Y1352166D01*
X1959230Y1613386D02*
X1971041Y1599016D01*
Y1337795D02*
Y1599016D01*
X1959230Y1352166D02*
X1971041Y1337795D01*
X1947419Y1599016D02*
X1959230Y1613386D01*
Y1599016D02*
Y1613386D01*
Y1357481D02*
Y1599016D01*
Y1337795D02*
Y1357481D01*
X1947419Y1352166D02*
X1959230Y1337795D01*
X1935608Y1593701D02*
X1947419Y1613386D01*
Y1593701D02*
Y1613386D01*
Y1357481D02*
Y1593701D01*
Y1337795D02*
Y1357481D01*
X1935608D02*
X1947419Y1337795D01*
X1923797Y1593701D02*
X1935608Y1613386D01*
Y1593701D02*
Y1613386D01*
Y1352166D02*
Y1593701D01*
Y1337795D02*
Y1352166D01*
X1923797D02*
X1935608Y1337795D01*
X1911986Y1613386D02*
X1923797Y1593701D01*
Y1352166D02*
Y1593701D01*
X1911986Y1337795D02*
X1923797Y1352166D01*
X1900175Y1593701D02*
X1911986Y1613386D01*
Y1599016D02*
Y1613386D01*
Y1357481D02*
Y1599016D01*
Y1337795D02*
Y1357481D01*
X1900175D02*
X1911986Y1337795D01*
X1545844Y1352166D02*
X1789939D01*
Y1599016D01*
X1545844D02*
X1789939D01*
X1545844Y1352166D02*
Y1599016D01*
X1721238Y1062402D02*
Y1134646D01*
Y813189D02*
Y1062402D01*
Y740945D02*
Y813189D01*
X2053718Y1055906D02*
X2100962D01*
X2098994Y819685D02*
X2100962Y1055906D01*
X2053718Y819685D02*
X2098994D01*
X2041907D02*
X2053718Y800000D01*
Y1075591D01*
X2041907Y1055906D02*
X2053718Y1075591D01*
X2030096Y800000D02*
X2041907Y819685D01*
Y1055906D01*
X2030096Y1075591D02*
X2041907Y1055906D01*
X2018285D02*
X2030096Y1075591D01*
Y800000D02*
Y1075591D01*
X2018285Y819685D02*
X2030096Y800000D01*
X2006474Y1055906D02*
X2018285Y1075591D01*
Y800000D02*
Y1075591D01*
X2006474Y819685D02*
X2018285Y800000D01*
X1994663D02*
X2006474Y819685D01*
Y1075591D01*
X1994663Y1055906D02*
X2006474Y1075591D01*
X1982852Y814370D02*
X1994663Y800000D01*
Y1055906D01*
X1982852Y1075591D02*
X1994663Y1055906D01*
X1971041Y1061221D02*
X1982852Y1075591D01*
Y814370D02*
Y1075591D01*
X1971041Y800000D02*
X1982852Y814370D01*
X1959230Y1075591D02*
X1971041Y1061221D01*
Y800000D02*
Y1061221D01*
X1959230Y814370D02*
X1971041Y800000D01*
X1947419Y1061221D02*
X1959230Y1075591D01*
Y1061221D02*
Y1075591D01*
Y819685D02*
Y1061221D01*
Y800000D02*
Y819685D01*
X1947419Y814370D02*
X1959230Y800000D01*
X1935608Y1055906D02*
X1947419Y1075591D01*
Y1055906D02*
Y1075591D01*
Y819685D02*
Y1055906D01*
Y800000D02*
Y819685D01*
X1935608D02*
X1947419Y800000D01*
X1923797Y1055906D02*
X1935608Y1075591D01*
Y1055906D02*
Y1075591D01*
Y814370D02*
Y1055906D01*
Y800000D02*
Y814370D01*
X1923797D02*
X1935608Y800000D01*
X1911986Y1075591D02*
X1923797Y1055906D01*
Y814370D02*
Y1055906D01*
X1911986Y800000D02*
X1923797Y814370D01*
X1900175Y1055906D02*
X1911986Y1075591D01*
Y1061221D02*
Y1075591D01*
Y819685D02*
Y1061221D01*
Y800000D02*
Y819685D01*
X1900175D02*
X1911986Y800000D01*
X1545844Y814370D02*
X1789939D01*
Y1061221D01*
X1545844D02*
X1789939D01*
X1545844Y814370D02*
Y1061221D01*
X1721238Y524606D02*
Y596850D01*
Y275394D02*
Y524606D01*
Y203150D02*
Y275394D01*
X2053718Y518110D02*
X2100962D01*
X2098994Y281890D02*
X2100962Y518110D01*
X2053718Y281890D02*
X2098994D01*
X2041907D02*
X2053718Y262205D01*
Y537795D01*
X2041907Y518110D02*
X2053718Y537795D01*
X2030096Y262205D02*
X2041907Y281890D01*
Y518110D01*
X2030096Y537795D02*
X2041907Y518110D01*
X2018285D02*
X2030096Y537795D01*
Y262205D02*
Y537795D01*
X2018285Y281890D02*
X2030096Y262205D01*
X2006474Y518110D02*
X2018285Y537795D01*
Y262205D02*
Y537795D01*
X2006474Y281890D02*
X2018285Y262205D01*
X1994663D02*
X2006474Y281890D01*
Y537795D01*
X1994663Y518110D02*
X2006474Y537795D01*
X1982852Y276575D02*
X1994663Y262205D01*
Y518110D01*
X1982852Y537795D02*
X1994663Y518110D01*
X1971041Y523425D02*
X1982852Y537795D01*
Y276575D02*
Y537795D01*
X1971041Y262205D02*
X1982852Y276575D01*
X1959230Y537795D02*
X1971041Y523425D01*
Y262205D02*
Y523425D01*
X1959230Y276575D02*
X1971041Y262205D01*
X1947419Y523425D02*
X1959230Y537795D01*
Y523425D02*
Y537795D01*
Y281890D02*
Y523425D01*
Y262205D02*
Y281890D01*
X1947419Y276575D02*
X1959230Y262205D01*
X1935608Y518110D02*
X1947419Y537795D01*
Y518110D02*
Y537795D01*
Y281890D02*
Y518110D01*
Y262205D02*
Y281890D01*
X1935608D02*
X1947419Y262205D01*
X1923797Y518110D02*
X1935608Y537795D01*
Y518110D02*
Y537795D01*
Y276575D02*
Y518110D01*
Y262205D02*
Y276575D01*
X1923797D02*
X1935608Y262205D01*
X1911986Y537795D02*
X1923797Y518110D01*
Y276575D02*
Y518110D01*
X1911986Y262205D02*
X1923797Y276575D01*
X1900175Y518110D02*
X1911986Y537795D01*
Y523425D02*
Y537795D01*
Y281890D02*
Y523425D01*
Y262205D02*
Y281890D01*
X1900175D02*
X1911986Y262205D01*
X1545844Y276575D02*
X1789939D01*
Y523425D01*
X1545844D02*
X1789939D01*
X1545844Y276575D02*
Y523425D01*
X197Y203150D02*
Y275394D01*
Y524606D01*
Y596850D01*
X-379528Y281890D02*
X-332284D01*
X-379528D02*
X-377559Y518110D01*
X-332284D01*
Y537795D02*
X-320473Y518110D01*
X-332284Y262205D02*
Y537795D01*
Y262205D02*
X-320473Y281890D01*
Y518110D02*
X-308662Y537795D01*
X-320473Y281890D02*
Y518110D01*
Y281890D02*
X-308662Y262205D01*
X-296851Y281890D01*
X-308662Y262205D02*
Y537795D01*
X-296851Y518110D01*
Y262205D02*
X-285040Y281890D01*
X-296851Y262205D02*
Y537795D01*
X-285040Y518110D01*
X-273229Y537795D01*
X-285040Y262205D02*
Y518110D01*
Y262205D02*
X-273229Y281890D01*
Y537795D02*
X-261418Y523425D01*
X-273229Y281890D02*
Y537795D01*
Y281890D02*
X-261418Y262205D01*
X-249607Y276575D01*
X-261418Y262205D02*
Y523425D01*
X-249607Y537795D01*
Y276575D02*
X-237796Y262205D01*
X-249607Y276575D02*
Y537795D01*
X-237796Y523425D01*
Y262205D02*
X-225984Y276575D01*
X-237796Y262205D02*
Y276575D01*
Y518110D01*
Y537795D01*
X-225984Y523425D01*
Y262205D02*
X-214173Y281890D01*
X-225984Y262205D02*
Y281890D01*
Y518110D01*
Y537795D01*
X-214173Y518110D01*
Y262205D02*
X-202363Y281890D01*
X-214173Y262205D02*
Y281890D01*
Y523425D01*
Y537795D01*
X-202363Y523425D01*
Y281890D02*
X-190552Y262205D01*
X-202363Y281890D02*
Y523425D01*
X-190552Y537795D01*
Y262205D02*
X-178740Y281890D01*
X-190552Y262205D02*
Y276575D01*
Y518110D01*
Y537795D01*
X-178740Y518110D01*
X-68504Y523425D02*
X175590D01*
X-68504Y276575D02*
Y523425D01*
Y276575D02*
X175590D01*
Y523425D01*
X197Y740945D02*
Y813189D01*
Y1062402D01*
Y1134646D01*
X-379528Y819685D02*
X-332284D01*
X-379528D02*
X-377559Y1055906D01*
X-332284D01*
Y1075591D02*
X-320473Y1055906D01*
X-332284Y800000D02*
Y1075591D01*
Y800000D02*
X-320473Y819685D01*
Y1055906D02*
X-308662Y1075591D01*
X-320473Y819685D02*
Y1055906D01*
Y819685D02*
X-308662Y800000D01*
X-296851Y819685D01*
X-308662Y800000D02*
Y1075591D01*
X-296851Y1055906D01*
Y800000D02*
X-285040Y819685D01*
X-296851Y800000D02*
Y1075591D01*
X-285040Y1055906D01*
X-273229Y1075591D01*
X-285040Y800000D02*
Y1055906D01*
Y800000D02*
X-273229Y819685D01*
Y1075591D02*
X-261418Y1061221D01*
X-273229Y819685D02*
Y1075591D01*
Y819685D02*
X-261418Y800000D01*
X-249607Y814370D01*
X-261418Y800000D02*
Y1061221D01*
X-249607Y1075591D01*
Y814370D02*
X-237796Y800000D01*
X-249607Y814370D02*
Y1075591D01*
X-237796Y1061221D01*
Y800000D02*
X-225984Y814370D01*
X-237796Y800000D02*
Y814370D01*
Y1055906D01*
Y1075591D01*
X-225984Y1061221D01*
Y800000D02*
X-214173Y819685D01*
X-225984Y800000D02*
Y819685D01*
Y1055906D01*
Y1075591D01*
X-214173Y1055906D01*
Y800000D02*
X-202363Y819685D01*
X-214173Y800000D02*
Y819685D01*
Y1061221D01*
Y1075591D01*
X-202363Y1061221D01*
Y819685D02*
X-190552Y800000D01*
X-202363Y819685D02*
Y1061221D01*
X-190552Y1075591D01*
Y800000D02*
X-178740Y819685D01*
X-190552Y800000D02*
Y814370D01*
Y1055906D01*
Y1075591D01*
X-178740Y1055906D01*
X-68504Y1061221D02*
X175590D01*
X-68504Y814370D02*
Y1061221D01*
Y814370D02*
X175590D01*
Y1061221D01*
X197Y1278740D02*
Y1350985D01*
Y1600197D01*
Y1672441D01*
X-379528Y1357481D02*
X-332284D01*
X-379528D02*
X-377559Y1593701D01*
X-332284D01*
Y1613386D02*
X-320473Y1593701D01*
X-332284Y1337795D02*
Y1613386D01*
Y1337795D02*
X-320473Y1357481D01*
Y1593701D02*
X-308662Y1613386D01*
X-320473Y1357481D02*
Y1593701D01*
Y1357481D02*
X-308662Y1337795D01*
X-296851Y1357481D01*
X-308662Y1337795D02*
Y1613386D01*
X-296851Y1593701D01*
Y1337795D02*
X-285040Y1357481D01*
X-296851Y1337795D02*
Y1613386D01*
X-285040Y1593701D01*
X-273229Y1613386D01*
X-285040Y1337795D02*
Y1593701D01*
Y1337795D02*
X-273229Y1357481D01*
Y1613386D02*
X-261418Y1599016D01*
X-273229Y1357481D02*
Y1613386D01*
Y1357481D02*
X-261418Y1337795D01*
X-249607Y1352166D01*
X-261418Y1337795D02*
Y1599016D01*
X-249607Y1613386D01*
Y1352166D02*
X-237796Y1337795D01*
X-249607Y1352166D02*
Y1613386D01*
X-237796Y1599016D01*
Y1337795D02*
X-225984Y1352166D01*
X-237796Y1337795D02*
Y1352166D01*
Y1593701D01*
Y1613386D01*
X-225984Y1599016D01*
Y1337795D02*
X-214173Y1357481D01*
X-225984Y1337795D02*
Y1357481D01*
Y1593701D01*
Y1613386D01*
X-214173Y1593701D01*
Y1337795D02*
X-202363Y1357481D01*
X-214173Y1337795D02*
Y1357481D01*
Y1599016D01*
Y1613386D01*
X-202363Y1599016D01*
Y1357481D02*
X-190552Y1337795D01*
X-202363Y1357481D02*
Y1599016D01*
X-190552Y1613386D01*
Y1337795D02*
X-178740Y1357481D01*
X-190552Y1337795D02*
Y1352166D01*
Y1593701D01*
Y1613386D01*
X-178740Y1593701D01*
X-68504Y1599016D02*
X175590D01*
X-68504Y1352166D02*
Y1599016D01*
Y1352166D02*
X175590D01*
Y1599016D01*
X197Y1816536D02*
Y1888780D01*
Y2137993D01*
Y2210237D01*
X-379528Y1895276D02*
X-332284D01*
X-379528D02*
X-377559Y2131497D01*
X-332284D01*
Y2151182D02*
X-320473Y2131497D01*
X-332284Y1875591D02*
Y2151182D01*
Y1875591D02*
X-320473Y1895276D01*
Y2131497D02*
X-308662Y2151182D01*
X-320473Y1895276D02*
Y2131497D01*
Y1895276D02*
X-308662Y1875591D01*
X-296851Y1895276D01*
X-308662Y1875591D02*
Y2151182D01*
X-296851Y2131497D01*
Y1875591D02*
X-285040Y1895276D01*
X-296851Y1875591D02*
Y2151182D01*
X-285040Y2131497D01*
X-273229Y2151182D01*
X-285040Y1875591D02*
Y2131497D01*
Y1875591D02*
X-273229Y1895276D01*
Y2151182D02*
X-261418Y2136812D01*
X-273229Y1895276D02*
Y2151182D01*
Y1895276D02*
X-261418Y1875591D01*
X-249607Y1889961D01*
X-261418Y1875591D02*
Y2136812D01*
X-249607Y2151182D01*
Y1889961D02*
X-237796Y1875591D01*
X-249607Y1889961D02*
Y2151182D01*
X-237796Y2136812D01*
Y1875591D02*
X-225984Y1889961D01*
X-237796Y1875591D02*
Y1889961D01*
Y2131497D01*
Y2151182D01*
X-225984Y2136812D01*
Y1875591D02*
X-214173Y1895276D01*
X-225984Y1875591D02*
Y1895276D01*
Y2131497D01*
Y2151182D01*
X-214173Y2131497D01*
Y1875591D02*
X-202363Y1895276D01*
X-214173Y1875591D02*
Y1895276D01*
Y2136812D01*
Y2151182D01*
X-202363Y2136812D01*
Y1895276D02*
X-190552Y1875591D01*
X-202363Y1895276D02*
Y2136812D01*
X-190552Y2151182D01*
Y1875591D02*
X-178740Y1895276D01*
X-190552Y1875591D02*
Y1889961D01*
Y2131497D01*
Y2151182D01*
X-178740Y2131497D01*
X-68504Y2136812D02*
X175590D01*
X-68504Y1889961D02*
Y2136812D01*
Y1889961D02*
X175590D01*
Y2136812D01*
X952648Y1246454D02*
X977452D01*
X952648Y1259446D02*
X977452D01*
X952648Y1246454D02*
Y1259446D01*
X977452Y1246454D02*
Y1259446D01*
X883993Y1128411D02*
X896985D01*
X883993Y1153214D02*
X896985D01*
X883993Y1128411D02*
Y1153214D01*
X896985Y1128411D02*
Y1153214D01*
X779384Y1267394D02*
X801825D01*
X779384Y1308733D02*
X801825D01*
X779384Y1267394D02*
Y1308733D01*
X801825Y1267394D02*
Y1308733D01*
X921737D02*
X944178D01*
X921737Y1267394D02*
X944178D01*
Y1308733D01*
X921737Y1267394D02*
Y1308733D01*
X801662Y1158370D02*
Y1276480D01*
X919772D01*
Y1158370D02*
Y1276480D01*
X801662Y1158370D02*
X919772D01*
X801662Y1178054D02*
X821347Y1158370D01*
X768532Y1246362D02*
Y1259354D01*
X743728Y1246362D02*
Y1259354D01*
X768532D01*
X743728Y1246362D02*
X768532D01*
D13*
X964654Y2288223D02*
G03*
X964654Y2288223I-3937J0D01*
G01*
D14*
X1060717Y2076805D02*
Y2399640D01*
X660717D02*
X1060717D01*
X660717Y2076805D02*
Y2399640D01*
Y2076805D02*
X1060717D01*
D59*
X1299065Y8009D02*
Y32001D01*
X1311061D01*
X1315060Y28002D01*
Y20005D01*
X1311061Y16006D01*
X1299065D01*
X1339052Y28002D02*
X1335053Y32001D01*
X1327056D01*
X1323057Y28002D01*
Y12008D01*
X1327056Y8009D01*
X1335053D01*
X1339052Y12008D01*
X1347050Y32001D02*
Y8009D01*
X1359046D01*
X1363044Y12008D01*
Y16006D01*
X1359046Y20005D01*
X1347050D01*
X1359046D01*
X1363044Y24004D01*
Y28002D01*
X1359046Y32001D01*
X1347050D01*
X1411029D02*
X1395034D01*
Y8009D01*
X1411029D01*
X1395034Y20005D02*
X1403031D01*
X1419026Y32001D02*
Y8009D01*
X1431022D01*
X1435021Y12008D01*
Y28002D01*
X1431022Y32001D01*
X1419026D01*
X1459013Y28002D02*
X1455014Y32001D01*
X1447017D01*
X1443018Y28002D01*
Y12008D01*
X1447017Y8009D01*
X1455014D01*
X1459013Y12008D01*
Y20005D01*
X1451016D01*
X1483005Y32001D02*
X1467011D01*
Y8009D01*
X1483005D01*
X1467011Y20005D02*
X1475008D01*
X761269Y8008D02*
Y32001D01*
X773266D01*
X777264Y28002D01*
Y20004D01*
X773266Y16006D01*
X761269D01*
X801256Y28002D02*
X797258Y32001D01*
X789260D01*
X785262Y28002D01*
Y12007D01*
X789260Y8008D01*
X797258D01*
X801256Y12007D01*
X809254Y32001D02*
Y8008D01*
X821250D01*
X825249Y12007D01*
Y16006D01*
X821250Y20004D01*
X809254D01*
X821250D01*
X825249Y24003D01*
Y28002D01*
X821250Y32001D01*
X809254D01*
X873233D02*
X857238D01*
Y8008D01*
X873233D01*
X857238Y20004D02*
X865236D01*
X881231Y32001D02*
Y8008D01*
X893227D01*
X897225Y12007D01*
Y28002D01*
X893227Y32001D01*
X881231D01*
X921217Y28002D02*
X917219Y32001D01*
X909221D01*
X905223Y28002D01*
Y12007D01*
X909221Y8008D01*
X917219D01*
X921217Y12007D01*
Y20004D01*
X913220D01*
X945210Y32001D02*
X929215D01*
Y8008D01*
X945210D01*
X929215Y20004D02*
X937212D01*
X1713426Y2182837D02*
X1689434D01*
Y2194833D01*
X1693433Y2198831D01*
X1701430D01*
X1705429Y2194833D01*
Y2182837D01*
X1693433Y2222824D02*
X1689434Y2218825D01*
Y2210827D01*
X1693433Y2206829D01*
X1709428D01*
X1713426Y2210827D01*
Y2218825D01*
X1709428Y2222824D01*
X1689434Y2230821D02*
X1713426D01*
Y2242817D01*
X1709428Y2246816D01*
X1705429D01*
X1701430Y2242817D01*
Y2230821D01*
Y2242817D01*
X1697431Y2246816D01*
X1693433D01*
X1689434Y2242817D01*
Y2230821D01*
Y2294800D02*
Y2278805D01*
X1713426D01*
Y2294800D01*
X1701430Y2278805D02*
Y2286803D01*
X1689434Y2302798D02*
X1713426D01*
Y2314794D01*
X1709428Y2318792D01*
X1693433D01*
X1689434Y2314794D01*
Y2302798D01*
X1693433Y2342785D02*
X1689434Y2338786D01*
Y2330789D01*
X1693433Y2326790D01*
X1709428D01*
X1713426Y2330789D01*
Y2338786D01*
X1709428Y2342785D01*
X1701430D01*
Y2334787D01*
X1689434Y2366777D02*
Y2350782D01*
X1713426D01*
Y2366777D01*
X1701430Y2350782D02*
Y2358779D01*
X1713426Y1645041D02*
X1689434D01*
Y1657037D01*
X1693433Y1661036D01*
X1701430D01*
X1705429Y1657037D01*
Y1645041D01*
X1693433Y1685028D02*
X1689434Y1681029D01*
Y1673032D01*
X1693433Y1669033D01*
X1709428D01*
X1713426Y1673032D01*
Y1681029D01*
X1709428Y1685028D01*
X1689434Y1693025D02*
X1713426D01*
Y1705021D01*
X1709428Y1709020D01*
X1705429D01*
X1701430Y1705021D01*
Y1693025D01*
Y1705021D01*
X1697431Y1709020D01*
X1693433D01*
X1689434Y1705021D01*
Y1693025D01*
Y1757004D02*
Y1741010D01*
X1713426D01*
Y1757004D01*
X1701430Y1741010D02*
Y1749007D01*
X1689434Y1765002D02*
X1713426D01*
Y1776998D01*
X1709428Y1780997D01*
X1693433D01*
X1689434Y1776998D01*
Y1765002D01*
X1693433Y1804989D02*
X1689434Y1800990D01*
Y1792993D01*
X1693433Y1788994D01*
X1709428D01*
X1713426Y1792993D01*
Y1800990D01*
X1709428Y1804989D01*
X1701430D01*
Y1796991D01*
X1689434Y1828981D02*
Y1812986D01*
X1713426D01*
Y1828981D01*
X1701430Y1812986D02*
Y1820984D01*
X1713426Y1107245D02*
X1689434D01*
Y1119242D01*
X1693433Y1123240D01*
X1701430D01*
X1705429Y1119242D01*
Y1107245D01*
X1693433Y1147233D02*
X1689434Y1143234D01*
Y1135236D01*
X1693433Y1131238D01*
X1709428D01*
X1713426Y1135236D01*
Y1143234D01*
X1709428Y1147233D01*
X1689434Y1155230D02*
X1713426D01*
Y1167226D01*
X1709428Y1171225D01*
X1705429D01*
X1701430Y1167226D01*
Y1155230D01*
Y1167226D01*
X1697431Y1171225D01*
X1693433D01*
X1689434Y1167226D01*
Y1155230D01*
Y1219209D02*
Y1203214D01*
X1713426D01*
Y1219209D01*
X1701430Y1203214D02*
Y1211212D01*
X1689434Y1227207D02*
X1713426D01*
Y1239203D01*
X1709428Y1243201D01*
X1693433D01*
X1689434Y1239203D01*
Y1227207D01*
X1693433Y1267194D02*
X1689434Y1263195D01*
Y1255197D01*
X1693433Y1251199D01*
X1709428D01*
X1713426Y1255197D01*
Y1263195D01*
X1709428Y1267194D01*
X1701430D01*
Y1259196D01*
X1689434Y1291186D02*
Y1275191D01*
X1713426D01*
Y1291186D01*
X1701430Y1275191D02*
Y1283188D01*
X1713426Y569450D02*
X1689434D01*
Y581446D01*
X1693433Y585445D01*
X1701430D01*
X1705429Y581446D01*
Y569450D01*
X1693433Y609437D02*
X1689434Y605438D01*
Y597441D01*
X1693433Y593442D01*
X1709428D01*
X1713426Y597441D01*
Y605438D01*
X1709428Y609437D01*
X1689434Y617434D02*
X1713426D01*
Y629431D01*
X1709428Y633429D01*
X1705429D01*
X1701430Y629431D01*
Y617434D01*
Y629431D01*
X1697431Y633429D01*
X1693433D01*
X1689434Y629431D01*
Y617434D01*
Y681414D02*
Y665419D01*
X1713426D01*
Y681414D01*
X1701430Y665419D02*
Y673416D01*
X1689434Y689411D02*
X1713426D01*
Y701407D01*
X1709428Y705406D01*
X1693433D01*
X1689434Y701407D01*
Y689411D01*
X1693433Y729398D02*
X1689434Y725399D01*
Y717402D01*
X1693433Y713403D01*
X1709428D01*
X1713426Y717402D01*
Y725399D01*
X1709428Y729398D01*
X1701430D01*
Y721401D01*
X1689434Y753390D02*
Y737395D01*
X1713426D01*
Y753390D01*
X1701430Y737395D02*
Y745393D01*
X8008Y230550D02*
X32001D01*
Y218554D01*
X28002Y214555D01*
X20004D01*
X16006Y218554D01*
Y230550D01*
X28002Y190563D02*
X32001Y194562D01*
Y202559D01*
X28002Y206558D01*
X12007D01*
X8008Y202559D01*
Y194562D01*
X12007Y190563D01*
X32001Y182566D02*
X8008D01*
Y170570D01*
X12007Y166571D01*
X16006D01*
X20004Y170570D01*
Y182566D01*
Y170570D01*
X24003Y166571D01*
X28002D01*
X32001Y170570D01*
Y182566D01*
Y118586D02*
Y134581D01*
X8008D01*
Y118586D01*
X20004Y134581D02*
Y126584D01*
X32001Y110589D02*
X8008D01*
Y98593D01*
X12007Y94594D01*
X28002D01*
X32001Y98593D01*
Y110589D01*
X28002Y70602D02*
X32001Y74601D01*
Y82598D01*
X28002Y86597D01*
X12007D01*
X8008Y82598D01*
Y74601D01*
X12007Y70602D01*
X20004D01*
Y78599D01*
X32001Y46610D02*
Y62605D01*
X8008D01*
Y46610D01*
X20004Y62605D02*
Y54607D01*
X8008Y768346D02*
X32001D01*
Y756349D01*
X28002Y752351D01*
X20004D01*
X16006Y756349D01*
Y768346D01*
X28002Y728359D02*
X32001Y732357D01*
Y740355D01*
X28002Y744353D01*
X12007D01*
X8008Y740355D01*
Y732357D01*
X12007Y728359D01*
X32001Y720361D02*
X8008D01*
Y708365D01*
X12007Y704366D01*
X16006D01*
X20004Y708365D01*
Y720361D01*
Y708365D01*
X24003Y704366D01*
X28002D01*
X32001Y708365D01*
Y720361D01*
Y656382D02*
Y672377D01*
X8008D01*
Y656382D01*
X20004Y672377D02*
Y664379D01*
X32001Y648385D02*
X8008D01*
Y636388D01*
X12007Y632390D01*
X28002D01*
X32001Y636388D01*
Y648385D01*
X28002Y608398D02*
X32001Y612396D01*
Y620394D01*
X28002Y624392D01*
X12007D01*
X8008Y620394D01*
Y612396D01*
X12007Y608398D01*
X20004D01*
Y616395D01*
X32001Y584405D02*
Y600400D01*
X8008D01*
Y584405D01*
X20004Y600400D02*
Y592403D01*
X8008Y1306141D02*
X32001D01*
Y1294145D01*
X28002Y1290146D01*
X20004D01*
X16006Y1294145D01*
Y1306141D01*
X28002Y1266154D02*
X32001Y1270152D01*
Y1278150D01*
X28002Y1282149D01*
X12007D01*
X8008Y1278150D01*
Y1270152D01*
X12007Y1266154D01*
X32001Y1258156D02*
X8008D01*
Y1246160D01*
X12007Y1242162D01*
X16006D01*
X20004Y1246160D01*
Y1258156D01*
Y1246160D01*
X24003Y1242162D01*
X28002D01*
X32001Y1246160D01*
Y1258156D01*
Y1194177D02*
Y1210172D01*
X8008D01*
Y1194177D01*
X20004Y1210172D02*
Y1202175D01*
X32001Y1186180D02*
X8008D01*
Y1174184D01*
X12007Y1170185D01*
X28002D01*
X32001Y1174184D01*
Y1186180D01*
X28002Y1146193D02*
X32001Y1150191D01*
Y1158189D01*
X28002Y1162188D01*
X12007D01*
X8008Y1158189D01*
Y1150191D01*
X12007Y1146193D01*
X20004D01*
Y1154190D01*
X32001Y1122201D02*
Y1138195D01*
X8008D01*
Y1122201D01*
X20004Y1138195D02*
Y1130198D01*
X8008Y1843937D02*
X32001D01*
Y1831940D01*
X28002Y1827942D01*
X20004D01*
X16006Y1831940D01*
Y1843937D01*
X28002Y1803950D02*
X32001Y1807948D01*
Y1815946D01*
X28002Y1819944D01*
X12007D01*
X8008Y1815946D01*
Y1807948D01*
X12007Y1803950D01*
X32001Y1795952D02*
X8008D01*
Y1783956D01*
X12007Y1779957D01*
X16006D01*
X20004Y1783956D01*
Y1795952D01*
Y1783956D01*
X24003Y1779957D01*
X28002D01*
X32001Y1783956D01*
Y1795952D01*
Y1731973D02*
Y1747968D01*
X8008D01*
Y1731973D01*
X20004Y1747968D02*
Y1739970D01*
X32001Y1723976D02*
X8008D01*
Y1711979D01*
X12007Y1707981D01*
X28002D01*
X32001Y1711979D01*
Y1723976D01*
X28002Y1683989D02*
X32001Y1687987D01*
Y1695985D01*
X28002Y1699983D01*
X12007D01*
X8008Y1695985D01*
Y1687987D01*
X12007Y1683989D01*
X20004D01*
Y1691986D01*
X32001Y1659996D02*
Y1675991D01*
X8008D01*
Y1659996D01*
X20004Y1675991D02*
Y1667994D01*
M02*
