G04*
G04 #@! TF.GenerationSoftware,Altium Limited,Altium Designer,24.2.2 (26)*
G04*
G04 Layer_Color=8421504*
%FSLAX26Y26*%
%MOIN*%
G70*
G04*
G04 #@! TF.SameCoordinates,6E19E911-B848-4C60-9216-CC5A1203C33B*
G04*
G04*
G04 #@! TF.FilePolarity,Positive*
G04*
G01*
G75*
%ADD17R,0.005181X0.040000*%
%ADD18R,0.141732X0.200754*%
%ADD19R,0.040000X0.005181*%
%ADD20R,0.200754X0.141732*%
%ADD21R,0.037402X0.039370*%
%ADD22R,0.023622X0.004921*%
%ADD23R,0.072835X0.072835*%
%ADD24R,0.029528X0.011811*%
%ADD25R,0.011811X0.029528*%
G36*
X573709Y16962D02*
X566819Y-0D01*
X431977D01*
Y16962D01*
X573709D01*
D02*
G37*
G36*
X609930Y16962D02*
X616819Y0D01*
X751662D01*
Y16962D01*
X609930D01*
D02*
G37*
G36*
X16962Y381890D02*
X0Y375000D01*
Y240157D01*
X16962D01*
Y381890D01*
D02*
G37*
G36*
X16962Y418110D02*
X-0Y425000D01*
Y559843D01*
X16962D01*
Y418110D01*
D02*
G37*
G36*
X16962Y919685D02*
X0Y912795D01*
Y777953D01*
X16962D01*
Y919685D01*
D02*
G37*
G36*
X1111505Y16962D02*
X1104615Y0D01*
X969773D01*
Y16962D01*
X1111505D01*
D02*
G37*
G36*
X1147725Y16963D02*
X1154615Y1D01*
X1289458D01*
Y16963D01*
X1147725D01*
D02*
G37*
G36*
X1704473Y381890D02*
X1721435Y375000D01*
Y240157D01*
X1704473D01*
Y381890D01*
D02*
G37*
G36*
X1704472Y418110D02*
X1721434Y425000D01*
Y559843D01*
X1704472D01*
Y418110D01*
D02*
G37*
G36*
X1704473Y919685D02*
X1721435Y912795D01*
Y777953D01*
X1704473D01*
Y919685D01*
D02*
G37*
G36*
X16962Y955906D02*
X-0Y962795D01*
Y1097638D01*
X16962D01*
Y955906D01*
D02*
G37*
G36*
X16962Y1457481D02*
X0Y1450591D01*
Y1315748D01*
X16962D01*
Y1457481D01*
D02*
G37*
G36*
X16962Y1493701D02*
X-0Y1500591D01*
Y1635433D01*
X16962D01*
Y1493701D01*
D02*
G37*
G36*
X16962Y1995276D02*
X0Y1988387D01*
Y1853544D01*
X16962D01*
Y1995276D01*
D02*
G37*
G36*
X16962Y2031497D02*
X-0Y2038387D01*
Y2173229D01*
X16962D01*
Y2031497D01*
D02*
G37*
G36*
X1704472Y955906D02*
X1721434Y962795D01*
Y1097638D01*
X1704472D01*
Y955906D01*
D02*
G37*
G36*
X1704473Y1457481D02*
X1721435Y1450591D01*
Y1315748D01*
X1704473D01*
Y1457481D01*
D02*
G37*
G36*
X1704472Y1493701D02*
X1721434Y1500591D01*
Y1635433D01*
X1704472D01*
Y1493701D01*
D02*
G37*
G36*
X1704473Y1995276D02*
X1721435Y1988387D01*
Y1853544D01*
X1704473D01*
Y1995276D01*
D02*
G37*
G36*
X1704472Y2031497D02*
X1721434Y2038387D01*
Y2173229D01*
X1704472D01*
Y2031497D01*
D02*
G37*
D17*
X1129615Y20000D02*
D03*
X591819Y20000D02*
D03*
D18*
X1218591Y117340D02*
D03*
X1040639D02*
D03*
X680796Y117339D02*
D03*
X502843D02*
D03*
D19*
X1701435Y400000D02*
D03*
Y937795D02*
D03*
Y1475591D02*
D03*
Y2013387D02*
D03*
X20000D02*
D03*
Y1475591D02*
D03*
Y937795D02*
D03*
Y400000D02*
D03*
D20*
X1604096Y488976D02*
D03*
Y311024D02*
D03*
Y1026772D02*
D03*
Y848819D02*
D03*
Y1564567D02*
D03*
Y1386614D02*
D03*
Y2102363D02*
D03*
Y1924410D02*
D03*
X117339D02*
D03*
Y2102363D02*
D03*
Y1386614D02*
D03*
Y1564567D02*
D03*
Y848819D02*
D03*
Y1026772D02*
D03*
Y311024D02*
D03*
Y488976D02*
D03*
D21*
X711960Y1295018D02*
D03*
X648967D02*
D03*
X1009475D02*
D03*
X1072467D02*
D03*
D22*
X756130Y1247897D02*
D03*
Y1257819D02*
D03*
X965050Y1257911D02*
D03*
Y1247989D02*
D03*
D23*
X860717Y1217425D02*
D03*
D24*
X801662Y1187897D02*
D03*
Y1207582D02*
D03*
Y1227267D02*
D03*
Y1246952D02*
D03*
X919772D02*
D03*
Y1227267D02*
D03*
Y1207582D02*
D03*
Y1187897D02*
D03*
D25*
X831190Y1276480D02*
D03*
X850875D02*
D03*
X870560D02*
D03*
X890245D02*
D03*
Y1158370D02*
D03*
X870560D02*
D03*
X850875D02*
D03*
X831190D02*
D03*
M02*
