G04*
G04 #@! TF.GenerationSoftware,Altium Limited,Altium Designer,24.2.2 (26)*
G04*
G04 Layer_Physical_Order=4*
G04 Layer_Color=16711680*
%FSLAX26Y26*%
%MOIN*%
G70*
G04*
G04 #@! TF.SameCoordinates,B184214D-E36B-41BB-B0D7-08C86D9F1EC7*
G04*
G04*
G04 #@! TF.FilePolarity,Positive*
G04*
G01*
G75*
%ADD14C,0.005000*%
%ADD29C,0.066929*%
%ADD30R,0.066929X0.066929*%
%ADD31C,0.064961*%
%ADD32R,0.064961X0.064961*%
%ADD39C,0.039370*%
%ADD42C,0.023622*%
%ADD43C,0.019685*%
%ADD53R,0.045276X0.106299*%
%ADD54R,0.004921X0.023622*%
%ADD55R,0.011811X0.047244*%
%ADD56R,0.037114X0.031639*%
%ADD57C,0.069000*%
G36*
X1721435Y2434848D02*
Y0D01*
X0D01*
Y2434849D01*
X1721435Y2434848D01*
D02*
G37*
%LPC*%
G36*
X770717Y2273315D02*
Y2248223D01*
X795810D01*
X795316Y2249819D01*
X794743Y2251404D01*
X794098Y2252962D01*
X793382Y2254488D01*
X792596Y2255979D01*
X791742Y2257432D01*
X790822Y2258845D01*
X789837Y2260213D01*
X788790Y2261534D01*
X787684Y2262806D01*
X786520Y2264025D01*
X785301Y2265189D01*
X784029Y2266296D01*
X782707Y2267342D01*
X781339Y2268327D01*
X779927Y2269247D01*
X778473Y2270101D01*
X776982Y2270887D01*
X775456Y2271604D01*
X773899Y2272249D01*
X772313Y2272821D01*
X770717Y2273315D01*
D02*
G37*
G36*
X750717Y2273315D02*
X749121Y2272821D01*
X747536Y2272249D01*
X745978Y2271604D01*
X744452Y2270887D01*
X742961Y2270101D01*
X741508Y2269247D01*
X740096Y2268327D01*
X738727Y2267342D01*
X737406Y2266296D01*
X736134Y2265189D01*
X734915Y2264025D01*
X733751Y2262806D01*
X732644Y2261534D01*
X731598Y2260213D01*
X730613Y2258845D01*
X729693Y2257432D01*
X728839Y2255979D01*
X728053Y2254488D01*
X727337Y2252962D01*
X726691Y2251404D01*
X726119Y2249819D01*
X725625Y2248223D01*
X750717D01*
Y2273315D01*
D02*
G37*
G36*
X795810Y2228223D02*
X770717D01*
Y2203130D01*
X772313Y2203624D01*
X773899Y2204197D01*
X775456Y2204842D01*
X776982Y2205558D01*
X778473Y2206344D01*
X779927Y2207198D01*
X781339Y2208119D01*
X782707Y2209103D01*
X784029Y2210150D01*
X785301Y2211256D01*
X786520Y2212420D01*
X787684Y2213640D01*
X788790Y2214911D01*
X789837Y2216233D01*
X790822Y2217601D01*
X791742Y2219013D01*
X792596Y2220466D01*
X793382Y2221958D01*
X794098Y2223484D01*
X794743Y2225041D01*
X795316Y2226626D01*
X795810Y2228223D01*
D02*
G37*
G36*
X750717D02*
X725625D01*
X726119Y2226626D01*
X726691Y2225041D01*
X727337Y2223484D01*
X728053Y2221958D01*
X728839Y2220466D01*
X729693Y2219013D01*
X730613Y2217601D01*
X731598Y2216233D01*
X732644Y2214911D01*
X733751Y2213640D01*
X734915Y2212420D01*
X736134Y2211256D01*
X737406Y2210150D01*
X738727Y2209103D01*
X740096Y2208119D01*
X741508Y2207198D01*
X742961Y2206344D01*
X744452Y2205558D01*
X745978Y2204842D01*
X747536Y2204197D01*
X749121Y2203624D01*
X750717Y2203130D01*
Y2228223D01*
D02*
G37*
G36*
X828300Y2178754D02*
X814162D01*
Y2134104D01*
X828300D01*
Y2178754D01*
D02*
G37*
G36*
X789162D02*
X775024D01*
Y2134104D01*
X789162D01*
Y2178754D01*
D02*
G37*
G36*
X828300Y2109104D02*
X814162D01*
Y2064455D01*
X828300D01*
Y2109104D01*
D02*
G37*
G36*
X789162D02*
X775024D01*
Y2064455D01*
X789162D01*
Y2109104D01*
D02*
G37*
G36*
X1044458Y2295336D02*
X873584D01*
X873061Y2295302D01*
X872547Y2295199D01*
X872050Y2295031D01*
X871580Y2294799D01*
X871144Y2294508D01*
X870750Y2294162D01*
X870404Y2293768D01*
X870113Y2293332D01*
X869881Y2292861D01*
X869712Y2292365D01*
X869610Y2291851D01*
X869576Y2291327D01*
Y2046534D01*
X869610Y2046010D01*
X869712Y2045496D01*
X869881Y2044999D01*
X870113Y2044529D01*
X870404Y2044093D01*
X870750Y2043699D01*
X871144Y2043353D01*
X871580Y2043062D01*
X872050Y2042830D01*
X872547Y2042661D01*
X873061Y2042559D01*
X873584Y2042525D01*
X1044458D01*
X1044981Y2042559D01*
X1045495Y2042661D01*
X1045992Y2042830D01*
X1046462Y2043062D01*
X1046898Y2043353D01*
X1047292Y2043699D01*
X1047638Y2044093D01*
X1047929Y2044529D01*
X1048161Y2044999D01*
X1048330Y2045496D01*
X1048432Y2046010D01*
X1048466Y2046534D01*
Y2291327D01*
X1048432Y2291851D01*
X1048330Y2292365D01*
X1048161Y2292861D01*
X1047929Y2293332D01*
X1047638Y2293768D01*
X1047292Y2294162D01*
X1046898Y2294508D01*
X1046462Y2294799D01*
X1045992Y2295031D01*
X1045495Y2295199D01*
X1044981Y2295302D01*
X1044458Y2295336D01*
D02*
G37*
G36*
X847639Y1999348D02*
X772710D01*
Y1924419D01*
X847639D01*
Y1999348D01*
D02*
G37*
G36*
X910174Y1999358D02*
X908443Y1999318D01*
X906716Y1999198D01*
X904997Y1998999D01*
X903288Y1998720D01*
X901594Y1998363D01*
X899919Y1997928D01*
X898265Y1997416D01*
X896637Y1996828D01*
X895037Y1996165D01*
X893470Y1995430D01*
X891939Y1994622D01*
X890446Y1993745D01*
X888996Y1992800D01*
X887591Y1991789D01*
X886234Y1990714D01*
X884928Y1989578D01*
X883676Y1988382D01*
X882480Y1987130D01*
X881344Y1985824D01*
X880269Y1984467D01*
X879258Y1983062D01*
X878312Y1981612D01*
X877435Y1980119D01*
X876628Y1978588D01*
X875893Y1977021D01*
X875230Y1975421D01*
X874642Y1973793D01*
X874130Y1972139D01*
X873695Y1970464D01*
X873338Y1968770D01*
X873059Y1967061D01*
X872859Y1965342D01*
X872740Y1963615D01*
X872699Y1961884D01*
X872740Y1960153D01*
X872859Y1958426D01*
X873059Y1956707D01*
X873338Y1954998D01*
X873695Y1953304D01*
X874130Y1951629D01*
X874642Y1949975D01*
X875230Y1948347D01*
X875893Y1946747D01*
X876628Y1945180D01*
X877435Y1943649D01*
X878312Y1942156D01*
X879258Y1940706D01*
X879481Y1940395D01*
X871605Y1932518D01*
X871176Y1932045D01*
X870795Y1931532D01*
X870467Y1930984D01*
X870194Y1930407D01*
X869979Y1929805D01*
X869824Y1929186D01*
X869730Y1928554D01*
X869699Y1927916D01*
Y1373571D01*
X869730Y1372933D01*
X869824Y1372301D01*
X869979Y1371682D01*
X870194Y1371080D01*
X870467Y1370503D01*
X870795Y1369955D01*
X871176Y1369442D01*
X871605Y1368969D01*
X874376Y1366197D01*
Y1358050D01*
X856116Y1339790D01*
X855687Y1339316D01*
X855306Y1338803D01*
X854978Y1338256D01*
X854705Y1337678D01*
X854490Y1337077D01*
X854335Y1336457D01*
X854241Y1335826D01*
X854210Y1335188D01*
Y1291981D01*
X854241Y1291343D01*
X854335Y1290711D01*
X854490Y1290092D01*
X854705Y1289491D01*
X854978Y1288913D01*
X855306Y1288365D01*
X855687Y1287852D01*
X856116Y1287379D01*
X913265Y1230230D01*
Y1189590D01*
X913296Y1188952D01*
X913390Y1188321D01*
X913545Y1187701D01*
X913760Y1187100D01*
X914033Y1186523D01*
X914361Y1185975D01*
X914742Y1185462D01*
X915171Y1184989D01*
X924646Y1175514D01*
X924600Y1175375D01*
X924355Y1174417D01*
X924180Y1173444D01*
X924074Y1172461D01*
X924039Y1171473D01*
X924074Y1170485D01*
X924180Y1169502D01*
X924355Y1168528D01*
X924600Y1167570D01*
X924912Y1166632D01*
X925290Y1165719D01*
X925733Y1164834D01*
X926237Y1163984D01*
X926802Y1163172D01*
X927422Y1162402D01*
X928096Y1161678D01*
X928819Y1161005D01*
X929589Y1160384D01*
X930401Y1159820D01*
X931252Y1159316D01*
X932136Y1158873D01*
X933049Y1158495D01*
X933988Y1158182D01*
X934946Y1157938D01*
X935919Y1157762D01*
X936902Y1157657D01*
X937890Y1157621D01*
X938878Y1157657D01*
X939861Y1157762D01*
X940834Y1157938D01*
X941792Y1158182D01*
X942731Y1158495D01*
X943644Y1158873D01*
X944528Y1159316D01*
X945379Y1159820D01*
X946191Y1160384D01*
X946961Y1161005D01*
X947684Y1161678D01*
X948358Y1162402D01*
X948979Y1163172D01*
X949543Y1163984D01*
X950047Y1164834D01*
X950490Y1165719D01*
X950868Y1166632D01*
X951180Y1167570D01*
X951425Y1168528D01*
X951600Y1169502D01*
X951706Y1170485D01*
X951741Y1171473D01*
X951706Y1172461D01*
X951600Y1173444D01*
X951425Y1174417D01*
X951180Y1175375D01*
X950868Y1176313D01*
X950490Y1177227D01*
X950047Y1178111D01*
X949543Y1178961D01*
X948979Y1179774D01*
X948358Y1180543D01*
X947684Y1181267D01*
X946961Y1181941D01*
X946191Y1182561D01*
X945379Y1183125D01*
X944528Y1183630D01*
X943644Y1184072D01*
X942731Y1184451D01*
X941792Y1184763D01*
X940834Y1185007D01*
X939861Y1185183D01*
X938878Y1185289D01*
X937890Y1185324D01*
X936902Y1185289D01*
X935919Y1185183D01*
X934946Y1185007D01*
X933988Y1184763D01*
X933849Y1184717D01*
X926280Y1192286D01*
Y1232926D01*
X926249Y1233564D01*
X926155Y1234196D01*
X926000Y1234815D01*
X925785Y1235416D01*
X925512Y1235994D01*
X925183Y1236542D01*
X924803Y1237054D01*
X924374Y1237528D01*
X867225Y1294677D01*
Y1332492D01*
X885486Y1350753D01*
X885915Y1351226D01*
X886295Y1351739D01*
X886624Y1352287D01*
X886897Y1352864D01*
X887112Y1353466D01*
X887267Y1354085D01*
X887361Y1354717D01*
X887392Y1355355D01*
Y1368893D01*
X887361Y1369531D01*
X887267Y1370163D01*
X887189Y1370473D01*
X887112Y1370782D01*
X886897Y1371383D01*
X886624Y1371961D01*
X886295Y1372509D01*
X885915Y1373022D01*
X885486Y1373495D01*
X882714Y1376266D01*
Y1925221D01*
X888685Y1931191D01*
X888996Y1930967D01*
X890446Y1930022D01*
X891939Y1929145D01*
X893470Y1928338D01*
X895037Y1927602D01*
X896637Y1926940D01*
X898265Y1926352D01*
X899919Y1925840D01*
X901594Y1925405D01*
X903288Y1925047D01*
X904997Y1924769D01*
X906716Y1924569D01*
X908443Y1924449D01*
X910174Y1924409D01*
X911905Y1924449D01*
X913632Y1924569D01*
X915351Y1924769D01*
X917060Y1925047D01*
X918754Y1925405D01*
X920429Y1925840D01*
X922083Y1926352D01*
X923711Y1926940D01*
X925311Y1927602D01*
X926878Y1928338D01*
X928409Y1929145D01*
X929902Y1930022D01*
X931352Y1930967D01*
X932757Y1931979D01*
X934115Y1933053D01*
X935420Y1934190D01*
X936673Y1935385D01*
X937868Y1936638D01*
X939004Y1937943D01*
X940079Y1939301D01*
X941090Y1940706D01*
X942035Y1942156D01*
X942913Y1943649D01*
X943720Y1945180D01*
X944455Y1946747D01*
X945118Y1948347D01*
X945706Y1949975D01*
X946218Y1951629D01*
X946653Y1953304D01*
X947010Y1954998D01*
X947289Y1956707D01*
X947489Y1958426D01*
X947609Y1960153D01*
X947649Y1961884D01*
X947609Y1963615D01*
X947489Y1965342D01*
X947289Y1967061D01*
X947010Y1968770D01*
X946653Y1970464D01*
X946218Y1972139D01*
X945706Y1973793D01*
X945118Y1975421D01*
X944455Y1977021D01*
X943720Y1978588D01*
X942913Y1980119D01*
X942035Y1981612D01*
X941090Y1983062D01*
X940079Y1984467D01*
X939004Y1985824D01*
X937868Y1987130D01*
X936673Y1988382D01*
X935420Y1989578D01*
X934115Y1990714D01*
X932757Y1991789D01*
X931352Y1992800D01*
X929902Y1993745D01*
X928409Y1994622D01*
X926878Y1995430D01*
X925311Y1996165D01*
X923711Y1996828D01*
X922083Y1997416D01*
X920429Y1997928D01*
X918754Y1998363D01*
X917060Y1998720D01*
X915351Y1998999D01*
X913632Y1999198D01*
X911905Y1999318D01*
X910174Y1999358D01*
D02*
G37*
G36*
X987391Y1331240D02*
X948705D01*
X948696Y1331239D01*
X948686Y1331240D01*
X948424Y1331221D01*
X948182Y1331205D01*
X948173Y1331204D01*
X948163Y1331203D01*
X947912Y1331152D01*
X947668Y1331103D01*
X947659Y1331100D01*
X947649Y1331098D01*
X947419Y1331018D01*
X947171Y1330935D01*
X947162Y1330930D01*
X947154Y1330927D01*
X946922Y1330812D01*
X946701Y1330703D01*
X946694Y1330698D01*
X946684Y1330693D01*
X946462Y1330543D01*
X946265Y1330411D01*
X946258Y1330405D01*
X946250Y1330400D01*
X946061Y1330232D01*
X945871Y1330066D01*
X945864Y1330058D01*
X945857Y1330052D01*
X945694Y1329863D01*
X945525Y1329671D01*
X945520Y1329663D01*
X945514Y1329656D01*
X934899Y1315686D01*
X932894D01*
Y1311817D01*
X932886Y1311686D01*
Y1254118D01*
X932920Y1253595D01*
X933022Y1253080D01*
X933191Y1252584D01*
X933423Y1252114D01*
X933714Y1251678D01*
X934060Y1251283D01*
X934454Y1250938D01*
X934890Y1250646D01*
X935360Y1250414D01*
X935857Y1250246D01*
X936371Y1250144D01*
X936894Y1250109D01*
X987391D01*
X987914Y1250144D01*
X988429Y1250246D01*
X988925Y1250414D01*
X989395Y1250646D01*
X989832Y1250938D01*
X990226Y1251283D01*
X990571Y1251678D01*
X990863Y1252114D01*
X991095Y1252584D01*
X991263Y1253080D01*
X991365Y1253595D01*
X991400Y1254118D01*
Y1327231D01*
X991365Y1327754D01*
X991263Y1328269D01*
X991095Y1328765D01*
X990863Y1329235D01*
X990571Y1329671D01*
X990226Y1330066D01*
X989832Y1330411D01*
X989395Y1330703D01*
X988925Y1330935D01*
X988429Y1331103D01*
X987914Y1331205D01*
X987391Y1331240D01*
D02*
G37*
G36*
X774857D02*
X736171D01*
X735648Y1331205D01*
X735133Y1331103D01*
X734637Y1330935D01*
X734167Y1330703D01*
X733731Y1330411D01*
X733336Y1330066D01*
X732991Y1329671D01*
X732699Y1329235D01*
X732467Y1328765D01*
X732299Y1328269D01*
X732197Y1327754D01*
X732162Y1327231D01*
Y1318596D01*
X731949Y1317956D01*
X731705Y1316998D01*
X731529Y1316025D01*
X731423Y1315042D01*
X731388Y1314054D01*
X731423Y1313066D01*
X731529Y1312083D01*
X731705Y1311110D01*
X731949Y1310151D01*
X732162Y1309512D01*
Y1295243D01*
X732030Y1294513D01*
X731925Y1293530D01*
X731889Y1292542D01*
X731925Y1291553D01*
X732030Y1290570D01*
X732162Y1289840D01*
Y1272621D01*
X732117Y1272199D01*
X732082Y1271211D01*
X732117Y1270223D01*
X732162Y1269800D01*
Y1254118D01*
X732197Y1253595D01*
X732299Y1253080D01*
X732467Y1252584D01*
X732699Y1252114D01*
X732991Y1251678D01*
X733336Y1251283D01*
X733731Y1250938D01*
X734167Y1250646D01*
X734637Y1250414D01*
X735133Y1250246D01*
X735648Y1250144D01*
X736171Y1250109D01*
X786668D01*
X787191Y1250144D01*
X787705Y1250246D01*
X788202Y1250414D01*
X788672Y1250646D01*
X789108Y1250938D01*
X789502Y1251283D01*
X789848Y1251678D01*
X790139Y1252114D01*
X790371Y1252584D01*
X790540Y1253080D01*
X790642Y1253595D01*
X790676Y1254118D01*
Y1311686D01*
X790668Y1311817D01*
Y1315686D01*
X788663D01*
X778048Y1329656D01*
X778042Y1329663D01*
X778037Y1329671D01*
X777868Y1329863D01*
X777705Y1330052D01*
X777698Y1330058D01*
X777691Y1330066D01*
X777495Y1330237D01*
X777312Y1330400D01*
X777304Y1330405D01*
X777297Y1330411D01*
X777086Y1330552D01*
X776878Y1330693D01*
X776869Y1330697D01*
X776861Y1330703D01*
X776632Y1330816D01*
X776408Y1330927D01*
X776400Y1330930D01*
X776391Y1330935D01*
X776143Y1331018D01*
X775913Y1331098D01*
X775903Y1331100D01*
X775894Y1331103D01*
X775650Y1331152D01*
X775399Y1331203D01*
X775389Y1331204D01*
X775380Y1331205D01*
X775127Y1331222D01*
X774876Y1331240D01*
X774867Y1331239D01*
X774857Y1331240D01*
D02*
G37*
G36*
X887989Y1160641D02*
X850875D01*
X850352Y1160606D01*
X849837Y1160504D01*
X849341Y1160335D01*
X848870Y1160103D01*
X848434Y1159812D01*
X848040Y1159466D01*
X847695Y1159072D01*
X847403Y1158636D01*
X847171Y1158166D01*
X847003Y1157669D01*
X846900Y1157155D01*
X846866Y1156632D01*
Y1140806D01*
X846866Y1140800D01*
X846866Y1140794D01*
Y1124993D01*
X846900Y1124470D01*
X847003Y1123955D01*
X847171Y1123459D01*
X847403Y1122988D01*
X847695Y1122553D01*
X848040Y1122158D01*
X848434Y1121813D01*
X848870Y1121521D01*
X849341Y1121289D01*
X849837Y1121121D01*
X850352Y1121018D01*
X850875Y1120984D01*
X887989D01*
X888512Y1121018D01*
X889026Y1121121D01*
X889523Y1121289D01*
X889993Y1121521D01*
X890429Y1121813D01*
X890823Y1122158D01*
X891169Y1122553D01*
X891460Y1122988D01*
X891692Y1123459D01*
X891861Y1123955D01*
X891963Y1124470D01*
X891997Y1124993D01*
Y1156632D01*
X891963Y1157155D01*
X891861Y1157669D01*
X891692Y1158166D01*
X891460Y1158636D01*
X891169Y1159072D01*
X890823Y1159466D01*
X890429Y1159812D01*
X889993Y1160103D01*
X889523Y1160335D01*
X889026Y1160504D01*
X888512Y1160606D01*
X887989Y1160641D01*
D02*
G37*
G36*
X119104Y164453D02*
X117230Y164414D01*
X115360Y164298D01*
X113495Y164105D01*
X111640Y163834D01*
X109798Y163488D01*
X107972Y163065D01*
X106165Y162568D01*
X104380Y161996D01*
X102620Y161351D01*
X100888Y160633D01*
X99188Y159845D01*
X97521Y158987D01*
X95891Y158061D01*
X94301Y157069D01*
X92754Y156011D01*
X91251Y154891D01*
X89796Y153709D01*
X88391Y152468D01*
X87038Y151171D01*
X85741Y149818D01*
X84500Y148413D01*
X83318Y146958D01*
X82198Y145455D01*
X81140Y143908D01*
X80148Y142318D01*
X79222Y140688D01*
X78364Y139021D01*
X77576Y137321D01*
X76858Y135589D01*
X76213Y133829D01*
X75641Y132044D01*
X75144Y130237D01*
X74721Y128411D01*
X74375Y126569D01*
X74104Y124714D01*
X73911Y122849D01*
X73795Y120978D01*
X73756Y119105D01*
X73795Y117231D01*
X73911Y115360D01*
X74104Y113495D01*
X74375Y111640D01*
X74721Y109798D01*
X75144Y107972D01*
X75641Y106165D01*
X76213Y104380D01*
X76858Y102620D01*
X77576Y100888D01*
X78364Y99188D01*
X79222Y97521D01*
X80148Y95891D01*
X81140Y94301D01*
X82198Y92754D01*
X83318Y91251D01*
X84500Y89796D01*
X85741Y88391D01*
X87038Y87038D01*
X88391Y85741D01*
X89796Y84500D01*
X91251Y83318D01*
X92754Y82198D01*
X94301Y81140D01*
X95891Y80148D01*
X97521Y79222D01*
X99188Y78364D01*
X100888Y77576D01*
X102620Y76858D01*
X104380Y76213D01*
X106165Y75641D01*
X107972Y75144D01*
X109798Y74721D01*
X111640Y74375D01*
X113495Y74104D01*
X115360Y73911D01*
X117230Y73795D01*
X119104Y73756D01*
X120978Y73795D01*
X122849Y73911D01*
X124714Y74104D01*
X126569Y74375D01*
X128411Y74721D01*
X130237Y75144D01*
X132044Y75641D01*
X133829Y76213D01*
X135589Y76858D01*
X137321Y77576D01*
X139021Y78364D01*
X140688Y79222D01*
X142317Y80148D01*
X143908Y81140D01*
X145455Y82198D01*
X146958Y83318D01*
X148413Y84500D01*
X149818Y85741D01*
X151171Y87038D01*
X152468Y88391D01*
X153709Y89796D01*
X154891Y91251D01*
X156011Y92754D01*
X157069Y94301D01*
X158061Y95891D01*
X158987Y97521D01*
X159845Y99188D01*
X160633Y100888D01*
X161351Y102620D01*
X161996Y104380D01*
X162567Y106165D01*
X163065Y107972D01*
X163488Y109798D01*
X163834Y111640D01*
X164105Y113495D01*
X164298Y115360D01*
X164414Y117231D01*
X164453Y119105D01*
X164414Y120978D01*
X164298Y122849D01*
X164105Y124714D01*
X163834Y126569D01*
X163488Y128411D01*
X163065Y130237D01*
X162567Y132044D01*
X161996Y133829D01*
X161351Y135589D01*
X160633Y137321D01*
X159845Y139021D01*
X158987Y140688D01*
X158061Y142318D01*
X157069Y143908D01*
X156011Y145455D01*
X154891Y146958D01*
X153709Y148413D01*
X152468Y149818D01*
X151171Y151171D01*
X149818Y152468D01*
X148413Y153709D01*
X146958Y154891D01*
X145455Y156011D01*
X143908Y157069D01*
X142317Y158061D01*
X140688Y158987D01*
X139021Y159845D01*
X137321Y160633D01*
X135589Y161351D01*
X133829Y161996D01*
X132044Y162568D01*
X130237Y163065D01*
X128411Y163488D01*
X126569Y163834D01*
X124714Y164105D01*
X122849Y164298D01*
X120978Y164414D01*
X119104Y164453D01*
D02*
G37*
%LPD*%
G36*
X1044458Y2046534D02*
X873584D01*
Y2291327D01*
X1044458D01*
Y2046534D01*
D02*
G37*
%LPC*%
G36*
X997198Y2274703D02*
X965717D01*
Y2243223D01*
X997198D01*
Y2274703D01*
D02*
G37*
G36*
X955717D02*
X924237D01*
Y2243223D01*
X955717D01*
Y2274703D01*
D02*
G37*
G36*
X997198Y2233223D02*
X965717D01*
Y2201742D01*
X997198D01*
Y2233223D01*
D02*
G37*
G36*
X955717D02*
X924237D01*
Y2201742D01*
X955717D01*
Y2233223D01*
D02*
G37*
G36*
X946410Y2178754D02*
X932272D01*
Y2134104D01*
X946410D01*
Y2178754D01*
D02*
G37*
G36*
X907272D02*
X893135D01*
Y2134104D01*
X907272D01*
Y2178754D01*
D02*
G37*
G36*
X946410Y2109104D02*
X932272D01*
Y2064455D01*
X946410D01*
Y2109104D01*
D02*
G37*
G36*
X907272D02*
X893135D01*
Y2064455D01*
X907272D01*
Y2109104D01*
D02*
G37*
%LPD*%
G36*
X987391Y1254118D02*
X936894D01*
Y1311686D01*
X948705Y1327231D01*
X987391D01*
Y1254118D01*
D02*
G37*
G36*
X786668Y1311686D02*
Y1254118D01*
X736171D01*
Y1327231D01*
X774857D01*
X786668Y1311686D01*
D02*
G37*
D14*
X876207Y1927916D02*
X910174Y1961884D01*
X860717Y1335188D02*
X880884Y1355355D01*
X860717Y1291981D02*
X919772Y1232926D01*
X876207Y1373571D02*
X880884Y1368893D01*
Y1355355D02*
Y1368893D01*
X860717Y1291981D02*
Y1335188D01*
X919772Y1189590D02*
X937890Y1171473D01*
X919772Y1189590D02*
Y1232926D01*
X876207Y1373571D02*
Y1927916D01*
D29*
X910174Y1961884D02*
D03*
D30*
X810174D02*
D03*
D31*
X760717Y2238223D02*
D03*
D32*
X960717D02*
D03*
D39*
X118461Y118461D02*
D03*
D42*
X1400001Y2195905D02*
D03*
Y1235906D02*
D03*
Y995905D02*
D03*
Y275906D02*
D03*
X1280001Y2195905D02*
D03*
X1340001Y2075905D02*
D03*
X1280001Y1955906D02*
D03*
X1340001Y1595906D02*
D03*
X1280001Y1475906D02*
D03*
X1340001Y1355906D02*
D03*
X1280001Y1235906D02*
D03*
X1340001Y1115906D02*
D03*
X1280001Y515905D02*
D03*
X1340001Y395906D02*
D03*
X1160001Y2195905D02*
D03*
X1220001Y2075905D02*
D03*
X1160001Y1955906D02*
D03*
X1220001Y1835906D02*
D03*
X1160001Y1475906D02*
D03*
X1220001Y1355906D02*
D03*
X1160001Y1235906D02*
D03*
Y515905D02*
D03*
X1220001Y395906D02*
D03*
X1040001Y1955906D02*
D03*
X1100001Y1835906D02*
D03*
X1040001Y1715906D02*
D03*
Y995905D02*
D03*
X1100001Y875905D02*
D03*
X1040001Y755905D02*
D03*
X1100001Y635905D02*
D03*
X1040001Y515905D02*
D03*
X1100001Y395906D02*
D03*
X980001Y1835906D02*
D03*
Y1595906D02*
D03*
Y875905D02*
D03*
Y635905D02*
D03*
Y395906D02*
D03*
X800001Y1715906D02*
D03*
X860001Y155905D02*
D03*
X680001Y1955906D02*
D03*
X740001Y1835906D02*
D03*
X680001Y1715906D02*
D03*
X740001Y1595906D02*
D03*
Y1115906D02*
D03*
X680001Y995905D02*
D03*
X740001Y875905D02*
D03*
X680001Y755905D02*
D03*
X740001Y635905D02*
D03*
X680001Y515905D02*
D03*
X740001Y395906D02*
D03*
X620001Y2315905D02*
D03*
X560001Y2195905D02*
D03*
X620001Y2075905D02*
D03*
X560001Y1955906D02*
D03*
X620001Y1835906D02*
D03*
X560001Y1475906D02*
D03*
Y1235906D02*
D03*
X620001Y875905D02*
D03*
Y635905D02*
D03*
X560001Y515905D02*
D03*
X620001Y395906D02*
D03*
X440001Y2195905D02*
D03*
X500001Y2075905D02*
D03*
X440001Y1955906D02*
D03*
X500001Y1835906D02*
D03*
X440001Y1475906D02*
D03*
X500001Y1355906D02*
D03*
X440001Y1235906D02*
D03*
Y515905D02*
D03*
X500001Y395906D02*
D03*
X320001Y2195905D02*
D03*
X380001Y2075905D02*
D03*
Y1595906D02*
D03*
Y1355906D02*
D03*
X320001Y1235906D02*
D03*
X380001Y1115906D02*
D03*
X320001Y995905D02*
D03*
X380001Y395906D02*
D03*
X320001Y275906D02*
D03*
X260001Y2315905D02*
D03*
Y155905D02*
D03*
X140001Y2315905D02*
D03*
D43*
X1017704Y2263053D02*
D03*
Y2194134D02*
D03*
Y2228594D02*
D03*
X898818Y2194709D02*
D03*
Y2229168D02*
D03*
Y2263628D02*
D03*
X1013683Y2066059D02*
D03*
Y2100519D02*
D03*
X1012822Y2134978D02*
D03*
X978362Y2066059D02*
D03*
Y2100519D02*
D03*
Y2134978D02*
D03*
X1012822Y2169438D02*
D03*
X978362D02*
D03*
X371972Y1770386D02*
D03*
X200999Y2186197D02*
D03*
X171314D02*
D03*
X141629D02*
D03*
X111944D02*
D03*
X82259D02*
D03*
X52574D02*
D03*
X1520436Y1840576D02*
D03*
X1550121D02*
D03*
X1579806D02*
D03*
X1609491D02*
D03*
X1639176D02*
D03*
X1668861D02*
D03*
X1520436Y1648401D02*
D03*
X1550121D02*
D03*
X1579806D02*
D03*
X1609491D02*
D03*
X1639176D02*
D03*
X1668861D02*
D03*
X1520436Y764985D02*
D03*
X1550121D02*
D03*
X1579806D02*
D03*
X1609491D02*
D03*
X1639176D02*
D03*
X1668861D02*
D03*
X1520436Y572810D02*
D03*
X1550121D02*
D03*
X1579806D02*
D03*
X1609491D02*
D03*
X1639176D02*
D03*
X1668861D02*
D03*
X956805Y200999D02*
D03*
Y171314D02*
D03*
Y141629D02*
D03*
Y111944D02*
D03*
Y82259D02*
D03*
Y52574D02*
D03*
X764630Y200999D02*
D03*
Y171314D02*
D03*
Y141629D02*
D03*
Y111944D02*
D03*
Y82259D02*
D03*
Y52574D02*
D03*
X200999Y572810D02*
D03*
X171314D02*
D03*
X141629D02*
D03*
X111944D02*
D03*
X82259D02*
D03*
X52574D02*
D03*
X200999Y764985D02*
D03*
X171314D02*
D03*
X141629D02*
D03*
X111944D02*
D03*
X82259D02*
D03*
X52574D02*
D03*
X200999Y1840576D02*
D03*
X171314D02*
D03*
X141629D02*
D03*
X111944D02*
D03*
X82259D02*
D03*
X52574D02*
D03*
Y1648401D02*
D03*
X82259D02*
D03*
X111944D02*
D03*
X141629D02*
D03*
X171314D02*
D03*
X200999D02*
D03*
X230684Y227190D02*
D03*
Y256875D02*
D03*
Y286560D02*
D03*
Y316245D02*
D03*
Y345930D02*
D03*
Y375615D02*
D03*
X200999Y227190D02*
D03*
X171314D02*
D03*
X141629D02*
D03*
X111944D02*
D03*
X82259D02*
D03*
X52574D02*
D03*
X419009Y230684D02*
D03*
X448694D02*
D03*
X478379D02*
D03*
X508064D02*
D03*
X537749D02*
D03*
X419009Y200999D02*
D03*
Y171314D02*
D03*
Y141629D02*
D03*
Y111944D02*
D03*
Y82259D02*
D03*
Y52574D02*
D03*
X1302425Y230684D02*
D03*
X1272740D02*
D03*
X1243055D02*
D03*
X1213370D02*
D03*
X1183685D02*
D03*
X1154000D02*
D03*
X1302425Y200999D02*
D03*
Y171314D02*
D03*
Y141629D02*
D03*
Y111944D02*
D03*
Y82259D02*
D03*
Y52574D02*
D03*
X1490751Y227190D02*
D03*
Y256875D02*
D03*
Y286560D02*
D03*
Y316245D02*
D03*
Y345930D02*
D03*
X1520436Y227190D02*
D03*
X1550121D02*
D03*
X1579806D02*
D03*
X1609491D02*
D03*
X1639176D02*
D03*
X1668861D02*
D03*
X1490751Y1110606D02*
D03*
Y1080921D02*
D03*
Y1051236D02*
D03*
Y1021551D02*
D03*
Y991866D02*
D03*
Y962181D02*
D03*
X1520436Y1110606D02*
D03*
X1550121D02*
D03*
X1579806D02*
D03*
X1609491D02*
D03*
X1639176D02*
D03*
X1668861D02*
D03*
X1490751Y1302781D02*
D03*
Y1332466D02*
D03*
Y1362151D02*
D03*
Y1391836D02*
D03*
Y1421521D02*
D03*
X1520436Y1302781D02*
D03*
X1550121D02*
D03*
X1579806D02*
D03*
X1609491D02*
D03*
X1639176D02*
D03*
X1668861D02*
D03*
X1490751Y2186197D02*
D03*
Y2156512D02*
D03*
Y2126827D02*
D03*
Y2097142D02*
D03*
Y2067457D02*
D03*
Y2037772D02*
D03*
X1520436Y2186197D02*
D03*
X1550121D02*
D03*
X1579806D02*
D03*
X1609491D02*
D03*
X1639176D02*
D03*
X1668861D02*
D03*
X230684D02*
D03*
Y2156512D02*
D03*
Y2126827D02*
D03*
Y2097142D02*
D03*
Y2067457D02*
D03*
Y2037772D02*
D03*
Y1302781D02*
D03*
Y1332466D02*
D03*
Y1362151D02*
D03*
Y1391836D02*
D03*
Y1421521D02*
D03*
Y1451206D02*
D03*
X200999Y1302781D02*
D03*
X171314D02*
D03*
X141629D02*
D03*
X111944D02*
D03*
X82259D02*
D03*
X52574D02*
D03*
Y1110606D02*
D03*
X82259D02*
D03*
X111944D02*
D03*
X141629D02*
D03*
X171314D02*
D03*
X200999D02*
D03*
X230684Y962181D02*
D03*
Y991866D02*
D03*
Y1021551D02*
D03*
Y1051236D02*
D03*
Y1080921D02*
D03*
Y1110606D02*
D03*
X816792Y1306858D02*
D03*
X905242Y1319560D02*
D03*
X691519Y1430586D02*
D03*
X844669Y1376951D02*
D03*
X1405326Y668898D02*
D03*
Y1744489D02*
D03*
X316109Y1744489D02*
D03*
Y668898D02*
D03*
X1399431Y1693819D02*
D03*
X1418150Y1670780D02*
D03*
X1432533Y1644812D02*
D03*
X1441139Y1616402D02*
D03*
X1444559Y1586915D02*
D03*
X1444624Y1557230D02*
D03*
Y1527545D02*
D03*
X1445361Y1497869D02*
D03*
X1458089Y1471051D02*
D03*
X1483848Y1456298D02*
D03*
X1485597Y1517116D02*
D03*
Y1546801D02*
D03*
Y1576486D02*
D03*
X1484431Y1606149D02*
D03*
X1479018Y1635336D02*
D03*
X1469163Y1663337D02*
D03*
X1455041Y1689448D02*
D03*
X1437174Y1713153D02*
D03*
X1449883Y2006016D02*
D03*
X1444624Y1976801D02*
D03*
Y1947116D02*
D03*
Y1917431D02*
D03*
X1443621Y1887763D02*
D03*
X1437617Y1858691D02*
D03*
X1426187Y1831295D02*
D03*
X1409623Y1806661D02*
D03*
X1389298Y1785025D02*
D03*
X1433447Y1771574D02*
D03*
X1451899Y1794827D02*
D03*
X1466667Y1820578D02*
D03*
X1477418Y1848248D02*
D03*
X1483911Y1877214D02*
D03*
X1485597Y1906851D02*
D03*
Y1936536D02*
D03*
Y1966221D02*
D03*
X289176Y1718758D02*
D03*
X270539Y1695652D02*
D03*
X255567Y1670019D02*
D03*
X244596Y1642436D02*
D03*
X237873Y1613522D02*
D03*
X235838Y1583907D02*
D03*
Y1554222D02*
D03*
Y1524537D02*
D03*
X251595Y1461902D02*
D03*
X271826Y1483625D02*
D03*
X276810Y1512889D02*
D03*
Y1542574D02*
D03*
Y1572259D02*
D03*
X277860Y1601925D02*
D03*
X284046Y1630958D02*
D03*
X295562Y1658319D02*
D03*
X312278Y1682849D02*
D03*
X235838Y1971755D02*
D03*
Y1942070D02*
D03*
Y1912385D02*
D03*
X237010Y1882723D02*
D03*
X242458Y1853543D02*
D03*
X252319Y1825543D02*
D03*
X266454Y1799439D02*
D03*
X284332Y1775742D02*
D03*
X315749Y1802171D02*
D03*
X298063Y1826013D02*
D03*
X285743Y1853020D02*
D03*
X278461Y1881798D02*
D03*
X276810Y1911437D02*
D03*
Y1941122D02*
D03*
Y1970807D02*
D03*
X273899Y2000349D02*
D03*
X256163Y2024153D02*
D03*
X346493Y1770020D02*
D03*
X344111Y1719431D02*
D03*
X373783Y1718529D02*
D03*
X403459Y1717837D02*
D03*
X431980Y1709603D02*
D03*
X455781Y1691863D02*
D03*
X476771Y1670873D02*
D03*
X497762Y1649882D02*
D03*
X518752Y1628892D02*
D03*
X539743Y1607901D02*
D03*
X560733Y1586911D02*
D03*
X581724Y1565920D02*
D03*
X602714Y1544930D02*
D03*
X623705Y1523939D02*
D03*
X644695Y1502949D02*
D03*
X651428Y1474038D02*
D03*
X635404Y1449049D02*
D03*
X633572Y1419420D02*
D03*
X646382Y1392642D02*
D03*
X670608Y1375486D02*
D03*
X700122Y1372302D02*
D03*
X727447Y1383903D02*
D03*
X756142Y1391502D02*
D03*
X775289Y1368816D02*
D03*
X785602Y1340981D02*
D03*
X813847Y1331845D02*
D03*
X827592Y1393478D02*
D03*
X806602Y1414468D02*
D03*
X785562Y1435409D02*
D03*
X759237Y1449128D02*
D03*
X729568Y1448177D02*
D03*
X699962Y1450341D02*
D03*
X710873Y1477948D02*
D03*
X706949Y1507372D02*
D03*
X689606Y1531464D02*
D03*
X668615Y1552455D02*
D03*
X647625Y1573445D02*
D03*
X626634Y1594436D02*
D03*
X605644Y1615426D02*
D03*
X584653Y1636417D02*
D03*
X563663Y1657407D02*
D03*
X542672Y1678398D02*
D03*
X521682Y1699388D02*
D03*
X500691Y1720379D02*
D03*
X479135Y1740787D02*
D03*
X454280Y1757018D02*
D03*
X426247Y1766783D02*
D03*
X396796Y1770499D02*
D03*
X1296698Y1767146D02*
D03*
X1268586Y1757611D02*
D03*
X1243470Y1741787D02*
D03*
X1221831Y1721467D02*
D03*
X1200840Y1700476D02*
D03*
X1179850Y1679486D02*
D03*
X1158860Y1658495D02*
D03*
X1137869Y1637505D02*
D03*
X1116879Y1616514D02*
D03*
X1095888Y1595524D02*
D03*
X1074898Y1574533D02*
D03*
X1053907Y1553543D02*
D03*
X1032917Y1532552D02*
D03*
X1015085Y1508820D02*
D03*
X1010355Y1479514D02*
D03*
X1031003Y1423851D02*
D03*
X1007064Y1441406D02*
D03*
X978786Y1450437D02*
D03*
X949683Y1444589D02*
D03*
X926461Y1426097D02*
D03*
X908205Y1408425D02*
D03*
X892893Y1389928D02*
D03*
X864542Y1362124D02*
D03*
X925410Y1336446D02*
D03*
X946360Y1357477D02*
D03*
X958401Y1384610D02*
D03*
X987749Y1389069D02*
D03*
X1013271Y1373909D02*
D03*
X1042938Y1372884D02*
D03*
X1069292Y1386548D02*
D03*
X1085687Y1411295D02*
D03*
X1087976Y1440892D02*
D03*
X1075568Y1467859D02*
D03*
X1070978Y1497187D02*
D03*
X1091968Y1518178D02*
D03*
X1112958Y1539168D02*
D03*
X1133949Y1560159D02*
D03*
X1154939Y1581149D02*
D03*
X1175930Y1602139D02*
D03*
X1196920Y1623130D02*
D03*
X1217911Y1644120D02*
D03*
X1238901Y1665111D02*
D03*
X1259892Y1686101D02*
D03*
X1282176Y1705713D02*
D03*
X1309644Y1716969D02*
D03*
X1339288Y1718529D02*
D03*
X1368973Y1718529D02*
D03*
X1355953Y1770449D02*
D03*
X1326268D02*
D03*
X1449883Y930425D02*
D03*
X1444624Y901210D02*
D03*
Y871525D02*
D03*
Y841840D02*
D03*
X1443621Y812172D02*
D03*
X1437617Y783100D02*
D03*
X1426187Y755704D02*
D03*
X1409623Y731070D02*
D03*
X1433447Y695983D02*
D03*
X1451899Y719236D02*
D03*
X1466667Y744987D02*
D03*
X1477418Y772657D02*
D03*
X1483911Y801623D02*
D03*
X1485597Y831260D02*
D03*
Y860945D02*
D03*
Y890630D02*
D03*
X1378441Y639219D02*
D03*
X1399431Y618229D02*
D03*
X1418150Y595189D02*
D03*
X1432533Y569221D02*
D03*
X1441139Y540811D02*
D03*
X1444559Y511324D02*
D03*
X1444624Y481639D02*
D03*
Y451954D02*
D03*
X1445361Y422278D02*
D03*
X1458089Y395460D02*
D03*
X1483848Y380707D02*
D03*
X1485597Y441525D02*
D03*
Y471210D02*
D03*
Y500895D02*
D03*
X1484431Y530558D02*
D03*
X1479018Y559745D02*
D03*
X1469163Y587746D02*
D03*
X1455041Y613857D02*
D03*
X1437174Y637563D02*
D03*
X289176Y643167D02*
D03*
X270539Y620061D02*
D03*
X255567Y594429D02*
D03*
X244596Y566845D02*
D03*
X237873Y537932D02*
D03*
X235838Y508316D02*
D03*
Y478631D02*
D03*
Y448946D02*
D03*
X251595Y386311D02*
D03*
X271826Y408034D02*
D03*
X276810Y437298D02*
D03*
Y466983D02*
D03*
Y496668D02*
D03*
X277860Y526334D02*
D03*
X284046Y555367D02*
D03*
X295562Y582728D02*
D03*
X312278Y607259D02*
D03*
X235838Y896164D02*
D03*
Y866479D02*
D03*
Y836794D02*
D03*
X237010Y807133D02*
D03*
X242458Y777952D02*
D03*
X252319Y749952D02*
D03*
X266453Y723848D02*
D03*
X284332Y700152D02*
D03*
X315749Y726580D02*
D03*
X298063Y750421D02*
D03*
X285743Y777429D02*
D03*
X278461Y806207D02*
D03*
X276810Y835846D02*
D03*
Y865531D02*
D03*
Y895216D02*
D03*
X273899Y924758D02*
D03*
X256163Y948562D02*
D03*
X984658Y1191465D02*
D03*
X1013240Y1183451D02*
D03*
X1053569Y1218268D02*
D03*
X954973Y1191465D02*
D03*
X1035391Y1163688D02*
D03*
X1056382Y1142698D02*
D03*
X1077372Y1121707D02*
D03*
X1098363Y1100717D02*
D03*
X1119353Y1079726D02*
D03*
X1140343Y1058736D02*
D03*
X1161334Y1037745D02*
D03*
X1182324Y1016755D02*
D03*
X1202888Y995347D02*
D03*
X1217564Y969543D02*
D03*
X1222134Y940212D02*
D03*
Y910527D02*
D03*
Y880842D02*
D03*
Y851157D02*
D03*
Y821472D02*
D03*
Y791787D02*
D03*
Y762102D02*
D03*
X1222919Y732427D02*
D03*
X1230263Y703665D02*
D03*
X1246168Y678601D02*
D03*
X1268292Y658808D02*
D03*
X1295477Y646885D02*
D03*
X1324899Y642938D02*
D03*
X1354583D02*
D03*
X1370248Y694858D02*
D03*
X1340563D02*
D03*
X1310931Y696632D02*
D03*
X1285796Y712425D02*
D03*
X1274527Y739888D02*
D03*
X1274054Y769569D02*
D03*
Y799254D02*
D03*
Y828939D02*
D03*
Y858624D02*
D03*
Y888309D02*
D03*
Y917994D02*
D03*
X1273998Y947679D02*
D03*
X1269667Y977046D02*
D03*
X1259240Y1004840D02*
D03*
X1242404Y1029289D02*
D03*
X1221824Y1050681D02*
D03*
X1200834Y1071672D02*
D03*
X1179843Y1092662D02*
D03*
X1158853Y1113653D02*
D03*
X1137862Y1134643D02*
D03*
X1116872Y1155634D02*
D03*
X1095881Y1176624D02*
D03*
X1074891Y1197615D02*
D03*
X1028602Y1234326D02*
D03*
X998419Y1240675D02*
D03*
X716376Y1241725D02*
D03*
X688353Y1231932D02*
D03*
X663939Y1215045D02*
D03*
X642966Y1194037D02*
D03*
X621975Y1173047D02*
D03*
X600985Y1152056D02*
D03*
X579995Y1131066D02*
D03*
X559004Y1110075D02*
D03*
X538014Y1089085D02*
D03*
X517023Y1068094D02*
D03*
X496033Y1047104D02*
D03*
X475741Y1025437D02*
D03*
X460047Y1000240D02*
D03*
X450581Y972105D02*
D03*
X447381Y942593D02*
D03*
Y912908D02*
D03*
Y883223D02*
D03*
Y853538D02*
D03*
Y823853D02*
D03*
Y794168D02*
D03*
Y764483D02*
D03*
X446408Y734814D02*
D03*
X432340Y708673D02*
D03*
X405661Y695657D02*
D03*
X375987Y694858D02*
D03*
X346306Y694391D02*
D03*
X344388Y643785D02*
D03*
X374061Y642938D02*
D03*
X403746Y643126D02*
D03*
X432849Y648976D02*
D03*
X458946Y663122D02*
D03*
X479856Y684193D02*
D03*
X493601Y710504D02*
D03*
X499227Y739651D02*
D03*
X499301Y769336D02*
D03*
Y799021D02*
D03*
Y828706D02*
D03*
Y858391D02*
D03*
Y888076D02*
D03*
Y917761D02*
D03*
X499614Y947444D02*
D03*
X506376Y976349D02*
D03*
X523177Y1000822D02*
D03*
X544167Y1021812D02*
D03*
X565158Y1042803D02*
D03*
X586148Y1063793D02*
D03*
X607139Y1084784D02*
D03*
X628129Y1105774D02*
D03*
X649120Y1126765D02*
D03*
X670110Y1147755D02*
D03*
X691101Y1168746D02*
D03*
X714605Y1186877D02*
D03*
X743933Y1191465D02*
D03*
X773598Y1190366D02*
D03*
X844311Y299340D02*
D03*
X860717Y316109D02*
D03*
X811541Y323497D02*
D03*
X788765Y304459D02*
D03*
X762933Y289835D02*
D03*
X734687Y280705D02*
D03*
X705232Y277013D02*
D03*
X675548Y276811D02*
D03*
X645863D02*
D03*
X616181Y276349D02*
D03*
X588875Y264705D02*
D03*
X573179Y239509D02*
D03*
X631748Y235838D02*
D03*
X661433D02*
D03*
X691118D02*
D03*
X720784Y236899D02*
D03*
X750043Y241910D02*
D03*
X778117Y251557D02*
D03*
X804328Y265493D02*
D03*
X828160Y283190D02*
D03*
X887316Y288415D02*
D03*
X910516Y269896D02*
D03*
X936225Y255055D02*
D03*
X963864Y244225D02*
D03*
X992812Y237649D02*
D03*
X1022441Y235838D02*
D03*
X1052126D02*
D03*
X1081811D02*
D03*
X1142538Y253099D02*
D03*
X1120040Y272465D02*
D03*
X1090675Y276811D02*
D03*
X1060990D02*
D03*
X1031305D02*
D03*
X1001643Y277968D02*
D03*
X972702Y284571D02*
D03*
X945425Y296284D02*
D03*
X921136Y313349D02*
D03*
X899605Y333785D02*
D03*
X886838Y1111105D02*
D03*
X807602Y1167933D02*
D03*
X808664Y1138267D02*
D03*
X831772Y1119634D02*
D03*
X834757Y1090099D02*
D03*
Y1060414D02*
D03*
Y1030729D02*
D03*
Y1001044D02*
D03*
Y971359D02*
D03*
Y941674D02*
D03*
Y911989D02*
D03*
Y882304D02*
D03*
Y852619D02*
D03*
Y822934D02*
D03*
Y793249D02*
D03*
Y763564D02*
D03*
X834757Y733879D02*
D03*
Y704194D02*
D03*
Y674509D02*
D03*
Y644824D02*
D03*
Y615139D02*
D03*
Y585454D02*
D03*
Y555769D02*
D03*
Y526084D02*
D03*
Y496399D02*
D03*
Y466714D02*
D03*
Y437029D02*
D03*
Y407344D02*
D03*
Y377659D02*
D03*
X834891Y347975D02*
D03*
X886677Y371281D02*
D03*
Y400966D02*
D03*
Y430651D02*
D03*
Y460336D02*
D03*
Y490021D02*
D03*
Y519706D02*
D03*
Y549390D02*
D03*
Y579076D02*
D03*
Y608760D02*
D03*
Y638446D02*
D03*
Y668130D02*
D03*
Y697816D02*
D03*
Y727500D02*
D03*
X886677Y757186D02*
D03*
Y786870D02*
D03*
Y816556D02*
D03*
Y846240D02*
D03*
Y875926D02*
D03*
Y905611D02*
D03*
Y935295D02*
D03*
Y964981D02*
D03*
Y994665D02*
D03*
Y1024351D02*
D03*
Y1054035D02*
D03*
Y1083720D02*
D03*
X909578Y1132486D02*
D03*
X913833Y1161864D02*
D03*
X860717Y1140800D02*
D03*
X764338Y1303543D02*
D03*
X764254Y1282629D02*
D03*
X745933Y1271211D02*
D03*
X745741Y1292542D02*
D03*
X745239Y1314054D02*
D03*
X976195D02*
D03*
X975694Y1292542D02*
D03*
X975502Y1271211D02*
D03*
X957181Y1282629D02*
D03*
X957096Y1303543D02*
D03*
X886440Y1191702D02*
D03*
X860717D02*
D03*
X886440Y1217425D02*
D03*
X860717D02*
D03*
X834995Y1191702D02*
D03*
Y1217425D02*
D03*
X860717Y1243147D02*
D03*
X886440D02*
D03*
X834995D02*
D03*
X937890Y1171473D02*
D03*
D53*
X919772Y2121604D02*
D03*
X801662D02*
D03*
D54*
X885528Y1140812D02*
D03*
X895450D02*
D03*
D55*
X780762Y1288063D02*
D03*
X800447D02*
D03*
X942800D02*
D03*
X923115D02*
D03*
D56*
X869432Y1140812D02*
D03*
D57*
X1081781Y68898D02*
D03*
Y155906D02*
D03*
X1177450D02*
D03*
Y68898D02*
D03*
X543985Y68897D02*
D03*
Y155905D02*
D03*
X639654D02*
D03*
Y68897D02*
D03*
X1652537Y1965552D02*
D03*
X1565529D02*
D03*
Y2061221D02*
D03*
X1652537D02*
D03*
Y1427756D02*
D03*
X1565529D02*
D03*
Y1523425D02*
D03*
X1652537D02*
D03*
Y889961D02*
D03*
X1565529D02*
D03*
Y985630D02*
D03*
X1652537D02*
D03*
Y352165D02*
D03*
X1565529D02*
D03*
Y447835D02*
D03*
X1652537D02*
D03*
X68897D02*
D03*
X155905D02*
D03*
Y352165D02*
D03*
X68897D02*
D03*
Y985630D02*
D03*
X155905D02*
D03*
Y889961D02*
D03*
X68897D02*
D03*
Y1523425D02*
D03*
X155905D02*
D03*
Y1427756D02*
D03*
X68897D02*
D03*
Y2061221D02*
D03*
X155905D02*
D03*
Y1965552D02*
D03*
X68897D02*
D03*
M02*
