M48
;Layer_Color=9474304
;FILE_FORMAT=2:5
INCH,TZ
;TYPE=PLATED
T01F00S00C0.00984
T02F00S00C0.01181
T03F00S00C0.03937
T04F00S00C0.04331
T05F00S00C0.04488
%
T01
X57318Y23951
X58887Y26471
X61618Y27635
X64586Y27681
X67555
X70523Y27701
X73469Y28071
X76293Y28984
X78877Y30446
X81154Y32350
X83489Y34797
X83476Y37766
Y40734
Y43703
Y46671
Y49640
Y52608
Y55577
Y58545
Y61514
Y64482
Y67451
Y70419
Y73388
X83476Y76356
Y79325
Y82293
Y85262
X88668Y84624
Y81656
Y78687
Y75719
X88668Y72750
Y69782
Y66813
Y63845
Y60876
Y57908
Y54939
Y51971
Y49002
Y46034
Y43065
Y40097
Y37128
X89960Y33378
X92114Y31335
X94542Y29628
X97270Y28457
X100164Y27797
X103130Y27681
X106099
X109067
X112004Y27246
X114254Y25310
X115400Y23068
X118368
X121337
X124305
X127274
X130243
Y20100
Y17131
Y14163
Y11194
Y8226
Y5257
X95680
Y8226
Y11194
Y14163
Y17131
Y20100
X96386Y24422
X99281Y23765
X102244Y23584
X105213
X108181
X93622Y25506
X91052Y26990
X88732Y28842
X84431Y29934
X82816Y28319
X80433Y26549
X77812Y25156
X75004Y24191
X72078Y23690
X69112Y23584
X66143
X63175
X76463Y20100
Y17131
Y14163
Y11194
Y8226
Y5257
X86072Y31611
X88668Y87593
X122213Y88084
Y85116
Y82147
Y79179
Y76210
X122292Y73243
X123026Y70367
X124617Y67860
X126829Y65881
X129548Y64688
X132490Y64294
X135458
X137844Y63922
X139943Y61823
X141815Y59519
X143253Y56922
X144114Y54081
X144456Y51132
X144462Y48164
Y45195
X144536Y42228
X145809Y39546
X148385Y38071
X149075Y34593
Y31624
Y28656
Y25688
Y22719
X152044
X155012
X157981
X160949
X163918
X166886
Y57281
X163918
X160949
X157981
X155012
X152044
X147902Y55975
X148443Y53056
X148560Y50090
Y47121
Y44153
X146916Y58775
X145504Y61386
X143717Y63756
X143345Y69598
X145190Y71924
X146667Y74499
X147742Y77266
X148391Y80162
X148560Y83126
Y86094
X144462Y87152
Y84184
X144362Y81217
X143762Y78310
X142619Y75570
X140962Y73107
X140533Y66890
X137025Y69486
X134056
X131093Y69663
X128580Y71242
X127453Y73989
X127405Y76957
Y79925
Y82894
Y85862
X152044Y76499
X155012
X157981
X160949
X163918
X166886
X49930Y76934
Y79902
Y82871
Y85839
X44738Y85354
Y82385
Y79417
Y76448
X44641Y73481
X43234Y70867
X40566Y69566
X37599Y69486
X34631Y69439
X34439Y64378
X37406Y64294
X40375Y64313
X43285Y64898
X45895Y66312
X47986Y68419
X49360Y71050
X49923Y73965
X31575Y72658
X29806Y75042
X28574Y77743
X27846Y80621
X27681Y83585
Y86553
X23584Y86648
Y83679
X23701Y80713
X24246Y77795
X25232Y74995
X26645Y72385
X28433Y70015
X28918Y64317
X27054Y62006
X25557Y59443
X24460Y56684
X23787Y53793
X23584Y50832
Y47863
Y44895
X27681Y43730
Y46698
Y49667
X27786Y52633
X28405Y55537
X29556Y58273
X31228Y60726
X31611Y66890
X20100Y76499
X17131
X14163
X11194
X8226
X5257
Y57281
X8226
X11194
X14163
X17131
X20100
X23068Y37562
Y34593
Y31624
Y28656
Y25688
Y22719
X20100
X17131
X14163
X11194
X8226
X5257
X25159Y38631
X27183Y40803
X41901Y23068
X44869
X47838
X50806
X53775
X41901Y20100
Y17131
Y14163
Y11194
Y8226
Y5257
X44738Y88322
Y91291
Y94259
X45058Y97211
X46005Y100024
X47574Y102544
X49603Y104710
X51702Y106809
X53801Y108908
X55900Y111007
X54417Y102181
X52318Y100082
X50638Y97635
X49961Y94744
X49930Y91776
Y88808
X27681Y89522
X27390Y92476
X25616Y94856
X23068Y96218
Y99187
Y102155
Y105124
Y108092
Y111061
X20100
X17131
X14163
X11194
X8226
X5257
Y130278
X8226
X11194
X14163
X17131
X20100
X23068
Y133247
Y136215
Y139184
Y142152
Y145121
X25159Y146190
X27183Y148363
X27681Y151289
Y154257
Y157226
X27786Y160193
X28405Y163096
X29556Y165832
X31228Y168285
X27054Y169565
X25557Y167002
X24460Y164244
X23787Y161352
X23584Y158391
Y155422
Y152454
X20100Y164840
X17131
X14163
X11194
X8226
X5257
Y184058
X8226
X11194
X14163
X17131
X20100
X24246Y185354
X23701Y188272
X23584Y191238
Y194207
Y197176
X27681Y197081
Y194112
Y191144
X27846Y188180
X28574Y185302
X29806Y182601
X31575Y180217
X26645Y179944
X25232Y182554
X28433Y177574
X28918Y171876
X31611Y174449
X34411Y171943
X37378Y171853
X40346Y171784
X43198Y170960
X45578Y169186
X47677Y167087
X49776Y164988
X51875Y162889
X53974Y160790
X56073Y158691
X54267Y167840
X52168Y169939
X50069Y172038
X47914Y174079
X45428Y175702
X42625Y176678
X39680Y177050
X37197Y177039
X34649Y177002
X27390Y200035
X25616Y202415
X23068Y203777
Y206746
Y209714
Y212683
Y215651
Y218620
X20100
X17131
X14163
X11194
X8226
X5257
X23584Y89616
X56516Y104280
X58615Y106379
X60714Y108478
X62813Y110577
X64912Y112677
X67011Y114776
X69110Y116875
X71460Y118688
X74393Y119147
X77360Y119037
X80760Y116793
X80866Y113827
X83177Y111963
X83476Y109010
Y106041
Y103073
Y100104
Y97136
Y94167
Y91199
Y88230
X88668Y90561
Y93529
Y96498
Y99467
Y102435
Y105403
Y108372
X88684Y111110
X90958Y113249
X91383Y116186
X93789Y117147
X95497Y119147
X98466
X101324Y118345
X103539Y116369
X105638Y114270
X107737Y112171
X109836Y110072
X111935Y107973
X114034Y105874
X116133Y103774
X118232Y101675
X120289Y99535
X121756Y96954
X122213Y94021
Y91053
X127405Y91799
Y88831
X127400Y94768
X126967Y97705
X125924Y100484
X124240Y102929
X122182Y105068
X120083Y107167
X117984Y109266
X115885Y111365
X113786Y113464
X111687Y115563
X109588Y117662
X107489Y119762
X105357Y121827
X102860Y123433
X99842Y124067
X97550Y127121
X97569Y129254
X97619Y131405
X95710Y130354
X95718Y128263
X92541Y133645
X90524Y131956
X94636Y135748
X95840Y138461
X98775Y138907
X101327Y137391
X104294Y137288
X106929Y138655
X108569Y141130
X108798Y144089
X107557Y146786
X107098Y149719
X109197Y151818
X111296Y153917
X113395Y156016
X115494Y158115
X117593Y160214
X119692Y162313
X121791Y164412
X123890Y166511
X125989Y168610
X128218Y170571
X130964Y171697
X133929Y171853
X136897Y171853
X139943Y169382
X141815Y167078
X143253Y164481
X144114Y161640
X144456Y158692
X144462Y155723
Y152754
X144536Y149787
X145809Y147105
X148385Y145630
X149075Y142152
Y139184
Y136215
Y133247
Y130278
X152044
X155012
X157981
X160949
X163918
X166886
Y111061
X163918
X160949
X157981
X155012
X152044
X149075
Y108092
Y105124
Y102155
Y99187
Y96218
X144988Y93042
X144462Y90121
X148560Y89063
Y151712
Y154680
Y157649
X148443Y160615
X147902Y163534
X146916Y166334
X145504Y168945
X143717Y171315
X143345Y177157
X145190Y179483
X146667Y182058
X147742Y184825
X148391Y187721
X148560Y190685
Y193654
Y196622
X144462Y197680
Y194712
Y191743
X144362Y188776
X143762Y185869
X142619Y183130
X140962Y180666
X138930Y178503
X135595Y177045
X132627
X129670Y176715
X126859Y175761
X124347Y174179
X122183Y172147
X120084Y170048
X117985Y167949
X115886Y165849
X113787Y163751
X111688Y161651
X109589Y159552
X107490Y157453
X105391Y155354
X103292Y153255
X101508Y150882
X101035Y147951
X100706Y144141
X97879Y145044
X94968Y144459
X92646Y142610
X90820Y140842
X89289Y138993
X86454Y136212
X84467Y137695
X82759Y139348
X80660Y141447
X78556Y143541
X75924Y144913
X72957Y144818
X69996Y145034
X69152Y143059
X71087Y147795
X70695Y150737
X68961Y153146
X66861Y155245
X64763Y157344
X62663Y159444
X60564Y161543
X58465Y163642
X56366Y165741
X58172Y156592
X60271Y154493
X62371Y152394
X64469Y150295
X65143Y147404
X63540Y144905
X63357Y141942
X64638Y139264
X67061Y137549
X70012Y137230
X72745Y138390
X75614Y139150
X77529Y136882
X78560Y134098
X81385Y133185
X81679Y130686
X76434Y130354
X76425Y128263
X74574Y129254
X74593Y127121
X74524Y131405
X71638Y124172
X68835Y123193
X66394Y121504
X64297Y119404
X62198Y117305
X60098Y115206
X57999Y113107
X61519Y126124
X64897
X61519Y129502
Y132880
X64897
X83499Y124315
Y121742
X86072
Y119170
X88644
Y121742
Y124315
X86072
X83499Y119170
X86072Y114080
X107247Y126124
X110625
Y129502
Y132880
X107247
X103100Y142385
X101368Y206606
Y210052
X101282Y213498
X97836
Y210052
Y206606
Y216944
X101282
X101770Y219413
Y222859
Y226305
X89882Y226363
Y222917
Y219471
X149075Y218620
Y215651
Y212683
Y209714
Y206746
Y203777
X144988Y200602
X152044Y184058
X155012
X157981
X160949
X163918
X166886
Y164840
X163918
X160949
X157981
X155012
X152044
X140533Y174449
X152044Y218620
X155012
X157981
X160949
X163918
X166886
T02
X86000Y15590
X98000Y39591
X110000
X122000
X134000
X140000Y27591
X128000Y51591
X116000
X104000
X110000Y63591
X98000
X104000Y75590
X110000Y87590
X98000
X74000
X62000
X68000Y75590
X74000Y63591
X62000
X68000Y51591
X74000Y39591
X62000
X50000
X38000
X44000Y51591
X56000
X32000Y27591
X26000Y15590
X32000Y99590
X38000Y111591
X44000Y123591
X56000
X50000Y135591
X38000
X44000Y147591
X56000
X38000Y159591
X50000Y183591
X56000Y195591
X44000
X50000Y207591
X38000
X44000Y219590
X56000
X32000
X26000Y231591
X14000
X32000Y123591
X74000Y111591
X68000Y99590
X104000
X140000
X134000Y111591
X140000Y123591
X128000
X116000
X122000Y135591
X134000
X128000Y147591
X116000
X134000Y159591
X122000Y183591
X110000
X98000
X104000Y195591
X116000
X128000
X134000Y207591
X122000
X128000Y219590
X140000
X116000
X104000Y171591
X98000Y159591
X74000
X80000Y171591
X68000
X74000Y183591
X62000
X68000Y195591
X62000Y207591
Y231591
T03
X81017Y196188
X91017
T04
X76072Y223822
X96072
T05
X63965Y6890
Y15590
X108178Y15591
Y6890
X117745
Y15591
X156553Y35217
X165254
Y44783
X156553
X54399Y15590
Y6890
X15590Y35217
X6890
Y44783
X15590
Y88996
X6890
Y98563
X15590
Y142776
X6890
Y152342
X15590
Y196555
X6890
Y206122
X15590
X156553
X165254
Y196555
X156553
Y152342
X165254
Y142776
X156553
Y98563
X165254
Y88996
X156553
M30
