G04*
G04 #@! TF.GenerationSoftware,Altium Limited,Altium Designer,24.2.2 (26)*
G04*
G04 Layer_Color=8421504*
%FSLAX26Y26*%
%MOIN*%
G70*
G04*
G04 #@! TF.SameCoordinates,B184214D-E36B-41BB-B0D7-08C86D9F1EC7*
G04*
G04*
G04 #@! TF.FilePolarity,Positive*
G04*
G01*
G75*
%ADD18R,0.005181X0.040000*%
%ADD19R,0.040000X0.005181*%
%ADD20R,0.141732X0.217716*%
%ADD21R,0.217716X0.141732*%
%ADD22R,0.023622X0.004921*%
%ADD23R,0.011811X0.029528*%
%ADD24R,0.029528X0.011811*%
%ADD25R,0.072835X0.072835*%
%ADD26R,0.037402X0.039370*%
D18*
X591819Y20000D02*
D03*
X1129615Y20000D02*
D03*
D19*
X1701435Y400000D02*
D03*
Y937795D02*
D03*
Y1475591D02*
D03*
X20000Y2013387D02*
D03*
X1701435D02*
D03*
X20000Y1475591D02*
D03*
Y937795D02*
D03*
Y400000D02*
D03*
D20*
X1040639Y108859D02*
D03*
X1218591D02*
D03*
X502843Y108858D02*
D03*
X680796D02*
D03*
D21*
X1612577Y1924410D02*
D03*
Y2102363D02*
D03*
Y1386614D02*
D03*
Y1564567D02*
D03*
Y848819D02*
D03*
Y1026772D02*
D03*
Y311024D02*
D03*
Y488976D02*
D03*
X108858D02*
D03*
Y311024D02*
D03*
Y1026772D02*
D03*
Y848819D02*
D03*
Y1564567D02*
D03*
Y1386614D02*
D03*
Y2102363D02*
D03*
Y1924410D02*
D03*
D22*
X965050Y1247989D02*
D03*
Y1257911D02*
D03*
X756130Y1257819D02*
D03*
Y1247897D02*
D03*
D23*
X831190Y1158370D02*
D03*
X850875D02*
D03*
X870560D02*
D03*
X890245D02*
D03*
Y1276480D02*
D03*
X870560D02*
D03*
X850875D02*
D03*
X831190D02*
D03*
D24*
X919772Y1187897D02*
D03*
Y1207582D02*
D03*
Y1227267D02*
D03*
Y1246952D02*
D03*
X801662D02*
D03*
Y1227267D02*
D03*
Y1207582D02*
D03*
Y1187897D02*
D03*
D25*
X860717Y1217425D02*
D03*
D26*
X648967Y1295018D02*
D03*
X711960D02*
D03*
X1072467D02*
D03*
X1009475D02*
D03*
M02*
