G04*
G04 #@! TF.GenerationSoftware,Altium Limited,Altium Designer,24.2.2 (26)*
G04*
G04 Layer_Color=128*
%FSLAX26Y26*%
%MOIN*%
G70*
G04*
G04 #@! TF.SameCoordinates,6E19E911-B848-4C60-9216-CC5A1203C33B*
G04*
G04*
G04 #@! TF.FilePolarity,Positive*
G04*
G01*
G75*
%ADD13C,0.005000*%
D13*
X1155009Y68898D02*
X1199891D01*
X1177450Y46457D02*
Y91339D01*
X1155009Y155906D02*
X1199891D01*
X1177450Y133465D02*
Y178347D01*
X1059340Y155906D02*
X1104221D01*
X1081781Y133465D02*
Y178347D01*
X1059340Y68898D02*
X1104221D01*
X1081781Y46457D02*
Y91339D01*
X617213Y68897D02*
X662095D01*
X639654Y46456D02*
Y91338D01*
X617213Y155905D02*
X662095D01*
X639654Y133464D02*
Y178346D01*
X521544Y155905D02*
X566426D01*
X543985Y133464D02*
Y178346D01*
X521544Y68897D02*
X566426D01*
X543985Y46456D02*
Y91338D01*
X1630096Y447835D02*
X1674978D01*
X1652537Y425394D02*
Y470276D01*
X1543089Y447835D02*
X1587970D01*
X1565529Y425394D02*
Y470276D01*
X1543089Y352165D02*
X1587970D01*
X1565529Y329724D02*
Y374606D01*
X1630096Y352165D02*
X1674978D01*
X1652537Y329724D02*
Y374606D01*
X1630096Y985630D02*
X1674978D01*
X1652537Y963189D02*
Y1008071D01*
X1543089Y985630D02*
X1587970D01*
X1565529Y963189D02*
Y1008071D01*
X1543089Y889961D02*
X1587970D01*
X1565529Y867520D02*
Y912402D01*
X1630096Y889961D02*
X1674978D01*
X1652537Y867520D02*
Y912402D01*
X1630096Y1523425D02*
X1674978D01*
X1652537Y1500985D02*
Y1545866D01*
X1543089Y1523425D02*
X1587970D01*
X1565529Y1500985D02*
Y1545866D01*
X1543089Y1427756D02*
X1587970D01*
X1565529Y1405315D02*
Y1450197D01*
X1630096Y1427756D02*
X1674978D01*
X1652537Y1405315D02*
Y1450197D01*
X1630096Y2061221D02*
X1674978D01*
X1652537Y2038780D02*
Y2083662D01*
X1543089Y2061221D02*
X1587970D01*
X1565529Y2038780D02*
Y2083662D01*
X1543089Y1965552D02*
X1587970D01*
X1565529Y1943111D02*
Y1987993D01*
X1630096Y1965552D02*
X1674978D01*
X1652537Y1943111D02*
Y1987993D01*
X46456Y1965552D02*
X91338D01*
X68897Y1943111D02*
Y1987993D01*
X133464Y1965552D02*
X178346D01*
X155905Y1943111D02*
Y1987993D01*
X133464Y2061221D02*
X178346D01*
X155905Y2038780D02*
Y2083662D01*
X46456Y2061221D02*
X91338D01*
X68897Y2038780D02*
Y2083662D01*
X46456Y1427756D02*
X91338D01*
X68897Y1405315D02*
Y1450197D01*
X133464Y1427756D02*
X178346D01*
X155905Y1405315D02*
Y1450197D01*
X133464Y1523425D02*
X178346D01*
X155905Y1500985D02*
Y1545866D01*
X46456Y1523425D02*
X91338D01*
X68897Y1500985D02*
Y1545866D01*
X46456Y889961D02*
X91338D01*
X68897Y867520D02*
Y912402D01*
X133464Y889961D02*
X178346D01*
X155905Y867520D02*
Y912402D01*
X133464Y985630D02*
X178346D01*
X155905Y963189D02*
Y1008071D01*
X46456Y985630D02*
X91338D01*
X68897Y963189D02*
Y1008071D01*
X46456Y352165D02*
X91338D01*
X68897Y329724D02*
Y374606D01*
X133464Y352165D02*
X178346D01*
X155905Y329724D02*
Y374606D01*
X133464Y447835D02*
X178346D01*
X155905Y425394D02*
Y470276D01*
X46456Y447835D02*
X91338D01*
X68897Y425394D02*
Y470276D01*
X790489Y1961884D02*
X829859D01*
X810174Y1942199D02*
Y1981569D01*
X890489Y1961884D02*
X929859D01*
X910174Y1942199D02*
Y1981569D01*
X939064Y2238223D02*
X982371D01*
X960717Y2216569D02*
Y2259876D01*
X739064Y2238223D02*
X782371D01*
X760717Y2216569D02*
Y2259876D01*
X881518Y1243147D02*
X891361D01*
X886440Y1238226D02*
Y1248068D01*
X900321Y1319560D02*
X910163D01*
X905242Y1314638D02*
Y1324481D01*
X1067546Y1328799D02*
X1077388D01*
X1072467Y1323878D02*
Y1333721D01*
X1101327Y1295018D02*
X1111169D01*
X1106248Y1290097D02*
Y1299939D01*
X1101327Y1328799D02*
X1111169D01*
X1106248Y1323878D02*
Y1333721D01*
X1101327Y1261237D02*
X1111169D01*
X1106248Y1256316D02*
Y1266158D01*
X1067546Y1261237D02*
X1077388D01*
X1072467Y1256316D02*
Y1266158D01*
X644046Y1261237D02*
X653889D01*
X648967Y1256316D02*
Y1266158D01*
X610265Y1261237D02*
X620108D01*
X615186Y1256316D02*
Y1266158D01*
X610265Y1328799D02*
X620108D01*
X615186Y1323878D02*
Y1333721D01*
X610265Y1295018D02*
X620108D01*
X615186Y1290097D02*
Y1299939D01*
X644046Y1328799D02*
X653889D01*
X648967Y1323878D02*
Y1333721D01*
X1394095Y2195905D02*
X1405907D01*
X1400001Y2190000D02*
Y2201811D01*
X1394095Y1235906D02*
X1405907D01*
X1400001Y1230000D02*
Y1241811D01*
X1394095Y995905D02*
X1405907D01*
X1400001Y990000D02*
Y1001811D01*
X1394095Y275906D02*
X1405907D01*
X1400001Y270000D02*
Y281811D01*
X1274095Y2195905D02*
X1285907D01*
X1280001Y2190000D02*
Y2201811D01*
X1334095Y2075905D02*
X1345907D01*
X1340001Y2070000D02*
Y2081811D01*
X1274095Y1955906D02*
X1285907D01*
X1280001Y1950000D02*
Y1961811D01*
X1334095Y1595906D02*
X1345907D01*
X1340001Y1590000D02*
Y1601811D01*
X1274095Y1475906D02*
X1285907D01*
X1280001Y1470000D02*
Y1481811D01*
X1334095Y1355906D02*
X1345907D01*
X1340001Y1350000D02*
Y1361811D01*
X1274095Y1235906D02*
X1285907D01*
X1280001Y1230000D02*
Y1241811D01*
X1334095Y1115906D02*
X1345907D01*
X1340001Y1110000D02*
Y1121811D01*
X1274095Y515905D02*
X1285907D01*
X1280001Y510000D02*
Y521811D01*
X1334095Y395906D02*
X1345907D01*
X1340001Y390000D02*
Y401811D01*
X1154095Y2195905D02*
X1165907D01*
X1160001Y2190000D02*
Y2201811D01*
X1214095Y2075905D02*
X1225907D01*
X1220001Y2070000D02*
Y2081811D01*
X1154095Y1955906D02*
X1165907D01*
X1160001Y1950000D02*
Y1961811D01*
X1214095Y1835906D02*
X1225907D01*
X1220001Y1830000D02*
Y1841811D01*
X1154095Y1475906D02*
X1165907D01*
X1160001Y1470000D02*
Y1481811D01*
X1214095Y1355906D02*
X1225907D01*
X1220001Y1350000D02*
Y1361811D01*
X1154095Y1235906D02*
X1165907D01*
X1160001Y1230000D02*
Y1241811D01*
X1154095Y515905D02*
X1165907D01*
X1160001Y510000D02*
Y521811D01*
X1214095Y395906D02*
X1225907D01*
X1220001Y390000D02*
Y401811D01*
X1034095Y1955906D02*
X1045907D01*
X1040001Y1950000D02*
Y1961811D01*
X1094095Y1835906D02*
X1105907D01*
X1100001Y1830000D02*
Y1841811D01*
X1034095Y1715906D02*
X1045907D01*
X1040001Y1710000D02*
Y1721811D01*
X1034095Y995905D02*
X1045907D01*
X1040001Y990000D02*
Y1001811D01*
X1094095Y875905D02*
X1105907D01*
X1100001Y870000D02*
Y881811D01*
X1034095Y755905D02*
X1045907D01*
X1040001Y750000D02*
Y761811D01*
X1094095Y635905D02*
X1105907D01*
X1100001Y630000D02*
Y641811D01*
X1034095Y515905D02*
X1045907D01*
X1040001Y510000D02*
Y521811D01*
X1094095Y395906D02*
X1105907D01*
X1100001Y390000D02*
Y401811D01*
X974096Y1835906D02*
X985907D01*
X980001Y1830000D02*
Y1841811D01*
X974096Y1595906D02*
X985907D01*
X980001Y1590000D02*
Y1601811D01*
X974096Y875905D02*
X985907D01*
X980001Y870000D02*
Y881811D01*
X974096Y635905D02*
X985907D01*
X980001Y630000D02*
Y641811D01*
X974096Y395906D02*
X985907D01*
X980001Y390000D02*
Y401811D01*
X794096Y1715906D02*
X805907D01*
X800001Y1710000D02*
Y1721811D01*
X854096Y155905D02*
X865907D01*
X860001Y150000D02*
Y161811D01*
X674096Y1955906D02*
X685907D01*
X680001Y1950000D02*
Y1961811D01*
X734096Y1835906D02*
X745907D01*
X740001Y1830000D02*
Y1841811D01*
X674096Y1715906D02*
X685907D01*
X680001Y1710000D02*
Y1721811D01*
X734096Y1595906D02*
X745907D01*
X740001Y1590000D02*
Y1601811D01*
X734096Y1115906D02*
X745907D01*
X740001Y1110000D02*
Y1121811D01*
X674096Y995905D02*
X685907D01*
X680001Y990000D02*
Y1001811D01*
X734096Y875905D02*
X745907D01*
X740001Y870000D02*
Y881811D01*
X674096Y755905D02*
X685907D01*
X680001Y750000D02*
Y761811D01*
X734096Y635905D02*
X745907D01*
X740001Y630000D02*
Y641811D01*
X674096Y515905D02*
X685907D01*
X680001Y510000D02*
Y521811D01*
X734096Y395906D02*
X745907D01*
X740001Y390000D02*
Y401811D01*
X614096Y2315905D02*
X625907D01*
X620001Y2310000D02*
Y2321811D01*
X554096Y2195905D02*
X565907D01*
X560001Y2190000D02*
Y2201811D01*
X614096Y2075905D02*
X625907D01*
X620001Y2070000D02*
Y2081811D01*
X554096Y1955906D02*
X565907D01*
X560001Y1950000D02*
Y1961811D01*
X614096Y1835906D02*
X625907D01*
X620001Y1830000D02*
Y1841811D01*
X554096Y1475906D02*
X565907D01*
X560001Y1470000D02*
Y1481811D01*
X554096Y1235906D02*
X565907D01*
X560001Y1230000D02*
Y1241811D01*
X614096Y875905D02*
X625907D01*
X620001Y870000D02*
Y881811D01*
X614096Y635905D02*
X625907D01*
X620001Y630000D02*
Y641811D01*
X554096Y515905D02*
X565907D01*
X560001Y510000D02*
Y521811D01*
X614096Y395906D02*
X625907D01*
X620001Y390000D02*
Y401811D01*
X434096Y2195905D02*
X445906D01*
X440001Y2190000D02*
Y2201811D01*
X494096Y2075905D02*
X505906D01*
X500001Y2070000D02*
Y2081811D01*
X434096Y1955906D02*
X445906D01*
X440001Y1950000D02*
Y1961811D01*
X494096Y1835906D02*
X505906D01*
X500001Y1830000D02*
Y1841811D01*
X434096Y1475906D02*
X445906D01*
X440001Y1470000D02*
Y1481811D01*
X494096Y1355906D02*
X505906D01*
X500001Y1350000D02*
Y1361811D01*
X434096Y1235906D02*
X445906D01*
X440001Y1230000D02*
Y1241811D01*
X434096Y515905D02*
X445906D01*
X440001Y510000D02*
Y521811D01*
X494096Y395906D02*
X505906D01*
X500001Y390000D02*
Y401811D01*
X314096Y2195905D02*
X325906D01*
X320001Y2190000D02*
Y2201811D01*
X374096Y2075905D02*
X385906D01*
X380001Y2070000D02*
Y2081811D01*
X374096Y1595906D02*
X385906D01*
X380001Y1590000D02*
Y1601811D01*
X374096Y1355906D02*
X385906D01*
X380001Y1350000D02*
Y1361811D01*
X314096Y1235906D02*
X325906D01*
X320001Y1230000D02*
Y1241811D01*
X374096Y1115906D02*
X385906D01*
X380001Y1110000D02*
Y1121811D01*
X314096Y995905D02*
X325906D01*
X320001Y990000D02*
Y1001811D01*
X374096Y395906D02*
X385906D01*
X380001Y390000D02*
Y401811D01*
X314096Y275906D02*
X325906D01*
X320001Y270000D02*
Y281811D01*
X254095Y2315905D02*
X265906D01*
X260001Y2310000D02*
Y2321811D01*
X254095Y155905D02*
X265906D01*
X260001Y150000D02*
Y161811D01*
X134095Y2315905D02*
X145906D01*
X140001Y2310000D02*
Y2321811D01*
X1012782Y2263053D02*
X1022625D01*
X1017704Y2258132D02*
Y2267975D01*
X1012782Y2194134D02*
X1022625D01*
X1017704Y2189213D02*
Y2199055D01*
X1012782Y2228594D02*
X1022625D01*
X1017704Y2223673D02*
Y2233515D01*
X893896Y2194709D02*
X903739D01*
X898818Y2189787D02*
Y2199630D01*
X893896Y2229168D02*
X903739D01*
X898818Y2224247D02*
Y2234090D01*
X893896Y2263628D02*
X903739D01*
X898818Y2258707D02*
Y2268549D01*
X1008762Y2066059D02*
X1018605D01*
X1013683Y2061138D02*
Y2070980D01*
X1008762Y2100519D02*
X1018605D01*
X1013683Y2095597D02*
Y2105440D01*
X1007901Y2134978D02*
X1017743D01*
X1012822Y2130057D02*
Y2139899D01*
X973441Y2066059D02*
X983283D01*
X978362Y2061138D02*
Y2070980D01*
X973441Y2100519D02*
X983283D01*
X978362Y2095597D02*
Y2105440D01*
X973441Y2134978D02*
X983283D01*
X978362Y2130057D02*
Y2139899D01*
X1007901Y2169438D02*
X1017743D01*
X1012822Y2164517D02*
Y2174359D01*
X973441Y2169438D02*
X983283D01*
X978362Y2164517D02*
Y2174359D01*
X367051Y1770386D02*
X376894D01*
X371972Y1765464D02*
Y1775307D01*
X196078Y2186197D02*
X205920D01*
X200999Y2181276D02*
Y2191118D01*
X166393Y2186197D02*
X176235D01*
X171314Y2181276D02*
Y2191118D01*
X136708Y2186197D02*
X146550D01*
X141629Y2181276D02*
Y2191118D01*
X107023Y2186197D02*
X116865D01*
X111944Y2181276D02*
Y2191118D01*
X77338Y2186197D02*
X87180D01*
X82259Y2181276D02*
Y2191118D01*
X47653Y2186197D02*
X57495D01*
X52574Y2181276D02*
Y2191118D01*
X1515515Y1840576D02*
X1525357D01*
X1520436Y1835655D02*
Y1845498D01*
X1545200Y1840576D02*
X1555042D01*
X1550121Y1835655D02*
Y1845498D01*
X1574885Y1840576D02*
X1584727D01*
X1579806Y1835655D02*
Y1845498D01*
X1604570Y1840576D02*
X1614412D01*
X1609491Y1835655D02*
Y1845498D01*
X1634255Y1840576D02*
X1644097D01*
X1639176Y1835655D02*
Y1845498D01*
X1663940Y1840576D02*
X1673782D01*
X1668861Y1835655D02*
Y1845498D01*
X1515515Y1648401D02*
X1525357D01*
X1520436Y1643480D02*
Y1653322D01*
X1545200Y1648401D02*
X1555042D01*
X1550121Y1643480D02*
Y1653322D01*
X1574885Y1648401D02*
X1584727D01*
X1579806Y1643480D02*
Y1653322D01*
X1604570Y1648401D02*
X1614412D01*
X1609491Y1643480D02*
Y1653322D01*
X1634255Y1648401D02*
X1644097D01*
X1639176Y1643480D02*
Y1653322D01*
X1663940Y1648401D02*
X1673782D01*
X1668861Y1643480D02*
Y1653322D01*
X1515515Y764985D02*
X1525357D01*
X1520436Y760064D02*
Y769907D01*
X1545200Y764985D02*
X1555042D01*
X1550121Y760064D02*
Y769907D01*
X1574885Y764985D02*
X1584727D01*
X1579806Y760064D02*
Y769907D01*
X1604570Y764985D02*
X1614412D01*
X1609491Y760064D02*
Y769907D01*
X1634255Y764985D02*
X1644097D01*
X1639176Y760064D02*
Y769907D01*
X1663940Y764985D02*
X1673782D01*
X1668861Y760064D02*
Y769907D01*
X1515515Y572810D02*
X1525357D01*
X1520436Y567889D02*
Y577731D01*
X1545200Y572810D02*
X1555042D01*
X1550121Y567889D02*
Y577731D01*
X1574885Y572810D02*
X1584727D01*
X1579806Y567889D02*
Y577731D01*
X1604570Y572810D02*
X1614412D01*
X1609491Y567889D02*
Y577731D01*
X1634255Y572810D02*
X1644097D01*
X1639176Y567889D02*
Y577731D01*
X1663940Y572810D02*
X1673782D01*
X1668861Y567889D02*
Y577731D01*
X951884Y200999D02*
X961726D01*
X956805Y196078D02*
Y205921D01*
X951884Y171314D02*
X961726D01*
X956805Y166393D02*
Y176236D01*
X951884Y141629D02*
X961726D01*
X956805Y136708D02*
Y146550D01*
X951884Y111944D02*
X961726D01*
X956805Y107023D02*
Y116865D01*
X951884Y82259D02*
X961726D01*
X956805Y77338D02*
Y87180D01*
X951884Y52574D02*
X961726D01*
X956805Y47653D02*
Y57495D01*
X759708Y200999D02*
X769551D01*
X764630Y196078D02*
Y205921D01*
X759708Y171314D02*
X769551D01*
X764630Y166393D02*
Y176236D01*
X759708Y141629D02*
X769551D01*
X764630Y136708D02*
Y146550D01*
X759708Y111944D02*
X769551D01*
X764630Y107023D02*
Y116865D01*
X759708Y82259D02*
X769551D01*
X764630Y77338D02*
Y87180D01*
X759708Y52574D02*
X769551D01*
X764630Y47653D02*
Y57495D01*
X196078Y572810D02*
X205920D01*
X200999Y567889D02*
Y577731D01*
X166393Y572810D02*
X176235D01*
X171314Y567889D02*
Y577731D01*
X136708Y572810D02*
X146550D01*
X141629Y567889D02*
Y577731D01*
X107023Y572810D02*
X116865D01*
X111944Y567889D02*
Y577731D01*
X77338Y572810D02*
X87180D01*
X82259Y567889D02*
Y577731D01*
X47653Y572810D02*
X57495D01*
X52574Y567889D02*
Y577731D01*
X196078Y764985D02*
X205920D01*
X200999Y760064D02*
Y769907D01*
X166393Y764985D02*
X176235D01*
X171314Y760064D02*
Y769907D01*
X136708Y764985D02*
X146550D01*
X141629Y760064D02*
Y769907D01*
X107023Y764985D02*
X116865D01*
X111944Y760064D02*
Y769907D01*
X77338Y764985D02*
X87180D01*
X82259Y760064D02*
Y769907D01*
X47653Y764985D02*
X57495D01*
X52574Y760064D02*
Y769907D01*
X196078Y1840576D02*
X205920D01*
X200999Y1835655D02*
Y1845498D01*
X166393Y1840576D02*
X176235D01*
X171314Y1835655D02*
Y1845498D01*
X136708Y1840576D02*
X146550D01*
X141629Y1835655D02*
Y1845498D01*
X107023Y1840576D02*
X116865D01*
X111944Y1835655D02*
Y1845498D01*
X77338Y1840576D02*
X87180D01*
X82259Y1835655D02*
Y1845498D01*
X47653Y1840576D02*
X57495D01*
X52574Y1835655D02*
Y1845498D01*
X47653Y1648401D02*
X57495D01*
X52574Y1643480D02*
Y1653322D01*
X77338Y1648401D02*
X87180D01*
X82259Y1643480D02*
Y1653322D01*
X107023Y1648401D02*
X116865D01*
X111944Y1643480D02*
Y1653322D01*
X136708Y1648401D02*
X146550D01*
X141629Y1643480D02*
Y1653322D01*
X166393Y1648401D02*
X176235D01*
X171314Y1643480D02*
Y1653322D01*
X196078Y1648401D02*
X205920D01*
X200999Y1643480D02*
Y1653322D01*
X225763Y227190D02*
X235605D01*
X230684Y222269D02*
Y232111D01*
X225763Y256875D02*
X235605D01*
X230684Y251954D02*
Y261796D01*
X225763Y286560D02*
X235605D01*
X230684Y281639D02*
Y291481D01*
X225763Y316245D02*
X235605D01*
X230684Y311324D02*
Y321166D01*
X225763Y345930D02*
X235605D01*
X230684Y341009D02*
Y350851D01*
X225763Y375615D02*
X235605D01*
X230684Y370694D02*
Y380536D01*
X196078Y227190D02*
X205920D01*
X200999Y222269D02*
Y232111D01*
X166393Y227190D02*
X176235D01*
X171314Y222269D02*
Y232111D01*
X136708Y227190D02*
X146550D01*
X141629Y222269D02*
Y232111D01*
X107023Y227190D02*
X116865D01*
X111944Y222269D02*
Y232111D01*
X77338Y227190D02*
X87180D01*
X82259Y222269D02*
Y232111D01*
X47653Y227190D02*
X57495D01*
X52574Y222269D02*
Y232111D01*
X414088Y230684D02*
X423931D01*
X419009Y225763D02*
Y235606D01*
X443773Y230684D02*
X453616D01*
X448694Y225763D02*
Y235606D01*
X473458Y230684D02*
X483301D01*
X478379Y225763D02*
Y235606D01*
X503143Y230684D02*
X512986D01*
X508064Y225763D02*
Y235606D01*
X532828Y230684D02*
X542671D01*
X537749Y225763D02*
Y235606D01*
X414088Y200999D02*
X423931D01*
X419009Y196078D02*
Y205921D01*
X414088Y171314D02*
X423931D01*
X419009Y166393D02*
Y176236D01*
X414088Y141629D02*
X423931D01*
X419009Y136708D02*
Y146550D01*
X414088Y111944D02*
X423931D01*
X419009Y107023D02*
Y116865D01*
X414088Y82259D02*
X423931D01*
X419009Y77338D02*
Y87180D01*
X414088Y52574D02*
X423931D01*
X419009Y47653D02*
Y57495D01*
X1297504Y230684D02*
X1307346D01*
X1302425Y225763D02*
Y235606D01*
X1267819Y230684D02*
X1277661D01*
X1272740Y225763D02*
Y235606D01*
X1238134Y230684D02*
X1247976D01*
X1243055Y225763D02*
Y235606D01*
X1208449Y230684D02*
X1218291D01*
X1213370Y225763D02*
Y235606D01*
X1178764Y230684D02*
X1188606D01*
X1183685Y225763D02*
Y235606D01*
X1149079Y230684D02*
X1158921D01*
X1154000Y225763D02*
Y235606D01*
X1297504Y200999D02*
X1307346D01*
X1302425Y196078D02*
Y205921D01*
X1297504Y171314D02*
X1307346D01*
X1302425Y166393D02*
Y176236D01*
X1297504Y141629D02*
X1307346D01*
X1302425Y136708D02*
Y146550D01*
X1297504Y111944D02*
X1307346D01*
X1302425Y107023D02*
Y116865D01*
X1297504Y82259D02*
X1307346D01*
X1302425Y77338D02*
Y87180D01*
X1297504Y52574D02*
X1307346D01*
X1302425Y47653D02*
Y57495D01*
X1485830Y227190D02*
X1495672D01*
X1490751Y222269D02*
Y232111D01*
X1485830Y256875D02*
X1495672D01*
X1490751Y251954D02*
Y261796D01*
X1485830Y286560D02*
X1495672D01*
X1490751Y281639D02*
Y291481D01*
X1485830Y316245D02*
X1495672D01*
X1490751Y311324D02*
Y321166D01*
X1485830Y345930D02*
X1495672D01*
X1490751Y341009D02*
Y350851D01*
X1515515Y227190D02*
X1525357D01*
X1520436Y222269D02*
Y232111D01*
X1545200Y227190D02*
X1555042D01*
X1550121Y222269D02*
Y232111D01*
X1574885Y227190D02*
X1584727D01*
X1579806Y222269D02*
Y232111D01*
X1604570Y227190D02*
X1614412D01*
X1609491Y222269D02*
Y232111D01*
X1634255Y227190D02*
X1644097D01*
X1639176Y222269D02*
Y232111D01*
X1663940Y227190D02*
X1673782D01*
X1668861Y222269D02*
Y232111D01*
X1485830Y1110606D02*
X1495672D01*
X1490751Y1105684D02*
Y1115527D01*
X1485830Y1080921D02*
X1495672D01*
X1490751Y1075999D02*
Y1085842D01*
X1485830Y1051236D02*
X1495672D01*
X1490751Y1046314D02*
Y1056157D01*
X1485830Y1021551D02*
X1495672D01*
X1490751Y1016629D02*
Y1026472D01*
X1485830Y991866D02*
X1495672D01*
X1490751Y986944D02*
Y996787D01*
X1485830Y962181D02*
X1495672D01*
X1490751Y957259D02*
Y967102D01*
X1515515Y1110606D02*
X1525357D01*
X1520436Y1105684D02*
Y1115527D01*
X1545200Y1110606D02*
X1555042D01*
X1550121Y1105684D02*
Y1115527D01*
X1574885Y1110606D02*
X1584727D01*
X1579806Y1105684D02*
Y1115527D01*
X1604570Y1110606D02*
X1614412D01*
X1609491Y1105684D02*
Y1115527D01*
X1634255Y1110606D02*
X1644097D01*
X1639176Y1105684D02*
Y1115527D01*
X1663940Y1110606D02*
X1673782D01*
X1668861Y1105684D02*
Y1115527D01*
X1485830Y1302781D02*
X1495672D01*
X1490751Y1297860D02*
Y1307702D01*
X1485830Y1332466D02*
X1495672D01*
X1490751Y1327544D02*
Y1337387D01*
X1485830Y1362151D02*
X1495672D01*
X1490751Y1357229D02*
Y1367072D01*
X1485830Y1391836D02*
X1495672D01*
X1490751Y1386915D02*
Y1396757D01*
X1485830Y1421521D02*
X1495672D01*
X1490751Y1416600D02*
Y1426442D01*
X1515515Y1302781D02*
X1525357D01*
X1520436Y1297860D02*
Y1307702D01*
X1545200Y1302781D02*
X1555042D01*
X1550121Y1297860D02*
Y1307702D01*
X1574885Y1302781D02*
X1584727D01*
X1579806Y1297860D02*
Y1307702D01*
X1604570Y1302781D02*
X1614412D01*
X1609491Y1297860D02*
Y1307702D01*
X1634255Y1302781D02*
X1644097D01*
X1639176Y1297860D02*
Y1307702D01*
X1663940Y1302781D02*
X1673782D01*
X1668861Y1297860D02*
Y1307702D01*
X1485830Y2186197D02*
X1495672D01*
X1490751Y2181276D02*
Y2191118D01*
X1485830Y2156512D02*
X1495672D01*
X1490751Y2151590D02*
Y2161433D01*
X1485830Y2126827D02*
X1495672D01*
X1490751Y2121905D02*
Y2131748D01*
X1485830Y2097142D02*
X1495672D01*
X1490751Y2092220D02*
Y2102063D01*
X1485830Y2067457D02*
X1495672D01*
X1490751Y2062535D02*
Y2072378D01*
X1485830Y2037772D02*
X1495672D01*
X1490751Y2032851D02*
Y2042693D01*
X1515515Y2186197D02*
X1525357D01*
X1520436Y2181276D02*
Y2191118D01*
X1545200Y2186197D02*
X1555042D01*
X1550121Y2181276D02*
Y2191118D01*
X1574885Y2186197D02*
X1584727D01*
X1579806Y2181276D02*
Y2191118D01*
X1604570Y2186197D02*
X1614412D01*
X1609491Y2181276D02*
Y2191118D01*
X1634255Y2186197D02*
X1644097D01*
X1639176Y2181276D02*
Y2191118D01*
X1663940Y2186197D02*
X1673782D01*
X1668861Y2181276D02*
Y2191118D01*
X225763Y2186197D02*
X235605D01*
X230684Y2181276D02*
Y2191118D01*
X225763Y2156512D02*
X235605D01*
X230684Y2151590D02*
Y2161433D01*
X225763Y2126827D02*
X235605D01*
X230684Y2121905D02*
Y2131748D01*
X225763Y2097142D02*
X235605D01*
X230684Y2092220D02*
Y2102063D01*
X225763Y2067457D02*
X235605D01*
X230684Y2062535D02*
Y2072378D01*
X225763Y2037772D02*
X235605D01*
X230684Y2032851D02*
Y2042693D01*
X225763Y1302781D02*
X235605D01*
X230684Y1297860D02*
Y1307702D01*
X225763Y1332466D02*
X235605D01*
X230684Y1327544D02*
Y1337387D01*
X225763Y1362151D02*
X235605D01*
X230684Y1357229D02*
Y1367072D01*
X225763Y1391836D02*
X235605D01*
X230684Y1386915D02*
Y1396757D01*
X225763Y1421521D02*
X235605D01*
X230684Y1416600D02*
Y1426442D01*
X225763Y1451206D02*
X235605D01*
X230684Y1446284D02*
Y1456127D01*
X196078Y1302781D02*
X205920D01*
X200999Y1297860D02*
Y1307702D01*
X166393Y1302781D02*
X176235D01*
X171314Y1297860D02*
Y1307702D01*
X136708Y1302781D02*
X146550D01*
X141629Y1297860D02*
Y1307702D01*
X107023Y1302781D02*
X116865D01*
X111944Y1297860D02*
Y1307702D01*
X77338Y1302781D02*
X87180D01*
X82259Y1297860D02*
Y1307702D01*
X47653Y1302781D02*
X57495D01*
X52574Y1297860D02*
Y1307702D01*
X47653Y1110606D02*
X57495D01*
X52574Y1105684D02*
Y1115527D01*
X77338Y1110606D02*
X87180D01*
X82259Y1105684D02*
Y1115527D01*
X107023Y1110606D02*
X116865D01*
X111944Y1105684D02*
Y1115527D01*
X136708Y1110606D02*
X146550D01*
X141629Y1105684D02*
Y1115527D01*
X166393Y1110606D02*
X176235D01*
X171314Y1105684D02*
Y1115527D01*
X196078Y1110606D02*
X205920D01*
X200999Y1105684D02*
Y1115527D01*
X225763Y962181D02*
X235605D01*
X230684Y957259D02*
Y967102D01*
X225763Y991866D02*
X235605D01*
X230684Y986944D02*
Y996787D01*
X225763Y1021551D02*
X235605D01*
X230684Y1016629D02*
Y1026472D01*
X225763Y1051236D02*
X235605D01*
X230684Y1046314D02*
Y1056157D01*
X225763Y1080921D02*
X235605D01*
X230684Y1075999D02*
Y1085842D01*
X225763Y1110606D02*
X235605D01*
X230684Y1105684D02*
Y1115527D01*
X811871Y1306858D02*
X821714D01*
X816792Y1301936D02*
Y1311779D01*
X686597Y1430586D02*
X696440D01*
X691519Y1425665D02*
Y1435507D01*
X839748Y1376951D02*
X849591D01*
X844669Y1372030D02*
Y1381873D01*
X1400404Y668898D02*
X1410247D01*
X1405326Y663977D02*
Y673819D01*
X1400404Y1744489D02*
X1410247D01*
X1405326Y1739568D02*
Y1749410D01*
X311188Y1744489D02*
X321030D01*
X316109Y1739568D02*
Y1749410D01*
X311188Y668898D02*
X321030D01*
X316109Y663977D02*
Y673819D01*
X1394510Y1693819D02*
X1404352D01*
X1399431Y1688898D02*
Y1698740D01*
X1413228Y1670780D02*
X1423071D01*
X1418150Y1665859D02*
Y1675701D01*
X1427612Y1644812D02*
X1437454D01*
X1432533Y1639891D02*
Y1649733D01*
X1436217Y1616402D02*
X1446060D01*
X1441139Y1611481D02*
Y1621323D01*
X1439637Y1586915D02*
X1449480D01*
X1444559Y1581993D02*
Y1591836D01*
X1439703Y1557230D02*
X1449546D01*
X1444624Y1552308D02*
Y1562151D01*
X1439703Y1527545D02*
X1449546D01*
X1444624Y1522623D02*
Y1532466D01*
X1440439Y1497869D02*
X1450282D01*
X1445361Y1492947D02*
Y1502790D01*
X1453167Y1471051D02*
X1463010D01*
X1458089Y1466130D02*
Y1475972D01*
X1478927Y1456298D02*
X1488769D01*
X1483848Y1451377D02*
Y1461219D01*
X1480676Y1517116D02*
X1490518D01*
X1485597Y1512195D02*
Y1522037D01*
X1480676Y1546801D02*
X1490518D01*
X1485597Y1541880D02*
Y1551723D01*
X1480676Y1576486D02*
X1490518D01*
X1485597Y1571565D02*
Y1581408D01*
X1479510Y1606149D02*
X1489353D01*
X1484431Y1601227D02*
Y1611070D01*
X1474096Y1635336D02*
X1483939D01*
X1479018Y1630414D02*
Y1640257D01*
X1464242Y1663337D02*
X1474084D01*
X1469163Y1658416D02*
Y1668258D01*
X1450120Y1689448D02*
X1459962D01*
X1455041Y1684527D02*
Y1694369D01*
X1432252Y1713153D02*
X1442095D01*
X1437174Y1708232D02*
Y1718075D01*
X1444962Y2006016D02*
X1454804D01*
X1449883Y2001095D02*
Y2010938D01*
X1439703Y1976801D02*
X1449546D01*
X1444624Y1971880D02*
Y1981722D01*
X1439703Y1947116D02*
X1449546D01*
X1444624Y1942195D02*
Y1952037D01*
X1439703Y1917431D02*
X1449546D01*
X1444624Y1912510D02*
Y1922352D01*
X1438700Y1887763D02*
X1448543D01*
X1443621Y1882842D02*
Y1892684D01*
X1432696Y1858691D02*
X1442538D01*
X1437617Y1853770D02*
Y1863613D01*
X1421265Y1831295D02*
X1431108D01*
X1426187Y1826374D02*
Y1836217D01*
X1404702Y1806661D02*
X1414545D01*
X1409623Y1801740D02*
Y1811582D01*
X1384377Y1785025D02*
X1394220D01*
X1389298Y1780104D02*
Y1789947D01*
X1428525Y1771574D02*
X1438368D01*
X1433447Y1766653D02*
Y1776495D01*
X1446978Y1794827D02*
X1456820D01*
X1451899Y1789906D02*
Y1799748D01*
X1461745Y1820578D02*
X1471588D01*
X1466667Y1815657D02*
Y1825499D01*
X1472496Y1848248D02*
X1482339D01*
X1477418Y1843327D02*
Y1853169D01*
X1478990Y1877214D02*
X1488832D01*
X1483911Y1872293D02*
Y1882135D01*
X1480676Y1906851D02*
X1490518D01*
X1485597Y1901930D02*
Y1911772D01*
X1480676Y1936536D02*
X1490518D01*
X1485597Y1931615D02*
Y1941457D01*
X1480676Y1966221D02*
X1490518D01*
X1485597Y1961300D02*
Y1971142D01*
X284254Y1718758D02*
X294097D01*
X289176Y1713836D02*
Y1723679D01*
X265618Y1695652D02*
X275460D01*
X270539Y1690731D02*
Y1700573D01*
X250646Y1670019D02*
X260488D01*
X255567Y1665098D02*
Y1674940D01*
X239675Y1642436D02*
X249518D01*
X244596Y1637515D02*
Y1647357D01*
X232952Y1613522D02*
X242794D01*
X237873Y1608601D02*
Y1618443D01*
X230917Y1583907D02*
X240759D01*
X235838Y1578986D02*
Y1588828D01*
X230917Y1554222D02*
X240759D01*
X235838Y1549301D02*
Y1559143D01*
X230917Y1524537D02*
X240759D01*
X235838Y1519616D02*
Y1529458D01*
X246674Y1461902D02*
X256516D01*
X251595Y1456981D02*
Y1466823D01*
X266905Y1483625D02*
X276748D01*
X271826Y1478704D02*
Y1488546D01*
X271889Y1512889D02*
X281731D01*
X276810Y1507967D02*
Y1517810D01*
X271889Y1542574D02*
X281731D01*
X276810Y1537652D02*
Y1547495D01*
X271889Y1572259D02*
X281731D01*
X276810Y1567337D02*
Y1577180D01*
X272939Y1601925D02*
X282781D01*
X277860Y1597004D02*
Y1606846D01*
X279125Y1630958D02*
X288967D01*
X284046Y1626037D02*
Y1635880D01*
X290641Y1658319D02*
X300483D01*
X295562Y1653397D02*
Y1663240D01*
X307357Y1682849D02*
X317200D01*
X312278Y1677928D02*
Y1687771D01*
X230917Y1971755D02*
X240759D01*
X235838Y1966834D02*
Y1976677D01*
X230917Y1942070D02*
X240759D01*
X235838Y1937149D02*
Y1946992D01*
X230917Y1912385D02*
X240759D01*
X235838Y1907464D02*
Y1917306D01*
X232089Y1882723D02*
X241931D01*
X237010Y1877802D02*
Y1887645D01*
X237537Y1853543D02*
X247379D01*
X242458Y1848621D02*
Y1858464D01*
X247398Y1825543D02*
X257240D01*
X252319Y1820622D02*
Y1830465D01*
X261532Y1799439D02*
X271375D01*
X266454Y1794518D02*
Y1804361D01*
X279411Y1775742D02*
X289253D01*
X284332Y1770821D02*
Y1780664D01*
X310827Y1802171D02*
X320670D01*
X315749Y1797250D02*
Y1807092D01*
X293142Y1826013D02*
X302984D01*
X298063Y1821091D02*
Y1830934D01*
X280822Y1853020D02*
X290664D01*
X285743Y1848099D02*
Y1857941D01*
X273540Y1881798D02*
X283382D01*
X278461Y1876877D02*
Y1886719D01*
X271889Y1911437D02*
X281731D01*
X276810Y1906516D02*
Y1916358D01*
X271889Y1941122D02*
X281731D01*
X276810Y1936201D02*
Y1946043D01*
X271889Y1970807D02*
X281731D01*
X276810Y1965886D02*
Y1975728D01*
X268978Y2000349D02*
X278820D01*
X273899Y1995428D02*
Y2005270D01*
X251241Y2024153D02*
X261084D01*
X256163Y2019232D02*
Y2029074D01*
X341572Y1770020D02*
X351414D01*
X346493Y1765098D02*
Y1774941D01*
X339190Y1719431D02*
X349033D01*
X344111Y1714510D02*
Y1724353D01*
X368861Y1718529D02*
X378704D01*
X373783Y1713607D02*
Y1723450D01*
X398538Y1717837D02*
X408381D01*
X403459Y1712915D02*
Y1722758D01*
X427059Y1709603D02*
X436901D01*
X431980Y1704682D02*
Y1714524D01*
X450860Y1691863D02*
X460702D01*
X455781Y1686942D02*
Y1696784D01*
X471850Y1670873D02*
X481693D01*
X476771Y1665951D02*
Y1675794D01*
X492841Y1649882D02*
X502683D01*
X497762Y1644961D02*
Y1654803D01*
X513831Y1628892D02*
X523673D01*
X518752Y1623970D02*
Y1633813D01*
X534822Y1607901D02*
X544664D01*
X539743Y1602980D02*
Y1612822D01*
X555812Y1586911D02*
X565654D01*
X560733Y1581990D02*
Y1591832D01*
X576803Y1565920D02*
X586645D01*
X581724Y1560999D02*
Y1570841D01*
X597793Y1544930D02*
X607635D01*
X602714Y1540009D02*
Y1549851D01*
X618783Y1523939D02*
X628626D01*
X623705Y1519018D02*
Y1528861D01*
X639774Y1502949D02*
X649616D01*
X644695Y1498028D02*
Y1507870D01*
X646507Y1474038D02*
X656349D01*
X651428Y1469116D02*
Y1478959D01*
X630483Y1449049D02*
X640326D01*
X635404Y1444128D02*
Y1453970D01*
X628651Y1419420D02*
X638493D01*
X633572Y1414499D02*
Y1424342D01*
X641461Y1392642D02*
X651303D01*
X646382Y1387720D02*
Y1397563D01*
X665687Y1375486D02*
X675529D01*
X670608Y1370565D02*
Y1380407D01*
X695201Y1372302D02*
X705043D01*
X700122Y1367381D02*
Y1377224D01*
X722525Y1383903D02*
X732368D01*
X727447Y1378981D02*
Y1388824D01*
X751221Y1391502D02*
X761063D01*
X756142Y1386580D02*
Y1396423D01*
X770367Y1368816D02*
X780210D01*
X775289Y1363895D02*
Y1373738D01*
X780681Y1340981D02*
X790524D01*
X785602Y1336060D02*
Y1345902D01*
X808926Y1331845D02*
X818768D01*
X813847Y1326924D02*
Y1336766D01*
X822671Y1393478D02*
X832514D01*
X827592Y1388557D02*
Y1398399D01*
X801681Y1414468D02*
X811523D01*
X806602Y1409547D02*
Y1419389D01*
X780641Y1435409D02*
X790484D01*
X785562Y1430488D02*
Y1440331D01*
X754316Y1449128D02*
X764159D01*
X759237Y1444207D02*
Y1454049D01*
X724646Y1448177D02*
X734489D01*
X729568Y1443255D02*
Y1453098D01*
X695040Y1450341D02*
X704883D01*
X699962Y1445420D02*
Y1455262D01*
X705952Y1477948D02*
X715794D01*
X710873Y1473027D02*
Y1482869D01*
X702028Y1507372D02*
X711870D01*
X706949Y1502451D02*
Y1512294D01*
X684684Y1531464D02*
X694527D01*
X689606Y1526543D02*
Y1536386D01*
X663694Y1552455D02*
X673536D01*
X668615Y1547534D02*
Y1557376D01*
X642704Y1573445D02*
X652546D01*
X647625Y1568524D02*
Y1578367D01*
X621713Y1594436D02*
X631556D01*
X626634Y1589515D02*
Y1599357D01*
X600723Y1615426D02*
X610565D01*
X605644Y1610505D02*
Y1620348D01*
X579732Y1636417D02*
X589575D01*
X584653Y1631496D02*
Y1641338D01*
X558742Y1657407D02*
X568584D01*
X563663Y1652486D02*
Y1662328D01*
X537751Y1678398D02*
X547594D01*
X542672Y1673476D02*
Y1683319D01*
X516761Y1699388D02*
X526603D01*
X521682Y1694467D02*
Y1704309D01*
X495770Y1720379D02*
X505613D01*
X500691Y1715457D02*
Y1725300D01*
X474214Y1740787D02*
X484056D01*
X479135Y1735866D02*
Y1745709D01*
X449359Y1757018D02*
X459201D01*
X454280Y1752097D02*
Y1761939D01*
X421326Y1766783D02*
X431168D01*
X426247Y1761862D02*
Y1771704D01*
X391874Y1770499D02*
X401717D01*
X396796Y1765577D02*
Y1775420D01*
X1291777Y1767146D02*
X1301620D01*
X1296698Y1762224D02*
Y1772067D01*
X1263665Y1757611D02*
X1273508D01*
X1268586Y1752690D02*
Y1762532D01*
X1238549Y1741787D02*
X1248391D01*
X1243470Y1736866D02*
Y1746709D01*
X1216910Y1721467D02*
X1226752D01*
X1221831Y1716545D02*
Y1726388D01*
X1195919Y1700476D02*
X1205762D01*
X1200840Y1695555D02*
Y1705397D01*
X1174929Y1679486D02*
X1184771D01*
X1179850Y1674564D02*
Y1684407D01*
X1153938Y1658495D02*
X1163781D01*
X1158860Y1653574D02*
Y1663416D01*
X1132948Y1637505D02*
X1142790D01*
X1137869Y1632583D02*
Y1642426D01*
X1111957Y1616514D02*
X1121800D01*
X1116879Y1611593D02*
Y1621435D01*
X1090967Y1595524D02*
X1100809D01*
X1095888Y1590602D02*
Y1600445D01*
X1069976Y1574533D02*
X1079819D01*
X1074898Y1569612D02*
Y1579454D01*
X1048986Y1553543D02*
X1058829D01*
X1053907Y1548621D02*
Y1558464D01*
X1027996Y1532552D02*
X1037838D01*
X1032917Y1527631D02*
Y1537474D01*
X1010164Y1508820D02*
X1020006D01*
X1015085Y1503899D02*
Y1513741D01*
X1005434Y1479514D02*
X1015277D01*
X1010355Y1474593D02*
Y1484435D01*
X1026081Y1423851D02*
X1035924D01*
X1031003Y1418930D02*
Y1428772D01*
X1002143Y1441406D02*
X1011986D01*
X1007064Y1436485D02*
Y1446327D01*
X973865Y1450437D02*
X983707D01*
X978786Y1445515D02*
Y1455358D01*
X944762Y1444589D02*
X954604D01*
X949683Y1439668D02*
Y1449510D01*
X921540Y1426097D02*
X931382D01*
X926461Y1421176D02*
Y1431018D01*
X903283Y1408425D02*
X913126D01*
X908205Y1403504D02*
Y1413346D01*
X887972Y1389928D02*
X897815D01*
X892893Y1385007D02*
Y1394849D01*
X859620Y1362124D02*
X869463D01*
X864542Y1357203D02*
Y1367045D01*
X920489Y1336446D02*
X930331D01*
X925410Y1331525D02*
Y1341367D01*
X941438Y1357477D02*
X951281D01*
X946360Y1352556D02*
Y1362398D01*
X953480Y1384610D02*
X963322D01*
X958401Y1379689D02*
Y1389532D01*
X982828Y1389069D02*
X992670D01*
X987749Y1384148D02*
Y1393990D01*
X1008350Y1373909D02*
X1018192D01*
X1013271Y1368988D02*
Y1378831D01*
X1038017Y1372884D02*
X1047860D01*
X1042938Y1367963D02*
Y1377805D01*
X1064370Y1386548D02*
X1074213D01*
X1069292Y1381627D02*
Y1391469D01*
X1080766Y1411295D02*
X1090608D01*
X1085687Y1406374D02*
Y1416216D01*
X1083054Y1440892D02*
X1092897D01*
X1087976Y1435970D02*
Y1445813D01*
X1070646Y1467859D02*
X1080489D01*
X1075568Y1462938D02*
Y1472780D01*
X1066056Y1497187D02*
X1075899D01*
X1070978Y1492266D02*
Y1502108D01*
X1087047Y1518178D02*
X1096889D01*
X1091968Y1513256D02*
Y1523099D01*
X1108037Y1539168D02*
X1117880D01*
X1112958Y1534247D02*
Y1544089D01*
X1129028Y1560159D02*
X1138870D01*
X1133949Y1555237D02*
Y1565080D01*
X1150018Y1581149D02*
X1159861D01*
X1154939Y1576228D02*
Y1586070D01*
X1171009Y1602139D02*
X1180851D01*
X1175930Y1597218D02*
Y1607061D01*
X1191999Y1623130D02*
X1201842D01*
X1196920Y1618209D02*
Y1628051D01*
X1212990Y1644120D02*
X1222832D01*
X1217911Y1639199D02*
Y1649042D01*
X1233980Y1665111D02*
X1243822D01*
X1238901Y1660190D02*
Y1670032D01*
X1254971Y1686101D02*
X1264813D01*
X1259892Y1681180D02*
Y1691023D01*
X1277255Y1705713D02*
X1287097D01*
X1282176Y1700791D02*
Y1710634D01*
X1304723Y1716969D02*
X1314565D01*
X1309644Y1712048D02*
Y1721890D01*
X1334367Y1718529D02*
X1344209D01*
X1339288Y1713607D02*
Y1723450D01*
X1364052Y1718529D02*
X1373894D01*
X1368973Y1713608D02*
Y1723450D01*
X1351032Y1770449D02*
X1360874D01*
X1355953Y1765528D02*
Y1775370D01*
X1321347Y1770449D02*
X1331189D01*
X1326268Y1765528D02*
Y1775370D01*
X1444962Y930425D02*
X1454804D01*
X1449883Y925504D02*
Y935346D01*
X1439703Y901210D02*
X1449546D01*
X1444624Y896288D02*
Y906131D01*
X1439703Y871525D02*
X1449546D01*
X1444624Y866604D02*
Y876446D01*
X1439703Y841840D02*
X1449546D01*
X1444624Y836918D02*
Y846761D01*
X1438700Y812172D02*
X1448543D01*
X1443621Y807250D02*
Y817093D01*
X1432696Y783100D02*
X1442538D01*
X1437617Y778179D02*
Y788021D01*
X1421265Y755704D02*
X1431108D01*
X1426187Y750783D02*
Y760625D01*
X1404702Y731070D02*
X1414544D01*
X1409623Y726148D02*
Y735991D01*
X1428525Y695983D02*
X1438368D01*
X1433447Y691062D02*
Y700904D01*
X1446978Y719236D02*
X1456820D01*
X1451899Y714315D02*
Y724157D01*
X1461745Y744987D02*
X1471588D01*
X1466667Y740066D02*
Y749908D01*
X1472496Y772657D02*
X1482339D01*
X1477418Y767736D02*
Y777578D01*
X1478990Y801623D02*
X1488832D01*
X1483911Y796702D02*
Y806544D01*
X1480676Y831260D02*
X1490518D01*
X1485597Y826339D02*
Y836181D01*
X1480676Y860945D02*
X1490518D01*
X1485597Y856024D02*
Y865866D01*
X1480676Y890630D02*
X1490518D01*
X1485597Y885709D02*
Y895551D01*
X1373519Y639219D02*
X1383362D01*
X1378441Y634298D02*
Y644140D01*
X1394510Y618229D02*
X1404352D01*
X1399431Y613307D02*
Y623150D01*
X1413228Y595189D02*
X1423071D01*
X1418150Y590268D02*
Y600110D01*
X1427612Y569221D02*
X1437454D01*
X1432533Y564300D02*
Y574143D01*
X1436217Y540811D02*
X1446060D01*
X1441139Y535890D02*
Y545732D01*
X1439637Y511324D02*
X1449480D01*
X1444559Y506403D02*
Y516245D01*
X1439703Y481639D02*
X1449546D01*
X1444624Y476718D02*
Y486560D01*
X1439703Y451954D02*
X1449546D01*
X1444624Y447033D02*
Y456875D01*
X1440439Y422278D02*
X1450282D01*
X1445361Y417357D02*
Y427199D01*
X1453167Y395460D02*
X1463010D01*
X1458089Y390539D02*
Y400381D01*
X1478927Y380707D02*
X1488769D01*
X1483848Y375786D02*
Y385628D01*
X1480676Y441525D02*
X1490518D01*
X1485597Y436604D02*
Y446447D01*
X1480676Y471210D02*
X1490518D01*
X1485597Y466289D02*
Y476132D01*
X1480676Y500895D02*
X1490518D01*
X1485597Y495974D02*
Y505817D01*
X1479510Y530558D02*
X1489353D01*
X1484431Y525636D02*
Y535479D01*
X1474096Y559745D02*
X1483939D01*
X1479018Y554823D02*
Y564666D01*
X1464242Y587746D02*
X1474084D01*
X1469163Y582825D02*
Y592667D01*
X1450120Y613857D02*
X1459962D01*
X1455041Y608936D02*
Y618778D01*
X1432253Y637563D02*
X1442095D01*
X1437174Y632641D02*
Y642484D01*
X284255Y643167D02*
X294097D01*
X289176Y638246D02*
Y648088D01*
X265618Y620061D02*
X275460D01*
X270539Y615140D02*
Y624982D01*
X250646Y594429D02*
X260488D01*
X255567Y589507D02*
Y599350D01*
X239675Y566845D02*
X249518D01*
X244596Y561924D02*
Y571766D01*
X232952Y537932D02*
X242794D01*
X237873Y533010D02*
Y542853D01*
X230917Y508316D02*
X240759D01*
X235838Y503395D02*
Y513237D01*
X230917Y478631D02*
X240759D01*
X235838Y473710D02*
Y483553D01*
X230917Y448946D02*
X240759D01*
X235838Y444025D02*
Y453868D01*
X246674Y386311D02*
X256516D01*
X251595Y381390D02*
Y391232D01*
X266905Y408034D02*
X276747D01*
X271826Y403113D02*
Y412955D01*
X271889Y437298D02*
X281731D01*
X276810Y432377D02*
Y442219D01*
X271889Y466983D02*
X281731D01*
X276810Y462062D02*
Y471904D01*
X271889Y496668D02*
X281731D01*
X276810Y491747D02*
Y501589D01*
X272939Y526334D02*
X282781D01*
X277860Y521413D02*
Y531255D01*
X279125Y555367D02*
X288967D01*
X284046Y550446D02*
Y560289D01*
X290641Y582728D02*
X300483D01*
X295562Y577807D02*
Y587649D01*
X307357Y607259D02*
X317200D01*
X312278Y602337D02*
Y612180D01*
X230917Y896164D02*
X240759D01*
X235838Y891243D02*
Y901086D01*
X230917Y866479D02*
X240759D01*
X235838Y861558D02*
Y871401D01*
X230917Y836794D02*
X240759D01*
X235838Y831873D02*
Y841716D01*
X232089Y807133D02*
X241931D01*
X237010Y802211D02*
Y812054D01*
X237537Y777952D02*
X247379D01*
X242458Y773031D02*
Y782873D01*
X247398Y749952D02*
X257240D01*
X252319Y745031D02*
Y754874D01*
X261532Y723848D02*
X271375D01*
X266453Y718927D02*
Y728770D01*
X279411Y700152D02*
X289253D01*
X284332Y695230D02*
Y705073D01*
X310827Y726580D02*
X320670D01*
X315749Y721659D02*
Y731501D01*
X293142Y750421D02*
X302984D01*
X298063Y745500D02*
Y755343D01*
X280822Y777429D02*
X290664D01*
X285743Y772508D02*
Y782350D01*
X273540Y806207D02*
X283382D01*
X278461Y801286D02*
Y811128D01*
X271889Y835846D02*
X281731D01*
X276810Y830925D02*
Y840767D01*
X271889Y865531D02*
X281731D01*
X276810Y860610D02*
Y870452D01*
X271889Y895216D02*
X281731D01*
X276810Y890295D02*
Y900137D01*
X268978Y924758D02*
X278820D01*
X273899Y919837D02*
Y929679D01*
X251241Y948562D02*
X261084D01*
X256163Y943641D02*
Y953483D01*
X979736Y1191465D02*
X989579D01*
X984658Y1186543D02*
Y1196386D01*
X1008319Y1183451D02*
X1018162D01*
X1013240Y1178529D02*
Y1188372D01*
X1048648Y1218268D02*
X1058490D01*
X1053569Y1213347D02*
Y1223189D01*
X950052Y1191465D02*
X959894D01*
X954973Y1186543D02*
Y1196386D01*
X1030470Y1163688D02*
X1040312D01*
X1035391Y1158767D02*
Y1168610D01*
X1051460Y1142698D02*
X1061303D01*
X1056382Y1137777D02*
Y1147619D01*
X1072451Y1121707D02*
X1082293D01*
X1077372Y1116786D02*
Y1126629D01*
X1093441Y1100717D02*
X1103284D01*
X1098363Y1095796D02*
Y1105638D01*
X1114432Y1079726D02*
X1124274D01*
X1119353Y1074805D02*
Y1084648D01*
X1135422Y1058736D02*
X1145265D01*
X1140343Y1053815D02*
Y1063657D01*
X1156413Y1037745D02*
X1166255D01*
X1161334Y1032824D02*
Y1042667D01*
X1177403Y1016755D02*
X1187246D01*
X1182324Y1011834D02*
Y1021676D01*
X1197967Y995347D02*
X1207810D01*
X1202888Y990425D02*
Y1000268D01*
X1212643Y969543D02*
X1222486D01*
X1217564Y964622D02*
Y974464D01*
X1217213Y940212D02*
X1227055D01*
X1222134Y935291D02*
Y945133D01*
X1217213Y910527D02*
X1227055D01*
X1222134Y905606D02*
Y915448D01*
X1217213Y880842D02*
X1227055D01*
X1222134Y875921D02*
Y885763D01*
X1217213Y851157D02*
X1227055D01*
X1222134Y846236D02*
Y856078D01*
X1217213Y821472D02*
X1227055D01*
X1222134Y816551D02*
Y826393D01*
X1217213Y791787D02*
X1227055D01*
X1222134Y786866D02*
Y796708D01*
X1217213Y762102D02*
X1227055D01*
X1222134Y757181D02*
Y767023D01*
X1217998Y732427D02*
X1227840D01*
X1222919Y727506D02*
Y737348D01*
X1225342Y703665D02*
X1235185D01*
X1230263Y698744D02*
Y708586D01*
X1241247Y678601D02*
X1251089D01*
X1246168Y673679D02*
Y683522D01*
X1263370Y658808D02*
X1273213D01*
X1268292Y653887D02*
Y663729D01*
X1290556Y646885D02*
X1300398D01*
X1295477Y641964D02*
Y651807D01*
X1319977Y642938D02*
X1329820D01*
X1324899Y638016D02*
Y647859D01*
X1349662Y642938D02*
X1359505D01*
X1354583Y638016D02*
Y647859D01*
X1365327Y694858D02*
X1375170D01*
X1370248Y689937D02*
Y699779D01*
X1335642Y694858D02*
X1345485D01*
X1340563Y689937D02*
Y699779D01*
X1306010Y696632D02*
X1315853D01*
X1310931Y691711D02*
Y701553D01*
X1280875Y712425D02*
X1290717D01*
X1285796Y707504D02*
Y717346D01*
X1269606Y739888D02*
X1279448D01*
X1274527Y734966D02*
Y744809D01*
X1269133Y769569D02*
X1278975D01*
X1274054Y764648D02*
Y774490D01*
X1269133Y799254D02*
X1278975D01*
X1274054Y794332D02*
Y804175D01*
X1269133Y828939D02*
X1278975D01*
X1274054Y824018D02*
Y833860D01*
X1269133Y858624D02*
X1278975D01*
X1274054Y853702D02*
Y863545D01*
X1269133Y888309D02*
X1278975D01*
X1274054Y883388D02*
Y893230D01*
X1269133Y917994D02*
X1278975D01*
X1274054Y913072D02*
Y922915D01*
X1269076Y947679D02*
X1278919D01*
X1273998Y942758D02*
Y952600D01*
X1264746Y977046D02*
X1274588D01*
X1269667Y972125D02*
Y981967D01*
X1254319Y1004840D02*
X1264161D01*
X1259240Y999918D02*
Y1009761D01*
X1237483Y1029289D02*
X1247325D01*
X1242404Y1024367D02*
Y1034210D01*
X1216903Y1050681D02*
X1226745D01*
X1221824Y1045760D02*
Y1055603D01*
X1195912Y1071672D02*
X1205755D01*
X1200834Y1066751D02*
Y1076593D01*
X1174922Y1092662D02*
X1184764D01*
X1179843Y1087741D02*
Y1097584D01*
X1153931Y1113653D02*
X1163774D01*
X1158853Y1108732D02*
Y1118574D01*
X1132941Y1134643D02*
X1142783D01*
X1137862Y1129722D02*
Y1139565D01*
X1111951Y1155634D02*
X1121793D01*
X1116872Y1150713D02*
Y1160555D01*
X1090960Y1176624D02*
X1100803D01*
X1095881Y1171703D02*
Y1181545D01*
X1069970Y1197615D02*
X1079812D01*
X1074891Y1192694D02*
Y1202536D01*
X1023681Y1234326D02*
X1033523D01*
X1028602Y1229405D02*
Y1239248D01*
X993497Y1240675D02*
X1003340D01*
X998419Y1235754D02*
Y1245596D01*
X711455Y1241725D02*
X721297D01*
X716376Y1236804D02*
Y1246646D01*
X683431Y1231932D02*
X693274D01*
X688353Y1227011D02*
Y1236853D01*
X659017Y1215045D02*
X668860D01*
X663939Y1210124D02*
Y1219966D01*
X638045Y1194037D02*
X647887D01*
X642966Y1189116D02*
Y1198958D01*
X617054Y1173047D02*
X626897D01*
X621975Y1168125D02*
Y1177968D01*
X596064Y1152056D02*
X605906D01*
X600985Y1147135D02*
Y1156977D01*
X575073Y1131066D02*
X584916D01*
X579995Y1126144D02*
Y1135987D01*
X554083Y1110075D02*
X563925D01*
X559004Y1105154D02*
Y1114996D01*
X533092Y1089085D02*
X542935D01*
X538014Y1084164D02*
Y1094006D01*
X512102Y1068094D02*
X521944D01*
X517023Y1063173D02*
Y1073015D01*
X491111Y1047104D02*
X500954D01*
X496033Y1042182D02*
Y1052025D01*
X470820Y1025437D02*
X480662D01*
X475741Y1020516D02*
Y1030358D01*
X455126Y1000240D02*
X464968D01*
X460047Y995319D02*
Y1005161D01*
X445660Y972105D02*
X455502D01*
X450581Y967183D02*
Y977026D01*
X442459Y942593D02*
X452302D01*
X447381Y937671D02*
Y947514D01*
X442459Y912908D02*
X452302D01*
X447381Y907986D02*
Y917829D01*
X442459Y883223D02*
X452302D01*
X447381Y878301D02*
Y888144D01*
X442459Y853538D02*
X452302D01*
X447381Y848616D02*
Y858459D01*
X442459Y823853D02*
X452302D01*
X447381Y818931D02*
Y828774D01*
X442459Y794168D02*
X452302D01*
X447381Y789246D02*
Y799089D01*
X442459Y764483D02*
X452302D01*
X447381Y759561D02*
Y769404D01*
X441486Y734814D02*
X451329D01*
X446408Y729892D02*
Y739735D01*
X427419Y708673D02*
X437261D01*
X432340Y703752D02*
Y713595D01*
X400740Y695657D02*
X410582D01*
X405661Y690736D02*
Y700578D01*
X371066Y694858D02*
X380908D01*
X375987Y689937D02*
Y699779D01*
X341384Y694391D02*
X351227D01*
X346306Y689470D02*
Y699312D01*
X339467Y643785D02*
X349310D01*
X344388Y638864D02*
Y648707D01*
X369140Y642938D02*
X378982D01*
X374061Y638016D02*
Y647859D01*
X398824Y643126D02*
X408667D01*
X403746Y638205D02*
Y648047D01*
X427927Y648976D02*
X437770D01*
X432849Y644054D02*
Y653897D01*
X454025Y663122D02*
X463867D01*
X458946Y658201D02*
Y668043D01*
X474935Y684193D02*
X484777D01*
X479856Y679272D02*
Y689114D01*
X488680Y710504D02*
X498522D01*
X493601Y705583D02*
Y715425D01*
X494306Y739651D02*
X504148D01*
X499227Y734730D02*
Y744572D01*
X494380Y769336D02*
X504222D01*
X499301Y764415D02*
Y774257D01*
X494380Y799021D02*
X504222D01*
X499301Y794100D02*
Y803942D01*
X494380Y828706D02*
X504222D01*
X499301Y823785D02*
Y833627D01*
X494380Y858391D02*
X504222D01*
X499301Y853470D02*
Y863312D01*
X494380Y888076D02*
X504222D01*
X499301Y883155D02*
Y892997D01*
X494380Y917761D02*
X504222D01*
X499301Y912840D02*
Y922682D01*
X494693Y947444D02*
X504535D01*
X499614Y942523D02*
Y952365D01*
X501455Y976349D02*
X511297D01*
X506376Y971428D02*
Y981270D01*
X518256Y1000822D02*
X528098D01*
X523177Y995901D02*
Y1005743D01*
X539246Y1021812D02*
X549089D01*
X544167Y1016891D02*
Y1026734D01*
X560237Y1042803D02*
X570079D01*
X565158Y1037882D02*
Y1047724D01*
X581227Y1063793D02*
X591069D01*
X586148Y1058872D02*
Y1068715D01*
X602218Y1084784D02*
X612060D01*
X607139Y1079863D02*
Y1089705D01*
X623208Y1105774D02*
X633050D01*
X628129Y1100853D02*
Y1110695D01*
X644198Y1126765D02*
X654041D01*
X649120Y1121843D02*
Y1131686D01*
X665189Y1147755D02*
X675031D01*
X670110Y1142834D02*
Y1152676D01*
X686179Y1168746D02*
X696022D01*
X691101Y1163824D02*
Y1173667D01*
X709683Y1186877D02*
X719526D01*
X714605Y1181956D02*
Y1191799D01*
X739012Y1191465D02*
X748854D01*
X743933Y1186543D02*
Y1196386D01*
X768677Y1190366D02*
X778519D01*
X773598Y1185445D02*
Y1195288D01*
X839390Y299340D02*
X849232D01*
X844311Y294419D02*
Y304262D01*
X855796Y316109D02*
X865639D01*
X860717Y311188D02*
Y321030D01*
X806620Y323497D02*
X816463D01*
X811541Y318576D02*
Y328419D01*
X783844Y304459D02*
X793687D01*
X788765Y299538D02*
Y309380D01*
X758011Y289835D02*
X767854D01*
X762933Y284913D02*
Y294756D01*
X729765Y280705D02*
X739608D01*
X734687Y275784D02*
Y285626D01*
X700311Y277013D02*
X710153D01*
X705232Y272092D02*
Y281935D01*
X670626Y276811D02*
X680469D01*
X675548Y271889D02*
Y281732D01*
X640941Y276811D02*
X650784D01*
X645863Y271889D02*
Y281732D01*
X611260Y276349D02*
X621102D01*
X616181Y271428D02*
Y281270D01*
X583954Y264705D02*
X593797D01*
X588875Y259783D02*
Y269626D01*
X568258Y239509D02*
X578100D01*
X573179Y234588D02*
Y244430D01*
X626827Y235838D02*
X636669D01*
X631748Y230917D02*
Y240760D01*
X656512Y235838D02*
X666354D01*
X661433Y230917D02*
Y240760D01*
X686197Y235838D02*
X696039D01*
X691118Y230917D02*
Y240760D01*
X715863Y236899D02*
X725705D01*
X720784Y231978D02*
Y241820D01*
X745122Y241910D02*
X754964D01*
X750043Y236989D02*
Y246831D01*
X773196Y251557D02*
X783038D01*
X778117Y246636D02*
Y256478D01*
X799406Y265493D02*
X809249D01*
X804328Y260571D02*
Y270414D01*
X823239Y283190D02*
X833082D01*
X828160Y278269D02*
Y288111D01*
X882395Y288415D02*
X892237D01*
X887316Y283494D02*
Y293336D01*
X905595Y269896D02*
X915438D01*
X910516Y264975D02*
Y274817D01*
X931304Y255055D02*
X941146D01*
X936225Y250134D02*
Y259976D01*
X958943Y244225D02*
X968785D01*
X963864Y239304D02*
Y249147D01*
X987890Y237649D02*
X997733D01*
X992812Y232728D02*
Y242571D01*
X1017520Y235838D02*
X1027363D01*
X1022441Y230917D02*
Y240760D01*
X1047205Y235838D02*
X1057048D01*
X1052126Y230917D02*
Y240760D01*
X1076890Y235838D02*
X1086733D01*
X1081811Y230917D02*
Y240760D01*
X1137617Y253099D02*
X1147459D01*
X1142538Y248178D02*
Y258020D01*
X1115119Y272465D02*
X1124961D01*
X1120040Y267544D02*
Y277386D01*
X1085754Y276811D02*
X1095596D01*
X1090675Y271889D02*
Y281732D01*
X1056069Y276811D02*
X1065911D01*
X1060990Y271889D02*
Y281732D01*
X1026384Y276811D02*
X1036226D01*
X1031305Y271889D02*
Y281732D01*
X996721Y277968D02*
X1006564D01*
X1001643Y273046D02*
Y282889D01*
X967780Y284571D02*
X977623D01*
X972702Y279650D02*
Y289493D01*
X940504Y296284D02*
X950346D01*
X945425Y291362D02*
Y301205D01*
X916215Y313349D02*
X926057D01*
X921136Y308428D02*
Y318271D01*
X894684Y333785D02*
X904526D01*
X899605Y328864D02*
Y338707D01*
X881916Y1111105D02*
X891759D01*
X886838Y1106184D02*
Y1116026D01*
X802681Y1167933D02*
X812523D01*
X807602Y1163012D02*
Y1172854D01*
X803743Y1138267D02*
X813585D01*
X808664Y1133346D02*
Y1143188D01*
X826851Y1119634D02*
X836694D01*
X831772Y1114713D02*
Y1124555D01*
X829836Y1090099D02*
X839678D01*
X834757Y1085178D02*
Y1095021D01*
X829836Y1060414D02*
X839678D01*
X834757Y1055493D02*
Y1065336D01*
X829836Y1030729D02*
X839678D01*
X834757Y1025808D02*
Y1035651D01*
X829836Y1001044D02*
X839678D01*
X834757Y996123D02*
Y1005966D01*
X829836Y971359D02*
X839678D01*
X834757Y966438D02*
Y976281D01*
X829836Y941674D02*
X839678D01*
X834757Y936753D02*
Y946596D01*
X829836Y911989D02*
X839678D01*
X834757Y907068D02*
Y916911D01*
X829836Y882304D02*
X839678D01*
X834757Y877383D02*
Y887226D01*
X829836Y852619D02*
X839678D01*
X834757Y847698D02*
Y857541D01*
X829836Y822934D02*
X839678D01*
X834757Y818013D02*
Y827856D01*
X829836Y793249D02*
X839678D01*
X834757Y788328D02*
Y798171D01*
X829836Y763564D02*
X839678D01*
X834757Y758643D02*
Y768486D01*
X829836Y733879D02*
X839678D01*
X834757Y728958D02*
Y738801D01*
X829836Y704194D02*
X839678D01*
X834757Y699273D02*
Y709116D01*
X829836Y674509D02*
X839678D01*
X834757Y669588D02*
Y679431D01*
X829836Y644824D02*
X839678D01*
X834757Y639903D02*
Y649746D01*
X829836Y615139D02*
X839678D01*
X834757Y610218D02*
Y620061D01*
X829836Y585454D02*
X839678D01*
X834757Y580533D02*
Y590376D01*
X829836Y555769D02*
X839678D01*
X834757Y550848D02*
Y560691D01*
X829836Y526084D02*
X839678D01*
X834757Y521163D02*
Y531006D01*
X829836Y496399D02*
X839678D01*
X834757Y491478D02*
Y501321D01*
X829836Y466714D02*
X839678D01*
X834757Y461793D02*
Y471636D01*
X829836Y437029D02*
X839678D01*
X834757Y432108D02*
Y441951D01*
X829836Y407344D02*
X839678D01*
X834757Y402423D02*
Y412266D01*
X829836Y377659D02*
X839678D01*
X834757Y372738D02*
Y382581D01*
X829970Y347975D02*
X839813D01*
X834891Y343053D02*
Y352896D01*
X881756Y371281D02*
X891598D01*
X886677Y366359D02*
Y376202D01*
X881756Y400966D02*
X891598D01*
X886677Y396044D02*
Y405887D01*
X881756Y430651D02*
X891598D01*
X886677Y425729D02*
Y435572D01*
X881756Y460336D02*
X891598D01*
X886677Y455414D02*
Y465257D01*
X881756Y490021D02*
X891598D01*
X886677Y485099D02*
Y494942D01*
X881756Y519706D02*
X891598D01*
X886677Y514784D02*
Y524627D01*
X881756Y549390D02*
X891598D01*
X886677Y544469D02*
Y554312D01*
X881756Y579076D02*
X891598D01*
X886677Y574154D02*
Y583997D01*
X881756Y608760D02*
X891598D01*
X886677Y603839D02*
Y613682D01*
X881756Y638446D02*
X891598D01*
X886677Y633524D02*
Y643367D01*
X881756Y668130D02*
X891598D01*
X886677Y663209D02*
Y673052D01*
X881756Y697816D02*
X891598D01*
X886677Y692894D02*
Y702737D01*
X881756Y727500D02*
X891598D01*
X886677Y722579D02*
Y732422D01*
X881756Y757186D02*
X891598D01*
X886677Y752264D02*
Y762107D01*
X881756Y786870D02*
X891598D01*
X886677Y781949D02*
Y791792D01*
X881756Y816556D02*
X891598D01*
X886677Y811634D02*
Y821477D01*
X881756Y846240D02*
X891598D01*
X886677Y841319D02*
Y851162D01*
X881756Y875926D02*
X891598D01*
X886677Y871004D02*
Y880847D01*
X881756Y905611D02*
X891598D01*
X886677Y900689D02*
Y910532D01*
X881756Y935295D02*
X891598D01*
X886677Y930374D02*
Y940217D01*
X881756Y964981D02*
X891598D01*
X886677Y960059D02*
Y969902D01*
X881756Y994665D02*
X891598D01*
X886677Y989744D02*
Y999587D01*
X881756Y1024351D02*
X891598D01*
X886677Y1019429D02*
Y1029272D01*
X881756Y1054035D02*
X891598D01*
X886677Y1049114D02*
Y1058957D01*
X881756Y1083720D02*
X891598D01*
X886677Y1078799D02*
Y1088642D01*
X904657Y1132486D02*
X914499D01*
X909578Y1127565D02*
Y1137407D01*
X908912Y1161864D02*
X918754D01*
X913833Y1156943D02*
Y1166785D01*
X855796Y1140800D02*
X865639D01*
X860717Y1135879D02*
Y1145721D01*
X759417Y1303543D02*
X769259D01*
X764338Y1298621D02*
Y1308464D01*
X759333Y1282629D02*
X769175D01*
X764254Y1277707D02*
Y1287550D01*
X741012Y1271211D02*
X750854D01*
X745933Y1266290D02*
Y1276132D01*
X740820Y1292542D02*
X750662D01*
X745741Y1287620D02*
Y1297463D01*
X740318Y1314054D02*
X750161D01*
X745239Y1309133D02*
Y1318975D01*
X971274Y1314054D02*
X981116D01*
X976195Y1309133D02*
Y1318975D01*
X970773Y1292542D02*
X980615D01*
X975694Y1287620D02*
Y1297463D01*
X970581Y1271211D02*
X980423D01*
X975502Y1266290D02*
Y1276132D01*
X952260Y1282629D02*
X962102D01*
X957181Y1277707D02*
Y1287550D01*
X952175Y1303543D02*
X962018D01*
X957096Y1298621D02*
Y1308464D01*
X881518Y1191702D02*
X891361D01*
X886440Y1186781D02*
Y1196624D01*
X855796Y1191702D02*
X865639D01*
X860717Y1186781D02*
Y1196624D01*
X881518Y1217425D02*
X891361D01*
X886440Y1212504D02*
Y1222346D01*
X855796Y1217425D02*
X865639D01*
X860717Y1212504D02*
Y1222346D01*
X830074Y1191702D02*
X839916D01*
X834995Y1186781D02*
Y1196624D01*
X830074Y1217425D02*
X839916D01*
X834995Y1212504D02*
Y1222346D01*
X855796Y1243147D02*
X865639D01*
X860717Y1238226D02*
Y1248068D01*
X830074Y1243147D02*
X839916D01*
X834995Y1238226D02*
Y1248068D01*
X932969Y1171473D02*
X942811D01*
X937890Y1166552D02*
Y1176394D01*
M02*
