G04*
G04 #@! TF.GenerationSoftware,Altium Limited,Altium Designer,24.2.2 (26)*
G04*
G04 Layer_Color=255*
%FSLAX26Y26*%
%MOIN*%
G70*
G04*
G04 #@! TF.SameCoordinates,6E19E911-B848-4C60-9216-CC5A1203C33B*
G04*
G04*
G04 #@! TF.FilePolarity,Positive*
G04*
G01*
G75*
%ADD29R,0.066929X0.066929*%
%ADD30C,0.066929*%
%ADD31R,0.064961X0.064961*%
%ADD32C,0.064961*%
%ADD36C,0.039370*%
%ADD51R,0.004921X0.023622*%
%ADD52R,0.011811X0.047244*%
%ADD53R,0.045276X0.106299*%
%ADD55C,0.069000*%
D29*
X810174Y1961884D02*
D03*
D30*
X910174D02*
D03*
D31*
X960717Y2238223D02*
D03*
D32*
X760717D02*
D03*
D36*
X118461Y118461D02*
D03*
D51*
X895450Y1140812D02*
D03*
X885528D02*
D03*
D52*
X923115Y1288063D02*
D03*
X942800D02*
D03*
X800447D02*
D03*
X780762D02*
D03*
D53*
X801662Y2121604D02*
D03*
X919772D02*
D03*
D55*
X1177450Y68898D02*
D03*
Y155906D02*
D03*
X1081781D02*
D03*
Y68898D02*
D03*
X639654Y68897D02*
D03*
Y155905D02*
D03*
X543985D02*
D03*
Y68897D02*
D03*
X1652537Y447835D02*
D03*
X1565529D02*
D03*
Y352165D02*
D03*
X1652537D02*
D03*
Y985630D02*
D03*
X1565529D02*
D03*
Y889961D02*
D03*
X1652537D02*
D03*
Y1523425D02*
D03*
X1565529D02*
D03*
Y1427756D02*
D03*
X1652537D02*
D03*
Y2061221D02*
D03*
X1565529D02*
D03*
Y1965552D02*
D03*
X1652537D02*
D03*
X68897D02*
D03*
X155905D02*
D03*
Y2061221D02*
D03*
X68897D02*
D03*
Y1427756D02*
D03*
X155905D02*
D03*
Y1523425D02*
D03*
X68897D02*
D03*
Y889961D02*
D03*
X155905D02*
D03*
Y985630D02*
D03*
X68897D02*
D03*
Y352165D02*
D03*
X155905D02*
D03*
Y447835D02*
D03*
X68897D02*
D03*
M02*
