G04*
G04 #@! TF.GenerationSoftware,Altium Limited,Altium Designer,24.2.2 (26)*
G04*
G04 Layer_Color=32768*
%FSLAX26Y26*%
%MOIN*%
G70*
G04*
G04 #@! TF.SameCoordinates,6E19E911-B848-4C60-9216-CC5A1203C33B*
G04*
G04*
G04 #@! TF.FilePolarity,Positive*
G04*
G01*
G75*
%ADD56C,0.003937*%
%ADD57C,0.001968*%
D56*
X930403Y257087D02*
X1328828D01*
Y-418897D02*
Y257087D01*
X930403Y-418897D02*
X1328828D01*
X930403D02*
Y257087D01*
X392607Y257086D02*
X791032D01*
Y-418898D02*
Y257086D01*
X392607Y-418898D02*
X791032D01*
X392607D02*
Y257086D01*
X1464348Y200787D02*
Y599213D01*
X2140332D01*
Y200787D02*
Y599213D01*
X1464348Y200787D02*
X2140332D01*
X1464348Y738583D02*
Y1137008D01*
X2140332D01*
Y738583D02*
Y1137008D01*
X1464348Y738583D02*
X2140332D01*
X1464348Y1276378D02*
Y1674803D01*
X2140332D01*
Y1276378D02*
Y1674803D01*
X1464348Y1276378D02*
X2140332D01*
X1464348Y1814174D02*
Y2212599D01*
X2140332D01*
Y1814174D02*
Y2212599D01*
X1464348Y1814174D02*
X2140332D01*
X257086D02*
Y2212599D01*
X-418898Y1814174D02*
X257086D01*
X-418898D02*
Y2212599D01*
X257086D01*
Y1276378D02*
Y1674803D01*
X-418898Y1276378D02*
X257086D01*
X-418898D02*
Y1674803D01*
X257086D01*
Y738583D02*
Y1137008D01*
X-418898Y738583D02*
X257086D01*
X-418898D02*
Y1137008D01*
X257086D01*
Y200787D02*
Y599213D01*
X-418898Y200787D02*
X257086D01*
X-418898D02*
Y599213D01*
X257086D01*
X883993Y1140812D02*
X896985D01*
X890489Y1134316D02*
Y1147308D01*
X921737Y1288063D02*
X944178D01*
X932957Y1276843D02*
Y1299284D01*
X779384Y1288063D02*
X801825D01*
X790605Y1276843D02*
Y1299284D01*
X756130Y1246362D02*
Y1259354D01*
X749634Y1252858D02*
X762626D01*
X958554Y1252950D02*
X971546D01*
X965050Y1246454D02*
Y1259446D01*
D57*
X908206Y1123096D02*
Y1158529D01*
X872773Y1123096D02*
Y1158529D01*
X908206D01*
X872773Y1123096D02*
X908206D01*
X901461Y1256568D02*
Y1319560D01*
X964453Y1256568D02*
Y1319560D01*
X901461Y1256568D02*
X964453D01*
X901461Y1319560D02*
X964453D01*
X822101Y1256567D02*
Y1319560D01*
X759109Y1256567D02*
Y1319560D01*
X822101D01*
X759109Y1256567D02*
X822101D01*
X768197Y2184596D02*
X953237D01*
Y2058612D02*
Y2184596D01*
X768197Y2058612D02*
X953237D01*
X768197D02*
Y2184596D01*
X860717Y2101919D02*
Y2141289D01*
X841032Y2121604D02*
X880402D01*
X619440Y1265491D02*
Y1324546D01*
X741487Y1265491D02*
Y1324546D01*
X619440D02*
X741487D01*
X619440Y1265491D02*
X741487D01*
X668653Y1295018D02*
X692275D01*
X680464Y1283207D02*
Y1306829D01*
X738413Y1235141D02*
X773847D01*
X738413Y1270574D02*
X773847D01*
X738413Y1235141D02*
Y1270574D01*
X773847Y1235141D02*
Y1270574D01*
X777056Y1133763D02*
X944379D01*
Y1301086D01*
X777056D02*
X944379D01*
X777056Y1133763D02*
Y1301086D01*
X650875Y2066963D02*
X1070560D01*
X650875D02*
Y2409483D01*
X1070560D01*
Y2066963D02*
Y2409483D01*
X1101995Y1265491D02*
Y1324546D01*
X979947Y1265491D02*
Y1324546D01*
Y1265491D02*
X1101995D01*
X979947Y1324546D02*
X1101995D01*
X1029160Y1295018D02*
X1052782D01*
X1040971Y1283207D02*
Y1306829D01*
X982767Y1235233D02*
Y1270666D01*
X947333Y1235233D02*
Y1270666D01*
X982767D01*
X947333Y1235233D02*
X982767D01*
M02*
