G04*
G04 #@! TF.GenerationSoftware,Altium Limited,Altium Designer,24.2.2 (26)*
G04*
G04 Layer_Color=16711935*
%FSLAX26Y26*%
%MOIN*%
G70*
G04*
G04 #@! TF.SameCoordinates,6E19E911-B848-4C60-9216-CC5A1203C33B*
G04*
G04*
G04 #@! TF.FilePolarity,Negative*
G04*
G01*
G75*
%ADD26C,0.050000*%
%ADD27C,0.078740*%
%ADD29R,0.066929X0.066929*%
%ADD30C,0.066929*%
%ADD31R,0.064961X0.064961*%
%ADD32C,0.064961*%
%ADD51R,0.004921X0.023622*%
%ADD52R,0.011811X0.047244*%
%ADD53R,0.045276X0.106299*%
%ADD55C,0.069000*%
G36*
X451096Y2402652D02*
X453374D01*
Y2402518D01*
X455652D01*
Y2402384D01*
X457528D01*
Y2402250D01*
X458868D01*
Y2402116D01*
X460610D01*
Y2401982D01*
X461682D01*
Y2401848D01*
X462620D01*
Y2401714D01*
X463692D01*
Y2401580D01*
X464362D01*
Y2401446D01*
X465300D01*
Y2401312D01*
X466238D01*
Y2401178D01*
X466640D01*
Y2401044D01*
X467444D01*
Y2400910D01*
X468114D01*
Y2400776D01*
X468784D01*
Y2400642D01*
X469320D01*
Y2400508D01*
X469856D01*
Y2400374D01*
X470526D01*
Y2400240D01*
X471062D01*
Y2400106D01*
X471464D01*
Y2399972D01*
X472134D01*
Y2399838D01*
X472536D01*
Y2399704D01*
X473072D01*
Y2399570D01*
X473608D01*
Y2399436D01*
X473876D01*
Y2399302D01*
X474412D01*
Y2399168D01*
X474948D01*
Y2399034D01*
X475350D01*
Y2398900D01*
X475752D01*
Y2398766D01*
X476154D01*
Y2398632D01*
X476556D01*
Y2398498D01*
X477092D01*
Y2398364D01*
X477360D01*
Y2398230D01*
X477762D01*
Y2398096D01*
X478164D01*
Y2397962D01*
X478432D01*
Y2397828D01*
X478834D01*
Y2397694D01*
X479236D01*
Y2397560D01*
X479504D01*
Y2397426D01*
X479906D01*
Y2397292D01*
X480174D01*
Y2397158D01*
X480576D01*
Y2397024D01*
X480978D01*
Y2396890D01*
X481246D01*
Y2396756D01*
X481648D01*
Y2396622D01*
X481916D01*
Y2396488D01*
X482184D01*
Y2396354D01*
X482586D01*
Y2396220D01*
X482854D01*
Y2396086D01*
X483122D01*
Y2395952D01*
X483524D01*
Y2395818D01*
X483659D01*
Y2395684D01*
X484060D01*
Y2395550D01*
X484328D01*
Y2395416D01*
X484596D01*
Y2395282D01*
X484998D01*
Y2395148D01*
X485267D01*
Y2395014D01*
X485534D01*
Y2394880D01*
X485803D01*
Y2394746D01*
X486070D01*
Y2394612D01*
X486339D01*
Y2394478D01*
X486606D01*
Y2394344D01*
X486875D01*
Y2394210D01*
X487142D01*
Y2394076D01*
X487411D01*
Y2393942D01*
X487679D01*
Y2393808D01*
X487947D01*
Y2393674D01*
X488081D01*
Y2393540D01*
X488483D01*
Y2393406D01*
X488617D01*
Y2393272D01*
X488885D01*
Y2393138D01*
X489287D01*
Y2393004D01*
X489421D01*
Y2392870D01*
X489689D01*
Y2392736D01*
X489957D01*
Y2392602D01*
X490091D01*
Y2392468D01*
X490359D01*
Y2392334D01*
X490627D01*
Y2392200D01*
X490895D01*
Y2392066D01*
X491163D01*
Y2391932D01*
X491297D01*
Y2391798D01*
X491565D01*
Y2391664D01*
X491833D01*
Y2391530D01*
X491967D01*
Y2391396D01*
X492235D01*
Y2391262D01*
X492503D01*
Y2391128D01*
X492637D01*
Y2390994D01*
X492905D01*
Y2390860D01*
X493039D01*
Y2390726D01*
X493307D01*
Y2390592D01*
X493575D01*
Y2390458D01*
X493709D01*
Y2390324D01*
X493977D01*
Y2390189D01*
X494111D01*
Y2390056D01*
X494379D01*
Y2389921D01*
X494647D01*
Y2389788D01*
X494781D01*
Y2389653D01*
X495049D01*
Y2389520D01*
X495183D01*
Y2389385D01*
X495317D01*
Y2389251D01*
X495585D01*
Y2389117D01*
X495719D01*
Y2388983D01*
X495987D01*
Y2388849D01*
X496255D01*
Y2388715D01*
X496389D01*
Y2388581D01*
X496523D01*
Y2388448D01*
X496791D01*
Y2388314D01*
X496925D01*
Y2388180D01*
X497193D01*
Y2388046D01*
X497327D01*
Y2387912D01*
X497461D01*
Y2387778D01*
X497729D01*
Y2387644D01*
X497863D01*
Y2387510D01*
X498131D01*
Y2387375D01*
X498265D01*
Y2387242D01*
X498399D01*
Y2387107D01*
X498667D01*
Y2386974D01*
X498801D01*
Y2386840D01*
X498935D01*
Y2386706D01*
X499203D01*
Y2386572D01*
X499337D01*
Y2386437D01*
X499471D01*
Y2386303D01*
X499739D01*
Y2386169D01*
X499873D01*
Y2386035D01*
X500007D01*
Y2385901D01*
X500141D01*
Y2385767D01*
X500409D01*
Y2385633D01*
X500543D01*
Y2385499D01*
X500677D01*
Y2385365D01*
X500811D01*
Y2385231D01*
X501079D01*
Y2385097D01*
X501213D01*
Y2384963D01*
X501347D01*
Y2384829D01*
X501481D01*
Y2384695D01*
X501749D01*
Y2384561D01*
X501883D01*
Y2384427D01*
X502017D01*
Y2384293D01*
X502151D01*
Y2384159D01*
X502285D01*
Y2384025D01*
X502553D01*
Y2383891D01*
X502687D01*
Y2383757D01*
X502821D01*
Y2383623D01*
X502955D01*
Y2383489D01*
X503089D01*
Y2383355D01*
X503223D01*
Y2383221D01*
X503491D01*
Y2383087D01*
X503625D01*
Y2382953D01*
X503759D01*
Y2382819D01*
X503893D01*
Y2382685D01*
X504027D01*
Y2382551D01*
X504161D01*
Y2382417D01*
X504429D01*
Y2382149D01*
X504697D01*
Y2382015D01*
X504831D01*
Y2381881D01*
X504965D01*
Y2381747D01*
X505099D01*
Y2381613D01*
X505233D01*
Y2381479D01*
X505367D01*
Y2381345D01*
X505501D01*
Y2381211D01*
X505635D01*
Y2381077D01*
X505769D01*
Y2380943D01*
X505903D01*
Y2380809D01*
X506037D01*
Y2380675D01*
X506305D01*
Y2380541D01*
X506439D01*
Y2380407D01*
X506573D01*
Y2380273D01*
X506707D01*
Y2380139D01*
X506841D01*
Y2380005D01*
X506975D01*
Y2379871D01*
X507109D01*
Y2379737D01*
X507243D01*
Y2379603D01*
X507377D01*
Y2379469D01*
X507511D01*
Y2379335D01*
X507645D01*
Y2379201D01*
X507779D01*
Y2379067D01*
X507913D01*
Y2378933D01*
X508047D01*
Y2378799D01*
X508181D01*
Y2378665D01*
X508315D01*
Y2378531D01*
X508449D01*
Y2378397D01*
X508583D01*
Y2378263D01*
X508717D01*
Y2378129D01*
X508851D01*
Y2377995D01*
X508985D01*
Y2377861D01*
X509119D01*
Y2377593D01*
X509253D01*
Y2377459D01*
X509387D01*
Y2377325D01*
X509521D01*
Y2377191D01*
X509655D01*
Y2377057D01*
X509789D01*
Y2376923D01*
X509923D01*
Y2376789D01*
X510057D01*
Y2376655D01*
X510191D01*
Y2376521D01*
X510325D01*
Y2376387D01*
X510459D01*
Y2376253D01*
X510593D01*
Y2376119D01*
X510727D01*
Y2375985D01*
X510861D01*
Y2375717D01*
X510995D01*
Y2375583D01*
X511129D01*
Y2375449D01*
X511263D01*
Y2375315D01*
X511397D01*
Y2375181D01*
X511531D01*
Y2375047D01*
X511665D01*
Y2374913D01*
X511799D01*
Y2374645D01*
X511933D01*
Y2374511D01*
X512067D01*
Y2374377D01*
X512201D01*
Y2374243D01*
X512335D01*
Y2374109D01*
X512469D01*
Y2373975D01*
X512603D01*
Y2373707D01*
X512737D01*
Y2373573D01*
X512871D01*
Y2373439D01*
X513005D01*
Y2373305D01*
X513139D01*
Y2373171D01*
X513273D01*
Y2372903D01*
X513407D01*
Y2372769D01*
X513541D01*
Y2372635D01*
X513675D01*
Y2372367D01*
X513809D01*
Y2372233D01*
X513943D01*
Y2372099D01*
X514077D01*
Y2371965D01*
X514211D01*
Y2371831D01*
X514345D01*
Y2371563D01*
X514479D01*
Y2371429D01*
X514613D01*
Y2371295D01*
X514747D01*
Y2371027D01*
X514881D01*
Y2370893D01*
X515015D01*
Y2370759D01*
X515149D01*
Y2370491D01*
X515283D01*
Y2370357D01*
X515417D01*
Y2370223D01*
X515551D01*
Y2369955D01*
X515685D01*
Y2369821D01*
X515819D01*
Y2369687D01*
X515953D01*
Y2369419D01*
X516087D01*
Y2369285D01*
X516221D01*
Y2369151D01*
X516355D01*
Y2368883D01*
X516489D01*
Y2368749D01*
X516623D01*
Y2368481D01*
X516757D01*
Y2368347D01*
X516891D01*
Y2368213D01*
X517025D01*
Y2367945D01*
X517159D01*
Y2367811D01*
X517293D01*
Y2367543D01*
X517427D01*
Y2367409D01*
X517562D01*
Y2367141D01*
X517695D01*
Y2367007D01*
X517830D01*
Y2366873D01*
X517963D01*
Y2366605D01*
X518097D01*
Y2366471D01*
X518231D01*
Y2366203D01*
X518365D01*
Y2365935D01*
X518500D01*
Y2365801D01*
X518634D01*
Y2365533D01*
X518768D01*
Y2365399D01*
X518902D01*
Y2365265D01*
X519035D01*
Y2364997D01*
X519169D01*
Y2364729D01*
X519303D01*
Y2364595D01*
X519438D01*
Y2364327D01*
X519572D01*
Y2364059D01*
X519706D01*
Y2363925D01*
X519840D01*
Y2363657D01*
X519973D01*
Y2363523D01*
X520107D01*
Y2363255D01*
X520241D01*
Y2362987D01*
X520376D01*
Y2362853D01*
X520510D01*
Y2362585D01*
X520644D01*
Y2362317D01*
X520778D01*
Y2362183D01*
X520912D01*
Y2361781D01*
X521045D01*
Y2361647D01*
X521179D01*
Y2361379D01*
X521314D01*
Y2361111D01*
X521447D01*
Y2360977D01*
X521582D01*
Y2360709D01*
X521716D01*
Y2360441D01*
X521850D01*
Y2360173D01*
X521984D01*
Y2359905D01*
X522118D01*
Y2359771D01*
X522252D01*
Y2359503D01*
X522386D01*
Y2359235D01*
X522520D01*
Y2358967D01*
X522654D01*
Y2358699D01*
X522788D01*
Y2358431D01*
X522922D01*
Y2358163D01*
X523056D01*
Y2357895D01*
X523190D01*
Y2357627D01*
X523324D01*
Y2357359D01*
X523458D01*
Y2357091D01*
X523592D01*
Y2356823D01*
X523726D01*
Y2356555D01*
X523860D01*
Y2356287D01*
X523994D01*
Y2356019D01*
X524128D01*
Y2355751D01*
X524262D01*
Y2355483D01*
X524396D01*
Y2355215D01*
X524530D01*
Y2354812D01*
X524664D01*
Y2354544D01*
X524798D01*
Y2354276D01*
X524932D01*
Y2354008D01*
X525066D01*
Y2353606D01*
X525200D01*
Y2353338D01*
X525334D01*
Y2353204D01*
X525468D01*
Y2352802D01*
X525602D01*
Y2352401D01*
X525736D01*
Y2352133D01*
X525870D01*
Y2351730D01*
X526004D01*
Y2351462D01*
X526138D01*
Y2351194D01*
X526272D01*
Y2350792D01*
X526406D01*
Y2350524D01*
X526540D01*
Y2350122D01*
X526674D01*
Y2349720D01*
X526808D01*
Y2349452D01*
X526942D01*
Y2349050D01*
X527076D01*
Y2348782D01*
X527210D01*
Y2348246D01*
X527344D01*
Y2347844D01*
X527478D01*
Y2347576D01*
X527612D01*
Y2347174D01*
X527746D01*
Y2346772D01*
X527880D01*
Y2346370D01*
X528014D01*
Y2345968D01*
X528148D01*
Y2345566D01*
X528282D01*
Y2345164D01*
X528416D01*
Y2344628D01*
X528550D01*
Y2344360D01*
X528684D01*
Y2343824D01*
X528818D01*
Y2343288D01*
X528952D01*
Y2342886D01*
X529086D01*
Y2342350D01*
X529220D01*
Y2341948D01*
X529354D01*
Y2341412D01*
X529488D01*
Y2340876D01*
X529622D01*
Y2340474D01*
X529756D01*
Y2339804D01*
X529890D01*
Y2339268D01*
X530024D01*
Y2338732D01*
X530158D01*
Y2337928D01*
X530292D01*
Y2337526D01*
X530426D01*
Y2336722D01*
X530560D01*
Y2335918D01*
X530694D01*
Y2335516D01*
X530828D01*
Y2334578D01*
X530962D01*
Y2333908D01*
X531096D01*
Y2332970D01*
X531230D01*
Y2331898D01*
X531364D01*
Y2331228D01*
X531498D01*
Y2329888D01*
X531632D01*
Y2328414D01*
X531766D01*
Y2327208D01*
X531900D01*
Y2324662D01*
X532034D01*
Y2317961D01*
X531900D01*
Y2315549D01*
X531766D01*
Y2314343D01*
X531632D01*
Y2312869D01*
X531498D01*
Y2311529D01*
X531364D01*
Y2310725D01*
X531230D01*
Y2309653D01*
X531096D01*
Y2308715D01*
X530962D01*
Y2307911D01*
X530828D01*
Y2306973D01*
X530694D01*
Y2306303D01*
X530560D01*
Y2305499D01*
X530426D01*
Y2304561D01*
X530292D01*
Y2304025D01*
X530158D01*
Y2303221D01*
X530024D01*
Y2302551D01*
X529890D01*
Y2301881D01*
X529756D01*
Y2301211D01*
X529622D01*
Y2300675D01*
X529488D01*
Y2300005D01*
X529354D01*
Y2299335D01*
X529220D01*
Y2298799D01*
X529086D01*
Y2298129D01*
X528952D01*
Y2297593D01*
X528818D01*
Y2297057D01*
X528684D01*
Y2296387D01*
X528550D01*
Y2295985D01*
X528416D01*
Y2295315D01*
X528282D01*
Y2294645D01*
X528148D01*
Y2294243D01*
X528014D01*
Y2293573D01*
X527880D01*
Y2293037D01*
X527746D01*
Y2292635D01*
X527612D01*
Y2291965D01*
X527478D01*
Y2291563D01*
X527344D01*
Y2291027D01*
X527210D01*
Y2290357D01*
X527076D01*
Y2289955D01*
X526942D01*
Y2289419D01*
X526808D01*
Y2288883D01*
X526674D01*
Y2288481D01*
X526540D01*
Y2287811D01*
X526406D01*
Y2287409D01*
X526272D01*
Y2286873D01*
X526138D01*
Y2286336D01*
X526004D01*
Y2285935D01*
X525870D01*
Y2285398D01*
X525736D01*
Y2284863D01*
X525602D01*
Y2284461D01*
X525468D01*
Y2283791D01*
X525334D01*
Y2283522D01*
X525200D01*
Y2282852D01*
X525066D01*
Y2282450D01*
X524932D01*
Y2282048D01*
X524798D01*
Y2281512D01*
X524664D01*
Y2280976D01*
X524530D01*
Y2280574D01*
X524396D01*
Y2280038D01*
X524262D01*
Y2279636D01*
X524128D01*
Y2279100D01*
X523994D01*
Y2278564D01*
X523860D01*
Y2278162D01*
X523726D01*
Y2277626D01*
X523592D01*
Y2277224D01*
X523458D01*
Y2276822D01*
X523324D01*
Y2276152D01*
X523190D01*
Y2275884D01*
X523056D01*
Y2275348D01*
X522922D01*
Y2274812D01*
X522788D01*
Y2274410D01*
X522654D01*
Y2273874D01*
X522520D01*
Y2273472D01*
X522386D01*
Y2272936D01*
X522252D01*
Y2272400D01*
X522118D01*
Y2272132D01*
X521984D01*
Y2271596D01*
X521850D01*
Y2271060D01*
X521716D01*
Y2270658D01*
X521582D01*
Y2270122D01*
X521447D01*
Y2269720D01*
X521314D01*
Y2269318D01*
X521179D01*
Y2268648D01*
X521045D01*
Y2268380D01*
X520912D01*
Y2267844D01*
X520778D01*
Y2267308D01*
X520644D01*
Y2266906D01*
X520510D01*
Y2266370D01*
X520376D01*
Y2265968D01*
X520241D01*
Y2265432D01*
X520107D01*
Y2264896D01*
X519973D01*
Y2264628D01*
X519840D01*
Y2264092D01*
X519706D01*
Y2263556D01*
X519572D01*
Y2263154D01*
X519438D01*
Y2262618D01*
X519303D01*
Y2262216D01*
X519169D01*
Y2261814D01*
X519035D01*
Y2261144D01*
X518902D01*
Y2260876D01*
X518768D01*
Y2260340D01*
X518634D01*
Y2259804D01*
X518500D01*
Y2259402D01*
X518365D01*
Y2258866D01*
X518231D01*
Y2258464D01*
X518097D01*
Y2258062D01*
X517963D01*
Y2257392D01*
X517830D01*
Y2257124D01*
X517695D01*
Y2256588D01*
X517562D01*
Y2256052D01*
X517427D01*
Y2255650D01*
X517293D01*
Y2255114D01*
X517159D01*
Y2254712D01*
X517025D01*
Y2254310D01*
X516891D01*
Y2253774D01*
X516757D01*
Y2253372D01*
X516623D01*
Y2252836D01*
X516489D01*
Y2252300D01*
X516355D01*
Y2252032D01*
X516221D01*
Y2251495D01*
X516087D01*
Y2250959D01*
X515953D01*
Y2250557D01*
X515819D01*
Y2250021D01*
X515685D01*
Y2249619D01*
X515551D01*
Y2249218D01*
X515417D01*
Y2248548D01*
X515283D01*
Y2248280D01*
X515149D01*
Y2247743D01*
X515015D01*
Y2247207D01*
X514881D01*
Y2246805D01*
X514747D01*
Y2246269D01*
X514613D01*
Y2245867D01*
X514479D01*
Y2245331D01*
X514345D01*
Y2244929D01*
X514211D01*
Y2244527D01*
X514077D01*
Y2243991D01*
X513943D01*
Y2243589D01*
X513809D01*
Y2243053D01*
X513675D01*
Y2242517D01*
X513541D01*
Y2242249D01*
X513407D01*
Y2241713D01*
X513273D01*
Y2241177D01*
X513139D01*
Y2240775D01*
X513005D01*
Y2240239D01*
X512871D01*
Y2239837D01*
X512737D01*
Y2239435D01*
X512603D01*
Y2238899D01*
X512469D01*
Y2238497D01*
X512335D01*
Y2237961D01*
X512201D01*
Y2237425D01*
X512067D01*
Y2237157D01*
X511933D01*
Y2236487D01*
X511799D01*
Y2236085D01*
X511665D01*
Y2235683D01*
X511531D01*
Y2235147D01*
X511397D01*
Y2234745D01*
X511263D01*
Y2234209D01*
X511129D01*
Y2233673D01*
X510995D01*
Y2233405D01*
X510861D01*
Y2232869D01*
X510727D01*
Y2232467D01*
X510593D01*
Y2231931D01*
X510459D01*
Y2231395D01*
X510325D01*
Y2230993D01*
X510191D01*
Y2230591D01*
X510057D01*
Y2230055D01*
X509923D01*
Y2229653D01*
X509789D01*
Y2229117D01*
X509655D01*
Y2228715D01*
X509521D01*
Y2228313D01*
X509387D01*
Y2227777D01*
X509253D01*
Y2227375D01*
X509119D01*
Y2227107D01*
X504965D01*
Y2227241D01*
X504831D01*
Y2227375D01*
X504965D01*
Y2227643D01*
X505099D01*
Y2228313D01*
X505233D01*
Y2228581D01*
X505367D01*
Y2229117D01*
X505501D01*
Y2229653D01*
X505635D01*
Y2229921D01*
X505769D01*
Y2230457D01*
X505903D01*
Y2230859D01*
X506037D01*
Y2231261D01*
X506171D01*
Y2231931D01*
X506305D01*
Y2232199D01*
X506439D01*
Y2232735D01*
X506573D01*
Y2233271D01*
X506707D01*
Y2233539D01*
X506841D01*
Y2234075D01*
X506975D01*
Y2234477D01*
X507109D01*
Y2234879D01*
X507243D01*
Y2235415D01*
X507377D01*
Y2235817D01*
X507511D01*
Y2236353D01*
X507645D01*
Y2236889D01*
X507779D01*
Y2237157D01*
X507913D01*
Y2237693D01*
X508047D01*
Y2238095D01*
X508181D01*
Y2238497D01*
X508315D01*
Y2239033D01*
X508449D01*
Y2239435D01*
X508583D01*
Y2239971D01*
X508717D01*
Y2240507D01*
X508851D01*
Y2240775D01*
X508985D01*
Y2241311D01*
X509119D01*
Y2241713D01*
X509253D01*
Y2242115D01*
X509387D01*
Y2242785D01*
X509521D01*
Y2243053D01*
X509655D01*
Y2243589D01*
X509789D01*
Y2244125D01*
X509923D01*
Y2244393D01*
X510057D01*
Y2244929D01*
X510191D01*
Y2245331D01*
X510325D01*
Y2245733D01*
X510459D01*
Y2246403D01*
X510593D01*
Y2246671D01*
X510727D01*
Y2247207D01*
X510861D01*
Y2247743D01*
X510995D01*
Y2248012D01*
X511129D01*
Y2248548D01*
X511263D01*
Y2248950D01*
X511397D01*
Y2249352D01*
X511531D01*
Y2250021D01*
X511665D01*
Y2250289D01*
X511799D01*
Y2250825D01*
X511933D01*
Y2251361D01*
X512067D01*
Y2251630D01*
X512201D01*
Y2252166D01*
X512335D01*
Y2252568D01*
X512469D01*
Y2253104D01*
X512603D01*
Y2253506D01*
X512737D01*
Y2253908D01*
X512871D01*
Y2254444D01*
X513005D01*
Y2254980D01*
X513139D01*
Y2255248D01*
X513273D01*
Y2255784D01*
X513407D01*
Y2256320D01*
X513541D01*
Y2256588D01*
X513675D01*
Y2257258D01*
X513809D01*
Y2257526D01*
X513943D01*
Y2258062D01*
X514077D01*
Y2258598D01*
X514211D01*
Y2258866D01*
X514345D01*
Y2259402D01*
X514479D01*
Y2259804D01*
X514613D01*
Y2260206D01*
X514747D01*
Y2260876D01*
X514881D01*
Y2261144D01*
X515015D01*
Y2261680D01*
X515149D01*
Y2262216D01*
X515283D01*
Y2262484D01*
X515417D01*
Y2263020D01*
X515551D01*
Y2263422D01*
X515685D01*
Y2263824D01*
X515819D01*
Y2264360D01*
X515953D01*
Y2264762D01*
X516087D01*
Y2265298D01*
X516221D01*
Y2265834D01*
X516355D01*
Y2266102D01*
X516489D01*
Y2266638D01*
X516623D01*
Y2267040D01*
X516757D01*
Y2267442D01*
X516891D01*
Y2267978D01*
X517025D01*
Y2268380D01*
X517159D01*
Y2268916D01*
X517293D01*
Y2269452D01*
X517427D01*
Y2269720D01*
X517562D01*
Y2270256D01*
X517695D01*
Y2270658D01*
X517830D01*
Y2271060D01*
X517963D01*
Y2271730D01*
X518097D01*
Y2271998D01*
X518231D01*
Y2272534D01*
X518365D01*
Y2273070D01*
X518500D01*
Y2273338D01*
X518634D01*
Y2273874D01*
X518768D01*
Y2274276D01*
X518902D01*
Y2274678D01*
X519035D01*
Y2275348D01*
X519169D01*
Y2275616D01*
X519303D01*
Y2276152D01*
X519438D01*
Y2276688D01*
X519572D01*
Y2276956D01*
X519706D01*
Y2277492D01*
X519840D01*
Y2277894D01*
X519973D01*
Y2278296D01*
X520107D01*
Y2278966D01*
X520241D01*
Y2279234D01*
X520376D01*
Y2279770D01*
X520510D01*
Y2280172D01*
X520644D01*
Y2280574D01*
X520778D01*
Y2280976D01*
X520510D01*
Y2280708D01*
X520376D01*
Y2280440D01*
X520241D01*
Y2280172D01*
X520107D01*
Y2279904D01*
X519973D01*
Y2279770D01*
X519840D01*
Y2279368D01*
X519706D01*
Y2279234D01*
X519572D01*
Y2278966D01*
X519438D01*
Y2278698D01*
X519303D01*
Y2278564D01*
X519169D01*
Y2278296D01*
X519035D01*
Y2278028D01*
X518902D01*
Y2277760D01*
X518768D01*
Y2277626D01*
X518634D01*
Y2277358D01*
X518500D01*
Y2277224D01*
X518365D01*
Y2276956D01*
X518231D01*
Y2276688D01*
X518097D01*
Y2276554D01*
X517963D01*
Y2276286D01*
X517830D01*
Y2276152D01*
X517695D01*
Y2275884D01*
X517562D01*
Y2275616D01*
X517427D01*
Y2275482D01*
X517293D01*
Y2275214D01*
X517159D01*
Y2275080D01*
X517025D01*
Y2274812D01*
X516891D01*
Y2274678D01*
X516757D01*
Y2274410D01*
X516623D01*
Y2274276D01*
X516489D01*
Y2274008D01*
X516355D01*
Y2273874D01*
X516221D01*
Y2273606D01*
X516087D01*
Y2273472D01*
X515953D01*
Y2273338D01*
X515819D01*
Y2273070D01*
X515685D01*
Y2272936D01*
X515551D01*
Y2272668D01*
X515417D01*
Y2272534D01*
X515283D01*
Y2272400D01*
X515149D01*
Y2272132D01*
X515015D01*
Y2271998D01*
X514881D01*
Y2271864D01*
X514747D01*
Y2271596D01*
X514613D01*
Y2271462D01*
X514479D01*
Y2271328D01*
X514345D01*
Y2271060D01*
X514211D01*
Y2270926D01*
X514077D01*
Y2270792D01*
X513943D01*
Y2270658D01*
X513809D01*
Y2270390D01*
X513675D01*
Y2270256D01*
X513541D01*
Y2270122D01*
X513407D01*
Y2269854D01*
X513273D01*
Y2269720D01*
X513139D01*
Y2269586D01*
X513005D01*
Y2269452D01*
X512871D01*
Y2269184D01*
X512737D01*
Y2269050D01*
X512603D01*
Y2268916D01*
X512469D01*
Y2268782D01*
X512335D01*
Y2268648D01*
X512201D01*
Y2268380D01*
X512067D01*
Y2268246D01*
X511933D01*
Y2268112D01*
X511799D01*
Y2267978D01*
X511665D01*
Y2267844D01*
X511531D01*
Y2267710D01*
X511397D01*
Y2267442D01*
X511263D01*
Y2267308D01*
X511129D01*
Y2267174D01*
X510995D01*
Y2267040D01*
X510861D01*
Y2266906D01*
X510727D01*
Y2266772D01*
X510593D01*
Y2266638D01*
X510459D01*
Y2266504D01*
X510325D01*
Y2266370D01*
X510191D01*
Y2266102D01*
X510057D01*
Y2265968D01*
X509923D01*
Y2265834D01*
X509789D01*
Y2265700D01*
X509655D01*
Y2265566D01*
X509521D01*
Y2265432D01*
X509387D01*
Y2265298D01*
X509253D01*
Y2265164D01*
X509119D01*
Y2265030D01*
X508985D01*
Y2264896D01*
X508851D01*
Y2264762D01*
X508717D01*
Y2264628D01*
X508583D01*
Y2264494D01*
X508449D01*
Y2264360D01*
X508315D01*
Y2264226D01*
X508181D01*
Y2264092D01*
X508047D01*
Y2263958D01*
X507913D01*
Y2263824D01*
X507779D01*
Y2263690D01*
X507645D01*
Y2263556D01*
X507511D01*
Y2263422D01*
X507377D01*
Y2263288D01*
X507243D01*
Y2263154D01*
X507109D01*
Y2263020D01*
X506975D01*
Y2262886D01*
X506841D01*
Y2262752D01*
X506707D01*
Y2262618D01*
X506573D01*
Y2262484D01*
X506439D01*
Y2262350D01*
X506305D01*
Y2262216D01*
X506171D01*
Y2262082D01*
X506037D01*
Y2261948D01*
X505903D01*
Y2261814D01*
X505769D01*
Y2261680D01*
X505635D01*
Y2261546D01*
X505501D01*
Y2261412D01*
X505233D01*
Y2261278D01*
X505099D01*
Y2261144D01*
X504965D01*
Y2261010D01*
X504831D01*
Y2260876D01*
X504697D01*
Y2260742D01*
X504563D01*
Y2260608D01*
X504429D01*
Y2260474D01*
X504295D01*
Y2260340D01*
X504027D01*
Y2260206D01*
X503893D01*
Y2260072D01*
X503759D01*
Y2259938D01*
X503625D01*
Y2259804D01*
X503491D01*
Y2259670D01*
X503357D01*
Y2259536D01*
X503089D01*
Y2259402D01*
X502955D01*
Y2259268D01*
X502821D01*
Y2259134D01*
X502687D01*
Y2259000D01*
X502553D01*
Y2258866D01*
X502285D01*
Y2258732D01*
X502151D01*
Y2258598D01*
X502017D01*
Y2258464D01*
X501883D01*
Y2258330D01*
X501749D01*
Y2258196D01*
X501615D01*
Y2258062D01*
X501347D01*
Y2257928D01*
X501213D01*
Y2257794D01*
X501079D01*
Y2257660D01*
X500811D01*
Y2257526D01*
X500677D01*
Y2257392D01*
X500543D01*
Y2257258D01*
X500275D01*
Y2257124D01*
X500141D01*
Y2256990D01*
X500007D01*
Y2256856D01*
X499873D01*
Y2256722D01*
X499605D01*
Y2256588D01*
X499471D01*
Y2256454D01*
X499337D01*
Y2256320D01*
X499069D01*
Y2256186D01*
X498935D01*
Y2256052D01*
X498801D01*
Y2255918D01*
X498533D01*
Y2255784D01*
X498399D01*
Y2255650D01*
X498265D01*
Y2255516D01*
X497997D01*
Y2255382D01*
X497863D01*
Y2255248D01*
X497595D01*
Y2255114D01*
X497461D01*
Y2254980D01*
X497327D01*
Y2254846D01*
X497059D01*
Y2254712D01*
X496791D01*
Y2254578D01*
X496657D01*
Y2254444D01*
X496389D01*
Y2254310D01*
X496255D01*
Y2254176D01*
X496121D01*
Y2254042D01*
X495853D01*
Y2253908D01*
X495719D01*
Y2253774D01*
X495451D01*
Y2253640D01*
X495317D01*
Y2253506D01*
X495049D01*
Y2253372D01*
X494781D01*
Y2253238D01*
X494647D01*
Y2253104D01*
X494513D01*
Y2252970D01*
X494245D01*
Y2252836D01*
X494111D01*
Y2252702D01*
X493709D01*
Y2252568D01*
X493575D01*
Y2252434D01*
X493307D01*
Y2252300D01*
X493173D01*
Y2252166D01*
X492905D01*
Y2252032D01*
X492771D01*
Y2251898D01*
X492503D01*
Y2251764D01*
X492235D01*
Y2251630D01*
X492101D01*
Y2251495D01*
X491833D01*
Y2251361D01*
X491565D01*
Y2251227D01*
X491297D01*
Y2251093D01*
X491163D01*
Y2250959D01*
X490895D01*
Y2250825D01*
X490627D01*
Y2250691D01*
X490493D01*
Y2250557D01*
X490225D01*
Y2250423D01*
X489957D01*
Y2250289D01*
X489689D01*
Y2250155D01*
X489421D01*
Y2250021D01*
X489287D01*
Y2249887D01*
X489019D01*
Y2249753D01*
X488617D01*
Y2249619D01*
X488483D01*
Y2249485D01*
X488215D01*
Y2249352D01*
X487947D01*
Y2249218D01*
X487679D01*
Y2249084D01*
X487411D01*
Y2248950D01*
X487142D01*
Y2248816D01*
X486875D01*
Y2248681D01*
X486606D01*
Y2248548D01*
X486339D01*
Y2248413D01*
X486070D01*
Y2248280D01*
X485803D01*
Y2248145D01*
X485534D01*
Y2248012D01*
X485267D01*
Y2247877D01*
X484998D01*
Y2247743D01*
X484596D01*
Y2247609D01*
X484328D01*
Y2247475D01*
X484060D01*
Y2247341D01*
X483793D01*
Y2247207D01*
X483524D01*
Y2247073D01*
X483257D01*
Y2246939D01*
X482854D01*
Y2246805D01*
X482586D01*
Y2246671D01*
X482184D01*
Y2246537D01*
X481916D01*
Y2246403D01*
X481648D01*
Y2246269D01*
X481246D01*
Y2246135D01*
X480978D01*
Y2246001D01*
X480576D01*
Y2245867D01*
X480174D01*
Y2245733D01*
X480040D01*
Y2245599D01*
X479638D01*
Y2245465D01*
X479102D01*
Y2245331D01*
X478968D01*
Y2245197D01*
X478432D01*
Y2245063D01*
X478164D01*
Y2244929D01*
X477762D01*
Y2244795D01*
X477360D01*
Y2244661D01*
X477092D01*
Y2244527D01*
X476556D01*
Y2244393D01*
X476154D01*
Y2244259D01*
X475886D01*
Y2244125D01*
X475350D01*
Y2243991D01*
X474948D01*
Y2243857D01*
X474546D01*
Y2243723D01*
X474010D01*
Y2243589D01*
X473742D01*
Y2243455D01*
X473206D01*
Y2243321D01*
X472670D01*
Y2243187D01*
X472402D01*
Y2243053D01*
X471732D01*
Y2242919D01*
X471330D01*
Y2242785D01*
X470794D01*
Y2242651D01*
X470124D01*
Y2242517D01*
X469722D01*
Y2242383D01*
X469186D01*
Y2242249D01*
X468516D01*
Y2242115D01*
X467980D01*
Y2241981D01*
X467310D01*
Y2241847D01*
X466774D01*
Y2241713D01*
X466104D01*
Y2241579D01*
X465166D01*
Y2241445D01*
X464630D01*
Y2241311D01*
X463692D01*
Y2241177D01*
X462888D01*
Y2241043D01*
X462084D01*
Y2240909D01*
X460878D01*
Y2240775D01*
X459940D01*
Y2240641D01*
X458734D01*
Y2240507D01*
X458600D01*
Y2240641D01*
X458466D01*
Y2240507D01*
X456858D01*
Y2240373D01*
X454982D01*
Y2240239D01*
X447075D01*
Y2240373D01*
X445333D01*
Y2240507D01*
X443457D01*
Y2240641D01*
X443323D01*
Y2240507D01*
X443189D01*
Y2240641D01*
X441983D01*
Y2240775D01*
X440911D01*
Y2240909D01*
X439705D01*
Y2241043D01*
X439035D01*
Y2241177D01*
X437963D01*
Y2241311D01*
X437025D01*
Y2241445D01*
X436489D01*
Y2241579D01*
X435685D01*
Y2241713D01*
X434881D01*
Y2241847D01*
X434345D01*
Y2241981D01*
X433675D01*
Y2242115D01*
X433005D01*
Y2242249D01*
X432469D01*
Y2242383D01*
X431799D01*
Y2242517D01*
X431397D01*
Y2242651D01*
X430727D01*
Y2242785D01*
X430191D01*
Y2242919D01*
X429789D01*
Y2243053D01*
X429119D01*
Y2243187D01*
X428851D01*
Y2243321D01*
X428315D01*
Y2243455D01*
X427779D01*
Y2243589D01*
X427511D01*
Y2243723D01*
X426841D01*
Y2243857D01*
X426439D01*
Y2243991D01*
X426171D01*
Y2244125D01*
X425635D01*
Y2244259D01*
X425367D01*
Y2244393D01*
X424831D01*
Y2244527D01*
X424429D01*
Y2244661D01*
X424161D01*
Y2244795D01*
X423625D01*
Y2244929D01*
X423357D01*
Y2245063D01*
X423089D01*
Y2245197D01*
X422553D01*
Y2245331D01*
X422285D01*
Y2245465D01*
X421883D01*
Y2245599D01*
X421615D01*
Y2245733D01*
X421347D01*
Y2245867D01*
X420945D01*
Y2246001D01*
X420543D01*
Y2246135D01*
X420275D01*
Y2246269D01*
X419873D01*
Y2246403D01*
X419739D01*
Y2246537D01*
X419337D01*
Y2246671D01*
X418935D01*
Y2246805D01*
X418801D01*
Y2246939D01*
X418399D01*
Y2247073D01*
X418130D01*
Y2247207D01*
X417863D01*
Y2247341D01*
X417461D01*
Y2247475D01*
X417327D01*
Y2247609D01*
X416925D01*
Y2247743D01*
X416656D01*
Y2247877D01*
X416522D01*
Y2248012D01*
X416120D01*
Y2248145D01*
X415853D01*
Y2248280D01*
X415584D01*
Y2248413D01*
X415317D01*
Y2248548D01*
X415183D01*
Y2248681D01*
X414781D01*
Y2248816D01*
X414512D01*
Y2248950D01*
X414378D01*
Y2249084D01*
X414110D01*
Y2249218D01*
X413842D01*
Y2249352D01*
X413574D01*
Y2249485D01*
X413306D01*
Y2249619D01*
X413172D01*
Y2249753D01*
X412770D01*
Y2249887D01*
X412636D01*
Y2250021D01*
X412368D01*
Y2250155D01*
X412100D01*
Y2250289D01*
X411966D01*
Y2250423D01*
X411698D01*
Y2250557D01*
X411430D01*
Y2250691D01*
X411296D01*
Y2250825D01*
X411028D01*
Y2250959D01*
X410760D01*
Y2251093D01*
X410626D01*
Y2251227D01*
X410358D01*
Y2251361D01*
X410090D01*
Y2251495D01*
X409956D01*
Y2251630D01*
X409688D01*
Y2251764D01*
X409554D01*
Y2251898D01*
X409286D01*
Y2252032D01*
X409152D01*
Y2252166D01*
X408884D01*
Y2252300D01*
X408616D01*
Y2252434D01*
X408482D01*
Y2252568D01*
X408348D01*
Y2252702D01*
X408080D01*
Y2252836D01*
X407946D01*
Y2252970D01*
X407678D01*
Y2253104D01*
X407544D01*
Y2253238D01*
X407410D01*
Y2253372D01*
X407142D01*
Y2253104D01*
X407276D01*
Y2252970D01*
X407410D01*
Y2252836D01*
X407544D01*
Y2252702D01*
X407678D01*
Y2252568D01*
X407812D01*
Y2252434D01*
X407946D01*
Y2252300D01*
X408080D01*
Y2252166D01*
X408214D01*
Y2252032D01*
X408348D01*
Y2251898D01*
X408482D01*
Y2251764D01*
X408616D01*
Y2251495D01*
X408750D01*
Y2251361D01*
X408884D01*
Y2251227D01*
X409018D01*
Y2251093D01*
X409152D01*
Y2250959D01*
X409286D01*
Y2250825D01*
X409420D01*
Y2250691D01*
X409554D01*
Y2250557D01*
X409688D01*
Y2250423D01*
X409822D01*
Y2250289D01*
X409956D01*
Y2250155D01*
X410090D01*
Y2250021D01*
X410224D01*
Y2249887D01*
X410358D01*
Y2249753D01*
X410492D01*
Y2249485D01*
X410626D01*
Y2249352D01*
X410760D01*
Y2249218D01*
X410894D01*
Y2249084D01*
X411028D01*
Y2248950D01*
X411162D01*
Y2248816D01*
X411296D01*
Y2248681D01*
X411430D01*
Y2248548D01*
X411564D01*
Y2248413D01*
X411698D01*
Y2248280D01*
X411832D01*
Y2248145D01*
X411966D01*
Y2248012D01*
X412100D01*
Y2247877D01*
X412234D01*
Y2247743D01*
X412368D01*
Y2247609D01*
X412502D01*
Y2247341D01*
X412636D01*
Y2247207D01*
X412770D01*
Y2247073D01*
X412904D01*
Y2246939D01*
X413038D01*
Y2246805D01*
X413172D01*
Y2246671D01*
X413306D01*
Y2246537D01*
X413440D01*
Y2246403D01*
X413574D01*
Y2246269D01*
X413709D01*
Y2246135D01*
X413842D01*
Y2246001D01*
X413976D01*
Y2245867D01*
X414110D01*
Y2245733D01*
X414245D01*
Y2245599D01*
X414378D01*
Y2245465D01*
X414512D01*
Y2245331D01*
X414647D01*
Y2245197D01*
X414781D01*
Y2244929D01*
X414914D01*
Y2244795D01*
X415048D01*
Y2244661D01*
X415183D01*
Y2244527D01*
X415317D01*
Y2244393D01*
X415450D01*
Y2244259D01*
X415584D01*
Y2244125D01*
X415719D01*
Y2243991D01*
X415853D01*
Y2243857D01*
X415986D01*
Y2243723D01*
X416120D01*
Y2243589D01*
X416255D01*
Y2243455D01*
X416389D01*
Y2243321D01*
X416522D01*
Y2243053D01*
X416791D01*
Y2242785D01*
X416925D01*
Y2242651D01*
X417058D01*
Y2242517D01*
X417192D01*
Y2242383D01*
X417327D01*
Y2242249D01*
X417461D01*
Y2242115D01*
X417594D01*
Y2241981D01*
X417729D01*
Y2241847D01*
X417863D01*
Y2241713D01*
X417997D01*
Y2241579D01*
X418130D01*
Y2241445D01*
X418265D01*
Y2241311D01*
X418399D01*
Y2241177D01*
X418533D01*
Y2241043D01*
X418667D01*
Y2240909D01*
X418801D01*
Y2240775D01*
X418935D01*
Y2240507D01*
X419069D01*
Y2240373D01*
X419203D01*
Y2240239D01*
X419337D01*
Y2240105D01*
X419471D01*
Y2239971D01*
X419605D01*
Y2239837D01*
X419739D01*
Y2239703D01*
X419873D01*
Y2239569D01*
X420007D01*
Y2239435D01*
X420141D01*
Y2239301D01*
X420275D01*
Y2239167D01*
X420409D01*
Y2239033D01*
X420543D01*
Y2238899D01*
X420677D01*
Y2238765D01*
X420811D01*
Y2238497D01*
X421079D01*
Y2238363D01*
X421213D01*
Y2238095D01*
X421347D01*
Y2237961D01*
X421481D01*
Y2237827D01*
X421615D01*
Y2237693D01*
X421749D01*
Y2237559D01*
X421883D01*
Y2237425D01*
X422017D01*
Y2237291D01*
X422151D01*
Y2237157D01*
X422285D01*
Y2237023D01*
X422419D01*
Y2236889D01*
X422553D01*
Y2236755D01*
X422687D01*
Y2236621D01*
X422821D01*
Y2236487D01*
X422955D01*
Y2236219D01*
X423089D01*
Y2236085D01*
X423223D01*
Y2235951D01*
X423357D01*
Y2235817D01*
X423491D01*
Y2235683D01*
X423625D01*
Y2235549D01*
X423759D01*
Y2235415D01*
X423893D01*
Y2235281D01*
X424027D01*
Y2235147D01*
X424161D01*
Y2235013D01*
X424295D01*
Y2234879D01*
X424429D01*
Y2234745D01*
X424563D01*
Y2234611D01*
X424697D01*
Y2234477D01*
X424831D01*
Y2234343D01*
X424965D01*
Y2234209D01*
X425099D01*
Y2233941D01*
X425233D01*
Y2233807D01*
X425367D01*
Y2233673D01*
X425501D01*
Y2233539D01*
X425635D01*
Y2233405D01*
X425769D01*
Y2233271D01*
X425903D01*
Y2233137D01*
X426037D01*
Y2233003D01*
X426171D01*
Y2232869D01*
X426305D01*
Y2232735D01*
X426439D01*
Y2232601D01*
X426573D01*
Y2232467D01*
X426707D01*
Y2232333D01*
X426841D01*
Y2232199D01*
X426975D01*
Y2232065D01*
X427109D01*
Y2231931D01*
X427243D01*
Y2231663D01*
X427377D01*
Y2231529D01*
X427511D01*
Y2231395D01*
X427645D01*
Y2231261D01*
X427779D01*
Y2231127D01*
X427913D01*
Y2230993D01*
X428047D01*
Y2230859D01*
X428181D01*
Y2230725D01*
X428315D01*
Y2230591D01*
X428449D01*
Y2230457D01*
X428583D01*
Y2230323D01*
X428717D01*
Y2230189D01*
X428851D01*
Y2230055D01*
X428985D01*
Y2229787D01*
X429119D01*
Y2229653D01*
X429253D01*
Y2229519D01*
X429387D01*
Y2229385D01*
X429521D01*
Y2229251D01*
X429655D01*
Y2229117D01*
X429789D01*
Y2228983D01*
X429923D01*
Y2228849D01*
X430057D01*
Y2228715D01*
X430191D01*
Y2228581D01*
X430325D01*
Y2228447D01*
X430459D01*
Y2228313D01*
X430593D01*
Y2228179D01*
X430727D01*
Y2228045D01*
X430861D01*
Y2227911D01*
X430995D01*
Y2227777D01*
X431129D01*
Y2227643D01*
X431263D01*
Y2227509D01*
X431397D01*
Y2227375D01*
X431531D01*
Y2227107D01*
X431665D01*
Y2226973D01*
X431799D01*
Y2226839D01*
X431933D01*
Y2226705D01*
X432067D01*
Y2226571D01*
X432201D01*
Y2226437D01*
X432335D01*
Y2226303D01*
X432469D01*
Y2226169D01*
X432603D01*
Y2226035D01*
X432737D01*
Y2225901D01*
X432871D01*
Y2225767D01*
X433005D01*
Y2225633D01*
X433139D01*
Y2225499D01*
X433273D01*
Y2225231D01*
X433407D01*
Y2225097D01*
X433541D01*
Y2224963D01*
X433675D01*
Y2224829D01*
X433809D01*
Y2224695D01*
X433943D01*
Y2224561D01*
X434077D01*
Y2224427D01*
X434211D01*
Y2224293D01*
X434345D01*
Y2224159D01*
X434479D01*
Y2224025D01*
X434613D01*
Y2223891D01*
X434747D01*
Y2223757D01*
X434881D01*
Y2223623D01*
X435015D01*
Y2223489D01*
X435149D01*
Y2223355D01*
X435283D01*
Y2223221D01*
X435417D01*
Y2222953D01*
X435551D01*
Y2222819D01*
X435685D01*
Y2222685D01*
X435819D01*
Y2222551D01*
X435953D01*
Y2222417D01*
X436087D01*
Y2222283D01*
X436221D01*
Y2222149D01*
X436355D01*
Y2222015D01*
X436489D01*
Y2221881D01*
X436623D01*
Y2221747D01*
X436757D01*
Y2221613D01*
X436891D01*
Y2221479D01*
X437025D01*
Y2221345D01*
X437159D01*
Y2221211D01*
X437293D01*
Y2220943D01*
X437561D01*
Y2220809D01*
X437695D01*
Y2220675D01*
X437829D01*
Y2220541D01*
X437963D01*
Y2220273D01*
X438097D01*
Y2220139D01*
X438231D01*
Y2220005D01*
X438365D01*
Y2219871D01*
X438499D01*
Y2219737D01*
X438633D01*
Y2219603D01*
X438767D01*
Y2219469D01*
X438901D01*
Y2219335D01*
X439035D01*
Y2219201D01*
X439169D01*
Y2219067D01*
X439303D01*
Y2218933D01*
X439437D01*
Y2218799D01*
X439571D01*
Y2218665D01*
X439705D01*
Y2218397D01*
X439839D01*
Y2218262D01*
X439973D01*
Y2218129D01*
X440107D01*
Y2217995D01*
X440241D01*
Y2217861D01*
X440375D01*
Y2217727D01*
X440509D01*
Y2217593D01*
X440643D01*
Y2217459D01*
X440777D01*
Y2217325D01*
X440911D01*
Y2217191D01*
X441045D01*
Y2217057D01*
X441179D01*
Y2216923D01*
X441313D01*
Y2216789D01*
X441447D01*
Y2216655D01*
X441581D01*
Y2216521D01*
X441715D01*
Y2216387D01*
X441849D01*
Y2216119D01*
X441983D01*
Y2215985D01*
X442117D01*
Y2215851D01*
X442251D01*
Y2215716D01*
X442385D01*
Y2215582D01*
X442519D01*
Y2215448D01*
X442653D01*
Y2215314D01*
X442787D01*
Y2215180D01*
X442921D01*
Y2215046D01*
X443055D01*
Y2214912D01*
X443189D01*
Y2214778D01*
X443323D01*
Y2214644D01*
X443457D01*
Y2214510D01*
X443591D01*
Y2214376D01*
X443725D01*
Y2214108D01*
X443859D01*
Y2213974D01*
X443993D01*
Y2213840D01*
X444127D01*
Y2213706D01*
X444261D01*
Y2213572D01*
X444395D01*
Y2213439D01*
X444529D01*
Y2213304D01*
X444663D01*
Y2213171D01*
X444797D01*
Y2213036D01*
X444931D01*
Y2212902D01*
X445065D01*
Y2212768D01*
X445199D01*
Y2212634D01*
X445333D01*
Y2212500D01*
X445467D01*
Y2212232D01*
X445601D01*
Y2212098D01*
X445735D01*
Y2211964D01*
X445869D01*
Y2211830D01*
X446003D01*
Y2211696D01*
X446137D01*
Y2211562D01*
X446271D01*
Y2211428D01*
X446405D01*
Y2211294D01*
X446539D01*
Y2211160D01*
X446673D01*
Y2211026D01*
X446807D01*
Y2210892D01*
X446941D01*
Y2210758D01*
X447075D01*
Y2210624D01*
X447209D01*
Y2210490D01*
X447343D01*
Y2210356D01*
X447477D01*
Y2210222D01*
X447611D01*
Y2210088D01*
X447745D01*
Y2209954D01*
X447880D01*
Y2209820D01*
X448013D01*
Y2209552D01*
X448147D01*
Y2209418D01*
X448281D01*
Y2209284D01*
X448415D01*
Y2209150D01*
X448549D01*
Y2209016D01*
X448683D01*
Y2208882D01*
X448817D01*
Y2208748D01*
X448951D01*
Y2208614D01*
X449086D01*
Y2208480D01*
X449219D01*
Y2208346D01*
X449353D01*
Y2208212D01*
X449487D01*
Y2208078D01*
X449622D01*
Y2207944D01*
X449755D01*
Y2207676D01*
X450024D01*
Y2207408D01*
X450158D01*
Y2207274D01*
X450291D01*
Y2207140D01*
X450425D01*
Y2207006D01*
X450560D01*
Y2206872D01*
X450693D01*
Y2206738D01*
X450827D01*
Y2206604D01*
X450962D01*
Y2206470D01*
X451096D01*
Y2206336D01*
X451229D01*
Y2206202D01*
X451364D01*
Y2206068D01*
X451498D01*
Y2205934D01*
X451632D01*
Y2205800D01*
X451765D01*
Y2205666D01*
X451900D01*
Y2205532D01*
X452034D01*
Y2205264D01*
X452168D01*
Y2205130D01*
X452302D01*
Y2204996D01*
X452435D01*
Y2204862D01*
X452570D01*
Y2204728D01*
X452704D01*
Y2204594D01*
X452838D01*
Y2204460D01*
X452971D01*
Y2204326D01*
X453106D01*
Y2204192D01*
X453240D01*
Y2204058D01*
X453374D01*
Y2203924D01*
X453508D01*
Y2203790D01*
X453642D01*
Y2203656D01*
X453776D01*
Y2203522D01*
X453910D01*
Y2203388D01*
X454044D01*
Y2203120D01*
X454312D01*
Y2202986D01*
X454446D01*
Y2202718D01*
X454580D01*
Y2202584D01*
X454714D01*
Y2202450D01*
X454848D01*
Y2202316D01*
X454982D01*
Y2202182D01*
X455116D01*
Y2202048D01*
X455250D01*
Y2201914D01*
X455384D01*
Y2201780D01*
X455518D01*
Y2201646D01*
X455652D01*
Y2201512D01*
X455786D01*
Y2201378D01*
X455920D01*
Y2201244D01*
X456054D01*
Y2201110D01*
X456188D01*
Y2200842D01*
X456322D01*
Y2200708D01*
X456456D01*
Y2200574D01*
X456590D01*
Y2200440D01*
X456724D01*
Y2200306D01*
X456858D01*
Y2200172D01*
X456992D01*
Y2200038D01*
X457126D01*
Y2199904D01*
X457260D01*
Y2199770D01*
X457394D01*
Y2199636D01*
X457528D01*
Y2199502D01*
X457662D01*
Y2199368D01*
X457796D01*
Y2199234D01*
X457930D01*
Y2199100D01*
X458064D01*
Y2198966D01*
X458198D01*
Y2198832D01*
X458332D01*
Y2198564D01*
X458466D01*
Y2198430D01*
X458600D01*
Y2198296D01*
X458734D01*
Y2198162D01*
X458868D01*
Y2198028D01*
X459002D01*
Y2197894D01*
X459136D01*
Y2197760D01*
X459270D01*
Y2197626D01*
X459404D01*
Y2197492D01*
X459538D01*
Y2197358D01*
X459672D01*
Y2197224D01*
X459806D01*
Y2197090D01*
X459940D01*
Y2196956D01*
X460074D01*
Y2196822D01*
X460208D01*
Y2196688D01*
X460342D01*
Y2196554D01*
X460476D01*
Y2196286D01*
X460610D01*
Y2196152D01*
X460744D01*
Y2196018D01*
X460878D01*
Y2195884D01*
X461012D01*
Y2195750D01*
X461146D01*
Y2195616D01*
X461280D01*
Y2195482D01*
X461414D01*
Y2195348D01*
X461548D01*
Y2195214D01*
X461682D01*
Y2195080D01*
X461816D01*
Y2194946D01*
X461950D01*
Y2194812D01*
X462084D01*
Y2194678D01*
X462218D01*
Y2194410D01*
X462352D01*
Y2194276D01*
X462486D01*
Y2194142D01*
X462620D01*
Y2194008D01*
X462754D01*
Y2193874D01*
X462888D01*
Y2193740D01*
X463022D01*
Y2193606D01*
X463156D01*
Y2193472D01*
X463290D01*
Y2193338D01*
X463424D01*
Y2193204D01*
X463558D01*
Y2193070D01*
X463692D01*
Y2192936D01*
X463826D01*
Y2192802D01*
X463960D01*
Y2192668D01*
X464094D01*
Y2192534D01*
X464228D01*
Y2192400D01*
X464362D01*
Y2192266D01*
X464496D01*
Y2192132D01*
X464630D01*
Y2191864D01*
X464764D01*
Y2191730D01*
X464898D01*
Y2191596D01*
X465032D01*
Y2191462D01*
X465166D01*
Y2191328D01*
X465300D01*
Y2191194D01*
X465434D01*
Y2191060D01*
X465568D01*
Y2190926D01*
X465702D01*
Y2190792D01*
X465836D01*
Y2190658D01*
X465970D01*
Y2190524D01*
X466104D01*
Y2190390D01*
X466238D01*
Y2190256D01*
X466372D01*
Y2190122D01*
X466506D01*
Y2189854D01*
X466640D01*
Y2189720D01*
X466774D01*
Y2189586D01*
X466908D01*
Y2189452D01*
X467042D01*
Y2189318D01*
X467176D01*
Y2189184D01*
X467310D01*
Y2189050D01*
X467444D01*
Y2188916D01*
X467578D01*
Y2188782D01*
X467712D01*
Y2188648D01*
X467846D01*
Y2188514D01*
X467980D01*
Y2188380D01*
X468114D01*
Y2188246D01*
X468248D01*
Y2188112D01*
X468382D01*
Y2187978D01*
X468516D01*
Y2187844D01*
X468650D01*
Y2187576D01*
X468784D01*
Y2187442D01*
X468918D01*
Y2187308D01*
X469052D01*
Y2187174D01*
X469186D01*
Y2187040D01*
X469320D01*
Y2186906D01*
X469454D01*
Y2186772D01*
X469588D01*
Y2186638D01*
X469722D01*
Y2186504D01*
X469856D01*
Y2186370D01*
X469990D01*
Y2186236D01*
X470124D01*
Y2186102D01*
X470258D01*
Y2185968D01*
X470392D01*
Y2185834D01*
X470526D01*
Y2185566D01*
X470794D01*
Y2185432D01*
X470928D01*
Y2185298D01*
X471062D01*
Y2185164D01*
X471196D01*
Y2184896D01*
X471330D01*
Y2184762D01*
X471464D01*
Y2184628D01*
X471598D01*
Y2184494D01*
X471732D01*
Y2184360D01*
X471866D01*
Y2184226D01*
X472000D01*
Y2184092D01*
X472134D01*
Y2183958D01*
X472268D01*
Y2183824D01*
X472402D01*
Y2183690D01*
X472536D01*
Y2183556D01*
X472670D01*
Y2183421D01*
X472804D01*
Y2183153D01*
X472938D01*
Y2183020D01*
X473072D01*
Y2182885D01*
X473206D01*
Y2182752D01*
X473340D01*
Y2182617D01*
X473474D01*
Y2182483D01*
X473608D01*
Y2182349D01*
X473742D01*
Y2182215D01*
X473876D01*
Y2182081D01*
X474010D01*
Y2181948D01*
X474144D01*
Y2181814D01*
X474278D01*
Y2181680D01*
X474412D01*
Y2181546D01*
X474546D01*
Y2181412D01*
X474680D01*
Y2181278D01*
X474814D01*
Y2181010D01*
X474948D01*
Y2180876D01*
X475082D01*
Y2180742D01*
X475216D01*
Y2180608D01*
X475350D01*
Y2180474D01*
X475484D01*
Y2180340D01*
X475618D01*
Y2180206D01*
X475752D01*
Y2180072D01*
X475886D01*
Y2179937D01*
X476020D01*
Y2179803D01*
X476154D01*
Y2179669D01*
X476288D01*
Y2179535D01*
X476422D01*
Y2179401D01*
X476556D01*
Y2179267D01*
X476690D01*
Y2179133D01*
X476824D01*
Y2178999D01*
X476958D01*
Y2178731D01*
X477092D01*
Y2178597D01*
X477226D01*
Y2178463D01*
X477360D01*
Y2178329D01*
X477494D01*
Y2178195D01*
X477628D01*
Y2178061D01*
X477762D01*
Y2177927D01*
X477896D01*
Y2177793D01*
X478030D01*
Y2177659D01*
X472536D01*
Y2177793D01*
X472402D01*
Y2177927D01*
X472268D01*
Y2178061D01*
X472134D01*
Y2178195D01*
X472000D01*
Y2178329D01*
X471866D01*
Y2178463D01*
X471732D01*
Y2178597D01*
X471598D01*
Y2178731D01*
X471464D01*
Y2178865D01*
X471330D01*
Y2178999D01*
X471196D01*
Y2179133D01*
X471062D01*
Y2179401D01*
X470794D01*
Y2179669D01*
X470660D01*
Y2179803D01*
X470526D01*
Y2179937D01*
X470392D01*
Y2180072D01*
X470258D01*
Y2180206D01*
X470124D01*
Y2180340D01*
X469990D01*
Y2180474D01*
X469856D01*
Y2180608D01*
X469722D01*
Y2180742D01*
X469588D01*
Y2180876D01*
X469454D01*
Y2181010D01*
X469320D01*
Y2181144D01*
X469186D01*
Y2181278D01*
X469052D01*
Y2181546D01*
X468918D01*
Y2181680D01*
X468784D01*
Y2181814D01*
X468650D01*
Y2181948D01*
X468516D01*
Y2182081D01*
X468382D01*
Y2182215D01*
X468248D01*
Y2182349D01*
X468114D01*
Y2182483D01*
X467980D01*
Y2182617D01*
X467846D01*
Y2182752D01*
X467712D01*
Y2182885D01*
X467578D01*
Y2183020D01*
X467444D01*
Y2183153D01*
X467310D01*
Y2183288D01*
X467176D01*
Y2183421D01*
X467042D01*
Y2183556D01*
X466908D01*
Y2183824D01*
X466774D01*
Y2183958D01*
X466640D01*
Y2184092D01*
X466506D01*
Y2184226D01*
X466372D01*
Y2184360D01*
X466238D01*
Y2184494D01*
X466104D01*
Y2184628D01*
X465970D01*
Y2184762D01*
X465836D01*
Y2184896D01*
X465702D01*
Y2185030D01*
X465568D01*
Y2185164D01*
X465434D01*
Y2185298D01*
X465300D01*
Y2185432D01*
X465166D01*
Y2185566D01*
X465032D01*
Y2185834D01*
X464898D01*
Y2185968D01*
X464764D01*
Y2186102D01*
X464630D01*
Y2186236D01*
X464496D01*
Y2186370D01*
X464362D01*
Y2186504D01*
X464228D01*
Y2186638D01*
X464094D01*
Y2186772D01*
X463960D01*
Y2186906D01*
X463826D01*
Y2187040D01*
X463692D01*
Y2187174D01*
X463558D01*
Y2187308D01*
X463424D01*
Y2187442D01*
X463290D01*
Y2187576D01*
X463156D01*
Y2187710D01*
X463022D01*
Y2187978D01*
X462888D01*
Y2188112D01*
X462754D01*
Y2188246D01*
X462620D01*
Y2188380D01*
X462486D01*
Y2188514D01*
X462352D01*
Y2188648D01*
X462218D01*
Y2188782D01*
X462084D01*
Y2188916D01*
X461950D01*
Y2189050D01*
X461816D01*
Y2189184D01*
X461682D01*
Y2189318D01*
X461548D01*
Y2189452D01*
X461414D01*
Y2189586D01*
X461280D01*
Y2189720D01*
X461146D01*
Y2189854D01*
X461012D01*
Y2189988D01*
X460878D01*
Y2190122D01*
X460744D01*
Y2190390D01*
X460610D01*
Y2190524D01*
X460476D01*
Y2190658D01*
X460342D01*
Y2190792D01*
X460208D01*
Y2190926D01*
X460074D01*
Y2191060D01*
X459940D01*
Y2191194D01*
X459806D01*
Y2191328D01*
X459672D01*
Y2191462D01*
X459538D01*
Y2191596D01*
X459404D01*
Y2191730D01*
X459270D01*
Y2191864D01*
X459136D01*
Y2191998D01*
X459002D01*
Y2192266D01*
X458734D01*
Y2192400D01*
X458600D01*
Y2192668D01*
X458466D01*
Y2192802D01*
X458332D01*
Y2192936D01*
X458198D01*
Y2193070D01*
X458064D01*
Y2193204D01*
X457930D01*
Y2193338D01*
X457796D01*
Y2193472D01*
X457662D01*
Y2193606D01*
X457528D01*
Y2193740D01*
X457394D01*
Y2193874D01*
X457260D01*
Y2194008D01*
X457126D01*
Y2194142D01*
X456992D01*
Y2194276D01*
X456858D01*
Y2194410D01*
X456724D01*
Y2194678D01*
X456590D01*
Y2194812D01*
X456456D01*
Y2194946D01*
X456322D01*
Y2195080D01*
X456188D01*
Y2195214D01*
X456054D01*
Y2195348D01*
X455920D01*
Y2195482D01*
X455786D01*
Y2195616D01*
X455652D01*
Y2195750D01*
X455518D01*
Y2195884D01*
X455384D01*
Y2196018D01*
X455250D01*
Y2196152D01*
X455116D01*
Y2196286D01*
X454982D01*
Y2196420D01*
X454848D01*
Y2196554D01*
X454714D01*
Y2196688D01*
X454580D01*
Y2196822D01*
X454446D01*
Y2196956D01*
X454312D01*
Y2197224D01*
X454178D01*
Y2197358D01*
X454044D01*
Y2197492D01*
X453910D01*
Y2197626D01*
X453776D01*
Y2197760D01*
X453642D01*
Y2197894D01*
X453508D01*
Y2198028D01*
X453374D01*
Y2198162D01*
X453240D01*
Y2198296D01*
X453106D01*
Y2198430D01*
X452971D01*
Y2198564D01*
X452838D01*
Y2198698D01*
X452704D01*
Y2198832D01*
X452570D01*
Y2199100D01*
X452435D01*
Y2199234D01*
X452302D01*
Y2199368D01*
X452168D01*
Y2199502D01*
X452034D01*
Y2199636D01*
X451900D01*
Y2199770D01*
X451765D01*
Y2199904D01*
X451632D01*
Y2200038D01*
X451498D01*
Y2200172D01*
X451364D01*
Y2200306D01*
X451229D01*
Y2200440D01*
X451096D01*
Y2200574D01*
X450962D01*
Y2200708D01*
X450827D01*
Y2200842D01*
X450693D01*
Y2200976D01*
X450560D01*
Y2201110D01*
X450425D01*
Y2201378D01*
X450291D01*
Y2201512D01*
X450158D01*
Y2201646D01*
X450024D01*
Y2201780D01*
X449889D01*
Y2201914D01*
X449755D01*
Y2202048D01*
X449622D01*
Y2202182D01*
X449487D01*
Y2202316D01*
X449353D01*
Y2202450D01*
X449219D01*
Y2202584D01*
X449086D01*
Y2202718D01*
X448951D01*
Y2202852D01*
X448817D01*
Y2202986D01*
X448683D01*
Y2203120D01*
X448549D01*
Y2203388D01*
X448281D01*
Y2203656D01*
X448147D01*
Y2203790D01*
X448013D01*
Y2203924D01*
X447880D01*
Y2204058D01*
X447745D01*
Y2204192D01*
X447611D01*
Y2204326D01*
X447477D01*
Y2204460D01*
X447343D01*
Y2204594D01*
X447209D01*
Y2204728D01*
X447075D01*
Y2204862D01*
X446941D01*
Y2204996D01*
X446807D01*
Y2205130D01*
X446673D01*
Y2205264D01*
X446539D01*
Y2205532D01*
X446405D01*
Y2205666D01*
X446271D01*
Y2205800D01*
X446137D01*
Y2205934D01*
X446003D01*
Y2206068D01*
X445869D01*
Y2206202D01*
X445735D01*
Y2206336D01*
X445601D01*
Y2206470D01*
X445467D01*
Y2206604D01*
X445333D01*
Y2206738D01*
X445199D01*
Y2206872D01*
X445065D01*
Y2207006D01*
X444931D01*
Y2207140D01*
X444797D01*
Y2207274D01*
X444663D01*
Y2207408D01*
X444529D01*
Y2207542D01*
X444395D01*
Y2207676D01*
X444261D01*
Y2207810D01*
X444127D01*
Y2207944D01*
X443993D01*
Y2208212D01*
X443859D01*
Y2208346D01*
X443725D01*
Y2208480D01*
X443591D01*
Y2208614D01*
X443457D01*
Y2208748D01*
X443323D01*
Y2208882D01*
X443189D01*
Y2209016D01*
X443055D01*
Y2209150D01*
X442921D01*
Y2209284D01*
X442787D01*
Y2209418D01*
X442653D01*
Y2209552D01*
X442519D01*
Y2209686D01*
X442385D01*
Y2209820D01*
X442251D01*
Y2210088D01*
X442117D01*
Y2210222D01*
X441849D01*
Y2210490D01*
X441715D01*
Y2210624D01*
X441581D01*
Y2210758D01*
X441447D01*
Y2210892D01*
X441313D01*
Y2211026D01*
X441179D01*
Y2211160D01*
X441045D01*
Y2211294D01*
X440911D01*
Y2211428D01*
X440777D01*
Y2211562D01*
X440643D01*
Y2211696D01*
X440509D01*
Y2211830D01*
X440375D01*
Y2211964D01*
X440241D01*
Y2212098D01*
X440107D01*
Y2212232D01*
X439973D01*
Y2212500D01*
X439839D01*
Y2212634D01*
X439705D01*
Y2212768D01*
X439571D01*
Y2212902D01*
X439437D01*
Y2213036D01*
X439303D01*
Y2213171D01*
X439169D01*
Y2213304D01*
X439035D01*
Y2213439D01*
X438901D01*
Y2213572D01*
X438767D01*
Y2213706D01*
X438633D01*
Y2213840D01*
X438499D01*
Y2213974D01*
X438365D01*
Y2214108D01*
X438231D01*
Y2214242D01*
X438097D01*
Y2214376D01*
X437963D01*
Y2214510D01*
X437829D01*
Y2214644D01*
X437695D01*
Y2214778D01*
X437561D01*
Y2215046D01*
X437427D01*
Y2215180D01*
X437293D01*
Y2215314D01*
X437159D01*
Y2215448D01*
X437025D01*
Y2215582D01*
X436891D01*
Y2215716D01*
X436757D01*
Y2215851D01*
X436623D01*
Y2215985D01*
X436489D01*
Y2216119D01*
X436355D01*
Y2216253D01*
X436221D01*
Y2216387D01*
X436087D01*
Y2216521D01*
X435953D01*
Y2216655D01*
X435819D01*
Y2216923D01*
X435685D01*
Y2217057D01*
X435551D01*
Y2217191D01*
X435417D01*
Y2217325D01*
X435283D01*
Y2217459D01*
X435149D01*
Y2217593D01*
X435015D01*
Y2217727D01*
X434881D01*
Y2217861D01*
X434747D01*
Y2217995D01*
X434613D01*
Y2218129D01*
X434479D01*
Y2218262D01*
X434345D01*
Y2218397D01*
X434211D01*
Y2218530D01*
X434077D01*
Y2218665D01*
X433943D01*
Y2218799D01*
X433809D01*
Y2218933D01*
X433675D01*
Y2219067D01*
X433541D01*
Y2219335D01*
X433407D01*
Y2219469D01*
X433273D01*
Y2219603D01*
X433139D01*
Y2219737D01*
X433005D01*
Y2219871D01*
X432871D01*
Y2220005D01*
X432737D01*
Y2220139D01*
X432603D01*
Y2220273D01*
X432469D01*
Y2220407D01*
X432335D01*
Y2220541D01*
X432201D01*
Y2220675D01*
X432067D01*
Y2220809D01*
X431933D01*
Y2220943D01*
X431799D01*
Y2221077D01*
X431665D01*
Y2221211D01*
X431531D01*
Y2221479D01*
X431397D01*
Y2221613D01*
X431263D01*
Y2221747D01*
X431129D01*
Y2221881D01*
X430995D01*
Y2222015D01*
X430861D01*
Y2222149D01*
X430727D01*
Y2222283D01*
X430593D01*
Y2222417D01*
X430459D01*
Y2222551D01*
X430325D01*
Y2222685D01*
X430191D01*
Y2222819D01*
X430057D01*
Y2222953D01*
X429923D01*
Y2223087D01*
X429789D01*
Y2223221D01*
X429655D01*
Y2223489D01*
X429521D01*
Y2223623D01*
X429387D01*
Y2223757D01*
X429253D01*
Y2223891D01*
X429119D01*
Y2224025D01*
X428985D01*
Y2224159D01*
X428851D01*
Y2224293D01*
X428717D01*
Y2224427D01*
X428583D01*
Y2224561D01*
X428449D01*
Y2224695D01*
X428315D01*
Y2224829D01*
X428181D01*
Y2224963D01*
X428047D01*
Y2225097D01*
X427913D01*
Y2225231D01*
X427779D01*
Y2225365D01*
X427645D01*
Y2225499D01*
X427511D01*
Y2225633D01*
X427377D01*
Y2225767D01*
X427243D01*
Y2226035D01*
X427109D01*
Y2226169D01*
X426975D01*
Y2226303D01*
X426841D01*
Y2226437D01*
X426707D01*
Y2226571D01*
X426573D01*
Y2226705D01*
X426439D01*
Y2226839D01*
X426305D01*
Y2226973D01*
X426171D01*
Y2227107D01*
X426037D01*
Y2227241D01*
X425903D01*
Y2227375D01*
X425769D01*
Y2227509D01*
X425635D01*
Y2227643D01*
X425501D01*
Y2227777D01*
X425367D01*
Y2228045D01*
X425099D01*
Y2228313D01*
X424965D01*
Y2228447D01*
X424831D01*
Y2228581D01*
X424697D01*
Y2228715D01*
X424563D01*
Y2228849D01*
X424429D01*
Y2228983D01*
X424295D01*
Y2229117D01*
X424161D01*
Y2229251D01*
X424027D01*
Y2229385D01*
X423893D01*
Y2229519D01*
X423759D01*
Y2229653D01*
X423625D01*
Y2229787D01*
X423491D01*
Y2229921D01*
X423357D01*
Y2230055D01*
X423223D01*
Y2230323D01*
X423089D01*
Y2230457D01*
X422955D01*
Y2230591D01*
X422821D01*
Y2230725D01*
X422687D01*
Y2230859D01*
X422553D01*
Y2230993D01*
X422419D01*
Y2231127D01*
X422285D01*
Y2231261D01*
X422151D01*
Y2231395D01*
X422017D01*
Y2231529D01*
X421883D01*
Y2231663D01*
X421749D01*
Y2231797D01*
X421615D01*
Y2231931D01*
X421481D01*
Y2232065D01*
X421347D01*
Y2232199D01*
X421213D01*
Y2232333D01*
X421079D01*
Y2232467D01*
X420945D01*
Y2232601D01*
X420811D01*
Y2232869D01*
X420677D01*
Y2233003D01*
X420543D01*
Y2233137D01*
X420409D01*
Y2233271D01*
X420275D01*
Y2233405D01*
X420141D01*
Y2233539D01*
X420007D01*
Y2233673D01*
X419873D01*
Y2233807D01*
X419739D01*
Y2233941D01*
X419605D01*
Y2234075D01*
X419471D01*
Y2234209D01*
X419337D01*
Y2234343D01*
X419203D01*
Y2234477D01*
X419069D01*
Y2234611D01*
X418935D01*
Y2234879D01*
X418801D01*
Y2235013D01*
X418667D01*
Y2235147D01*
X418533D01*
Y2235281D01*
X418399D01*
Y2235415D01*
X418265D01*
Y2235549D01*
X418130D01*
Y2235683D01*
X417997D01*
Y2235817D01*
X417863D01*
Y2235951D01*
X417729D01*
Y2236085D01*
X417594D01*
Y2236219D01*
X417461D01*
Y2236353D01*
X417327D01*
Y2236487D01*
X417192D01*
Y2236621D01*
X417058D01*
Y2236755D01*
X416925D01*
Y2236889D01*
X416791D01*
Y2237157D01*
X416656D01*
Y2237291D01*
X416522D01*
Y2237425D01*
X416389D01*
Y2237559D01*
X416255D01*
Y2237693D01*
X416120D01*
Y2237827D01*
X415986D01*
Y2237961D01*
X415853D01*
Y2238095D01*
X415719D01*
Y2238229D01*
X415584D01*
Y2238363D01*
X415450D01*
Y2238497D01*
X415317D01*
Y2238631D01*
X415183D01*
Y2238765D01*
X415048D01*
Y2238899D01*
X414914D01*
Y2239033D01*
X414781D01*
Y2239167D01*
X414647D01*
Y2239435D01*
X414512D01*
Y2239569D01*
X414378D01*
Y2239703D01*
X414245D01*
Y2239837D01*
X414110D01*
Y2239971D01*
X413976D01*
Y2240105D01*
X413842D01*
Y2240239D01*
X413709D01*
Y2240373D01*
X413574D01*
Y2240507D01*
X413440D01*
Y2240641D01*
X413306D01*
Y2240775D01*
X413172D01*
Y2240909D01*
X413038D01*
Y2241043D01*
X412904D01*
Y2241311D01*
X412770D01*
Y2241445D01*
X412636D01*
Y2241579D01*
X412502D01*
Y2241713D01*
X412368D01*
Y2241847D01*
X412234D01*
Y2241981D01*
X412100D01*
Y2242115D01*
X411966D01*
Y2242249D01*
X411832D01*
Y2242383D01*
X411698D01*
Y2242517D01*
X411564D01*
Y2242651D01*
X411430D01*
Y2242785D01*
X411296D01*
Y2242919D01*
X411162D01*
Y2243053D01*
X411028D01*
Y2243187D01*
X410894D01*
Y2243321D01*
X410760D01*
Y2243455D01*
X410626D01*
Y2243589D01*
X410492D01*
Y2243723D01*
X410358D01*
Y2243991D01*
X410224D01*
Y2244125D01*
X410090D01*
Y2244259D01*
X409956D01*
Y2244393D01*
X409822D01*
Y2244527D01*
X409688D01*
Y2244661D01*
X409554D01*
Y2244795D01*
X409420D01*
Y2244929D01*
X409286D01*
Y2245063D01*
X409152D01*
Y2245197D01*
X409018D01*
Y2245331D01*
X408884D01*
Y2245465D01*
X408750D01*
Y2245599D01*
X408616D01*
Y2245733D01*
X408482D01*
Y2245867D01*
X408348D01*
Y2246001D01*
X408214D01*
Y2246269D01*
X408080D01*
Y2246403D01*
X407946D01*
Y2246537D01*
X407812D01*
Y2246671D01*
X407678D01*
Y2246805D01*
X407544D01*
Y2246939D01*
X407410D01*
Y2247073D01*
X407276D01*
Y2247207D01*
X407142D01*
Y2247341D01*
X407008D01*
Y2247475D01*
X406874D01*
Y2247609D01*
X406740D01*
Y2247743D01*
X406606D01*
Y2247877D01*
X406472D01*
Y2248012D01*
X406338D01*
Y2248280D01*
X406204D01*
Y2248413D01*
X406070D01*
Y2248548D01*
X405936D01*
Y2248681D01*
X405802D01*
Y2248816D01*
X405668D01*
Y2248950D01*
X405534D01*
Y2249084D01*
X405400D01*
Y2249218D01*
X405266D01*
Y2249352D01*
X405132D01*
Y2249485D01*
X404998D01*
Y2249619D01*
X404864D01*
Y2249753D01*
X404730D01*
Y2249887D01*
X404596D01*
Y2250021D01*
X404462D01*
Y2250155D01*
X404328D01*
Y2250289D01*
X404194D01*
Y2250423D01*
X404060D01*
Y2250557D01*
X403926D01*
Y2250825D01*
X403792D01*
Y2250959D01*
X403658D01*
Y2251093D01*
X403524D01*
Y2251227D01*
X403390D01*
Y2251361D01*
X403256D01*
Y2251495D01*
X403122D01*
Y2251630D01*
X402988D01*
Y2251764D01*
X402854D01*
Y2251898D01*
X402720D01*
Y2252032D01*
X402586D01*
Y2252300D01*
X402452D01*
Y2252434D01*
X402318D01*
Y2252568D01*
X402184D01*
Y2252702D01*
X402050D01*
Y2252836D01*
X401916D01*
Y2252970D01*
X401782D01*
Y2253104D01*
X401648D01*
Y2253238D01*
X401514D01*
Y2253372D01*
X401380D01*
Y2253506D01*
X401246D01*
Y2253640D01*
X401112D01*
Y2253908D01*
X400978D01*
Y2254042D01*
X400844D01*
Y2254176D01*
X400710D01*
Y2254310D01*
X400576D01*
Y2254444D01*
X400442D01*
Y2254578D01*
X400308D01*
Y2254712D01*
X400174D01*
Y2254846D01*
X400040D01*
Y2254980D01*
X399906D01*
Y2255114D01*
X399772D01*
Y2255382D01*
X399638D01*
Y2255516D01*
X399504D01*
Y2255650D01*
X399370D01*
Y2255784D01*
X399236D01*
Y2255918D01*
X399102D01*
Y2256052D01*
X398968D01*
Y2256186D01*
X398834D01*
Y2256320D01*
X398700D01*
Y2256588D01*
X398566D01*
Y2256722D01*
X398432D01*
Y2256856D01*
X398298D01*
Y2256990D01*
X398164D01*
Y2257124D01*
X398030D01*
Y2257258D01*
X397896D01*
Y2257392D01*
X397762D01*
Y2257526D01*
X397628D01*
Y2257660D01*
X397494D01*
Y2257928D01*
X397360D01*
Y2258062D01*
X397226D01*
Y2258196D01*
X397092D01*
Y2258330D01*
X396958D01*
Y2258464D01*
X396824D01*
Y2258598D01*
X396690D01*
Y2258732D01*
X396556D01*
Y2259000D01*
X396422D01*
Y2259134D01*
X396288D01*
Y2259268D01*
X396154D01*
Y2259402D01*
X396020D01*
Y2259536D01*
X395886D01*
Y2259670D01*
X395752D01*
Y2259938D01*
X395618D01*
Y2260072D01*
X395484D01*
Y2260206D01*
X395350D01*
Y2260340D01*
X395216D01*
Y2260474D01*
X395082D01*
Y2260608D01*
X394948D01*
Y2260876D01*
X394680D01*
Y2261144D01*
X394546D01*
Y2261278D01*
X394412D01*
Y2261412D01*
X394278D01*
Y2261546D01*
X394144D01*
Y2261680D01*
X394010D01*
Y2261948D01*
X393876D01*
Y2262082D01*
X393742D01*
Y2262216D01*
X393608D01*
Y2262350D01*
X393474D01*
Y2262484D01*
X393340D01*
Y2262752D01*
X393206D01*
Y2262886D01*
X393072D01*
Y2263020D01*
X392938D01*
Y2263154D01*
X392804D01*
Y2263288D01*
X392670D01*
Y2263422D01*
X392536D01*
Y2263690D01*
X392402D01*
Y2263824D01*
X392268D01*
Y2263958D01*
X392134D01*
Y2264092D01*
X392000D01*
Y2264226D01*
X391866D01*
Y2264494D01*
X391732D01*
Y2264628D01*
X391598D01*
Y2264762D01*
X391464D01*
Y2264896D01*
X391330D01*
Y2265164D01*
X391196D01*
Y2265298D01*
X391062D01*
Y2265432D01*
X390928D01*
Y2265566D01*
X390794D01*
Y2265700D01*
X390660D01*
Y2265968D01*
X390526D01*
Y2266102D01*
X390392D01*
Y2266236D01*
X390258D01*
Y2266504D01*
X390124D01*
Y2266638D01*
X389990D01*
Y2266772D01*
X389856D01*
Y2266906D01*
X389722D01*
Y2267040D01*
X389588D01*
Y2267308D01*
X389454D01*
Y2267442D01*
X389320D01*
Y2267576D01*
X389186D01*
Y2267844D01*
X389052D01*
Y2267978D01*
X388918D01*
Y2268112D01*
X388784D01*
Y2268246D01*
X388650D01*
Y2268514D01*
X388516D01*
Y2268648D01*
X388382D01*
Y2268782D01*
X388248D01*
Y2269050D01*
X388114D01*
Y2269184D01*
X387980D01*
Y2269318D01*
X387846D01*
Y2269586D01*
X387712D01*
Y2269720D01*
X387578D01*
Y2269854D01*
X387444D01*
Y2269988D01*
X387310D01*
Y2270122D01*
X387176D01*
Y2270390D01*
X387042D01*
Y2270524D01*
X386908D01*
Y2270792D01*
X386774D01*
Y2270926D01*
X386640D01*
Y2271060D01*
X386506D01*
Y2271328D01*
X386372D01*
Y2271462D01*
X386238D01*
Y2271596D01*
X386104D01*
Y2271864D01*
X385970D01*
Y2271998D01*
X385836D01*
Y2272266D01*
X385702D01*
Y2272400D01*
X385568D01*
Y2272534D01*
X385434D01*
Y2272802D01*
X385300D01*
Y2272936D01*
X385166D01*
Y2273070D01*
X385032D01*
Y2273338D01*
X384898D01*
Y2273606D01*
X384764D01*
Y2273740D01*
X384630D01*
Y2274008D01*
X384496D01*
Y2274142D01*
X384362D01*
Y2274276D01*
X384228D01*
Y2274544D01*
X384094D01*
Y2274678D01*
X383959D01*
Y2274946D01*
X383826D01*
Y2275080D01*
X383692D01*
Y2275348D01*
X383558D01*
Y2275616D01*
X383424D01*
Y2275750D01*
X383289D01*
Y2276018D01*
X383156D01*
Y2276286D01*
X383022D01*
Y2276420D01*
X382888D01*
Y2276688D01*
X382753D01*
Y2276822D01*
X382620D01*
Y2277090D01*
X382486D01*
Y2277358D01*
X382351D01*
Y2277492D01*
X382217D01*
Y2277760D01*
X382084D01*
Y2277894D01*
X381950D01*
Y2278162D01*
X381815D01*
Y2278430D01*
X381682D01*
Y2278564D01*
X381548D01*
Y2278832D01*
X381413D01*
Y2279100D01*
X381279D01*
Y2279234D01*
X381146D01*
Y2279502D01*
X381012D01*
Y2279770D01*
X380877D01*
Y2279904D01*
X380743D01*
Y2280172D01*
X380610D01*
Y2280440D01*
X380475D01*
Y2280574D01*
X380341D01*
Y2280842D01*
X380207D01*
Y2280976D01*
X380074D01*
Y2281378D01*
X379939D01*
Y2281512D01*
X379805D01*
Y2281780D01*
X379671D01*
Y2282048D01*
X379537D01*
Y2282316D01*
X379404D01*
Y2282450D01*
X379269D01*
Y2282718D01*
X379135D01*
Y2282986D01*
X379001D01*
Y2283254D01*
X378868D01*
Y2283522D01*
X378733D01*
Y2283657D01*
X378599D01*
Y2284059D01*
X378465D01*
Y2284193D01*
X378331D01*
Y2284461D01*
X378197D01*
Y2284863D01*
X378063D01*
Y2284997D01*
X377929D01*
Y2285265D01*
X377795D01*
Y2285667D01*
X377661D01*
Y2285800D01*
X377527D01*
Y2286203D01*
X377393D01*
Y2286336D01*
X377259D01*
Y2286605D01*
X377125D01*
Y2287006D01*
X376991D01*
Y2287274D01*
X376857D01*
Y2287543D01*
X376723D01*
Y2287811D01*
X376589D01*
Y2288079D01*
X376455D01*
Y2288481D01*
X376321D01*
Y2288749D01*
X376187D01*
Y2289017D01*
X376053D01*
Y2289419D01*
X375919D01*
Y2289553D01*
X375785D01*
Y2289955D01*
X375651D01*
Y2290357D01*
X375517D01*
Y2290491D01*
X375383D01*
Y2290893D01*
X375249D01*
Y2291295D01*
X375115D01*
Y2291563D01*
X374981D01*
Y2291965D01*
X374847D01*
Y2292233D01*
X374713D01*
Y2292635D01*
X374579D01*
Y2293037D01*
X374445D01*
Y2293305D01*
X374311D01*
Y2293707D01*
X374177D01*
Y2294109D01*
X374043D01*
Y2294377D01*
X373909D01*
Y2294913D01*
X373775D01*
Y2295181D01*
X373641D01*
Y2295717D01*
X373507D01*
Y2296119D01*
X373373D01*
Y2296387D01*
X373239D01*
Y2296923D01*
X373105D01*
Y2297325D01*
X372971D01*
Y2297727D01*
X372837D01*
Y2298397D01*
X372703D01*
Y2298665D01*
X372569D01*
Y2299201D01*
X372435D01*
Y2299737D01*
X372301D01*
Y2300139D01*
X372167D01*
Y2300809D01*
X372033D01*
Y2301211D01*
X371899D01*
Y2301747D01*
X371765D01*
Y2302417D01*
X371631D01*
Y2302953D01*
X371497D01*
Y2303623D01*
X371363D01*
Y2304427D01*
X371229D01*
Y2304963D01*
X371095D01*
Y2305767D01*
X370961D01*
Y2306571D01*
X370827D01*
Y2307375D01*
X370693D01*
Y2308581D01*
X370559D01*
Y2309251D01*
X370425D01*
Y2310591D01*
X370291D01*
Y2312333D01*
X370157D01*
Y2313673D01*
X370023D01*
Y2319168D01*
X369755D01*
Y2318631D01*
X369621D01*
Y2317961D01*
X369487D01*
Y2317425D01*
X369353D01*
Y2316755D01*
X369219D01*
Y2316219D01*
X369085D01*
Y2315683D01*
X368951D01*
Y2314879D01*
X368817D01*
Y2314477D01*
X368683D01*
Y2313807D01*
X368549D01*
Y2313003D01*
X368415D01*
Y2312735D01*
X368281D01*
Y2311931D01*
X368147D01*
Y2311261D01*
X368013D01*
Y2310725D01*
X367879D01*
Y2310055D01*
X367745D01*
Y2309653D01*
X367611D01*
Y2308849D01*
X367477D01*
Y2308179D01*
X367343D01*
Y2307777D01*
X367209D01*
Y2307107D01*
X367075D01*
Y2306437D01*
X366941D01*
Y2305901D01*
X366807D01*
Y2305231D01*
X366673D01*
Y2304695D01*
X366539D01*
Y2304025D01*
X366405D01*
Y2303355D01*
X366271D01*
Y2302953D01*
X366137D01*
Y2302149D01*
X366003D01*
Y2301613D01*
X365869D01*
Y2301077D01*
X365735D01*
Y2300273D01*
X365601D01*
Y2299871D01*
X365467D01*
Y2299067D01*
X365333D01*
Y2298531D01*
X365199D01*
Y2297995D01*
X365065D01*
Y2297325D01*
X364931D01*
Y2296789D01*
X364797D01*
Y2296119D01*
X364663D01*
Y2295449D01*
X364529D01*
Y2294913D01*
X364395D01*
Y2294377D01*
X364261D01*
Y2293573D01*
X364127D01*
Y2293171D01*
X363993D01*
Y2292367D01*
X363859D01*
Y2291831D01*
X363725D01*
Y2291295D01*
X363591D01*
Y2290491D01*
X363457D01*
Y2290089D01*
X363323D01*
Y2289419D01*
X363189D01*
Y2288749D01*
X363055D01*
Y2288213D01*
X362921D01*
Y2287543D01*
X362787D01*
Y2287006D01*
X362653D01*
Y2286336D01*
X362519D01*
Y2285667D01*
X362385D01*
Y2285265D01*
X362251D01*
Y2284461D01*
X362117D01*
Y2283791D01*
X361983D01*
Y2283389D01*
X361849D01*
Y2282718D01*
X361715D01*
Y2282048D01*
X361581D01*
Y2281512D01*
X361447D01*
Y2280842D01*
X361313D01*
Y2280306D01*
X361179D01*
Y2279636D01*
X361045D01*
Y2278966D01*
X360911D01*
Y2278564D01*
X360777D01*
Y2277760D01*
X360643D01*
Y2277224D01*
X360509D01*
Y2276688D01*
X360375D01*
Y2276018D01*
X360241D01*
Y2275482D01*
X360107D01*
Y2274812D01*
X359973D01*
Y2274142D01*
X359839D01*
Y2273606D01*
X359705D01*
Y2272936D01*
X359571D01*
Y2272266D01*
X359437D01*
Y2271864D01*
X359303D01*
Y2271060D01*
X359169D01*
Y2270658D01*
X359035D01*
Y2269988D01*
X358901D01*
Y2269184D01*
X358767D01*
Y2268782D01*
X358633D01*
Y2267978D01*
X358499D01*
Y2267442D01*
X358365D01*
Y2266906D01*
X358231D01*
Y2266236D01*
X358097D01*
Y2265700D01*
X357963D01*
Y2265030D01*
X357829D01*
Y2264360D01*
X357695D01*
Y2263958D01*
X357561D01*
Y2263154D01*
X357427D01*
Y2262618D01*
X357293D01*
Y2262082D01*
X357159D01*
Y2261278D01*
X357025D01*
Y2260876D01*
X356891D01*
Y2260206D01*
X356757D01*
Y2259402D01*
X356623D01*
Y2259134D01*
X356489D01*
Y2258330D01*
X356355D01*
Y2257660D01*
X356221D01*
Y2257124D01*
X356087D01*
Y2256454D01*
X355953D01*
Y2256052D01*
X355819D01*
Y2255248D01*
X355685D01*
Y2254712D01*
X355551D01*
Y2254176D01*
X355417D01*
Y2253506D01*
X355283D01*
Y2252836D01*
X355149D01*
Y2252300D01*
X355015D01*
Y2251495D01*
X354881D01*
Y2251093D01*
X354747D01*
Y2250423D01*
X354613D01*
Y2249753D01*
X354479D01*
Y2249352D01*
X354345D01*
Y2248548D01*
X354211D01*
Y2248012D01*
X354077D01*
Y2247341D01*
X353943D01*
Y2246671D01*
X353809D01*
Y2246269D01*
X353675D01*
Y2245465D01*
X353541D01*
Y2244929D01*
X353407D01*
Y2244393D01*
X353273D01*
Y2243723D01*
X353139D01*
Y2243053D01*
X353005D01*
Y2242517D01*
X352871D01*
Y2241847D01*
X352737D01*
Y2241311D01*
X352603D01*
Y2240641D01*
X352469D01*
Y2239971D01*
X352335D01*
Y2239569D01*
X352201D01*
Y2238765D01*
X352067D01*
Y2238229D01*
X351933D01*
Y2237693D01*
X351799D01*
Y2237023D01*
X351665D01*
Y2236487D01*
X351531D01*
Y2235817D01*
X351397D01*
Y2235147D01*
X351263D01*
Y2234611D01*
X351129D01*
Y2233941D01*
X350995D01*
Y2233405D01*
X350861D01*
Y2232735D01*
X350727D01*
Y2232065D01*
X350593D01*
Y2231663D01*
X350459D01*
Y2230859D01*
X350325D01*
Y2230189D01*
X350191D01*
Y2229787D01*
X350057D01*
Y2229117D01*
X349923D01*
Y2228447D01*
X349789D01*
Y2227911D01*
X349655D01*
Y2227107D01*
X349521D01*
Y2226839D01*
X349387D01*
Y2226035D01*
X349253D01*
Y2225365D01*
X349118D01*
Y2224829D01*
X348985D01*
Y2224159D01*
X348851D01*
Y2223623D01*
X348717D01*
Y2223087D01*
X348582D01*
Y2222417D01*
X348449D01*
Y2221881D01*
X348315D01*
Y2221211D01*
X348180D01*
Y2220541D01*
X348046D01*
Y2220005D01*
X347913D01*
Y2219335D01*
X347779D01*
Y2218665D01*
X347644D01*
Y2218262D01*
X347510D01*
Y2217459D01*
X347377D01*
Y2217057D01*
X347243D01*
Y2216253D01*
X347108D01*
Y2215582D01*
X346974D01*
Y2215180D01*
X346841D01*
Y2214376D01*
X346707D01*
Y2213840D01*
X346572D01*
Y2213304D01*
X346438D01*
Y2212634D01*
X346305D01*
Y2212098D01*
X346171D01*
Y2211428D01*
X346036D01*
Y2210758D01*
X345902D01*
Y2210356D01*
X345769D01*
Y2209552D01*
X345634D01*
Y2208882D01*
X345500D01*
Y2208480D01*
X345366D01*
Y2207676D01*
X345233D01*
Y2207274D01*
X345098D01*
Y2206604D01*
X344964D01*
Y2205800D01*
X344830D01*
Y2205398D01*
X344696D01*
Y2204594D01*
X344562D01*
Y2204058D01*
X344428D01*
Y2203522D01*
X344294D01*
Y2202852D01*
X344160D01*
Y2202316D01*
X344026D01*
Y2201646D01*
X343892D01*
Y2201110D01*
X343758D01*
Y2200574D01*
X343624D01*
Y2199904D01*
X343490D01*
Y2199234D01*
X343356D01*
Y2198698D01*
X343222D01*
Y2197894D01*
X343088D01*
Y2197492D01*
X342954D01*
Y2196822D01*
X342820D01*
Y2196152D01*
X342686D01*
Y2195750D01*
X342552D01*
Y2194946D01*
X342418D01*
Y2194410D01*
X342284D01*
Y2193740D01*
X342150D01*
Y2193070D01*
X342016D01*
Y2192534D01*
X341882D01*
Y2191864D01*
X341748D01*
Y2191328D01*
X341614D01*
Y2190792D01*
X341480D01*
Y2190122D01*
X341346D01*
Y2189452D01*
X341212D01*
Y2188916D01*
X341078D01*
Y2188246D01*
X340944D01*
Y2187710D01*
X340810D01*
Y2187040D01*
X340676D01*
Y2186370D01*
X340542D01*
Y2185968D01*
X340408D01*
Y2185164D01*
X340274D01*
Y2184628D01*
X340140D01*
Y2184092D01*
X340006D01*
Y2183421D01*
X339872D01*
Y2182885D01*
X339738D01*
Y2182215D01*
X339604D01*
Y2181546D01*
X339470D01*
Y2181010D01*
X339336D01*
Y2180340D01*
X339202D01*
Y2179669D01*
X339068D01*
Y2179133D01*
X338934D01*
Y2178463D01*
X338800D01*
Y2178061D01*
X338666D01*
Y2177659D01*
X334244D01*
Y2177927D01*
X334378D01*
Y2178597D01*
X334512D01*
Y2179133D01*
X334646D01*
Y2179803D01*
X334780D01*
Y2180206D01*
X334914D01*
Y2181010D01*
X335048D01*
Y2181680D01*
X335182D01*
Y2182081D01*
X335316D01*
Y2182752D01*
X335450D01*
Y2183421D01*
X335584D01*
Y2183824D01*
X335718D01*
Y2184494D01*
X335852D01*
Y2185030D01*
X335986D01*
Y2185700D01*
X336120D01*
Y2186370D01*
X336254D01*
Y2186906D01*
X336388D01*
Y2187576D01*
X336522D01*
Y2188112D01*
X336656D01*
Y2188648D01*
X336790D01*
Y2189318D01*
X336924D01*
Y2189720D01*
X337058D01*
Y2190390D01*
X337192D01*
Y2191194D01*
X337326D01*
Y2191596D01*
X337460D01*
Y2192266D01*
X337594D01*
Y2192802D01*
X337728D01*
Y2193338D01*
X337862D01*
Y2194008D01*
X337996D01*
Y2194544D01*
X338130D01*
Y2195214D01*
X338264D01*
Y2195884D01*
X338398D01*
Y2196286D01*
X338532D01*
Y2197090D01*
X338666D01*
Y2197626D01*
X338800D01*
Y2198162D01*
X338934D01*
Y2198832D01*
X339068D01*
Y2199368D01*
X339202D01*
Y2199904D01*
X339336D01*
Y2200708D01*
X339470D01*
Y2201110D01*
X339604D01*
Y2201780D01*
X339738D01*
Y2202450D01*
X339872D01*
Y2202986D01*
X340006D01*
Y2203656D01*
X340140D01*
Y2204058D01*
X340274D01*
Y2204862D01*
X340408D01*
Y2205398D01*
X340542D01*
Y2205934D01*
X340676D01*
Y2206604D01*
X340810D01*
Y2207140D01*
X340944D01*
Y2207676D01*
X341078D01*
Y2208480D01*
X341212D01*
Y2208748D01*
X341346D01*
Y2209552D01*
X341480D01*
Y2210222D01*
X341614D01*
Y2210624D01*
X341748D01*
Y2211294D01*
X341882D01*
Y2211964D01*
X342016D01*
Y2212500D01*
X342150D01*
Y2213171D01*
X342284D01*
Y2213572D01*
X342418D01*
Y2214242D01*
X342552D01*
Y2214912D01*
X342686D01*
Y2215448D01*
X342820D01*
Y2216119D01*
X342954D01*
Y2216655D01*
X343088D01*
Y2217191D01*
X343222D01*
Y2217995D01*
X343356D01*
Y2218397D01*
X343490D01*
Y2219067D01*
X343624D01*
Y2219737D01*
X343758D01*
Y2220139D01*
X343892D01*
Y2220943D01*
X344026D01*
Y2221479D01*
X344160D01*
Y2222015D01*
X344294D01*
Y2222685D01*
X344428D01*
Y2223221D01*
X344562D01*
Y2223891D01*
X344696D01*
Y2224561D01*
X344830D01*
Y2224963D01*
X344964D01*
Y2225633D01*
X345098D01*
Y2226303D01*
X345233D01*
Y2226839D01*
X345366D01*
Y2227509D01*
X345500D01*
Y2227911D01*
X345634D01*
Y2228581D01*
X345769D01*
Y2229385D01*
X345902D01*
Y2229653D01*
X346036D01*
Y2230457D01*
X346171D01*
Y2230993D01*
X346305D01*
Y2231529D01*
X346438D01*
Y2232333D01*
X346572D01*
Y2232735D01*
X346707D01*
Y2233405D01*
X346841D01*
Y2234075D01*
X346974D01*
Y2234611D01*
X347108D01*
Y2235281D01*
X347243D01*
Y2235817D01*
X347377D01*
Y2236353D01*
X347510D01*
Y2237023D01*
X347644D01*
Y2237559D01*
X347779D01*
Y2238229D01*
X347913D01*
Y2238899D01*
X348046D01*
Y2239301D01*
X348180D01*
Y2240105D01*
X348315D01*
Y2240641D01*
X348449D01*
Y2241177D01*
X348582D01*
Y2241847D01*
X348717D01*
Y2242249D01*
X348851D01*
Y2242919D01*
X348985D01*
Y2243723D01*
X349118D01*
Y2244125D01*
X349253D01*
Y2244795D01*
X349387D01*
Y2245465D01*
X349521D01*
Y2245867D01*
X349655D01*
Y2246671D01*
X349789D01*
Y2247073D01*
X349923D01*
Y2247743D01*
X350057D01*
Y2248413D01*
X350191D01*
Y2248950D01*
X350325D01*
Y2249619D01*
X350459D01*
Y2250155D01*
X350593D01*
Y2250825D01*
X350727D01*
Y2251361D01*
X350861D01*
Y2251898D01*
X350995D01*
Y2252568D01*
X351129D01*
Y2253238D01*
X351263D01*
Y2253774D01*
X351397D01*
Y2254444D01*
X351531D01*
Y2254980D01*
X351665D01*
Y2255516D01*
X351799D01*
Y2256186D01*
X351933D01*
Y2256722D01*
X352067D01*
Y2257392D01*
X352201D01*
Y2258062D01*
X352335D01*
Y2258464D01*
X352469D01*
Y2259268D01*
X352603D01*
Y2259804D01*
X352737D01*
Y2260340D01*
X352871D01*
Y2261010D01*
X353005D01*
Y2261546D01*
X353139D01*
Y2262082D01*
X353273D01*
Y2262886D01*
X353407D01*
Y2263288D01*
X353541D01*
Y2263958D01*
X353675D01*
Y2264628D01*
X353809D01*
Y2265164D01*
X353943D01*
Y2265834D01*
X354077D01*
Y2266236D01*
X354211D01*
Y2267040D01*
X354345D01*
Y2267710D01*
X354479D01*
Y2268112D01*
X354613D01*
Y2268782D01*
X354747D01*
Y2269452D01*
X354881D01*
Y2269854D01*
X355015D01*
Y2270658D01*
X355149D01*
Y2271194D01*
X355283D01*
Y2271730D01*
X355417D01*
Y2272534D01*
X355551D01*
Y2272936D01*
X355685D01*
Y2273606D01*
X355819D01*
Y2274276D01*
X355953D01*
Y2274812D01*
X356087D01*
Y2275482D01*
X356221D01*
Y2275884D01*
X356355D01*
Y2276554D01*
X356489D01*
Y2277358D01*
X356623D01*
Y2277760D01*
X356757D01*
Y2278430D01*
X356891D01*
Y2279100D01*
X357025D01*
Y2279636D01*
X357159D01*
Y2280306D01*
X357293D01*
Y2280842D01*
X357427D01*
Y2281512D01*
X357561D01*
Y2282182D01*
X357695D01*
Y2282584D01*
X357829D01*
Y2283389D01*
X357963D01*
Y2283925D01*
X358097D01*
Y2284461D01*
X358231D01*
Y2285131D01*
X358365D01*
Y2285532D01*
X358499D01*
Y2286336D01*
X358633D01*
Y2287006D01*
X358767D01*
Y2287409D01*
X358901D01*
Y2288079D01*
X359035D01*
Y2288749D01*
X359169D01*
Y2289285D01*
X359303D01*
Y2289955D01*
X359437D01*
Y2290491D01*
X359571D01*
Y2291027D01*
X359705D01*
Y2291831D01*
X359839D01*
Y2292233D01*
X359973D01*
Y2293037D01*
X360107D01*
Y2293573D01*
X360241D01*
Y2294109D01*
X360375D01*
Y2294779D01*
X360509D01*
Y2295315D01*
X360643D01*
Y2295985D01*
X360777D01*
Y2296655D01*
X360911D01*
Y2297057D01*
X361045D01*
Y2297861D01*
X361179D01*
Y2298397D01*
X361313D01*
Y2299067D01*
X361447D01*
Y2299737D01*
X361581D01*
Y2300139D01*
X361715D01*
Y2300809D01*
X361849D01*
Y2301613D01*
X361983D01*
Y2302015D01*
X362117D01*
Y2302685D01*
X362251D01*
Y2303355D01*
X362385D01*
Y2303891D01*
X362519D01*
Y2304561D01*
X362653D01*
Y2305097D01*
X362787D01*
Y2305767D01*
X362921D01*
Y2306437D01*
X363055D01*
Y2306839D01*
X363189D01*
Y2307643D01*
X363323D01*
Y2308179D01*
X363457D01*
Y2308715D01*
X363591D01*
Y2309519D01*
X363725D01*
Y2310055D01*
X363859D01*
Y2310725D01*
X363993D01*
Y2311395D01*
X364127D01*
Y2311797D01*
X364261D01*
Y2312601D01*
X364395D01*
Y2313137D01*
X364529D01*
Y2313807D01*
X364663D01*
Y2314477D01*
X364797D01*
Y2315013D01*
X364931D01*
Y2315683D01*
X365065D01*
Y2316353D01*
X365199D01*
Y2316889D01*
X365333D01*
Y2317693D01*
X365467D01*
Y2318229D01*
X365601D01*
Y2318765D01*
X365735D01*
Y2319436D01*
X365869D01*
Y2319972D01*
X366003D01*
Y2320642D01*
X366137D01*
Y2321312D01*
X366271D01*
Y2321848D01*
X366405D01*
Y2322518D01*
X366539D01*
Y2323054D01*
X366673D01*
Y2323724D01*
X366807D01*
Y2324394D01*
X366941D01*
Y2324662D01*
X367075D01*
Y2325332D01*
X367209D01*
Y2326002D01*
X367343D01*
Y2326404D01*
X367477D01*
Y2327074D01*
X367611D01*
Y2327610D01*
X367745D01*
Y2328146D01*
X367879D01*
Y2328682D01*
X368013D01*
Y2329084D01*
X368147D01*
Y2329754D01*
X368281D01*
Y2330290D01*
X368415D01*
Y2330692D01*
X368549D01*
Y2331362D01*
X368683D01*
Y2331764D01*
X368817D01*
Y2332300D01*
X368951D01*
Y2332836D01*
X369085D01*
Y2333238D01*
X369219D01*
Y2333774D01*
X369353D01*
Y2334310D01*
X369487D01*
Y2334712D01*
X369621D01*
Y2335248D01*
X369755D01*
Y2335650D01*
X369889D01*
Y2336052D01*
X370023D01*
Y2336588D01*
X370157D01*
Y2336990D01*
X370291D01*
Y2337526D01*
X370425D01*
Y2338062D01*
X370559D01*
Y2338330D01*
X370693D01*
Y2338866D01*
X370827D01*
Y2339268D01*
X370961D01*
Y2339670D01*
X371095D01*
Y2340206D01*
X371229D01*
Y2340474D01*
X371363D01*
Y2340876D01*
X371497D01*
Y2341412D01*
X371631D01*
Y2341680D01*
X371765D01*
Y2342216D01*
X371899D01*
Y2342618D01*
X372033D01*
Y2342886D01*
X372167D01*
Y2343422D01*
X372301D01*
Y2343690D01*
X372435D01*
Y2344092D01*
X372569D01*
Y2344628D01*
X372703D01*
Y2344896D01*
X372837D01*
Y2345298D01*
X372971D01*
Y2345700D01*
X373105D01*
Y2345968D01*
X373239D01*
Y2346370D01*
X373373D01*
Y2346772D01*
X373507D01*
Y2347174D01*
X373641D01*
Y2347576D01*
X373775D01*
Y2347844D01*
X373909D01*
Y2348246D01*
X374043D01*
Y2348514D01*
X374177D01*
Y2348916D01*
X374311D01*
Y2349318D01*
X374445D01*
Y2349586D01*
X374579D01*
Y2349854D01*
X374713D01*
Y2350256D01*
X374847D01*
Y2350524D01*
X374981D01*
Y2350926D01*
X375115D01*
Y2351194D01*
X375249D01*
Y2351462D01*
X375383D01*
Y2351865D01*
X375517D01*
Y2352133D01*
X375651D01*
Y2352401D01*
X375785D01*
Y2352802D01*
X375919D01*
Y2352936D01*
X376053D01*
Y2353338D01*
X376187D01*
Y2353606D01*
X376321D01*
Y2353874D01*
X376455D01*
Y2354276D01*
X376589D01*
Y2354410D01*
X376723D01*
Y2354812D01*
X376857D01*
Y2355081D01*
X376991D01*
Y2355349D01*
X377125D01*
Y2355617D01*
X377259D01*
Y2355885D01*
X377393D01*
Y2356153D01*
X377527D01*
Y2356555D01*
X377661D01*
Y2356689D01*
X377795D01*
Y2356957D01*
X377929D01*
Y2357225D01*
X378063D01*
Y2357493D01*
X378197D01*
Y2357761D01*
X378331D01*
Y2358029D01*
X378465D01*
Y2358163D01*
X378599D01*
Y2358565D01*
X378733D01*
Y2358699D01*
X378868D01*
Y2358967D01*
X379001D01*
Y2359235D01*
X379135D01*
Y2359369D01*
X379269D01*
Y2359771D01*
X379404D01*
Y2359905D01*
X379537D01*
Y2360173D01*
X379671D01*
Y2360441D01*
X379805D01*
Y2360575D01*
X379939D01*
Y2360843D01*
X380074D01*
Y2361111D01*
X380207D01*
Y2361245D01*
X380341D01*
Y2361513D01*
X380475D01*
Y2361647D01*
X380610D01*
Y2361915D01*
X380743D01*
Y2362183D01*
X380877D01*
Y2362317D01*
X381012D01*
Y2362585D01*
X381146D01*
Y2362719D01*
X381279D01*
Y2362853D01*
X381413D01*
Y2363121D01*
X381548D01*
Y2363389D01*
X381682D01*
Y2363523D01*
X381815D01*
Y2363657D01*
X381950D01*
Y2363925D01*
X382084D01*
Y2364059D01*
X382217D01*
Y2364327D01*
X382351D01*
Y2364461D01*
X382486D01*
Y2364595D01*
X382620D01*
Y2364729D01*
X382753D01*
Y2364863D01*
X382888D01*
Y2364997D01*
X383156D01*
Y2365131D01*
X383424D01*
Y2365265D01*
X383692D01*
Y2365399D01*
X383959D01*
Y2365533D01*
X384228D01*
Y2365667D01*
X384630D01*
Y2365801D01*
X384764D01*
Y2365935D01*
X385166D01*
Y2366069D01*
X385434D01*
Y2366203D01*
X385702D01*
Y2366337D01*
X386104D01*
Y2366471D01*
X386372D01*
Y2366605D01*
X386640D01*
Y2366739D01*
X387042D01*
Y2366873D01*
X387310D01*
Y2367007D01*
X387712D01*
Y2367141D01*
X388114D01*
Y2367275D01*
X388382D01*
Y2367409D01*
X388918D01*
Y2367543D01*
X389320D01*
Y2367677D01*
X389722D01*
Y2367543D01*
X389588D01*
Y2367409D01*
X389454D01*
Y2367275D01*
X389320D01*
Y2367007D01*
X389186D01*
Y2366873D01*
X389052D01*
Y2366739D01*
X388918D01*
Y2366471D01*
X388784D01*
Y2366337D01*
X388650D01*
Y2366069D01*
X388516D01*
Y2365935D01*
X388382D01*
Y2365801D01*
X388248D01*
Y2365533D01*
X388114D01*
Y2365399D01*
X387980D01*
Y2365265D01*
X387846D01*
Y2364997D01*
X387712D01*
Y2364863D01*
X387578D01*
Y2364595D01*
X387444D01*
Y2364461D01*
X387310D01*
Y2364327D01*
X387176D01*
Y2364059D01*
X387042D01*
Y2363925D01*
X386908D01*
Y2363657D01*
X386774D01*
Y2363389D01*
X386640D01*
Y2363255D01*
X386506D01*
Y2363121D01*
X386372D01*
Y2362853D01*
X386238D01*
Y2362719D01*
X386104D01*
Y2362451D01*
X385970D01*
Y2362317D01*
X385836D01*
Y2362049D01*
X385702D01*
Y2361781D01*
X385568D01*
Y2361647D01*
X385434D01*
Y2361379D01*
X385300D01*
Y2361111D01*
X385166D01*
Y2360977D01*
X385032D01*
Y2360709D01*
X384898D01*
Y2360575D01*
X384764D01*
Y2360307D01*
X384630D01*
Y2360039D01*
X384496D01*
Y2359905D01*
X384362D01*
Y2359637D01*
X384228D01*
Y2359369D01*
X384094D01*
Y2359101D01*
X383959D01*
Y2358833D01*
X383826D01*
Y2358699D01*
X383692D01*
Y2358431D01*
X383558D01*
Y2358163D01*
X383424D01*
Y2357895D01*
X383289D01*
Y2357761D01*
X383156D01*
Y2357493D01*
X383022D01*
Y2357225D01*
X382888D01*
Y2356957D01*
X382753D01*
Y2356689D01*
X382620D01*
Y2356421D01*
X382486D01*
Y2356153D01*
X382351D01*
Y2355885D01*
X382217D01*
Y2355617D01*
X382084D01*
Y2355349D01*
X381950D01*
Y2355081D01*
X381815D01*
Y2354812D01*
X381682D01*
Y2354544D01*
X381548D01*
Y2354276D01*
X381413D01*
Y2354008D01*
X381279D01*
Y2353740D01*
X381146D01*
Y2353472D01*
X381012D01*
Y2353204D01*
X380877D01*
Y2352936D01*
X380743D01*
Y2352534D01*
X380610D01*
Y2352266D01*
X380475D01*
Y2351998D01*
X380341D01*
Y2351596D01*
X380207D01*
Y2351328D01*
X380074D01*
Y2351060D01*
X379939D01*
Y2350658D01*
X379805D01*
Y2350390D01*
X379671D01*
Y2349988D01*
X379537D01*
Y2349854D01*
X379404D01*
Y2349452D01*
X379269D01*
Y2349050D01*
X379135D01*
Y2348782D01*
X379001D01*
Y2348380D01*
X378868D01*
Y2347978D01*
X378733D01*
Y2347710D01*
X378599D01*
Y2347308D01*
X378465D01*
Y2347040D01*
X378331D01*
Y2346638D01*
X378197D01*
Y2346236D01*
X378063D01*
Y2345834D01*
X377929D01*
Y2345432D01*
X377795D01*
Y2345030D01*
X377661D01*
Y2344762D01*
X377527D01*
Y2344226D01*
X377393D01*
Y2343958D01*
X377259D01*
Y2343422D01*
X377125D01*
Y2342886D01*
X376991D01*
Y2342618D01*
X376857D01*
Y2342082D01*
X376723D01*
Y2341680D01*
X376589D01*
Y2341144D01*
X376455D01*
Y2340608D01*
X376321D01*
Y2340206D01*
X376187D01*
Y2339670D01*
X376053D01*
Y2339134D01*
X375919D01*
Y2338732D01*
X375785D01*
Y2338062D01*
X375651D01*
Y2337526D01*
X375517D01*
Y2336990D01*
X375383D01*
Y2336186D01*
X375249D01*
Y2335650D01*
X375115D01*
Y2334846D01*
X374981D01*
Y2334176D01*
X374847D01*
Y2333640D01*
X374713D01*
Y2332702D01*
X374579D01*
Y2331764D01*
X374445D01*
Y2331094D01*
X374311D01*
Y2329754D01*
X374177D01*
Y2328950D01*
X374043D01*
Y2327342D01*
X373909D01*
Y2325332D01*
X373775D01*
Y2322384D01*
X373641D01*
Y2320240D01*
X373775D01*
Y2317291D01*
X373909D01*
Y2315147D01*
X374043D01*
Y2313405D01*
X374177D01*
Y2312333D01*
X374311D01*
Y2311261D01*
X374445D01*
Y2310323D01*
X374579D01*
Y2309385D01*
X374713D01*
Y2308581D01*
X374847D01*
Y2307911D01*
X374981D01*
Y2307107D01*
X375115D01*
Y2306303D01*
X375249D01*
Y2305767D01*
X375383D01*
Y2305097D01*
X375517D01*
Y2304561D01*
X375651D01*
Y2304025D01*
X375785D01*
Y2303355D01*
X375919D01*
Y2302819D01*
X376053D01*
Y2302283D01*
X376187D01*
Y2301747D01*
X376321D01*
Y2301345D01*
X376455D01*
Y2300675D01*
X376589D01*
Y2300273D01*
X376723D01*
Y2299871D01*
X376857D01*
Y2299335D01*
X376991D01*
Y2299067D01*
X377125D01*
Y2298531D01*
X377259D01*
Y2297995D01*
X377393D01*
Y2297727D01*
X377527D01*
Y2297191D01*
X377661D01*
Y2296923D01*
X377795D01*
Y2296521D01*
X377929D01*
Y2295985D01*
X378063D01*
Y2295717D01*
X378197D01*
Y2295315D01*
X378331D01*
Y2294913D01*
X378465D01*
Y2294645D01*
X378599D01*
Y2294243D01*
X378733D01*
Y2293841D01*
X378868D01*
Y2293573D01*
X379001D01*
Y2293171D01*
X379135D01*
Y2292903D01*
X379269D01*
Y2292501D01*
X379404D01*
Y2292099D01*
X379537D01*
Y2291965D01*
X379671D01*
Y2291563D01*
X379805D01*
Y2291295D01*
X379939D01*
Y2291027D01*
X380074D01*
Y2290625D01*
X380207D01*
Y2290357D01*
X380341D01*
Y2290089D01*
X380475D01*
Y2289687D01*
X380610D01*
Y2289553D01*
X380743D01*
Y2289151D01*
X380877D01*
Y2288883D01*
X381012D01*
Y2288615D01*
X381146D01*
Y2288213D01*
X381279D01*
Y2288079D01*
X381413D01*
Y2287677D01*
X381548D01*
Y2287409D01*
X381682D01*
Y2287274D01*
X381815D01*
Y2286873D01*
X381950D01*
Y2286605D01*
X382084D01*
Y2286471D01*
X382217D01*
Y2286068D01*
X382351D01*
Y2285935D01*
X382486D01*
Y2285667D01*
X382620D01*
Y2285398D01*
X382753D01*
Y2285131D01*
X382888D01*
Y2284863D01*
X383022D01*
Y2284595D01*
X383156D01*
Y2284461D01*
X383289D01*
Y2284193D01*
X383424D01*
Y2283925D01*
X383558D01*
Y2283657D01*
X383692D01*
Y2283389D01*
X383826D01*
Y2283254D01*
X383959D01*
Y2282986D01*
X384094D01*
Y2282718D01*
X384228D01*
Y2282584D01*
X384362D01*
Y2282316D01*
X384496D01*
Y2282048D01*
X384630D01*
Y2281780D01*
X384764D01*
Y2281646D01*
X384898D01*
Y2281378D01*
X385032D01*
Y2281110D01*
X385166D01*
Y2280976D01*
X385300D01*
Y2280708D01*
X385434D01*
Y2280574D01*
X385568D01*
Y2280306D01*
X385702D01*
Y2280172D01*
X385836D01*
Y2279904D01*
X385970D01*
Y2279770D01*
X386104D01*
Y2279502D01*
X386238D01*
Y2279234D01*
X386372D01*
Y2279100D01*
X386506D01*
Y2278832D01*
X386640D01*
Y2278698D01*
X386774D01*
Y2278430D01*
X386908D01*
Y2278296D01*
X387042D01*
Y2278162D01*
X387176D01*
Y2277894D01*
X387310D01*
Y2277626D01*
X387444D01*
Y2277492D01*
X387578D01*
Y2277224D01*
X387712D01*
Y2277090D01*
X387846D01*
Y2276956D01*
X387980D01*
Y2276688D01*
X388114D01*
Y2276554D01*
X388248D01*
Y2276420D01*
X388382D01*
Y2276152D01*
X388516D01*
Y2276018D01*
X388650D01*
Y2275750D01*
X388784D01*
Y2275616D01*
X388918D01*
Y2275482D01*
X389052D01*
Y2275214D01*
X389186D01*
Y2275080D01*
X389320D01*
Y2274946D01*
X389454D01*
Y2274678D01*
X389588D01*
Y2274544D01*
X389722D01*
Y2274410D01*
X389856D01*
Y2274276D01*
X389990D01*
Y2274008D01*
X390124D01*
Y2273874D01*
X390258D01*
Y2273740D01*
X390392D01*
Y2273606D01*
X390526D01*
Y2273338D01*
X390660D01*
Y2273204D01*
X390794D01*
Y2273070D01*
X390928D01*
Y2272936D01*
X391062D01*
Y2272668D01*
X391196D01*
Y2272534D01*
X391330D01*
Y2272400D01*
X391464D01*
Y2272266D01*
X391598D01*
Y2272132D01*
X391732D01*
Y2271998D01*
X391866D01*
Y2271730D01*
X392000D01*
Y2271596D01*
X392134D01*
Y2271462D01*
X392268D01*
Y2271328D01*
X392402D01*
Y2271194D01*
X392536D01*
Y2270926D01*
X392670D01*
Y2270792D01*
X392804D01*
Y2270658D01*
X392938D01*
Y2270524D01*
X393072D01*
Y2270390D01*
X393206D01*
Y2270256D01*
X393340D01*
Y2269988D01*
X393474D01*
Y2269854D01*
X393608D01*
Y2269720D01*
X393742D01*
Y2269586D01*
X393876D01*
Y2269452D01*
X394010D01*
Y2269318D01*
X394144D01*
Y2269184D01*
X394278D01*
Y2269050D01*
X394412D01*
Y2268916D01*
X394546D01*
Y2268782D01*
X394680D01*
Y2268648D01*
X394814D01*
Y2268514D01*
X394948D01*
Y2268380D01*
X395082D01*
Y2268112D01*
X395216D01*
Y2267978D01*
X395350D01*
Y2267844D01*
X395484D01*
Y2267710D01*
X395618D01*
Y2267576D01*
X395752D01*
Y2267442D01*
X395886D01*
Y2267308D01*
X396020D01*
Y2267174D01*
X396154D01*
Y2267040D01*
X396288D01*
Y2266906D01*
X396422D01*
Y2266772D01*
X396556D01*
Y2266638D01*
X396690D01*
Y2266504D01*
X396824D01*
Y2266370D01*
X396958D01*
Y2266236D01*
X397092D01*
Y2266102D01*
X397226D01*
Y2265968D01*
X397494D01*
Y2265834D01*
X397628D01*
Y2265566D01*
X397896D01*
Y2265432D01*
X398030D01*
Y2265298D01*
X398164D01*
Y2265164D01*
X398298D01*
Y2265030D01*
X398432D01*
Y2264896D01*
X398566D01*
Y2264762D01*
X398700D01*
Y2264628D01*
X398834D01*
Y2264494D01*
X398968D01*
Y2264360D01*
X399102D01*
Y2264226D01*
X399236D01*
Y2264092D01*
X399504D01*
Y2263958D01*
X399638D01*
Y2263824D01*
X399772D01*
Y2263690D01*
X399906D01*
Y2263556D01*
X400040D01*
Y2263422D01*
X400174D01*
Y2263288D01*
X400308D01*
Y2263154D01*
X400576D01*
Y2263020D01*
X400710D01*
Y2262886D01*
X400844D01*
Y2262752D01*
X400978D01*
Y2262618D01*
X401112D01*
Y2262484D01*
X401246D01*
Y2262350D01*
X401514D01*
Y2262216D01*
X401648D01*
Y2262082D01*
X401782D01*
Y2261948D01*
X401916D01*
Y2261814D01*
X402050D01*
Y2261680D01*
X402318D01*
Y2261546D01*
X402452D01*
Y2261412D01*
X402586D01*
Y2261278D01*
X402854D01*
Y2261144D01*
X402988D01*
Y2261010D01*
X403122D01*
Y2260876D01*
X403256D01*
Y2260742D01*
X403390D01*
Y2260608D01*
X403658D01*
Y2260474D01*
X403792D01*
Y2260340D01*
X403926D01*
Y2260206D01*
X404194D01*
Y2260072D01*
X404328D01*
Y2259938D01*
X404462D01*
Y2259804D01*
X404730D01*
Y2259670D01*
X404864D01*
Y2259536D01*
X404998D01*
Y2259402D01*
X405266D01*
Y2259268D01*
X405400D01*
Y2259134D01*
X405668D01*
Y2259000D01*
X405802D01*
Y2258866D01*
X405936D01*
Y2258732D01*
X406204D01*
Y2258598D01*
X406338D01*
Y2258464D01*
X406606D01*
Y2258330D01*
X406740D01*
Y2258196D01*
X406874D01*
Y2258062D01*
X407142D01*
Y2257928D01*
X407276D01*
Y2257794D01*
X407544D01*
Y2257660D01*
X407678D01*
Y2257526D01*
X407812D01*
Y2257392D01*
X408080D01*
Y2257258D01*
X408348D01*
Y2257124D01*
X408482D01*
Y2256990D01*
X408750D01*
Y2256856D01*
X408884D01*
Y2256722D01*
X409152D01*
Y2256588D01*
X409286D01*
Y2256454D01*
X409554D01*
Y2256320D01*
X409688D01*
Y2256186D01*
X409956D01*
Y2256052D01*
X410090D01*
Y2255918D01*
X410492D01*
Y2255784D01*
X410626D01*
Y2255650D01*
X410894D01*
Y2255516D01*
X411028D01*
Y2255382D01*
X411296D01*
Y2255248D01*
X411564D01*
Y2255114D01*
X411698D01*
Y2254980D01*
X411966D01*
Y2254846D01*
X412234D01*
Y2254712D01*
X412368D01*
Y2254578D01*
X412636D01*
Y2254444D01*
X412904D01*
Y2254310D01*
X413038D01*
Y2254176D01*
X413440D01*
Y2254042D01*
X413574D01*
Y2253908D01*
X413842D01*
Y2253774D01*
X414110D01*
Y2253640D01*
X414245D01*
Y2253506D01*
X414647D01*
Y2253372D01*
X414914D01*
Y2253238D01*
X415048D01*
Y2253104D01*
X415317D01*
Y2252970D01*
X415584D01*
Y2252836D01*
X415853D01*
Y2252702D01*
X416120D01*
Y2252568D01*
X416389D01*
Y2252434D01*
X416656D01*
Y2252300D01*
X416925D01*
Y2252166D01*
X417192D01*
Y2252032D01*
X417461D01*
Y2251898D01*
X417863D01*
Y2251764D01*
X417997D01*
Y2251630D01*
X418399D01*
Y2251495D01*
X418533D01*
Y2251361D01*
X418935D01*
Y2251227D01*
X419203D01*
Y2251093D01*
X419471D01*
Y2250959D01*
X419873D01*
Y2250825D01*
X420141D01*
Y2250691D01*
X420409D01*
Y2250557D01*
X420811D01*
Y2250423D01*
X421079D01*
Y2250289D01*
X421347D01*
Y2250155D01*
X421749D01*
Y2250021D01*
X422017D01*
Y2249887D01*
X422419D01*
Y2249753D01*
X422687D01*
Y2249619D01*
X423089D01*
Y2249485D01*
X423491D01*
Y2249352D01*
X423759D01*
Y2249218D01*
X424161D01*
Y2249084D01*
X424563D01*
Y2248950D01*
X424831D01*
Y2248816D01*
X425233D01*
Y2248681D01*
X425635D01*
Y2248548D01*
X426037D01*
Y2248413D01*
X426573D01*
Y2248280D01*
X426841D01*
Y2248145D01*
X427243D01*
Y2248012D01*
X427779D01*
Y2247877D01*
X428047D01*
Y2247743D01*
X428583D01*
Y2247609D01*
X428985D01*
Y2247475D01*
X429387D01*
Y2247341D01*
X429923D01*
Y2247207D01*
X430325D01*
Y2247073D01*
X430995D01*
Y2246939D01*
X431531D01*
Y2246805D01*
X431799D01*
Y2246671D01*
X432469D01*
Y2246537D01*
X433005D01*
Y2246403D01*
X433541D01*
Y2246269D01*
X434211D01*
Y2246135D01*
X434747D01*
Y2246001D01*
X435551D01*
Y2245867D01*
X436221D01*
Y2245733D01*
X436757D01*
Y2245599D01*
X437695D01*
Y2245465D01*
X438499D01*
Y2245331D01*
X439303D01*
Y2245197D01*
X440375D01*
Y2245063D01*
X441179D01*
Y2244929D01*
X442519D01*
Y2244795D01*
X444127D01*
Y2244661D01*
X445467D01*
Y2244527D01*
X448549D01*
Y2244393D01*
X448683D01*
Y2244527D01*
X448817D01*
Y2244393D01*
X452168D01*
Y2244527D01*
X452302D01*
Y2244393D01*
X452704D01*
Y2244527D01*
X456054D01*
Y2244661D01*
X457394D01*
Y2244795D01*
X458868D01*
Y2244929D01*
X460208D01*
Y2245063D01*
X461012D01*
Y2245197D01*
X462218D01*
Y2245331D01*
X462888D01*
Y2245465D01*
X463692D01*
Y2245599D01*
X464630D01*
Y2245733D01*
X465166D01*
Y2245867D01*
X465836D01*
Y2246001D01*
X466640D01*
Y2246135D01*
X467176D01*
Y2246269D01*
X467846D01*
Y2246403D01*
X468248D01*
Y2246537D01*
X468784D01*
Y2246671D01*
X469454D01*
Y2246805D01*
X469990D01*
Y2246939D01*
X470526D01*
Y2247073D01*
X471062D01*
Y2247207D01*
X471464D01*
Y2247341D01*
X472000D01*
Y2247475D01*
X472402D01*
Y2247609D01*
X472804D01*
Y2247743D01*
X473340D01*
Y2247877D01*
X473608D01*
Y2248012D01*
X474144D01*
Y2248145D01*
X474546D01*
Y2248280D01*
X474948D01*
Y2248413D01*
X475350D01*
Y2248548D01*
X475752D01*
Y2248681D01*
X476154D01*
Y2248816D01*
X476556D01*
Y2248950D01*
X476824D01*
Y2249084D01*
X477226D01*
Y2249218D01*
X477628D01*
Y2249352D01*
X477896D01*
Y2249485D01*
X478298D01*
Y2249619D01*
X478700D01*
Y2249753D01*
X478968D01*
Y2249887D01*
X479370D01*
Y2250021D01*
X479638D01*
Y2250155D01*
X480040D01*
Y2250289D01*
X480308D01*
Y2250423D01*
X480576D01*
Y2250557D01*
X480978D01*
Y2250691D01*
X481246D01*
Y2250825D01*
X481514D01*
Y2250959D01*
X481916D01*
Y2251093D01*
X482184D01*
Y2251227D01*
X482452D01*
Y2251361D01*
X482854D01*
Y2251495D01*
X482988D01*
Y2251630D01*
X483390D01*
Y2251764D01*
X483659D01*
Y2251898D01*
X483926D01*
Y2252032D01*
X484195D01*
Y2252166D01*
X484462D01*
Y2252300D01*
X484731D01*
Y2252434D01*
X484998D01*
Y2252568D01*
X485267D01*
Y2252702D01*
X485534D01*
Y2252836D01*
X485803D01*
Y2252970D01*
X486070D01*
Y2253104D01*
X486339D01*
Y2253238D01*
X486473D01*
Y2253372D01*
X486741D01*
Y2253506D01*
X487142D01*
Y2253640D01*
X487277D01*
Y2253774D01*
X487545D01*
Y2253908D01*
X487813D01*
Y2254042D01*
X487947D01*
Y2254176D01*
X488349D01*
Y2254310D01*
X488483D01*
Y2254444D01*
X488751D01*
Y2254578D01*
X489019D01*
Y2254712D01*
X489153D01*
Y2254846D01*
X489421D01*
Y2254980D01*
X489689D01*
Y2255114D01*
X489823D01*
Y2255248D01*
X490091D01*
Y2255382D01*
X490359D01*
Y2255516D01*
X490493D01*
Y2255650D01*
X490761D01*
Y2255784D01*
X491029D01*
Y2255918D01*
X491297D01*
Y2256052D01*
X491431D01*
Y2256186D01*
X491565D01*
Y2256320D01*
X491833D01*
Y2256454D01*
X492101D01*
Y2256588D01*
X492235D01*
Y2256722D01*
X492503D01*
Y2256856D01*
X492637D01*
Y2256990D01*
X492905D01*
Y2257124D01*
X493039D01*
Y2257258D01*
X493307D01*
Y2257392D01*
X493575D01*
Y2257526D01*
X493709D01*
Y2257660D01*
X493843D01*
Y2257794D01*
X494111D01*
Y2257928D01*
X494245D01*
Y2258062D01*
X494513D01*
Y2258196D01*
X494647D01*
Y2258330D01*
X494915D01*
Y2258464D01*
X495049D01*
Y2258598D01*
X495183D01*
Y2258732D01*
X495451D01*
Y2258866D01*
X495585D01*
Y2259000D01*
X495719D01*
Y2259134D01*
X495987D01*
Y2259268D01*
X496121D01*
Y2259402D01*
X496389D01*
Y2259536D01*
X496523D01*
Y2259670D01*
X496657D01*
Y2259804D01*
X496925D01*
Y2259938D01*
X497059D01*
Y2260072D01*
X497193D01*
Y2260206D01*
X497461D01*
Y2260340D01*
X497595D01*
Y2260474D01*
X497729D01*
Y2260608D01*
X497997D01*
Y2260742D01*
X498131D01*
Y2260876D01*
X498265D01*
Y2261010D01*
X498399D01*
Y2261144D01*
X498667D01*
Y2261278D01*
X498801D01*
Y2261412D01*
X498935D01*
Y2261546D01*
X499069D01*
Y2261680D01*
X499337D01*
Y2261814D01*
X499471D01*
Y2261948D01*
X499605D01*
Y2262082D01*
X499739D01*
Y2262216D01*
X499873D01*
Y2262350D01*
X500141D01*
Y2262484D01*
X500275D01*
Y2262618D01*
X500409D01*
Y2262752D01*
X500543D01*
Y2262886D01*
X500677D01*
Y2263020D01*
X500811D01*
Y2263154D01*
X501079D01*
Y2263288D01*
X501213D01*
Y2263422D01*
X501347D01*
Y2263556D01*
X501481D01*
Y2263690D01*
X501615D01*
Y2263824D01*
X501749D01*
Y2263958D01*
X501883D01*
Y2264092D01*
X502151D01*
Y2264226D01*
X502285D01*
Y2264360D01*
X502419D01*
Y2264494D01*
X502553D01*
Y2264628D01*
X502687D01*
Y2264762D01*
X502821D01*
Y2264896D01*
X502955D01*
Y2265030D01*
X503089D01*
Y2265164D01*
X503223D01*
Y2265298D01*
X503357D01*
Y2265432D01*
X503491D01*
Y2265566D01*
X503759D01*
Y2265700D01*
X503893D01*
Y2265834D01*
X504027D01*
Y2265968D01*
X504161D01*
Y2266102D01*
X504295D01*
Y2266236D01*
X504429D01*
Y2266370D01*
X504563D01*
Y2266504D01*
X504697D01*
Y2266638D01*
X504831D01*
Y2266772D01*
X504965D01*
Y2266906D01*
X505099D01*
Y2267040D01*
X505233D01*
Y2267174D01*
X505367D01*
Y2267308D01*
X505501D01*
Y2267442D01*
X505635D01*
Y2267576D01*
X505769D01*
Y2267710D01*
X505903D01*
Y2267844D01*
X506037D01*
Y2267978D01*
X506171D01*
Y2268112D01*
X506305D01*
Y2268246D01*
X506439D01*
Y2268514D01*
X506573D01*
Y2268648D01*
X506707D01*
Y2268782D01*
X506841D01*
Y2268916D01*
X506975D01*
Y2269050D01*
X507109D01*
Y2269184D01*
X507243D01*
Y2269318D01*
X507377D01*
Y2269452D01*
X507511D01*
Y2269586D01*
X507645D01*
Y2269720D01*
X507779D01*
Y2269854D01*
X507913D01*
Y2269988D01*
X508047D01*
Y2270256D01*
X508181D01*
Y2270390D01*
X508315D01*
Y2270524D01*
X508449D01*
Y2270658D01*
X508583D01*
Y2270792D01*
X508717D01*
Y2270926D01*
X508851D01*
Y2271060D01*
X508985D01*
Y2271328D01*
X509119D01*
Y2271462D01*
X509253D01*
Y2271596D01*
X509387D01*
Y2271730D01*
X509521D01*
Y2271864D01*
X509655D01*
Y2271998D01*
X509789D01*
Y2272266D01*
X509923D01*
Y2272400D01*
X510057D01*
Y2272534D01*
X510191D01*
Y2272668D01*
X510325D01*
Y2272802D01*
X510459D01*
Y2273070D01*
X510593D01*
Y2273204D01*
X510727D01*
Y2273338D01*
X510861D01*
Y2273606D01*
X510995D01*
Y2273740D01*
X511129D01*
Y2273874D01*
X511263D01*
Y2274008D01*
X511397D01*
Y2274142D01*
X511531D01*
Y2274410D01*
X511665D01*
Y2274544D01*
X511799D01*
Y2274678D01*
X511933D01*
Y2274946D01*
X512067D01*
Y2275080D01*
X512201D01*
Y2275214D01*
X512335D01*
Y2275482D01*
X512469D01*
Y2275616D01*
X512603D01*
Y2275750D01*
X512737D01*
Y2276018D01*
X512871D01*
Y2276152D01*
X513005D01*
Y2276420D01*
X513139D01*
Y2276554D01*
X513273D01*
Y2276688D01*
X513407D01*
Y2276956D01*
X513541D01*
Y2277090D01*
X513675D01*
Y2277358D01*
X513809D01*
Y2277492D01*
X513943D01*
Y2277626D01*
X514077D01*
Y2277894D01*
X514211D01*
Y2278028D01*
X514345D01*
Y2278296D01*
X514479D01*
Y2278430D01*
X514613D01*
Y2278698D01*
X514747D01*
Y2278832D01*
X514881D01*
Y2279100D01*
X515015D01*
Y2279234D01*
X515149D01*
Y2279502D01*
X515283D01*
Y2279636D01*
X515417D01*
Y2279904D01*
X515551D01*
Y2280038D01*
X515685D01*
Y2280306D01*
X515819D01*
Y2280574D01*
X515953D01*
Y2280708D01*
X516087D01*
Y2280976D01*
X516221D01*
Y2281110D01*
X516355D01*
Y2281378D01*
X516489D01*
Y2281646D01*
X516623D01*
Y2281780D01*
X516757D01*
Y2282048D01*
X516891D01*
Y2282316D01*
X517025D01*
Y2282450D01*
X517159D01*
Y2282718D01*
X517293D01*
Y2282986D01*
X517427D01*
Y2283120D01*
X517562D01*
Y2283389D01*
X517695D01*
Y2283657D01*
X517830D01*
Y2283925D01*
X517963D01*
Y2284193D01*
X518097D01*
Y2284327D01*
X518231D01*
Y2284595D01*
X518365D01*
Y2284863D01*
X518500D01*
Y2285131D01*
X518634D01*
Y2285398D01*
X518768D01*
Y2285532D01*
X518902D01*
Y2285800D01*
X519035D01*
Y2286203D01*
X519169D01*
Y2286336D01*
X519303D01*
Y2286605D01*
X519438D01*
Y2287006D01*
X519572D01*
Y2287141D01*
X519706D01*
Y2287543D01*
X519840D01*
Y2287811D01*
X519973D01*
Y2287945D01*
X520107D01*
Y2288347D01*
X520241D01*
Y2288481D01*
X520376D01*
Y2288883D01*
X520510D01*
Y2289151D01*
X520644D01*
Y2289419D01*
X520778D01*
Y2289687D01*
X520912D01*
Y2289955D01*
X521045D01*
Y2290223D01*
X521179D01*
Y2290625D01*
X521314D01*
Y2290893D01*
X521447D01*
Y2291295D01*
X521582D01*
Y2291563D01*
X521716D01*
Y2291831D01*
X521850D01*
Y2292233D01*
X521984D01*
Y2292501D01*
X522118D01*
Y2292769D01*
X522252D01*
Y2293171D01*
X522386D01*
Y2293439D01*
X522520D01*
Y2293841D01*
X522654D01*
Y2294243D01*
X522788D01*
Y2294511D01*
X522922D01*
Y2295047D01*
X523056D01*
Y2295315D01*
X523190D01*
Y2295583D01*
X523324D01*
Y2296119D01*
X523458D01*
Y2296387D01*
X523592D01*
Y2296789D01*
X523726D01*
Y2297325D01*
X523860D01*
Y2297593D01*
X523994D01*
Y2298129D01*
X524128D01*
Y2298531D01*
X524262D01*
Y2298933D01*
X524396D01*
Y2299469D01*
X524530D01*
Y2299737D01*
X524664D01*
Y2300273D01*
X524798D01*
Y2300809D01*
X524932D01*
Y2301211D01*
X525066D01*
Y2301747D01*
X525200D01*
Y2302283D01*
X525334D01*
Y2302685D01*
X525468D01*
Y2303355D01*
X525602D01*
Y2303757D01*
X525736D01*
Y2304561D01*
X525870D01*
Y2305097D01*
X526004D01*
Y2305633D01*
X526138D01*
Y2306437D01*
X526272D01*
Y2307107D01*
X526406D01*
Y2307643D01*
X526540D01*
Y2308581D01*
X526674D01*
Y2309251D01*
X526808D01*
Y2310323D01*
X526942D01*
Y2311395D01*
X527076D01*
Y2312065D01*
X527210D01*
Y2313539D01*
X527344D01*
Y2314879D01*
X527478D01*
Y2316487D01*
X527612D01*
Y2321177D01*
X527746D01*
Y2321312D01*
X527612D01*
Y2326270D01*
X527478D01*
Y2327878D01*
X527344D01*
Y2329352D01*
X527210D01*
Y2330692D01*
X527076D01*
Y2331496D01*
X526942D01*
Y2332702D01*
X526808D01*
Y2333640D01*
X526674D01*
Y2334310D01*
X526540D01*
Y2335248D01*
X526406D01*
Y2335784D01*
X526272D01*
Y2336454D01*
X526138D01*
Y2337258D01*
X526004D01*
Y2337660D01*
X525870D01*
Y2338464D01*
X525736D01*
Y2339000D01*
X525602D01*
Y2339536D01*
X525468D01*
Y2340206D01*
X525334D01*
Y2340608D01*
X525200D01*
Y2341010D01*
X525066D01*
Y2341680D01*
X524932D01*
Y2342082D01*
X524798D01*
Y2342618D01*
X524664D01*
Y2343154D01*
X524530D01*
Y2343422D01*
X524396D01*
Y2343958D01*
X524262D01*
Y2344360D01*
X524128D01*
Y2344762D01*
X523994D01*
Y2345298D01*
X523860D01*
Y2345566D01*
X523726D01*
Y2345968D01*
X523592D01*
Y2346504D01*
X523458D01*
Y2346772D01*
X523324D01*
Y2347174D01*
X523190D01*
Y2347576D01*
X523056D01*
Y2347844D01*
X522922D01*
Y2348380D01*
X522788D01*
Y2348514D01*
X522654D01*
Y2348916D01*
X522520D01*
Y2349318D01*
X522386D01*
Y2349586D01*
X522252D01*
Y2349988D01*
X522118D01*
Y2350390D01*
X521984D01*
Y2350658D01*
X521850D01*
Y2351060D01*
X521716D01*
Y2351328D01*
X521582D01*
Y2351596D01*
X521447D01*
Y2351998D01*
X521314D01*
Y2352133D01*
X521179D01*
Y2352534D01*
X521045D01*
Y2352802D01*
X520912D01*
Y2353070D01*
X520778D01*
Y2353472D01*
X520644D01*
Y2353740D01*
X520510D01*
Y2354008D01*
X520376D01*
Y2354276D01*
X520241D01*
Y2354544D01*
X520107D01*
Y2354812D01*
X519973D01*
Y2355081D01*
X519840D01*
Y2355349D01*
X519706D01*
Y2355751D01*
X519572D01*
Y2355885D01*
X519438D01*
Y2356153D01*
X519303D01*
Y2356555D01*
X519169D01*
Y2356689D01*
X519035D01*
Y2356957D01*
X518902D01*
Y2357225D01*
X518768D01*
Y2357493D01*
X518634D01*
Y2357761D01*
X518500D01*
Y2357895D01*
X518365D01*
Y2358163D01*
X518231D01*
Y2358565D01*
X518097D01*
Y2358699D01*
X517963D01*
Y2358967D01*
X517830D01*
Y2359235D01*
X517695D01*
Y2359369D01*
X517562D01*
Y2359771D01*
X517427D01*
Y2359905D01*
X517293D01*
Y2360173D01*
X517159D01*
Y2360307D01*
X517025D01*
Y2360575D01*
X516891D01*
Y2360843D01*
X516757D01*
Y2360977D01*
X516623D01*
Y2361245D01*
X516489D01*
Y2361513D01*
X516355D01*
Y2361647D01*
X516221D01*
Y2361915D01*
X516087D01*
Y2362183D01*
X515953D01*
Y2362317D01*
X515819D01*
Y2362585D01*
X515685D01*
Y2362719D01*
X515551D01*
Y2362987D01*
X515417D01*
Y2363255D01*
X515283D01*
Y2363389D01*
X515149D01*
Y2363523D01*
X515015D01*
Y2363791D01*
X514881D01*
Y2363925D01*
X514747D01*
Y2364193D01*
X514613D01*
Y2364327D01*
X514479D01*
Y2364595D01*
X514345D01*
Y2364863D01*
X514211D01*
Y2364997D01*
X514077D01*
Y2365131D01*
X513943D01*
Y2365399D01*
X513809D01*
Y2365533D01*
X513675D01*
Y2365801D01*
X513541D01*
Y2365935D01*
X513407D01*
Y2366069D01*
X513273D01*
Y2366337D01*
X513139D01*
Y2366471D01*
X513005D01*
Y2366739D01*
X512871D01*
Y2366873D01*
X512737D01*
Y2367007D01*
X512603D01*
Y2367275D01*
X512469D01*
Y2367409D01*
X512335D01*
Y2367543D01*
X512201D01*
Y2367811D01*
X512067D01*
Y2367945D01*
X511933D01*
Y2368079D01*
X511799D01*
Y2368347D01*
X511665D01*
Y2368481D01*
X511531D01*
Y2368615D01*
X511397D01*
Y2368749D01*
X511263D01*
Y2369017D01*
X511129D01*
Y2369151D01*
X510995D01*
Y2369285D01*
X510861D01*
Y2369553D01*
X510727D01*
Y2369687D01*
X510593D01*
Y2369821D01*
X510459D01*
Y2369955D01*
X510325D01*
Y2370089D01*
X510191D01*
Y2370357D01*
X510057D01*
Y2370491D01*
X509923D01*
Y2370625D01*
X509789D01*
Y2370759D01*
X509655D01*
Y2371027D01*
X509521D01*
Y2371161D01*
X509387D01*
Y2371295D01*
X509253D01*
Y2371429D01*
X509119D01*
Y2371563D01*
X508985D01*
Y2371697D01*
X508851D01*
Y2371831D01*
X508717D01*
Y2372099D01*
X508583D01*
Y2372233D01*
X508449D01*
Y2372367D01*
X508315D01*
Y2372501D01*
X508181D01*
Y2372635D01*
X508047D01*
Y2372769D01*
X507913D01*
Y2372903D01*
X507779D01*
Y2373037D01*
X507645D01*
Y2373171D01*
X507511D01*
Y2373439D01*
X507377D01*
Y2373573D01*
X507243D01*
Y2373707D01*
X507109D01*
Y2373841D01*
X506975D01*
Y2373975D01*
X506841D01*
Y2374109D01*
X506707D01*
Y2374243D01*
X506573D01*
Y2374377D01*
X506439D01*
Y2374511D01*
X506305D01*
Y2374645D01*
X506171D01*
Y2374779D01*
X506037D01*
Y2374913D01*
X505903D01*
Y2375047D01*
X505769D01*
Y2375181D01*
X505635D01*
Y2375315D01*
X505501D01*
Y2375449D01*
X505367D01*
Y2375583D01*
X505233D01*
Y2375717D01*
X505099D01*
Y2375985D01*
X504831D01*
Y2376119D01*
X504697D01*
Y2376253D01*
X504563D01*
Y2376387D01*
X504429D01*
Y2376521D01*
X504295D01*
Y2376655D01*
X504161D01*
Y2376789D01*
X504027D01*
Y2376923D01*
X503893D01*
Y2377057D01*
X503759D01*
Y2377191D01*
X503625D01*
Y2377325D01*
X503491D01*
Y2377459D01*
X503357D01*
Y2377593D01*
X503223D01*
Y2377727D01*
X503089D01*
Y2377861D01*
X502955D01*
Y2377995D01*
X502821D01*
Y2378129D01*
X502553D01*
Y2378397D01*
X502285D01*
Y2378531D01*
X502151D01*
Y2378665D01*
X502017D01*
Y2378799D01*
X501883D01*
Y2378933D01*
X501749D01*
Y2379067D01*
X501615D01*
Y2379201D01*
X501481D01*
Y2379335D01*
X501347D01*
Y2379469D01*
X501213D01*
Y2379603D01*
X500945D01*
Y2379737D01*
X500811D01*
Y2379871D01*
X500677D01*
Y2380005D01*
X500543D01*
Y2380139D01*
X500409D01*
Y2380273D01*
X500141D01*
Y2380407D01*
X500007D01*
Y2380541D01*
X499873D01*
Y2380675D01*
X499739D01*
Y2380809D01*
X499605D01*
Y2380943D01*
X499337D01*
Y2381077D01*
X499203D01*
Y2381211D01*
X499069D01*
Y2381345D01*
X498935D01*
Y2381479D01*
X498801D01*
Y2381613D01*
X498533D01*
Y2381747D01*
X498399D01*
Y2381881D01*
X498265D01*
Y2382015D01*
X497997D01*
Y2382149D01*
X497863D01*
Y2382283D01*
X497729D01*
Y2382417D01*
X497595D01*
Y2382551D01*
X497327D01*
Y2382685D01*
X497193D01*
Y2382819D01*
X497059D01*
Y2382953D01*
X496791D01*
Y2383087D01*
X496657D01*
Y2383221D01*
X496523D01*
Y2383355D01*
X496255D01*
Y2383489D01*
X496121D01*
Y2383623D01*
X495987D01*
Y2383757D01*
X495719D01*
Y2383891D01*
X495585D01*
Y2384025D01*
X495451D01*
Y2384159D01*
X495183D01*
Y2384293D01*
X495049D01*
Y2384427D01*
X494781D01*
Y2384561D01*
X494647D01*
Y2384695D01*
X494379D01*
Y2384829D01*
X494245D01*
Y2384963D01*
X493977D01*
Y2385097D01*
X493843D01*
Y2385231D01*
X493709D01*
Y2385365D01*
X493441D01*
Y2385499D01*
X493307D01*
Y2385633D01*
X493039D01*
Y2385767D01*
X492905D01*
Y2385901D01*
X492637D01*
Y2386035D01*
X492369D01*
Y2386169D01*
X492235D01*
Y2386303D01*
X491967D01*
Y2386437D01*
X491833D01*
Y2386572D01*
X491565D01*
Y2386706D01*
X491431D01*
Y2386840D01*
X491163D01*
Y2386974D01*
X490895D01*
Y2387107D01*
X490761D01*
Y2387242D01*
X490493D01*
Y2387375D01*
X490225D01*
Y2387510D01*
X490091D01*
Y2387644D01*
X489823D01*
Y2387778D01*
X489555D01*
Y2387912D01*
X489421D01*
Y2388046D01*
X489153D01*
Y2388180D01*
X488885D01*
Y2388314D01*
X488751D01*
Y2388448D01*
X488483D01*
Y2388581D01*
X488215D01*
Y2388715D01*
X487947D01*
Y2388849D01*
X487679D01*
Y2388983D01*
X487545D01*
Y2389117D01*
X487277D01*
Y2389251D01*
X487009D01*
Y2389385D01*
X486741D01*
Y2389520D01*
X486473D01*
Y2389653D01*
X486204D01*
Y2389788D01*
X485937D01*
Y2389921D01*
X485668D01*
Y2390056D01*
X485534D01*
Y2390189D01*
X485132D01*
Y2390324D01*
X484865D01*
Y2390458D01*
X484731D01*
Y2390592D01*
X484328D01*
Y2390726D01*
X484060D01*
Y2390860D01*
X483926D01*
Y2390994D01*
X483524D01*
Y2391128D01*
X483390D01*
Y2391262D01*
X482988D01*
Y2391396D01*
X482721D01*
Y2391530D01*
X482452D01*
Y2391664D01*
X482050D01*
Y2391798D01*
X481916D01*
Y2391932D01*
X481514D01*
Y2392066D01*
X481112D01*
Y2392200D01*
X480978D01*
Y2392334D01*
X480576D01*
Y2392468D01*
X480174D01*
Y2392602D01*
X480040D01*
Y2392736D01*
X479638D01*
Y2392870D01*
X479236D01*
Y2393004D01*
X478968D01*
Y2393138D01*
X478566D01*
Y2393272D01*
X478298D01*
Y2393406D01*
X477896D01*
Y2393540D01*
X477494D01*
Y2393674D01*
X477226D01*
Y2393808D01*
X476824D01*
Y2393942D01*
X476422D01*
Y2394076D01*
X476154D01*
Y2394210D01*
X475618D01*
Y2394344D01*
X475350D01*
Y2394478D01*
X474948D01*
Y2394612D01*
X474412D01*
Y2394746D01*
X474144D01*
Y2394880D01*
X473608D01*
Y2395014D01*
X473206D01*
Y2395148D01*
X472804D01*
Y2395282D01*
X472268D01*
Y2395416D01*
X472000D01*
Y2395550D01*
X471464D01*
Y2395684D01*
X470928D01*
Y2395818D01*
X470526D01*
Y2395952D01*
X469856D01*
Y2396086D01*
X469320D01*
Y2396220D01*
X468918D01*
Y2396354D01*
X468248D01*
Y2396488D01*
X467846D01*
Y2396622D01*
X467176D01*
Y2396756D01*
X466506D01*
Y2396890D01*
X465970D01*
Y2397024D01*
X465166D01*
Y2397158D01*
X464496D01*
Y2397292D01*
X463826D01*
Y2397426D01*
X462888D01*
Y2397560D01*
X462218D01*
Y2397694D01*
X461146D01*
Y2397828D01*
X459940D01*
Y2397962D01*
X459002D01*
Y2398096D01*
X457662D01*
Y2398230D01*
X457528D01*
Y2398096D01*
X457394D01*
Y2398230D01*
X455786D01*
Y2398364D01*
X453374D01*
Y2398498D01*
X448013D01*
Y2398364D01*
X445601D01*
Y2398230D01*
X443859D01*
Y2398096D01*
X442251D01*
Y2397962D01*
X441447D01*
Y2397828D01*
X440241D01*
Y2397694D01*
X439303D01*
Y2397560D01*
X438499D01*
Y2397426D01*
X437695D01*
Y2397292D01*
X436891D01*
Y2397158D01*
X436221D01*
Y2397024D01*
X435417D01*
Y2396890D01*
X435015D01*
Y2396756D01*
X434211D01*
Y2396622D01*
X433541D01*
Y2396488D01*
X433139D01*
Y2396354D01*
X432469D01*
Y2396220D01*
X431933D01*
Y2396086D01*
X431531D01*
Y2395952D01*
X430861D01*
Y2395818D01*
X430459D01*
Y2395684D01*
X429923D01*
Y2395550D01*
X429521D01*
Y2395416D01*
X429119D01*
Y2395282D01*
X428583D01*
Y2395148D01*
X428181D01*
Y2395014D01*
X427779D01*
Y2394880D01*
X427243D01*
Y2394746D01*
X426975D01*
Y2394612D01*
X426439D01*
Y2394478D01*
X426037D01*
Y2394344D01*
X425769D01*
Y2394210D01*
X425233D01*
Y2394076D01*
X424965D01*
Y2393942D01*
X424563D01*
Y2393808D01*
X424161D01*
Y2393674D01*
X423893D01*
Y2393540D01*
X423491D01*
Y2393406D01*
X423089D01*
Y2393272D01*
X422821D01*
Y2393138D01*
X422419D01*
Y2393004D01*
X422151D01*
Y2392870D01*
X421749D01*
Y2392736D01*
X421481D01*
Y2392602D01*
X421213D01*
Y2392468D01*
X420811D01*
Y2392334D01*
X420543D01*
Y2392200D01*
X420275D01*
Y2392066D01*
X419873D01*
Y2391932D01*
X419605D01*
Y2391798D01*
X419337D01*
Y2391664D01*
X418935D01*
Y2391530D01*
X418801D01*
Y2391396D01*
X418399D01*
Y2391262D01*
X418130D01*
Y2391128D01*
X417863D01*
Y2390994D01*
X417594D01*
Y2390860D01*
X417327D01*
Y2390726D01*
X417058D01*
Y2390592D01*
X416656D01*
Y2390458D01*
X416522D01*
Y2390324D01*
X416120D01*
Y2390189D01*
X415853D01*
Y2390056D01*
X415719D01*
Y2389921D01*
X415450D01*
Y2389788D01*
X415183D01*
Y2389653D01*
X414914D01*
Y2389520D01*
X414647D01*
Y2389385D01*
X414378D01*
Y2389251D01*
X414110D01*
Y2389117D01*
X413842D01*
Y2388983D01*
X413709D01*
Y2388849D01*
X413440D01*
Y2388715D01*
X413172D01*
Y2388581D01*
X412904D01*
Y2388448D01*
X412636D01*
Y2388314D01*
X412502D01*
Y2388180D01*
X412234D01*
Y2388046D01*
X411966D01*
Y2387912D01*
X411832D01*
Y2387778D01*
X411564D01*
Y2387644D01*
X411296D01*
Y2387510D01*
X411162D01*
Y2387375D01*
X410894D01*
Y2387242D01*
X410626D01*
Y2387107D01*
X410358D01*
Y2386974D01*
X410224D01*
Y2386840D01*
X410090D01*
Y2386706D01*
X409822D01*
Y2386572D01*
X409554D01*
Y2386437D01*
X409420D01*
Y2386303D01*
X409152D01*
Y2386169D01*
X409018D01*
Y2386035D01*
X408750D01*
Y2385901D01*
X408482D01*
Y2385767D01*
X408348D01*
Y2385633D01*
X408080D01*
Y2385499D01*
X407946D01*
Y2385365D01*
X407812D01*
Y2385231D01*
X407544D01*
Y2385097D01*
X407410D01*
Y2384963D01*
X407142D01*
Y2384829D01*
X406874D01*
Y2384695D01*
X406740D01*
Y2384561D01*
X406606D01*
Y2384427D01*
X406338D01*
Y2384293D01*
X406204D01*
Y2384159D01*
X405936D01*
Y2384025D01*
X405802D01*
Y2383891D01*
X405668D01*
Y2383757D01*
X405400D01*
Y2383623D01*
X405266D01*
Y2383489D01*
X405132D01*
Y2383355D01*
X404864D01*
Y2383221D01*
X404730D01*
Y2383087D01*
X404596D01*
Y2382953D01*
X404328D01*
Y2382819D01*
X404194D01*
Y2382685D01*
X404060D01*
Y2382551D01*
X403792D01*
Y2382417D01*
X403658D01*
Y2382283D01*
X403524D01*
Y2382149D01*
X403256D01*
Y2382015D01*
X403122D01*
Y2381881D01*
X402988D01*
Y2381747D01*
X402854D01*
Y2381613D01*
X402586D01*
Y2381479D01*
X402452D01*
Y2381345D01*
X402318D01*
Y2381211D01*
X402184D01*
Y2381077D01*
X402050D01*
Y2380943D01*
X401782D01*
Y2380809D01*
X401648D01*
Y2380675D01*
X401514D01*
Y2380541D01*
X401380D01*
Y2380407D01*
X401246D01*
Y2380273D01*
X400978D01*
Y2380139D01*
X400308D01*
Y2380005D01*
X399504D01*
Y2379871D01*
X398566D01*
Y2379737D01*
X398164D01*
Y2379603D01*
X397494D01*
Y2379469D01*
X396690D01*
Y2379335D01*
X396288D01*
Y2379201D01*
X395752D01*
Y2379067D01*
X395216D01*
Y2378933D01*
X394680D01*
Y2378799D01*
X394278D01*
Y2378665D01*
X393876D01*
Y2378531D01*
X393474D01*
Y2378397D01*
X392938D01*
Y2378531D01*
X393206D01*
Y2378665D01*
X393340D01*
Y2378799D01*
X393474D01*
Y2378933D01*
X393608D01*
Y2379067D01*
X393742D01*
Y2379201D01*
X393876D01*
Y2379335D01*
X394010D01*
Y2379469D01*
X394144D01*
Y2379603D01*
X394278D01*
Y2379737D01*
X394412D01*
Y2379871D01*
X394546D01*
Y2380005D01*
X394680D01*
Y2380139D01*
X394814D01*
Y2380273D01*
X394948D01*
Y2380407D01*
X395082D01*
Y2380541D01*
X395350D01*
Y2380675D01*
X395484D01*
Y2380809D01*
X395618D01*
Y2380943D01*
X395752D01*
Y2381077D01*
X395886D01*
Y2381211D01*
X396020D01*
Y2381345D01*
X396154D01*
Y2381479D01*
X396288D01*
Y2381613D01*
X396422D01*
Y2381747D01*
X396690D01*
Y2381881D01*
X396824D01*
Y2382015D01*
X396958D01*
Y2382149D01*
X397092D01*
Y2382283D01*
X397226D01*
Y2382417D01*
X397360D01*
Y2382551D01*
X397494D01*
Y2382685D01*
X397762D01*
Y2382819D01*
X397896D01*
Y2382953D01*
X398030D01*
Y2383087D01*
X398164D01*
Y2383221D01*
X398432D01*
Y2383355D01*
X398566D01*
Y2383489D01*
X398700D01*
Y2383623D01*
X398834D01*
Y2383757D01*
X398968D01*
Y2383891D01*
X399236D01*
Y2384025D01*
X399370D01*
Y2384159D01*
X399504D01*
Y2384293D01*
X399638D01*
Y2384427D01*
X399772D01*
Y2384561D01*
X400040D01*
Y2384695D01*
X400174D01*
Y2384829D01*
X400308D01*
Y2384963D01*
X400576D01*
Y2385097D01*
X400710D01*
Y2385231D01*
X400844D01*
Y2385365D01*
X401112D01*
Y2385499D01*
X401246D01*
Y2385633D01*
X401380D01*
Y2385767D01*
X401648D01*
Y2385901D01*
X401782D01*
Y2386035D01*
X401916D01*
Y2386169D01*
X402050D01*
Y2386303D01*
X402318D01*
Y2386437D01*
X402452D01*
Y2386572D01*
X402720D01*
Y2386706D01*
X402854D01*
Y2386840D01*
X403122D01*
Y2386974D01*
X403256D01*
Y2387107D01*
X403524D01*
Y2387242D01*
X403658D01*
Y2387375D01*
X403792D01*
Y2387510D01*
X404060D01*
Y2387644D01*
X404194D01*
Y2387778D01*
X404462D01*
Y2387912D01*
X404596D01*
Y2388046D01*
X404730D01*
Y2388180D01*
X404998D01*
Y2388314D01*
X405132D01*
Y2388448D01*
X405400D01*
Y2388581D01*
X405668D01*
Y2388715D01*
X405802D01*
Y2388849D01*
X406070D01*
Y2388983D01*
X406204D01*
Y2389117D01*
X406472D01*
Y2389251D01*
X406606D01*
Y2389385D01*
X406874D01*
Y2389520D01*
X407008D01*
Y2389653D01*
X407276D01*
Y2389788D01*
X407410D01*
Y2389921D01*
X407678D01*
Y2390056D01*
X407946D01*
Y2390189D01*
X408080D01*
Y2390324D01*
X408482D01*
Y2390458D01*
X408616D01*
Y2390592D01*
X408884D01*
Y2390726D01*
X409018D01*
Y2390860D01*
X409286D01*
Y2390994D01*
X409554D01*
Y2391128D01*
X409822D01*
Y2391262D01*
X409956D01*
Y2391396D01*
X410224D01*
Y2391530D01*
X410492D01*
Y2391664D01*
X410626D01*
Y2391798D01*
X411028D01*
Y2391932D01*
X411162D01*
Y2392066D01*
X411430D01*
Y2392200D01*
X411698D01*
Y2392334D01*
X411966D01*
Y2392468D01*
X412234D01*
Y2392602D01*
X412368D01*
Y2392736D01*
X412636D01*
Y2392870D01*
X413038D01*
Y2393004D01*
X413172D01*
Y2393138D01*
X413574D01*
Y2393272D01*
X413842D01*
Y2393406D01*
X413976D01*
Y2393540D01*
X414378D01*
Y2393674D01*
X414512D01*
Y2393808D01*
X414781D01*
Y2393942D01*
X415183D01*
Y2394076D01*
X415317D01*
Y2394210D01*
X415719D01*
Y2394344D01*
X415986D01*
Y2394478D01*
X416255D01*
Y2394612D01*
X416656D01*
Y2394746D01*
X416791D01*
Y2394880D01*
X417192D01*
Y2395014D01*
X417594D01*
Y2395148D01*
X417729D01*
Y2395282D01*
X418130D01*
Y2395416D01*
X418399D01*
Y2395550D01*
X418667D01*
Y2395684D01*
X419069D01*
Y2395818D01*
X419337D01*
Y2395952D01*
X419739D01*
Y2396086D01*
X420141D01*
Y2396220D01*
X420409D01*
Y2396354D01*
X420811D01*
Y2396488D01*
X421079D01*
Y2396622D01*
X421481D01*
Y2396756D01*
X421883D01*
Y2396890D01*
X422151D01*
Y2397024D01*
X422553D01*
Y2397158D01*
X422955D01*
Y2397292D01*
X423223D01*
Y2397426D01*
X423759D01*
Y2397560D01*
X424161D01*
Y2397694D01*
X424429D01*
Y2397828D01*
X424965D01*
Y2397962D01*
X425233D01*
Y2398096D01*
X425769D01*
Y2398230D01*
X426171D01*
Y2398364D01*
X426573D01*
Y2398498D01*
X427109D01*
Y2398632D01*
X427645D01*
Y2398766D01*
X427913D01*
Y2398900D01*
X410626D01*
Y2398766D01*
X410358D01*
Y2398900D01*
X410090D01*
Y2398766D01*
X409286D01*
Y2398900D01*
X409152D01*
Y2398766D01*
X408080D01*
Y2398900D01*
X407946D01*
Y2398766D01*
X385970D01*
Y2398632D01*
X385568D01*
Y2398766D01*
X385300D01*
Y2398632D01*
X369889D01*
Y2398498D01*
X369755D01*
Y2398632D01*
X368817D01*
Y2398498D01*
X368415D01*
Y2398632D01*
X368147D01*
Y2398498D01*
X344294D01*
Y2398364D01*
X324730D01*
Y2398230D01*
X324328D01*
Y2398364D01*
X324060D01*
Y2398230D01*
X306505D01*
Y2398096D01*
X306371D01*
Y2398230D01*
X304495D01*
Y2401848D01*
X304629D01*
Y2401982D01*
X315618D01*
Y2402116D01*
X315752D01*
Y2401982D01*
X316690D01*
Y2402116D01*
X316958D01*
Y2401982D01*
X317092D01*
Y2402116D01*
X317628D01*
Y2401982D01*
X317762D01*
Y2402116D01*
X319906D01*
Y2401982D01*
X320040D01*
Y2402116D01*
X338800D01*
Y2402250D01*
X353675D01*
Y2402384D01*
X374579D01*
Y2402518D01*
X374713D01*
Y2402384D01*
X374981D01*
Y2402518D01*
X375249D01*
Y2402384D01*
X375651D01*
Y2402518D01*
X375919D01*
Y2402384D01*
X376053D01*
Y2402518D01*
X376589D01*
Y2402384D01*
X376723D01*
Y2402518D01*
X377259D01*
Y2402384D01*
X377393D01*
Y2402518D01*
X399906D01*
Y2402652D01*
X400040D01*
Y2402518D01*
X400442D01*
Y2402652D01*
X400710D01*
Y2402518D01*
X400978D01*
Y2402652D01*
X419739D01*
Y2402786D01*
X419873D01*
Y2402652D01*
X421079D01*
Y2402786D01*
X421347D01*
Y2402652D01*
X421615D01*
Y2402786D01*
X422017D01*
Y2402652D01*
X422285D01*
Y2402786D01*
X451096D01*
Y2402652D01*
D02*
G37*
G36*
X327276Y2382551D02*
X327410D01*
Y2382417D01*
X327544D01*
Y2382283D01*
X327410D01*
Y2382149D01*
X327544D01*
Y2380541D01*
X327678D01*
Y2379469D01*
X327812D01*
Y2377995D01*
X327946D01*
Y2376387D01*
X328080D01*
Y2375315D01*
X328214D01*
Y2373707D01*
X328348D01*
Y2372501D01*
X328482D01*
Y2371161D01*
X328616D01*
Y2371027D01*
X328482D01*
Y2370893D01*
X328616D01*
Y2369419D01*
X328750D01*
Y2368481D01*
X328884D01*
Y2366873D01*
X329018D01*
Y2365265D01*
X329152D01*
Y2364193D01*
X329286D01*
Y2362585D01*
X329420D01*
Y2361379D01*
X329554D01*
Y2360039D01*
X329688D01*
Y2358297D01*
X329822D01*
Y2357359D01*
X329956D01*
Y2355885D01*
X330090D01*
Y2354142D01*
X330224D01*
Y2353070D01*
X330358D01*
Y2351462D01*
X330492D01*
Y2350256D01*
X330626D01*
Y2349050D01*
X330760D01*
Y2347308D01*
X330894D01*
Y2346236D01*
X331028D01*
Y2344762D01*
X331162D01*
Y2343154D01*
X331296D01*
Y2342082D01*
X331430D01*
Y2340474D01*
X331564D01*
Y2339268D01*
X331698D01*
Y2337928D01*
X331832D01*
Y2337794D01*
X331698D01*
Y2337660D01*
X331832D01*
Y2336186D01*
X331966D01*
Y2335248D01*
X332100D01*
Y2333640D01*
X332234D01*
Y2332032D01*
X332368D01*
Y2330960D01*
X332502D01*
Y2329352D01*
X332636D01*
Y2328280D01*
X332770D01*
Y2326806D01*
X332904D01*
Y2325198D01*
X333038D01*
Y2324126D01*
X333172D01*
Y2322652D01*
X333306D01*
Y2320910D01*
X333440D01*
Y2319838D01*
X333574D01*
Y2318363D01*
X333708D01*
Y2317023D01*
X333842D01*
Y2315817D01*
X333976D01*
Y2314075D01*
X334110D01*
Y2313003D01*
X334244D01*
Y2311529D01*
X334378D01*
Y2309921D01*
X334512D01*
Y2308849D01*
X334646D01*
Y2307241D01*
X334780D01*
Y2306169D01*
X335048D01*
Y2307375D01*
X335182D01*
Y2308447D01*
X335316D01*
Y2309653D01*
X335450D01*
Y2310591D01*
X335584D01*
Y2311261D01*
X335718D01*
Y2312199D01*
X335852D01*
Y2312735D01*
X335986D01*
Y2313539D01*
X336120D01*
Y2314343D01*
X336254D01*
Y2314745D01*
X336388D01*
Y2315549D01*
X336522D01*
Y2316085D01*
X336656D01*
Y2316621D01*
X336790D01*
Y2317157D01*
X336924D01*
Y2317693D01*
X337058D01*
Y2318229D01*
X337192D01*
Y2318765D01*
X337326D01*
Y2319168D01*
X337460D01*
Y2319704D01*
X337594D01*
Y2320106D01*
X337728D01*
Y2320508D01*
X337862D01*
Y2321044D01*
X337996D01*
Y2321445D01*
X338130D01*
Y2321848D01*
X338264D01*
Y2322384D01*
X338398D01*
Y2322652D01*
X338532D01*
Y2323188D01*
X338666D01*
Y2323590D01*
X338800D01*
Y2323858D01*
X338934D01*
Y2324394D01*
X339068D01*
Y2324662D01*
X339202D01*
Y2325064D01*
X339336D01*
Y2325466D01*
X339470D01*
Y2325734D01*
X339604D01*
Y2326270D01*
X339738D01*
Y2326538D01*
X339872D01*
Y2326806D01*
X340006D01*
Y2327342D01*
X340140D01*
Y2327610D01*
X340274D01*
Y2327878D01*
X340408D01*
Y2328280D01*
X340542D01*
Y2328548D01*
X340676D01*
Y2328950D01*
X340810D01*
Y2329218D01*
X340944D01*
Y2329620D01*
X341078D01*
Y2329888D01*
X341212D01*
Y2330156D01*
X341346D01*
Y2330558D01*
X341480D01*
Y2330826D01*
X341614D01*
Y2331094D01*
X341748D01*
Y2331496D01*
X341882D01*
Y2331764D01*
X342016D01*
Y2332032D01*
X342150D01*
Y2332434D01*
X342284D01*
Y2332568D01*
X342418D01*
Y2332970D01*
X342552D01*
Y2333238D01*
X342686D01*
Y2333506D01*
X342820D01*
Y2333774D01*
X342954D01*
Y2334042D01*
X343088D01*
Y2334310D01*
X343222D01*
Y2334578D01*
X343356D01*
Y2334846D01*
X343490D01*
Y2335114D01*
X343624D01*
Y2335382D01*
X343758D01*
Y2335650D01*
X343892D01*
Y2335918D01*
X344026D01*
Y2336186D01*
X344160D01*
Y2336454D01*
X344294D01*
Y2336722D01*
X344428D01*
Y2336990D01*
X344562D01*
Y2337258D01*
X344696D01*
Y2337526D01*
X344830D01*
Y2337660D01*
X344964D01*
Y2337928D01*
X345098D01*
Y2338196D01*
X345233D01*
Y2338464D01*
X345366D01*
Y2338732D01*
X345500D01*
Y2338866D01*
X345634D01*
Y2339134D01*
X345769D01*
Y2339402D01*
X345902D01*
Y2339536D01*
X346036D01*
Y2339804D01*
X346171D01*
Y2340072D01*
X346305D01*
Y2340340D01*
X346438D01*
Y2340608D01*
X346572D01*
Y2340742D01*
X346707D01*
Y2341010D01*
X346841D01*
Y2341278D01*
X346974D01*
Y2341412D01*
X347108D01*
Y2341680D01*
X347243D01*
Y2341814D01*
X347377D01*
Y2342082D01*
X347510D01*
Y2342350D01*
X347644D01*
Y2342484D01*
X347779D01*
Y2342752D01*
X347913D01*
Y2342886D01*
X348046D01*
Y2343154D01*
X348180D01*
Y2343288D01*
X348315D01*
Y2343556D01*
X348449D01*
Y2343690D01*
X348582D01*
Y2343958D01*
X348717D01*
Y2344092D01*
X348851D01*
Y2344360D01*
X348985D01*
Y2344494D01*
X349118D01*
Y2344762D01*
X349253D01*
Y2344896D01*
X349387D01*
Y2345164D01*
X349521D01*
Y2345298D01*
X349655D01*
Y2345432D01*
X349789D01*
Y2345700D01*
X349923D01*
Y2345834D01*
X350057D01*
Y2346102D01*
X350191D01*
Y2346236D01*
X350325D01*
Y2346370D01*
X350459D01*
Y2346638D01*
X350593D01*
Y2346772D01*
X350727D01*
Y2346906D01*
X350861D01*
Y2347174D01*
X350995D01*
Y2347308D01*
X351129D01*
Y2347442D01*
X351263D01*
Y2347710D01*
X351397D01*
Y2347844D01*
X351531D01*
Y2347978D01*
X351665D01*
Y2348112D01*
X351799D01*
Y2348380D01*
X351933D01*
Y2348514D01*
X352067D01*
Y2348648D01*
X352201D01*
Y2348782D01*
X352335D01*
Y2348916D01*
X352469D01*
Y2349184D01*
X352603D01*
Y2349318D01*
X352737D01*
Y2349452D01*
X352871D01*
Y2349586D01*
X353005D01*
Y2349720D01*
X353139D01*
Y2349988D01*
X353273D01*
Y2350122D01*
X353407D01*
Y2350256D01*
X353541D01*
Y2350390D01*
X353675D01*
Y2350524D01*
X353809D01*
Y2350792D01*
X353943D01*
Y2350926D01*
X354077D01*
Y2351060D01*
X354211D01*
Y2351194D01*
X354345D01*
Y2351328D01*
X354479D01*
Y2351462D01*
X354613D01*
Y2351596D01*
X354747D01*
Y2351865D01*
X354881D01*
Y2351998D01*
X355015D01*
Y2352133D01*
X355149D01*
Y2352266D01*
X355283D01*
Y2352401D01*
X355417D01*
Y2352534D01*
X355551D01*
Y2352669D01*
X355685D01*
Y2352802D01*
X355819D01*
Y2352936D01*
X355953D01*
Y2353070D01*
X356087D01*
Y2353204D01*
X356221D01*
Y2353338D01*
X356355D01*
Y2353472D01*
X356489D01*
Y2353606D01*
X356623D01*
Y2353740D01*
X356757D01*
Y2353874D01*
X356891D01*
Y2354142D01*
X357025D01*
Y2354276D01*
X357159D01*
Y2354410D01*
X357293D01*
Y2354544D01*
X357427D01*
Y2354679D01*
X357561D01*
Y2354812D01*
X357695D01*
Y2354947D01*
X357829D01*
Y2355081D01*
X357963D01*
Y2355215D01*
X358097D01*
Y2355349D01*
X358231D01*
Y2355483D01*
X358365D01*
Y2355617D01*
X358499D01*
Y2355751D01*
X358633D01*
Y2355885D01*
X358767D01*
Y2356019D01*
X358901D01*
Y2356153D01*
X359035D01*
Y2356287D01*
X359303D01*
Y2356421D01*
X359437D01*
Y2356555D01*
X359571D01*
Y2356689D01*
X359705D01*
Y2356823D01*
X359839D01*
Y2356957D01*
X359973D01*
Y2357091D01*
X360107D01*
Y2357225D01*
X360241D01*
Y2357359D01*
X360375D01*
Y2357493D01*
X360509D01*
Y2357627D01*
X360643D01*
Y2357761D01*
X360777D01*
Y2357895D01*
X360911D01*
Y2358029D01*
X361045D01*
Y2358163D01*
X361179D01*
Y2358297D01*
X361447D01*
Y2358431D01*
X361581D01*
Y2358565D01*
X361715D01*
Y2358699D01*
X361849D01*
Y2358833D01*
X361983D01*
Y2358967D01*
X362117D01*
Y2359101D01*
X362251D01*
Y2359235D01*
X362519D01*
Y2359369D01*
X362653D01*
Y2359503D01*
X362787D01*
Y2359637D01*
X362921D01*
Y2359771D01*
X363055D01*
Y2359905D01*
X363189D01*
Y2360039D01*
X363457D01*
Y2360173D01*
X363591D01*
Y2360307D01*
X363725D01*
Y2360441D01*
X363859D01*
Y2360575D01*
X363993D01*
Y2360709D01*
X364261D01*
Y2360843D01*
X364395D01*
Y2360977D01*
X364529D01*
Y2361111D01*
X364663D01*
Y2361245D01*
X364797D01*
Y2361379D01*
X365065D01*
Y2361513D01*
X365199D01*
Y2361647D01*
X365333D01*
Y2361781D01*
X365601D01*
Y2361915D01*
X365735D01*
Y2362049D01*
X365869D01*
Y2362183D01*
X366137D01*
Y2362317D01*
X366271D01*
Y2362451D01*
X366405D01*
Y2362585D01*
X366539D01*
Y2362719D01*
X366807D01*
Y2362853D01*
X366941D01*
Y2362987D01*
X367075D01*
Y2363121D01*
X367343D01*
Y2363255D01*
X367477D01*
Y2363389D01*
X367611D01*
Y2363523D01*
X367879D01*
Y2363657D01*
X368013D01*
Y2363791D01*
X368281D01*
Y2363925D01*
X368415D01*
Y2364059D01*
X368549D01*
Y2364193D01*
X368817D01*
Y2364327D01*
X368951D01*
Y2364461D01*
X369219D01*
Y2364595D01*
X369353D01*
Y2364729D01*
X369487D01*
Y2364863D01*
X369755D01*
Y2364997D01*
X370023D01*
Y2365131D01*
X370157D01*
Y2365265D01*
X370291D01*
Y2365399D01*
X370559D01*
Y2365533D01*
X370693D01*
Y2365667D01*
X370961D01*
Y2365801D01*
X371095D01*
Y2365935D01*
X371363D01*
Y2366069D01*
X371631D01*
Y2366203D01*
X371765D01*
Y2366337D01*
X372033D01*
Y2366471D01*
X372167D01*
Y2366605D01*
X372435D01*
Y2366739D01*
X372703D01*
Y2366873D01*
X372837D01*
Y2367007D01*
X373105D01*
Y2367141D01*
X373239D01*
Y2367275D01*
X373507D01*
Y2367409D01*
X373775D01*
Y2367543D01*
X373909D01*
Y2367677D01*
X374177D01*
Y2367811D01*
X374445D01*
Y2367945D01*
X374579D01*
Y2368079D01*
X374847D01*
Y2368213D01*
X375115D01*
Y2368347D01*
X375249D01*
Y2368481D01*
X375517D01*
Y2368615D01*
X375785D01*
Y2368749D01*
X375919D01*
Y2368883D01*
X376321D01*
Y2369017D01*
X376455D01*
Y2369151D01*
X376723D01*
Y2369285D01*
X376991D01*
Y2369419D01*
X377125D01*
Y2369553D01*
X377527D01*
Y2369687D01*
X377795D01*
Y2369821D01*
X377929D01*
Y2369955D01*
X378331D01*
Y2370089D01*
X378465D01*
Y2370223D01*
X378733D01*
Y2370357D01*
X379135D01*
Y2370491D01*
X379269D01*
Y2370625D01*
X379537D01*
Y2370759D01*
X379805D01*
Y2370893D01*
X380074D01*
Y2371027D01*
X380475D01*
Y2371161D01*
X380743D01*
Y2371295D01*
X381012D01*
Y2371429D01*
X381279D01*
Y2371563D01*
X381548D01*
Y2371697D01*
X381815D01*
Y2371831D01*
X382084D01*
Y2371965D01*
X382351D01*
Y2372099D01*
X382753D01*
Y2372233D01*
X383022D01*
Y2372367D01*
X383289D01*
Y2372501D01*
X383692D01*
Y2372635D01*
X383959D01*
Y2372769D01*
X384362D01*
Y2372903D01*
X384630D01*
Y2373037D01*
X384898D01*
Y2373171D01*
X385300D01*
Y2373305D01*
X385568D01*
Y2373439D01*
X385970D01*
Y2373573D01*
X386372D01*
Y2373707D01*
X386640D01*
Y2373841D01*
X387042D01*
Y2373975D01*
X387310D01*
Y2374109D01*
X387712D01*
Y2374243D01*
X388114D01*
Y2374377D01*
X388382D01*
Y2374511D01*
X388784D01*
Y2374645D01*
X389320D01*
Y2374779D01*
X389588D01*
Y2374913D01*
X389990D01*
Y2375047D01*
X390392D01*
Y2375181D01*
X390794D01*
Y2375315D01*
X391330D01*
Y2375449D01*
X391598D01*
Y2375583D01*
X392134D01*
Y2375717D01*
X392670D01*
Y2375851D01*
X393072D01*
Y2375985D01*
X393608D01*
Y2376119D01*
X394010D01*
Y2376253D01*
X394546D01*
Y2376387D01*
X395082D01*
Y2376521D01*
X395484D01*
Y2376655D01*
X396154D01*
Y2376789D01*
X396824D01*
Y2376923D01*
X397092D01*
Y2377057D01*
X397896D01*
Y2377191D01*
X398432D01*
Y2377325D01*
X399102D01*
Y2377459D01*
X399906D01*
Y2377593D01*
X400308D01*
Y2377727D01*
X401246D01*
Y2377861D01*
X402184D01*
Y2377995D01*
X402720D01*
Y2378129D01*
X403658D01*
Y2378263D01*
X404596D01*
Y2378397D01*
X405534D01*
Y2378531D01*
X407008D01*
Y2378665D01*
X407946D01*
Y2378799D01*
X409822D01*
Y2378933D01*
X412770D01*
Y2379067D01*
X418533D01*
Y2378933D01*
X421481D01*
Y2378799D01*
X423223D01*
Y2378665D01*
X424295D01*
Y2378531D01*
X425635D01*
Y2378397D01*
X426573D01*
Y2378263D01*
X427511D01*
Y2378129D01*
X428583D01*
Y2377995D01*
X429253D01*
Y2377861D01*
X430057D01*
Y2377727D01*
X430861D01*
Y2377593D01*
X431263D01*
Y2377459D01*
X432067D01*
Y2377325D01*
X432737D01*
Y2377191D01*
X433273D01*
Y2377057D01*
X433943D01*
Y2376923D01*
X434479D01*
Y2376789D01*
X435015D01*
Y2376655D01*
X435685D01*
Y2376521D01*
X435953D01*
Y2376387D01*
X436623D01*
Y2376253D01*
X437025D01*
Y2376119D01*
X437561D01*
Y2375985D01*
X438097D01*
Y2375851D01*
X438365D01*
Y2375717D01*
X438901D01*
Y2375583D01*
X439437D01*
Y2375449D01*
X439705D01*
Y2375315D01*
X440241D01*
Y2375181D01*
X440643D01*
Y2375047D01*
X441045D01*
Y2374913D01*
X441581D01*
Y2374779D01*
X441849D01*
Y2374645D01*
X442251D01*
Y2374511D01*
X442653D01*
Y2374377D01*
X442921D01*
Y2374243D01*
X443457D01*
Y2374109D01*
X443725D01*
Y2373975D01*
X443993D01*
Y2373841D01*
X444395D01*
Y2373707D01*
X444663D01*
Y2373573D01*
X445065D01*
Y2373439D01*
X445467D01*
Y2373305D01*
X445735D01*
Y2373171D01*
X446137D01*
Y2373037D01*
X446405D01*
Y2372903D01*
X446673D01*
Y2372769D01*
X447075D01*
Y2372635D01*
X447343D01*
Y2372501D01*
X447745D01*
Y2372367D01*
X448013D01*
Y2372233D01*
X448281D01*
Y2372099D01*
X448683D01*
Y2371965D01*
X448951D01*
Y2371831D01*
X449219D01*
Y2371697D01*
X449487D01*
Y2371563D01*
X449755D01*
Y2371429D01*
X450024D01*
Y2371295D01*
X450425D01*
Y2371161D01*
X450560D01*
Y2371027D01*
X450962D01*
Y2370893D01*
X451096D01*
Y2370759D01*
X451364D01*
Y2370625D01*
X451765D01*
Y2370491D01*
X451900D01*
Y2370357D01*
X452168D01*
Y2370223D01*
X452570D01*
Y2370089D01*
X452704D01*
Y2369955D01*
X452971D01*
Y2369821D01*
X453240D01*
Y2369687D01*
X453508D01*
Y2369553D01*
X453776D01*
Y2369419D01*
X453910D01*
Y2369285D01*
X454312D01*
Y2369151D01*
X454580D01*
Y2369017D01*
X454714D01*
Y2368883D01*
X454982D01*
Y2368749D01*
X455250D01*
Y2368615D01*
X455518D01*
Y2368481D01*
X455652D01*
Y2368347D01*
X455920D01*
Y2368213D01*
X456188D01*
Y2368079D01*
X456322D01*
Y2367945D01*
X456590D01*
Y2367811D01*
X456858D01*
Y2367677D01*
X456992D01*
Y2367543D01*
X457260D01*
Y2367409D01*
X457528D01*
Y2367275D01*
X457662D01*
Y2367141D01*
X457930D01*
Y2367007D01*
X458198D01*
Y2366873D01*
X458332D01*
Y2366739D01*
X458600D01*
Y2366605D01*
X458734D01*
Y2366471D01*
X459002D01*
Y2366337D01*
X459270D01*
Y2366203D01*
X459404D01*
Y2366069D01*
X459672D01*
Y2365935D01*
X459806D01*
Y2365801D01*
X459940D01*
Y2365667D01*
X460208D01*
Y2365533D01*
X460476D01*
Y2365399D01*
X460610D01*
Y2365265D01*
X460878D01*
Y2365131D01*
X461012D01*
Y2364997D01*
X461280D01*
Y2364863D01*
X461414D01*
Y2364729D01*
X461548D01*
Y2364595D01*
X461816D01*
Y2364461D01*
X461950D01*
Y2364327D01*
X462218D01*
Y2364193D01*
X462352D01*
Y2364059D01*
X462486D01*
Y2363925D01*
X462754D01*
Y2363791D01*
X463022D01*
Y2363657D01*
X463156D01*
Y2363523D01*
X463290D01*
Y2363389D01*
X463424D01*
Y2363255D01*
X463692D01*
Y2363121D01*
X463826D01*
Y2362987D01*
X463960D01*
Y2362853D01*
X464228D01*
Y2362719D01*
X464362D01*
Y2362585D01*
X464496D01*
Y2362451D01*
X464764D01*
Y2362317D01*
X464898D01*
Y2362183D01*
X465032D01*
Y2362049D01*
X465300D01*
Y2361915D01*
X465434D01*
Y2361781D01*
X465568D01*
Y2361647D01*
X465836D01*
Y2361513D01*
X465970D01*
Y2361379D01*
X466104D01*
Y2361245D01*
X466238D01*
Y2361111D01*
X466372D01*
Y2360977D01*
X466640D01*
Y2360843D01*
X466774D01*
Y2360709D01*
X466908D01*
Y2360575D01*
X467042D01*
Y2360441D01*
X467176D01*
Y2360307D01*
X467444D01*
Y2360173D01*
X467578D01*
Y2360039D01*
X467712D01*
Y2359905D01*
X467980D01*
Y2359637D01*
X468248D01*
Y2359503D01*
X468382D01*
Y2359369D01*
X468516D01*
Y2359235D01*
X468650D01*
Y2359101D01*
X468784D01*
Y2358967D01*
X468918D01*
Y2358833D01*
X469186D01*
Y2358699D01*
X469320D01*
Y2358565D01*
X469454D01*
Y2358431D01*
X469588D01*
Y2358297D01*
X469722D01*
Y2358163D01*
X469856D01*
Y2358029D01*
X469990D01*
Y2357895D01*
X470124D01*
Y2357761D01*
X470258D01*
Y2357627D01*
X470392D01*
Y2357493D01*
X470660D01*
Y2357359D01*
X470794D01*
Y2357225D01*
X470928D01*
Y2357091D01*
X471062D01*
Y2356957D01*
X471196D01*
Y2356823D01*
X471330D01*
Y2356689D01*
X471464D01*
Y2356555D01*
X471598D01*
Y2356421D01*
X471732D01*
Y2356287D01*
X471866D01*
Y2356153D01*
X472000D01*
Y2356019D01*
X472134D01*
Y2355885D01*
X472268D01*
Y2355751D01*
X472402D01*
Y2355617D01*
X472536D01*
Y2355483D01*
X472670D01*
Y2355349D01*
X472804D01*
Y2355215D01*
X472938D01*
Y2355081D01*
X473072D01*
Y2354947D01*
X473206D01*
Y2354812D01*
X473340D01*
Y2354679D01*
X473474D01*
Y2354544D01*
X473608D01*
Y2354410D01*
X473742D01*
Y2354276D01*
X473876D01*
Y2354142D01*
X474010D01*
Y2354008D01*
X474144D01*
Y2353874D01*
X474278D01*
Y2353740D01*
X474412D01*
Y2353606D01*
X474546D01*
Y2353472D01*
X474680D01*
Y2353338D01*
X474814D01*
Y2353204D01*
X474948D01*
Y2353070D01*
X475082D01*
Y2352802D01*
X475216D01*
Y2352669D01*
X475350D01*
Y2352534D01*
X475484D01*
Y2352401D01*
X475618D01*
Y2352266D01*
X475752D01*
Y2352133D01*
X475886D01*
Y2351998D01*
X476020D01*
Y2351865D01*
X476154D01*
Y2351730D01*
X476288D01*
Y2351596D01*
X476422D01*
Y2351328D01*
X476288D01*
Y2351194D01*
X476020D01*
Y2351060D01*
X475886D01*
Y2350926D01*
X475752D01*
Y2350792D01*
X475618D01*
Y2350658D01*
X475350D01*
Y2350524D01*
X475216D01*
Y2350390D01*
X475082D01*
Y2350256D01*
X474814D01*
Y2350122D01*
X474680D01*
Y2349988D01*
X474546D01*
Y2349854D01*
X474412D01*
Y2349720D01*
X474144D01*
Y2349586D01*
X474010D01*
Y2349452D01*
X473876D01*
Y2349318D01*
X473742D01*
Y2349184D01*
X473474D01*
Y2349050D01*
X473340D01*
Y2348916D01*
X473206D01*
Y2348782D01*
X472938D01*
Y2348916D01*
X472804D01*
Y2349050D01*
X472670D01*
Y2349184D01*
X472536D01*
Y2349452D01*
X472402D01*
Y2349586D01*
X472268D01*
Y2349720D01*
X472134D01*
Y2349854D01*
X472000D01*
Y2349988D01*
X471866D01*
Y2350122D01*
X471732D01*
Y2350256D01*
X471598D01*
Y2350390D01*
X471464D01*
Y2350524D01*
X471330D01*
Y2350658D01*
X471196D01*
Y2350926D01*
X471062D01*
Y2351060D01*
X470928D01*
Y2351194D01*
X470794D01*
Y2351328D01*
X470660D01*
Y2351462D01*
X470526D01*
Y2351596D01*
X470392D01*
Y2351730D01*
X470258D01*
Y2351865D01*
X470124D01*
Y2351998D01*
X469990D01*
Y2352133D01*
X469856D01*
Y2352266D01*
X469722D01*
Y2352401D01*
X469588D01*
Y2352534D01*
X469454D01*
Y2352669D01*
X469320D01*
Y2352802D01*
X469186D01*
Y2352936D01*
X469052D01*
Y2353070D01*
X468918D01*
Y2353204D01*
X468784D01*
Y2353338D01*
X468650D01*
Y2353472D01*
X468516D01*
Y2353606D01*
X468382D01*
Y2353740D01*
X468248D01*
Y2353874D01*
X467980D01*
Y2354008D01*
X467846D01*
Y2354142D01*
X467712D01*
Y2354276D01*
X467578D01*
Y2354410D01*
X467444D01*
Y2354544D01*
X467310D01*
Y2354679D01*
X467176D01*
Y2354812D01*
X467042D01*
Y2354947D01*
X466908D01*
Y2355081D01*
X466774D01*
Y2355215D01*
X466506D01*
Y2355349D01*
X466372D01*
Y2355483D01*
X466238D01*
Y2355617D01*
X466104D01*
Y2355751D01*
X465970D01*
Y2355885D01*
X465836D01*
Y2356019D01*
X465702D01*
Y2356153D01*
X465568D01*
Y2356287D01*
X465300D01*
Y2356421D01*
X465166D01*
Y2356555D01*
X465032D01*
Y2356689D01*
X464898D01*
Y2356823D01*
X464764D01*
Y2356957D01*
X464630D01*
Y2357091D01*
X464362D01*
Y2357225D01*
X464228D01*
Y2357359D01*
X464094D01*
Y2357493D01*
X463960D01*
Y2357627D01*
X463826D01*
Y2357761D01*
X463558D01*
Y2357895D01*
X463424D01*
Y2358029D01*
X463290D01*
Y2358163D01*
X463156D01*
Y2358297D01*
X463022D01*
Y2358431D01*
X462754D01*
Y2358565D01*
X462620D01*
Y2358699D01*
X462486D01*
Y2358833D01*
X462218D01*
Y2358967D01*
X462084D01*
Y2359101D01*
X461950D01*
Y2359235D01*
X461682D01*
Y2359369D01*
X461548D01*
Y2359503D01*
X461414D01*
Y2359637D01*
X461146D01*
Y2359771D01*
X461012D01*
Y2359905D01*
X460744D01*
Y2360039D01*
X460610D01*
Y2360173D01*
X460476D01*
Y2360307D01*
X460208D01*
Y2360441D01*
X460074D01*
Y2360575D01*
X459940D01*
Y2360709D01*
X459806D01*
Y2360843D01*
X459538D01*
Y2360977D01*
X459270D01*
Y2361111D01*
X459136D01*
Y2361245D01*
X459002D01*
Y2361379D01*
X458734D01*
Y2361513D01*
X458600D01*
Y2361647D01*
X458332D01*
Y2361781D01*
X458198D01*
Y2361915D01*
X457930D01*
Y2362049D01*
X457796D01*
Y2362183D01*
X457662D01*
Y2362317D01*
X457394D01*
Y2362451D01*
X457126D01*
Y2362585D01*
X456992D01*
Y2362719D01*
X456724D01*
Y2362853D01*
X456590D01*
Y2362987D01*
X456322D01*
Y2363121D01*
X456054D01*
Y2363255D01*
X455920D01*
Y2363389D01*
X455652D01*
Y2363523D01*
X455518D01*
Y2363657D01*
X455250D01*
Y2363791D01*
X455116D01*
Y2363925D01*
X454848D01*
Y2364059D01*
X454580D01*
Y2364193D01*
X454312D01*
Y2364327D01*
X454178D01*
Y2364461D01*
X453910D01*
Y2364595D01*
X453642D01*
Y2364729D01*
X453508D01*
Y2364863D01*
X453240D01*
Y2364997D01*
X452971D01*
Y2365131D01*
X452838D01*
Y2365265D01*
X452435D01*
Y2365399D01*
X452302D01*
Y2365533D01*
X452034D01*
Y2365667D01*
X451765D01*
Y2365801D01*
X451632D01*
Y2365935D01*
X451229D01*
Y2366069D01*
X451096D01*
Y2366203D01*
X450827D01*
Y2366337D01*
X450560D01*
Y2366471D01*
X450291D01*
Y2366605D01*
X450024D01*
Y2366739D01*
X449755D01*
Y2366873D01*
X449487D01*
Y2367007D01*
X449219D01*
Y2367141D01*
X448951D01*
Y2367275D01*
X448683D01*
Y2367409D01*
X448415D01*
Y2367543D01*
X448147D01*
Y2367677D01*
X447880D01*
Y2367811D01*
X447477D01*
Y2367945D01*
X447209D01*
Y2368079D01*
X446941D01*
Y2368213D01*
X446673D01*
Y2368347D01*
X446405D01*
Y2368481D01*
X446003D01*
Y2368615D01*
X445735D01*
Y2368749D01*
X445467D01*
Y2368883D01*
X445065D01*
Y2369017D01*
X444797D01*
Y2369151D01*
X444395D01*
Y2369285D01*
X444127D01*
Y2369419D01*
X443859D01*
Y2369553D01*
X443457D01*
Y2369687D01*
X443189D01*
Y2369821D01*
X442787D01*
Y2369955D01*
X442385D01*
Y2370089D01*
X442117D01*
Y2370223D01*
X441715D01*
Y2370357D01*
X441313D01*
Y2370491D01*
X440911D01*
Y2370625D01*
X440509D01*
Y2370759D01*
X440241D01*
Y2370893D01*
X439839D01*
Y2371027D01*
X439303D01*
Y2371161D01*
X439035D01*
Y2371295D01*
X438499D01*
Y2371429D01*
X438097D01*
Y2371563D01*
X437695D01*
Y2371697D01*
X437159D01*
Y2371831D01*
X436891D01*
Y2371965D01*
X436221D01*
Y2372099D01*
X435685D01*
Y2372233D01*
X435283D01*
Y2372367D01*
X434747D01*
Y2372501D01*
X434211D01*
Y2372635D01*
X433809D01*
Y2372769D01*
X433005D01*
Y2372903D01*
X432603D01*
Y2373037D01*
X432067D01*
Y2373171D01*
X431263D01*
Y2373305D01*
X430727D01*
Y2373439D01*
X429923D01*
Y2373573D01*
X429253D01*
Y2373707D01*
X428583D01*
Y2373841D01*
X427645D01*
Y2373975D01*
X426841D01*
Y2374109D01*
X425769D01*
Y2374243D01*
X424563D01*
Y2374377D01*
X423625D01*
Y2374511D01*
X421749D01*
Y2374645D01*
X420007D01*
Y2374779D01*
X411430D01*
Y2374645D01*
X409420D01*
Y2374511D01*
X409286D01*
Y2374645D01*
X409152D01*
Y2374511D01*
X407544D01*
Y2374377D01*
X406606D01*
Y2374243D01*
X405400D01*
Y2374109D01*
X404328D01*
Y2373975D01*
X403524D01*
Y2373841D01*
X402586D01*
Y2373707D01*
X401916D01*
Y2373573D01*
X401112D01*
Y2373439D01*
X400308D01*
Y2373305D01*
X399772D01*
Y2373171D01*
X399102D01*
Y2373037D01*
X398432D01*
Y2372903D01*
X398030D01*
Y2372769D01*
X397360D01*
Y2372635D01*
X396824D01*
Y2372501D01*
X396288D01*
Y2372367D01*
X395618D01*
Y2372233D01*
X395350D01*
Y2372099D01*
X394680D01*
Y2371965D01*
X394278D01*
Y2371831D01*
X393876D01*
Y2371697D01*
X393340D01*
Y2371563D01*
X392938D01*
Y2371429D01*
X392536D01*
Y2371295D01*
X391866D01*
Y2371161D01*
X391732D01*
Y2371027D01*
X391196D01*
Y2370893D01*
X390794D01*
Y2370759D01*
X390392D01*
Y2370625D01*
X389990D01*
Y2370491D01*
X389588D01*
Y2370357D01*
X389320D01*
Y2370223D01*
X388784D01*
Y2370089D01*
X388516D01*
Y2369955D01*
X388114D01*
Y2369821D01*
X387712D01*
Y2369687D01*
X387444D01*
Y2369553D01*
X387042D01*
Y2369419D01*
X386774D01*
Y2369285D01*
X386506D01*
Y2369151D01*
X386104D01*
Y2369017D01*
X385836D01*
Y2368883D01*
X385434D01*
Y2368749D01*
X385166D01*
Y2368615D01*
X384898D01*
Y2368481D01*
X384496D01*
Y2368347D01*
X384228D01*
Y2368213D01*
X383959D01*
Y2368079D01*
X383558D01*
Y2367945D01*
X383424D01*
Y2367811D01*
X383022D01*
Y2367677D01*
X382753D01*
Y2367543D01*
X382486D01*
Y2367409D01*
X382217D01*
Y2367275D01*
X381950D01*
Y2367141D01*
X381682D01*
Y2367007D01*
X381279D01*
Y2366873D01*
X381146D01*
Y2366739D01*
X380743D01*
Y2366605D01*
X380475D01*
Y2366471D01*
X380341D01*
Y2366337D01*
X380074D01*
Y2366203D01*
X379805D01*
Y2366069D01*
X379537D01*
Y2365935D01*
X379135D01*
Y2365801D01*
X379001D01*
Y2365667D01*
X378733D01*
Y2365533D01*
X378465D01*
Y2365399D01*
X378331D01*
Y2365265D01*
X377929D01*
Y2365131D01*
X377795D01*
Y2364997D01*
X377527D01*
Y2364863D01*
X377259D01*
Y2364729D01*
X377125D01*
Y2364595D01*
X376857D01*
Y2364461D01*
X376589D01*
Y2364327D01*
X376455D01*
Y2364193D01*
X376187D01*
Y2364059D01*
X375919D01*
Y2363925D01*
X375785D01*
Y2363791D01*
X375517D01*
Y2363657D01*
X375249D01*
Y2363523D01*
X374981D01*
Y2363389D01*
X374847D01*
Y2363255D01*
X374713D01*
Y2363121D01*
X374445D01*
Y2362987D01*
X374177D01*
Y2362853D01*
X374043D01*
Y2362719D01*
X373775D01*
Y2362585D01*
X373641D01*
Y2362451D01*
X373373D01*
Y2362317D01*
X373105D01*
Y2362183D01*
X372971D01*
Y2362049D01*
X372703D01*
Y2361915D01*
X372569D01*
Y2361781D01*
X372435D01*
Y2361647D01*
X372167D01*
Y2361513D01*
X372033D01*
Y2361379D01*
X371765D01*
Y2361245D01*
X371497D01*
Y2360977D01*
X371229D01*
Y2360843D01*
X370961D01*
Y2360709D01*
X370827D01*
Y2360575D01*
X370559D01*
Y2360441D01*
X370425D01*
Y2360307D01*
X370291D01*
Y2360173D01*
X370023D01*
Y2360039D01*
X369889D01*
Y2359905D01*
X369755D01*
Y2359771D01*
X369487D01*
Y2359637D01*
X369353D01*
Y2359503D01*
X369219D01*
Y2359369D01*
X369085D01*
Y2359235D01*
X368817D01*
Y2359101D01*
X368683D01*
Y2358967D01*
X368549D01*
Y2358833D01*
X368281D01*
Y2358699D01*
X368147D01*
Y2358565D01*
X368013D01*
Y2358431D01*
X367745D01*
Y2358297D01*
X367611D01*
Y2358163D01*
X367477D01*
Y2358029D01*
X367343D01*
Y2357895D01*
X367209D01*
Y2357761D01*
X366941D01*
Y2357627D01*
X366807D01*
Y2357493D01*
X366673D01*
Y2357359D01*
X366405D01*
Y2357225D01*
X366271D01*
Y2357091D01*
X366137D01*
Y2356957D01*
X366003D01*
Y2356823D01*
X365869D01*
Y2356689D01*
X365735D01*
Y2356555D01*
X365467D01*
Y2356421D01*
X365333D01*
Y2356287D01*
X365199D01*
Y2356153D01*
X365065D01*
Y2356019D01*
X364931D01*
Y2355885D01*
X364797D01*
Y2355751D01*
X364663D01*
Y2355617D01*
X364395D01*
Y2355483D01*
X364261D01*
Y2355349D01*
X364127D01*
Y2355215D01*
X363993D01*
Y2355081D01*
X363859D01*
Y2354947D01*
X363725D01*
Y2354812D01*
X363591D01*
Y2354679D01*
X363457D01*
Y2354544D01*
X363189D01*
Y2354410D01*
X363055D01*
Y2354276D01*
X362921D01*
Y2354142D01*
X362787D01*
Y2354008D01*
X362653D01*
Y2353874D01*
X362519D01*
Y2353740D01*
X362385D01*
Y2353606D01*
X362251D01*
Y2353472D01*
X362117D01*
Y2353338D01*
X361983D01*
Y2353204D01*
X361849D01*
Y2353070D01*
X361715D01*
Y2352936D01*
X361581D01*
Y2352802D01*
X361447D01*
Y2352669D01*
X361313D01*
Y2352534D01*
X361179D01*
Y2352401D01*
X361045D01*
Y2352266D01*
X360911D01*
Y2352133D01*
X360777D01*
Y2351998D01*
X360643D01*
Y2351865D01*
X360509D01*
Y2351730D01*
X360375D01*
Y2351596D01*
X360241D01*
Y2351462D01*
X360107D01*
Y2351328D01*
X359973D01*
Y2351194D01*
X359839D01*
Y2351060D01*
X359705D01*
Y2350926D01*
X359571D01*
Y2350658D01*
X359437D01*
Y2350524D01*
X359303D01*
Y2350390D01*
X359169D01*
Y2350256D01*
X359035D01*
Y2350122D01*
X358901D01*
Y2349988D01*
X358767D01*
Y2349854D01*
X358633D01*
Y2349720D01*
X358499D01*
Y2349586D01*
X358365D01*
Y2349452D01*
X358231D01*
Y2349184D01*
X358097D01*
Y2349050D01*
X357963D01*
Y2348916D01*
X357829D01*
Y2348782D01*
X357695D01*
Y2348648D01*
X357561D01*
Y2348514D01*
X357427D01*
Y2348246D01*
X357293D01*
Y2348112D01*
X357159D01*
Y2347978D01*
X357025D01*
Y2347844D01*
X356891D01*
Y2347710D01*
X356757D01*
Y2347576D01*
X356623D01*
Y2347308D01*
X356489D01*
Y2347174D01*
X356355D01*
Y2347040D01*
X356221D01*
Y2346906D01*
X356087D01*
Y2346638D01*
X355953D01*
Y2346504D01*
X355819D01*
Y2346370D01*
X355685D01*
Y2346236D01*
X355551D01*
Y2346102D01*
X355417D01*
Y2345834D01*
X355283D01*
Y2345700D01*
X355149D01*
Y2345566D01*
X355015D01*
Y2345298D01*
X354881D01*
Y2345164D01*
X354747D01*
Y2345030D01*
X354613D01*
Y2344762D01*
X354479D01*
Y2344628D01*
X354345D01*
Y2344494D01*
X354211D01*
Y2344226D01*
X354077D01*
Y2344092D01*
X353943D01*
Y2343958D01*
X353809D01*
Y2343690D01*
X353675D01*
Y2343556D01*
X353541D01*
Y2343288D01*
X353407D01*
Y2343154D01*
X353273D01*
Y2343020D01*
X353139D01*
Y2342752D01*
X353005D01*
Y2342618D01*
X352871D01*
Y2342350D01*
X352737D01*
Y2342216D01*
X352603D01*
Y2342082D01*
X352469D01*
Y2341814D01*
X352335D01*
Y2341680D01*
X352201D01*
Y2341412D01*
X352067D01*
Y2341278D01*
X351933D01*
Y2341010D01*
X351799D01*
Y2340876D01*
X351665D01*
Y2340608D01*
X351531D01*
Y2340474D01*
X351397D01*
Y2340206D01*
X351263D01*
Y2340072D01*
X351129D01*
Y2339804D01*
X350995D01*
Y2339536D01*
X350861D01*
Y2339402D01*
X350727D01*
Y2339134D01*
X350593D01*
Y2339000D01*
X350459D01*
Y2338732D01*
X350325D01*
Y2338464D01*
X350191D01*
Y2338330D01*
X350057D01*
Y2338062D01*
X349923D01*
Y2337794D01*
X349789D01*
Y2337660D01*
X349655D01*
Y2337392D01*
X349521D01*
Y2337124D01*
X349387D01*
Y2336856D01*
X349253D01*
Y2336588D01*
X349118D01*
Y2336454D01*
X348985D01*
Y2336186D01*
X348851D01*
Y2335918D01*
X348717D01*
Y2335784D01*
X348582D01*
Y2335382D01*
X348449D01*
Y2335248D01*
X348315D01*
Y2334980D01*
X348180D01*
Y2334712D01*
X348046D01*
Y2334444D01*
X347913D01*
Y2334176D01*
X347779D01*
Y2333908D01*
X347644D01*
Y2333640D01*
X347510D01*
Y2333372D01*
X347377D01*
Y2333238D01*
X347243D01*
Y2332836D01*
X347108D01*
Y2332568D01*
X346974D01*
Y2332434D01*
X346841D01*
Y2332032D01*
X346707D01*
Y2331764D01*
X346572D01*
Y2331496D01*
X346438D01*
Y2331094D01*
X346305D01*
Y2330960D01*
X346171D01*
Y2330692D01*
X346036D01*
Y2330290D01*
X345902D01*
Y2330022D01*
X345769D01*
Y2329754D01*
X345634D01*
Y2329486D01*
X345500D01*
Y2329084D01*
X345366D01*
Y2328816D01*
X345233D01*
Y2328548D01*
X345098D01*
Y2328146D01*
X344964D01*
Y2327878D01*
X344830D01*
Y2327610D01*
X344696D01*
Y2327208D01*
X344562D01*
Y2326940D01*
X344428D01*
Y2326538D01*
X344294D01*
Y2326136D01*
X344160D01*
Y2325868D01*
X344026D01*
Y2325466D01*
X343892D01*
Y2325064D01*
X343758D01*
Y2324796D01*
X343624D01*
Y2324394D01*
X343490D01*
Y2324126D01*
X343356D01*
Y2323724D01*
X343222D01*
Y2323322D01*
X343088D01*
Y2322920D01*
X342954D01*
Y2322518D01*
X342820D01*
Y2322116D01*
X342686D01*
Y2321714D01*
X342552D01*
Y2321312D01*
X342418D01*
Y2320910D01*
X342284D01*
Y2320508D01*
X342150D01*
Y2319972D01*
X342016D01*
Y2319704D01*
X341882D01*
Y2319168D01*
X341748D01*
Y2318631D01*
X341614D01*
Y2318229D01*
X341480D01*
Y2317693D01*
X341346D01*
Y2317291D01*
X341212D01*
Y2316755D01*
X341078D01*
Y2316219D01*
X340944D01*
Y2315817D01*
X340810D01*
Y2315147D01*
X340676D01*
Y2314611D01*
X340542D01*
Y2314209D01*
X340408D01*
Y2313539D01*
X340274D01*
Y2312869D01*
X340140D01*
Y2312333D01*
X340006D01*
Y2311529D01*
X339872D01*
Y2310993D01*
X339738D01*
Y2310189D01*
X339604D01*
Y2309385D01*
X339470D01*
Y2308849D01*
X339336D01*
Y2307777D01*
X339202D01*
Y2306973D01*
X339068D01*
Y2306169D01*
X338934D01*
Y2304963D01*
X338800D01*
Y2304159D01*
X338666D01*
Y2302685D01*
X338532D01*
Y2300943D01*
X338398D01*
Y2299469D01*
X338264D01*
Y2290357D01*
X338398D01*
Y2289017D01*
X338532D01*
Y2287409D01*
X338666D01*
Y2285935D01*
X338800D01*
Y2285265D01*
X338934D01*
Y2284193D01*
X339068D01*
Y2283522D01*
X339202D01*
Y2282718D01*
X339336D01*
Y2281780D01*
X339470D01*
Y2281378D01*
X339604D01*
Y2280440D01*
X339738D01*
Y2279770D01*
X339872D01*
Y2279234D01*
X340006D01*
Y2278564D01*
X340140D01*
Y2278028D01*
X340274D01*
Y2277492D01*
X340408D01*
Y2276822D01*
X340542D01*
Y2276420D01*
X340676D01*
Y2275750D01*
X340810D01*
Y2275214D01*
X340944D01*
Y2274946D01*
X341078D01*
Y2274276D01*
X341212D01*
Y2273874D01*
X341346D01*
Y2273472D01*
X341480D01*
Y2272936D01*
X341614D01*
Y2272668D01*
X341748D01*
Y2272132D01*
X341882D01*
Y2271596D01*
X342016D01*
Y2271328D01*
X342150D01*
Y2270926D01*
X342284D01*
Y2270524D01*
X342418D01*
Y2270122D01*
X342552D01*
Y2269720D01*
X342686D01*
Y2269452D01*
X342820D01*
Y2268916D01*
X342954D01*
Y2268648D01*
X343088D01*
Y2268246D01*
X343222D01*
Y2267844D01*
X343356D01*
Y2267576D01*
X343490D01*
Y2267308D01*
X343624D01*
Y2266772D01*
X343758D01*
Y2266638D01*
X343892D01*
Y2266236D01*
X344026D01*
Y2265834D01*
X344160D01*
Y2265566D01*
X344294D01*
Y2265298D01*
X344428D01*
Y2264896D01*
X344562D01*
Y2264628D01*
X344696D01*
Y2264360D01*
X344830D01*
Y2264092D01*
X344964D01*
Y2263690D01*
X345098D01*
Y2263422D01*
X345233D01*
Y2263154D01*
X345366D01*
Y2262886D01*
X345500D01*
Y2262484D01*
X345634D01*
Y2262350D01*
X345769D01*
Y2261948D01*
X345902D01*
Y2261814D01*
X346036D01*
Y2261412D01*
X346171D01*
Y2261144D01*
X346305D01*
Y2261010D01*
X346438D01*
Y2260608D01*
X346572D01*
Y2260340D01*
X346707D01*
Y2260206D01*
X346841D01*
Y2259804D01*
X346974D01*
Y2259670D01*
X347108D01*
Y2259402D01*
X347243D01*
Y2259134D01*
X347377D01*
Y2258866D01*
X347510D01*
Y2258598D01*
X347644D01*
Y2258330D01*
X347779D01*
Y2258062D01*
X347913D01*
Y2257928D01*
X348046D01*
Y2257660D01*
X348180D01*
Y2257392D01*
X348315D01*
Y2257124D01*
X348449D01*
Y2256990D01*
X348582D01*
Y2256722D01*
X348717D01*
Y2256454D01*
X348851D01*
Y2256320D01*
X348985D01*
Y2255918D01*
X349118D01*
Y2255784D01*
X349253D01*
Y2255516D01*
X349387D01*
Y2255382D01*
X349253D01*
Y2254712D01*
X349118D01*
Y2254310D01*
X348985D01*
Y2253640D01*
X348851D01*
Y2253104D01*
X348717D01*
Y2252434D01*
X348582D01*
Y2251764D01*
X348449D01*
Y2251361D01*
X348315D01*
Y2250691D01*
X348180D01*
Y2250021D01*
X347913D01*
Y2250155D01*
X347779D01*
Y2250423D01*
X347644D01*
Y2250557D01*
X347510D01*
Y2250825D01*
X347377D01*
Y2251093D01*
X347243D01*
Y2251227D01*
X347108D01*
Y2251495D01*
X346974D01*
Y2251630D01*
X346841D01*
Y2251898D01*
X346707D01*
Y2252166D01*
X346572D01*
Y2252300D01*
X346438D01*
Y2252568D01*
X346305D01*
Y2252836D01*
X346171D01*
Y2252970D01*
X346036D01*
Y2253238D01*
X345902D01*
Y2253372D01*
X345769D01*
Y2253640D01*
X345634D01*
Y2253908D01*
X345500D01*
Y2254042D01*
X345366D01*
Y2254444D01*
X345233D01*
Y2254578D01*
X345098D01*
Y2254846D01*
X344964D01*
Y2255114D01*
X344830D01*
Y2255248D01*
X344696D01*
Y2255516D01*
X344562D01*
Y2255784D01*
X344428D01*
Y2256052D01*
X344294D01*
Y2256186D01*
X344160D01*
Y2256454D01*
X344026D01*
Y2256722D01*
X343892D01*
Y2256990D01*
X343758D01*
Y2257258D01*
X343624D01*
Y2257526D01*
X343490D01*
Y2257794D01*
X343356D01*
Y2257928D01*
X343222D01*
Y2258196D01*
X343088D01*
Y2258464D01*
X342954D01*
Y2258732D01*
X342820D01*
Y2259134D01*
X342686D01*
Y2259268D01*
X342552D01*
Y2259536D01*
X342418D01*
Y2259938D01*
X342284D01*
Y2260072D01*
X342150D01*
Y2260340D01*
X342016D01*
Y2260608D01*
X341882D01*
Y2260876D01*
X341748D01*
Y2261278D01*
X341614D01*
Y2261546D01*
X341480D01*
Y2261814D01*
X341346D01*
Y2262082D01*
X341212D01*
Y2262350D01*
X341078D01*
Y2262752D01*
X340944D01*
Y2263020D01*
X340810D01*
Y2263288D01*
X340676D01*
Y2263690D01*
X340542D01*
Y2263824D01*
X340408D01*
Y2264226D01*
X340274D01*
Y2264628D01*
X340140D01*
Y2264762D01*
X340006D01*
Y2265164D01*
X339872D01*
Y2265566D01*
X339738D01*
Y2265834D01*
X339604D01*
Y2266236D01*
X339470D01*
Y2266504D01*
X339336D01*
Y2266906D01*
X339202D01*
Y2267308D01*
X339068D01*
Y2267576D01*
X338934D01*
Y2267978D01*
X338800D01*
Y2268380D01*
X338666D01*
Y2268782D01*
X338532D01*
Y2269184D01*
X338398D01*
Y2269452D01*
X338264D01*
Y2269988D01*
X338130D01*
Y2270390D01*
X337996D01*
Y2270658D01*
X337862D01*
Y2271194D01*
X337728D01*
Y2271596D01*
X337594D01*
Y2271998D01*
X337460D01*
Y2272400D01*
X337326D01*
Y2272802D01*
X337192D01*
Y2273338D01*
X337058D01*
Y2273740D01*
X336924D01*
Y2274142D01*
X336790D01*
Y2274678D01*
X336656D01*
Y2275080D01*
X336522D01*
Y2275616D01*
X336388D01*
Y2276152D01*
X336254D01*
Y2276554D01*
X336120D01*
Y2277224D01*
X335986D01*
Y2277760D01*
X335852D01*
Y2278162D01*
X335718D01*
Y2278832D01*
X335584D01*
Y2279234D01*
X335450D01*
Y2279770D01*
X335316D01*
Y2280440D01*
X335182D01*
Y2280976D01*
X335048D01*
Y2281646D01*
X334914D01*
Y2282316D01*
X334780D01*
Y2282852D01*
X334646D01*
Y2283522D01*
X334512D01*
Y2284059D01*
X334378D01*
Y2284729D01*
X334244D01*
Y2285532D01*
X334110D01*
Y2286068D01*
X333976D01*
Y2286873D01*
X333842D01*
Y2287677D01*
X333708D01*
Y2288347D01*
X333574D01*
Y2289151D01*
X333440D01*
Y2289821D01*
X333306D01*
Y2290491D01*
X333172D01*
Y2291563D01*
X333038D01*
Y2292233D01*
X332904D01*
Y2293037D01*
X332770D01*
Y2293975D01*
X332636D01*
Y2294779D01*
X332502D01*
Y2295851D01*
X332368D01*
Y2296655D01*
X332234D01*
Y2297459D01*
X332100D01*
Y2298665D01*
X331966D01*
Y2299335D01*
X331832D01*
Y2300541D01*
X331698D01*
Y2301747D01*
X331564D01*
Y2302417D01*
X331430D01*
Y2303757D01*
X331296D01*
Y2304695D01*
X331162D01*
Y2305767D01*
X331028D01*
Y2307107D01*
X330894D01*
Y2308045D01*
X330760D01*
Y2309385D01*
X330626D01*
Y2310725D01*
X330492D01*
Y2311663D01*
X330358D01*
Y2313137D01*
X330224D01*
Y2314209D01*
X330090D01*
Y2315415D01*
X329956D01*
Y2316889D01*
X329822D01*
Y2317827D01*
X329688D01*
Y2319302D01*
X329554D01*
Y2320776D01*
X329420D01*
Y2321714D01*
X329286D01*
Y2323188D01*
X329152D01*
Y2324260D01*
X329018D01*
Y2325466D01*
X328884D01*
Y2325600D01*
X329018D01*
Y2325734D01*
X328884D01*
Y2327074D01*
X328750D01*
Y2328012D01*
X328616D01*
Y2329486D01*
X328482D01*
Y2330960D01*
X328348D01*
Y2332032D01*
X328214D01*
Y2333640D01*
X328080D01*
Y2334712D01*
X327946D01*
Y2335918D01*
X327812D01*
Y2337526D01*
X327678D01*
Y2338598D01*
X327544D01*
Y2340072D01*
X327410D01*
Y2341546D01*
X327276D01*
Y2342618D01*
X327142D01*
Y2344226D01*
X327008D01*
Y2345298D01*
X326874D01*
Y2346504D01*
X326740D01*
Y2346638D01*
X326874D01*
Y2346772D01*
X326740D01*
Y2348380D01*
X326606D01*
Y2349318D01*
X326472D01*
Y2350792D01*
X326338D01*
Y2352266D01*
X326204D01*
Y2353338D01*
X326070D01*
Y2354947D01*
X325936D01*
Y2356019D01*
X325802D01*
Y2357493D01*
X325668D01*
Y2358967D01*
X325534D01*
Y2360039D01*
X325400D01*
Y2361647D01*
X325266D01*
Y2363121D01*
X325132D01*
Y2364193D01*
X324998D01*
Y2365801D01*
X324864D01*
Y2367007D01*
X324730D01*
Y2368347D01*
X324596D01*
Y2369955D01*
X324462D01*
Y2371027D01*
X324328D01*
Y2372501D01*
X324194D01*
Y2374109D01*
X324060D01*
Y2375181D01*
X323926D01*
Y2376789D01*
X323792D01*
Y2377995D01*
X323658D01*
Y2379335D01*
X323524D01*
Y2380943D01*
X323390D01*
Y2382149D01*
X323256D01*
Y2382551D01*
X323390D01*
Y2382685D01*
X325802D01*
Y2382551D01*
X325936D01*
Y2382685D01*
X326472D01*
Y2382551D01*
X326606D01*
Y2382685D01*
X327276D01*
Y2382551D01*
D02*
G37*
G36*
X496791Y2293707D02*
X496925D01*
Y2293171D01*
X496791D01*
Y2292903D01*
X496925D01*
Y2292769D01*
X496791D01*
Y2292635D01*
X496925D01*
Y2292501D01*
X496791D01*
Y2290357D01*
X496657D01*
Y2288883D01*
X496523D01*
Y2287409D01*
X496389D01*
Y2286471D01*
X496255D01*
Y2285131D01*
X496121D01*
Y2284193D01*
X495987D01*
Y2283389D01*
X495853D01*
Y2282450D01*
X495719D01*
Y2281646D01*
X495585D01*
Y2280976D01*
X495451D01*
Y2280172D01*
X495317D01*
Y2279636D01*
X495183D01*
Y2278966D01*
X495049D01*
Y2278162D01*
X494915D01*
Y2277894D01*
X494781D01*
Y2277090D01*
X494647D01*
Y2276554D01*
X494513D01*
Y2276152D01*
X494379D01*
Y2275482D01*
X494245D01*
Y2275080D01*
X494111D01*
Y2274410D01*
X493977D01*
Y2273874D01*
X493843D01*
Y2273606D01*
X493709D01*
Y2273070D01*
X493575D01*
Y2272534D01*
X493441D01*
Y2272132D01*
X493307D01*
Y2271596D01*
X493173D01*
Y2271328D01*
X493039D01*
Y2270792D01*
X492905D01*
Y2270390D01*
X492771D01*
Y2270122D01*
X492637D01*
Y2269586D01*
X492503D01*
Y2269184D01*
X492369D01*
Y2268782D01*
X492235D01*
Y2268380D01*
X492101D01*
Y2268112D01*
X491967D01*
Y2267710D01*
X491833D01*
Y2267308D01*
X491699D01*
Y2267040D01*
X491565D01*
Y2266504D01*
X491431D01*
Y2266236D01*
X491297D01*
Y2265968D01*
X491163D01*
Y2265566D01*
X491029D01*
Y2265298D01*
X490895D01*
Y2264896D01*
X490761D01*
Y2264494D01*
X490627D01*
Y2264226D01*
X490493D01*
Y2263824D01*
X490359D01*
Y2263556D01*
X490225D01*
Y2263288D01*
X490091D01*
Y2262886D01*
X489957D01*
Y2262618D01*
X489823D01*
Y2262350D01*
X489689D01*
Y2261948D01*
X489555D01*
Y2261814D01*
X489421D01*
Y2261412D01*
X489287D01*
Y2261144D01*
X489153D01*
Y2260876D01*
X489019D01*
Y2260474D01*
X488885D01*
Y2260340D01*
X488751D01*
Y2259938D01*
X488617D01*
Y2259670D01*
X488483D01*
Y2259536D01*
X488349D01*
Y2259134D01*
X488215D01*
Y2258866D01*
X488081D01*
Y2258598D01*
X487947D01*
Y2258330D01*
X487813D01*
Y2258196D01*
X487679D01*
Y2257794D01*
X487545D01*
Y2257526D01*
X487411D01*
Y2257392D01*
X487277D01*
Y2256990D01*
X487142D01*
Y2256856D01*
X487009D01*
Y2256722D01*
X486875D01*
Y2256588D01*
X486606D01*
Y2256454D01*
X486473D01*
Y2256320D01*
X486204D01*
Y2256186D01*
X485937D01*
Y2256052D01*
X485803D01*
Y2255918D01*
X485534D01*
Y2255784D01*
X485267D01*
Y2255650D01*
X484998D01*
Y2255516D01*
X484731D01*
Y2255382D01*
X484596D01*
Y2255248D01*
X484195D01*
Y2255114D01*
X483926D01*
Y2254980D01*
X483659D01*
Y2254846D01*
X483390D01*
Y2254712D01*
X483122D01*
Y2254578D01*
X482721D01*
Y2254444D01*
X482452D01*
Y2254310D01*
X482184D01*
Y2254176D01*
X481782D01*
Y2254042D01*
X481380D01*
Y2253908D01*
X481112D01*
Y2253774D01*
X480576D01*
Y2253640D01*
X480174D01*
Y2253774D01*
X480308D01*
Y2253908D01*
X480442D01*
Y2254176D01*
X480576D01*
Y2254310D01*
X480710D01*
Y2254578D01*
X480844D01*
Y2254846D01*
X480978D01*
Y2254980D01*
X481112D01*
Y2255248D01*
X481246D01*
Y2255516D01*
X481380D01*
Y2255650D01*
X481514D01*
Y2255918D01*
X481648D01*
Y2256186D01*
X481782D01*
Y2256320D01*
X481916D01*
Y2256588D01*
X482050D01*
Y2256856D01*
X482184D01*
Y2257124D01*
X482318D01*
Y2257258D01*
X482452D01*
Y2257526D01*
X482586D01*
Y2257794D01*
X482721D01*
Y2258062D01*
X482854D01*
Y2258330D01*
X482988D01*
Y2258598D01*
X483122D01*
Y2258732D01*
X483257D01*
Y2259000D01*
X483390D01*
Y2259268D01*
X483524D01*
Y2259536D01*
X483659D01*
Y2259804D01*
X483793D01*
Y2260072D01*
X483926D01*
Y2260340D01*
X484060D01*
Y2260608D01*
X484195D01*
Y2260742D01*
X484328D01*
Y2261144D01*
X484462D01*
Y2261412D01*
X484596D01*
Y2261680D01*
X484731D01*
Y2261948D01*
X484865D01*
Y2262216D01*
X484998D01*
Y2262484D01*
X485132D01*
Y2262886D01*
X485267D01*
Y2263020D01*
X485401D01*
Y2263422D01*
X485534D01*
Y2263690D01*
X485668D01*
Y2263958D01*
X485803D01*
Y2264226D01*
X485937D01*
Y2264628D01*
X486070D01*
Y2264896D01*
X486204D01*
Y2265298D01*
X486339D01*
Y2265432D01*
X486473D01*
Y2265834D01*
X486606D01*
Y2266236D01*
X486741D01*
Y2266504D01*
X486875D01*
Y2266906D01*
X487009D01*
Y2267174D01*
X487142D01*
Y2267576D01*
X487277D01*
Y2267844D01*
X487411D01*
Y2268112D01*
X487545D01*
Y2268648D01*
X487679D01*
Y2268916D01*
X487813D01*
Y2269318D01*
X487947D01*
Y2269720D01*
X488081D01*
Y2269988D01*
X488215D01*
Y2270390D01*
X488349D01*
Y2270792D01*
X488483D01*
Y2271194D01*
X488617D01*
Y2271596D01*
X488751D01*
Y2271998D01*
X488885D01*
Y2272400D01*
X489019D01*
Y2272936D01*
X489153D01*
Y2273338D01*
X489287D01*
Y2273740D01*
X489421D01*
Y2274276D01*
X489555D01*
Y2274678D01*
X489689D01*
Y2275214D01*
X489823D01*
Y2275616D01*
X489957D01*
Y2276152D01*
X490091D01*
Y2276688D01*
X490225D01*
Y2277224D01*
X490359D01*
Y2277760D01*
X490493D01*
Y2278430D01*
X490627D01*
Y2278832D01*
X490761D01*
Y2279636D01*
X490895D01*
Y2280172D01*
X491029D01*
Y2280842D01*
X491163D01*
Y2281512D01*
X491297D01*
Y2282182D01*
X491431D01*
Y2283120D01*
X491565D01*
Y2283925D01*
X491699D01*
Y2284595D01*
X491833D01*
Y2285667D01*
X491967D01*
Y2286738D01*
X492101D01*
Y2287811D01*
X492235D01*
Y2289285D01*
X492369D01*
Y2290625D01*
X492503D01*
Y2293573D01*
X492637D01*
Y2293707D01*
X492771D01*
Y2293841D01*
X493039D01*
Y2293707D01*
X493173D01*
Y2293841D01*
X496255D01*
Y2293707D01*
X496389D01*
Y2293841D01*
X496523D01*
Y2293707D01*
X496657D01*
Y2293841D01*
X496791D01*
Y2293707D01*
D02*
G37*
G36*
X477360Y2241713D02*
X477226D01*
Y2241579D01*
X477092D01*
Y2241445D01*
X476958D01*
Y2241311D01*
X476824D01*
Y2241177D01*
X476690D01*
Y2241043D01*
X476556D01*
Y2240909D01*
X476422D01*
Y2240775D01*
X476288D01*
Y2240641D01*
X476154D01*
Y2240507D01*
X476020D01*
Y2240373D01*
X475886D01*
Y2240239D01*
X475752D01*
Y2240105D01*
X475618D01*
Y2239971D01*
X475484D01*
Y2239703D01*
X475350D01*
Y2239569D01*
X475216D01*
Y2239435D01*
X475082D01*
Y2239301D01*
X474948D01*
Y2239167D01*
X474814D01*
Y2239033D01*
X474680D01*
Y2238899D01*
X474546D01*
Y2238765D01*
X474412D01*
Y2238631D01*
X474278D01*
Y2238497D01*
X474144D01*
Y2238363D01*
X474010D01*
Y2238229D01*
X473876D01*
Y2238095D01*
X473742D01*
Y2237961D01*
X473608D01*
Y2237827D01*
X473474D01*
Y2237693D01*
X473340D01*
Y2237559D01*
X473206D01*
Y2237425D01*
X473072D01*
Y2237291D01*
X472938D01*
Y2237157D01*
X472670D01*
Y2237023D01*
X472536D01*
Y2236889D01*
X472402D01*
Y2236755D01*
X472268D01*
Y2236621D01*
X472134D01*
Y2236487D01*
X472000D01*
Y2236353D01*
X471866D01*
Y2236219D01*
X471732D01*
Y2236085D01*
X471598D01*
Y2235951D01*
X471464D01*
Y2235817D01*
X471330D01*
Y2235683D01*
X471196D01*
Y2235549D01*
X471062D01*
Y2235415D01*
X470928D01*
Y2235281D01*
X470794D01*
Y2235147D01*
X470526D01*
Y2235013D01*
X470392D01*
Y2234879D01*
X470258D01*
Y2234745D01*
X470124D01*
Y2234611D01*
X469990D01*
Y2234477D01*
X469722D01*
Y2234343D01*
X469588D01*
Y2234209D01*
X469454D01*
Y2234075D01*
X469320D01*
Y2233941D01*
X469186D01*
Y2233807D01*
X469052D01*
Y2233673D01*
X468784D01*
Y2233539D01*
X468650D01*
Y2233405D01*
X468516D01*
Y2233271D01*
X468382D01*
Y2233137D01*
X468248D01*
Y2233003D01*
X467980D01*
Y2232869D01*
X467846D01*
Y2232735D01*
X467712D01*
Y2232601D01*
X467578D01*
Y2232467D01*
X467444D01*
Y2232333D01*
X467176D01*
Y2232199D01*
X467042D01*
Y2232065D01*
X466908D01*
Y2231931D01*
X466640D01*
Y2231797D01*
X466506D01*
Y2231663D01*
X466372D01*
Y2231529D01*
X466238D01*
Y2231395D01*
X465970D01*
Y2231261D01*
X465836D01*
Y2231127D01*
X465702D01*
Y2230993D01*
X465434D01*
Y2230859D01*
X465300D01*
Y2230725D01*
X465166D01*
Y2230591D01*
X464898D01*
Y2230457D01*
X464764D01*
Y2230323D01*
X464630D01*
Y2230189D01*
X464362D01*
Y2230055D01*
X464228D01*
Y2229921D01*
X464094D01*
Y2229787D01*
X463826D01*
Y2229653D01*
X463692D01*
Y2229519D01*
X463558D01*
Y2229385D01*
X463290D01*
Y2229251D01*
X463156D01*
Y2229117D01*
X462888D01*
Y2228983D01*
X462754D01*
Y2228849D01*
X462620D01*
Y2228715D01*
X462352D01*
Y2228581D01*
X462218D01*
Y2228447D01*
X461950D01*
Y2228313D01*
X461816D01*
Y2228179D01*
X461548D01*
Y2228045D01*
X461414D01*
Y2227911D01*
X461146D01*
Y2227777D01*
X461012D01*
Y2227643D01*
X460744D01*
Y2227509D01*
X460610D01*
Y2227375D01*
X460342D01*
Y2227241D01*
X460208D01*
Y2227107D01*
X460074D01*
Y2226973D01*
X459806D01*
Y2226839D01*
X459538D01*
Y2226705D01*
X459404D01*
Y2226571D01*
X459136D01*
Y2226437D01*
X459002D01*
Y2226303D01*
X458734D01*
Y2226169D01*
X458466D01*
Y2226035D01*
X458332D01*
Y2225901D01*
X458064D01*
Y2225767D01*
X457930D01*
Y2225633D01*
X457662D01*
Y2225499D01*
X457394D01*
Y2225365D01*
X457260D01*
Y2225231D01*
X456992D01*
Y2225097D01*
X456724D01*
Y2224963D01*
X456590D01*
Y2224829D01*
X456322D01*
Y2224695D01*
X456054D01*
Y2224561D01*
X455786D01*
Y2224427D01*
X455652D01*
Y2224293D01*
X455384D01*
Y2224159D01*
X455116D01*
Y2224025D01*
X454848D01*
Y2223891D01*
X454714D01*
Y2223757D01*
X454446D01*
Y2223623D01*
X454178D01*
Y2223489D01*
X453910D01*
Y2223355D01*
X453642D01*
Y2223221D01*
X453508D01*
Y2223087D01*
X453240D01*
Y2222953D01*
X452838D01*
Y2222819D01*
X452704D01*
Y2222685D01*
X452435D01*
Y2222551D01*
X452168D01*
Y2222417D01*
X451900D01*
Y2222283D01*
X451632D01*
Y2222149D01*
X451498D01*
Y2222015D01*
X451096D01*
Y2221881D01*
X450827D01*
Y2221747D01*
X450693D01*
Y2221613D01*
X450291D01*
Y2221479D01*
X450024D01*
Y2221345D01*
X449755D01*
Y2221211D01*
X449487D01*
Y2221077D01*
X449219D01*
Y2220943D01*
X448951D01*
Y2220809D01*
X448683D01*
Y2220675D01*
X448415D01*
Y2220541D01*
X448013D01*
Y2220407D01*
X447745D01*
Y2220273D01*
X447477D01*
Y2220139D01*
X447209D01*
Y2220005D01*
X446807D01*
Y2219871D01*
X446539D01*
Y2219737D01*
X446271D01*
Y2219603D01*
X446003D01*
Y2219469D01*
X445601D01*
Y2219335D01*
X445333D01*
Y2219201D01*
X445065D01*
Y2219067D01*
X444529D01*
Y2218933D01*
X444395D01*
Y2218799D01*
X443993D01*
Y2218665D01*
X443591D01*
Y2218530D01*
X443323D01*
Y2218397D01*
X442921D01*
Y2218530D01*
X442787D01*
Y2218665D01*
X442653D01*
Y2218799D01*
X442519D01*
Y2219067D01*
X442385D01*
Y2219201D01*
X442251D01*
Y2219335D01*
X442117D01*
Y2219469D01*
X441983D01*
Y2219603D01*
X441849D01*
Y2219737D01*
X441715D01*
Y2219871D01*
X441581D01*
Y2220005D01*
X441447D01*
Y2220139D01*
X441313D01*
Y2220273D01*
X441179D01*
Y2220407D01*
X441045D01*
Y2220541D01*
X440911D01*
Y2220675D01*
X440777D01*
Y2220809D01*
X440643D01*
Y2220943D01*
X440509D01*
Y2221211D01*
X440375D01*
Y2221345D01*
X440241D01*
Y2221479D01*
X440107D01*
Y2221613D01*
X439839D01*
Y2221881D01*
X440107D01*
Y2222015D01*
X440509D01*
Y2222149D01*
X440777D01*
Y2222283D01*
X441179D01*
Y2222417D01*
X441715D01*
Y2222551D01*
X441983D01*
Y2222685D01*
X442385D01*
Y2222819D01*
X442653D01*
Y2222953D01*
X442921D01*
Y2223087D01*
X443457D01*
Y2223221D01*
X443725D01*
Y2223355D01*
X443993D01*
Y2223489D01*
X444395D01*
Y2223623D01*
X444663D01*
Y2223757D01*
X445065D01*
Y2223891D01*
X445333D01*
Y2224025D01*
X445601D01*
Y2224159D01*
X446003D01*
Y2224293D01*
X446271D01*
Y2224427D01*
X446539D01*
Y2224561D01*
X446941D01*
Y2224695D01*
X447209D01*
Y2224829D01*
X447477D01*
Y2224963D01*
X447745D01*
Y2225097D01*
X448013D01*
Y2225231D01*
X448415D01*
Y2225365D01*
X448549D01*
Y2225499D01*
X448951D01*
Y2225633D01*
X449219D01*
Y2225767D01*
X449487D01*
Y2225901D01*
X449755D01*
Y2226035D01*
X450024D01*
Y2226169D01*
X450291D01*
Y2226303D01*
X450560D01*
Y2226437D01*
X450827D01*
Y2226571D01*
X451096D01*
Y2226705D01*
X451364D01*
Y2226839D01*
X451498D01*
Y2226973D01*
X451765D01*
Y2227107D01*
X452034D01*
Y2227241D01*
X452302D01*
Y2227375D01*
X452570D01*
Y2227509D01*
X452704D01*
Y2227643D01*
X452971D01*
Y2227777D01*
X453374D01*
Y2227911D01*
X453508D01*
Y2228045D01*
X453776D01*
Y2228179D01*
X454044D01*
Y2228313D01*
X454178D01*
Y2228447D01*
X454446D01*
Y2228581D01*
X454580D01*
Y2228715D01*
X454848D01*
Y2228849D01*
X455116D01*
Y2228983D01*
X455384D01*
Y2229117D01*
X455518D01*
Y2229251D01*
X455786D01*
Y2229385D01*
X456054D01*
Y2229519D01*
X456322D01*
Y2229653D01*
X456456D01*
Y2229787D01*
X456590D01*
Y2229921D01*
X456858D01*
Y2230055D01*
X457126D01*
Y2230189D01*
X457260D01*
Y2230323D01*
X457528D01*
Y2230457D01*
X457662D01*
Y2230591D01*
X457930D01*
Y2230725D01*
X458064D01*
Y2230859D01*
X458332D01*
Y2230993D01*
X458600D01*
Y2231261D01*
X458868D01*
Y2231395D01*
X459136D01*
Y2231529D01*
X459270D01*
Y2231663D01*
X459538D01*
Y2231797D01*
X459672D01*
Y2231931D01*
X459940D01*
Y2232065D01*
X460074D01*
Y2232199D01*
X460208D01*
Y2232333D01*
X460476D01*
Y2232467D01*
X460610D01*
Y2232601D01*
X460878D01*
Y2232735D01*
X461012D01*
Y2232869D01*
X461146D01*
Y2233003D01*
X461414D01*
Y2233137D01*
X461548D01*
Y2233271D01*
X461682D01*
Y2233405D01*
X461950D01*
Y2233539D01*
X462084D01*
Y2233673D01*
X462218D01*
Y2233807D01*
X462486D01*
Y2233941D01*
X462620D01*
Y2234075D01*
X462754D01*
Y2234209D01*
X463022D01*
Y2234343D01*
X463156D01*
Y2234477D01*
X463290D01*
Y2234611D01*
X463424D01*
Y2234745D01*
X463692D01*
Y2234879D01*
X463826D01*
Y2235013D01*
X463960D01*
Y2235147D01*
X464228D01*
Y2235281D01*
X464362D01*
Y2235415D01*
X464496D01*
Y2235549D01*
X464630D01*
Y2235683D01*
X464764D01*
Y2235817D01*
X465032D01*
Y2235951D01*
X465166D01*
Y2236085D01*
X465300D01*
Y2236219D01*
X465434D01*
Y2236353D01*
X465568D01*
Y2236487D01*
X465702D01*
Y2236621D01*
X465970D01*
Y2236755D01*
X466104D01*
Y2236889D01*
X466238D01*
Y2237023D01*
X466372D01*
Y2237157D01*
X466506D01*
Y2237291D01*
X466640D01*
Y2237425D01*
X466908D01*
Y2237559D01*
X467042D01*
Y2237693D01*
X467176D01*
Y2237827D01*
X467310D01*
Y2237961D01*
X467444D01*
Y2238095D01*
X467578D01*
Y2238229D01*
X467712D01*
Y2238363D01*
X467846D01*
Y2238497D01*
X467980D01*
Y2238631D01*
X468114D01*
Y2238765D01*
X468248D01*
Y2238899D01*
X468516D01*
Y2239033D01*
X468650D01*
Y2239167D01*
X468784D01*
Y2239301D01*
X468918D01*
Y2239435D01*
X469052D01*
Y2239569D01*
X469186D01*
Y2239703D01*
X469320D01*
Y2239837D01*
X470124D01*
Y2239971D01*
X470660D01*
Y2240105D01*
X471330D01*
Y2240239D01*
X472000D01*
Y2240373D01*
X472402D01*
Y2240507D01*
X473072D01*
Y2240641D01*
X473608D01*
Y2240775D01*
X474010D01*
Y2240909D01*
X474546D01*
Y2241043D01*
X474948D01*
Y2241177D01*
X475216D01*
Y2241311D01*
X475752D01*
Y2241445D01*
X476154D01*
Y2241579D01*
X476556D01*
Y2241713D01*
X476958D01*
Y2241847D01*
X477092D01*
Y2241981D01*
X477360D01*
Y2241713D01*
D02*
G37*
G36*
X356221Y2245733D02*
X356355D01*
Y2245599D01*
X356489D01*
Y2245331D01*
X356623D01*
Y2245197D01*
X356757D01*
Y2245063D01*
X356891D01*
Y2244929D01*
X357025D01*
Y2244795D01*
X357159D01*
Y2244527D01*
X357293D01*
Y2244393D01*
X357427D01*
Y2244259D01*
X357561D01*
Y2244125D01*
X357695D01*
Y2243991D01*
X357829D01*
Y2243857D01*
X357963D01*
Y2243589D01*
X358097D01*
Y2243455D01*
X358231D01*
Y2243321D01*
X358365D01*
Y2243187D01*
X358499D01*
Y2243053D01*
X358633D01*
Y2242919D01*
X358767D01*
Y2242785D01*
X358901D01*
Y2242651D01*
X359035D01*
Y2242517D01*
X359169D01*
Y2242383D01*
X359303D01*
Y2242249D01*
X359437D01*
Y2242115D01*
X359571D01*
Y2241981D01*
X359705D01*
Y2241713D01*
X359839D01*
Y2241579D01*
X359973D01*
Y2241445D01*
X360107D01*
Y2241311D01*
X360241D01*
Y2241177D01*
X360375D01*
Y2241043D01*
X360509D01*
Y2240909D01*
X360643D01*
Y2240775D01*
X360777D01*
Y2240641D01*
X360911D01*
Y2240507D01*
X361045D01*
Y2240373D01*
X361179D01*
Y2240239D01*
X361313D01*
Y2240105D01*
X361447D01*
Y2239971D01*
X361581D01*
Y2239837D01*
X361715D01*
Y2239703D01*
X361849D01*
Y2239569D01*
X361983D01*
Y2239435D01*
X362117D01*
Y2239301D01*
X362251D01*
Y2239167D01*
X362385D01*
Y2239033D01*
X362519D01*
Y2238899D01*
X362653D01*
Y2238765D01*
X362921D01*
Y2238497D01*
X363189D01*
Y2238363D01*
X363323D01*
Y2238229D01*
X363457D01*
Y2238095D01*
X363591D01*
Y2237961D01*
X363725D01*
Y2237827D01*
X363859D01*
Y2237693D01*
X363993D01*
Y2237559D01*
X364127D01*
Y2237425D01*
X364261D01*
Y2237291D01*
X364395D01*
Y2237157D01*
X364529D01*
Y2237023D01*
X364797D01*
Y2236889D01*
X364931D01*
Y2236755D01*
X365065D01*
Y2236621D01*
X365199D01*
Y2236487D01*
X365333D01*
Y2236353D01*
X365467D01*
Y2236219D01*
X365735D01*
Y2236085D01*
X365869D01*
Y2235951D01*
X366003D01*
Y2235817D01*
X366137D01*
Y2235683D01*
X366271D01*
Y2235549D01*
X366539D01*
Y2235415D01*
X366673D01*
Y2235281D01*
X366807D01*
Y2235147D01*
X366941D01*
Y2235013D01*
X367075D01*
Y2234879D01*
X367343D01*
Y2234745D01*
X367477D01*
Y2234611D01*
X367611D01*
Y2234477D01*
X367745D01*
Y2234343D01*
X368013D01*
Y2234209D01*
X368147D01*
Y2234075D01*
X368281D01*
Y2233941D01*
X368549D01*
Y2233807D01*
X368683D01*
Y2233673D01*
X368817D01*
Y2233539D01*
X368951D01*
Y2233405D01*
X369219D01*
Y2233271D01*
X369353D01*
Y2233137D01*
X369487D01*
Y2233003D01*
X369755D01*
Y2232869D01*
X369889D01*
Y2232735D01*
X370157D01*
Y2232601D01*
X370291D01*
Y2232467D01*
X370425D01*
Y2232333D01*
X370693D01*
Y2232199D01*
X370827D01*
Y2232065D01*
X370961D01*
Y2231931D01*
X371229D01*
Y2231797D01*
X371363D01*
Y2231663D01*
X371631D01*
Y2231529D01*
X371765D01*
Y2231395D01*
X371899D01*
Y2231261D01*
X372167D01*
Y2231127D01*
X372301D01*
Y2230993D01*
X372569D01*
Y2230859D01*
X372837D01*
Y2230725D01*
X372971D01*
Y2230591D01*
X373239D01*
Y2230457D01*
X373373D01*
Y2230323D01*
X373507D01*
Y2230189D01*
X373775D01*
Y2230055D01*
X373909D01*
Y2229921D01*
X374177D01*
Y2229787D01*
X374445D01*
Y2229653D01*
X374579D01*
Y2229519D01*
X374847D01*
Y2229385D01*
X375115D01*
Y2229251D01*
X375249D01*
Y2229117D01*
X375517D01*
Y2228983D01*
X375651D01*
Y2228849D01*
X375919D01*
Y2228715D01*
X376187D01*
Y2228581D01*
X376321D01*
Y2228447D01*
X376589D01*
Y2228313D01*
X376857D01*
Y2228179D01*
X376991D01*
Y2228045D01*
X377259D01*
Y2227911D01*
X377527D01*
Y2227777D01*
X377795D01*
Y2227643D01*
X378063D01*
Y2227509D01*
X378197D01*
Y2227375D01*
X378465D01*
Y2227241D01*
X378733D01*
Y2227107D01*
X379001D01*
Y2226973D01*
X379269D01*
Y2226839D01*
X379404D01*
Y2226705D01*
X379671D01*
Y2226571D01*
X380074D01*
Y2226437D01*
X380207D01*
Y2226303D01*
X380475D01*
Y2226169D01*
X380743D01*
Y2226035D01*
X381012D01*
Y2225901D01*
X381413D01*
Y2225767D01*
X381548D01*
Y2225633D01*
X381815D01*
Y2225499D01*
X382217D01*
Y2225365D01*
X382351D01*
Y2225231D01*
X382753D01*
Y2225097D01*
X383022D01*
Y2224963D01*
X383289D01*
Y2224829D01*
X383558D01*
Y2224695D01*
X383826D01*
Y2224561D01*
X384094D01*
Y2224427D01*
X384496D01*
Y2224293D01*
X384764D01*
Y2224159D01*
X385032D01*
Y2224025D01*
X385300D01*
Y2223891D01*
X385702D01*
Y2223757D01*
X385970D01*
Y2223623D01*
X386238D01*
Y2223489D01*
X386640D01*
Y2223355D01*
X387042D01*
Y2223221D01*
X387310D01*
Y2223087D01*
X387712D01*
Y2222953D01*
X387980D01*
Y2222819D01*
X388382D01*
Y2222685D01*
X388784D01*
Y2222551D01*
X389052D01*
Y2222417D01*
X389454D01*
Y2222283D01*
X389856D01*
Y2222149D01*
X390124D01*
Y2222015D01*
X390660D01*
Y2221881D01*
X391062D01*
Y2221747D01*
X391330D01*
Y2221613D01*
X391866D01*
Y2221479D01*
X392134D01*
Y2221345D01*
X392670D01*
Y2221211D01*
X393206D01*
Y2221077D01*
X393474D01*
Y2220943D01*
X394010D01*
Y2220809D01*
X394412D01*
Y2220675D01*
X394948D01*
Y2220541D01*
X395484D01*
Y2220407D01*
X395886D01*
Y2220273D01*
X396422D01*
Y2220139D01*
X397092D01*
Y2220005D01*
X397494D01*
Y2219871D01*
X398164D01*
Y2219737D01*
X398700D01*
Y2219603D01*
X399236D01*
Y2219469D01*
X400040D01*
Y2219335D01*
X400576D01*
Y2219201D01*
X401246D01*
Y2219067D01*
X402184D01*
Y2218933D01*
X402720D01*
Y2218799D01*
X403792D01*
Y2218665D01*
X404596D01*
Y2218530D01*
X405400D01*
Y2218397D01*
X406740D01*
Y2218262D01*
X407678D01*
Y2218129D01*
X409554D01*
Y2217995D01*
X411832D01*
Y2217861D01*
X419337D01*
Y2217995D01*
X421481D01*
Y2218129D01*
X423223D01*
Y2218262D01*
X424161D01*
Y2218397D01*
X425501D01*
Y2218530D01*
X426305D01*
Y2218665D01*
X427109D01*
Y2218799D01*
X428181D01*
Y2218933D01*
X428717D01*
Y2219067D01*
X429521D01*
Y2219201D01*
X430459D01*
Y2219067D01*
X430593D01*
Y2218933D01*
X430727D01*
Y2218665D01*
X430861D01*
Y2218530D01*
X430995D01*
Y2218397D01*
X431129D01*
Y2218262D01*
X431263D01*
Y2218129D01*
X431397D01*
Y2217995D01*
X431531D01*
Y2217861D01*
X431665D01*
Y2217727D01*
X431799D01*
Y2217593D01*
X431933D01*
Y2217459D01*
X432067D01*
Y2217325D01*
X432201D01*
Y2217191D01*
X432335D01*
Y2217057D01*
X432469D01*
Y2216923D01*
X432603D01*
Y2216655D01*
X432871D01*
Y2216387D01*
X433005D01*
Y2216253D01*
X433139D01*
Y2216119D01*
X433273D01*
Y2215985D01*
X433407D01*
Y2215851D01*
X433541D01*
Y2215716D01*
X433675D01*
Y2215582D01*
X433541D01*
Y2215448D01*
X432871D01*
Y2215314D01*
X432335D01*
Y2215180D01*
X431665D01*
Y2215046D01*
X430995D01*
Y2214912D01*
X430325D01*
Y2214778D01*
X429521D01*
Y2214644D01*
X428851D01*
Y2214510D01*
X427913D01*
Y2214376D01*
X426975D01*
Y2214242D01*
X426305D01*
Y2214108D01*
X425099D01*
Y2213974D01*
X424161D01*
Y2213840D01*
X422687D01*
Y2213706D01*
X420811D01*
Y2213572D01*
X418935D01*
Y2213439D01*
X411698D01*
Y2213572D01*
X409956D01*
Y2213706D01*
X407812D01*
Y2213840D01*
X406740D01*
Y2213974D01*
X405668D01*
Y2214108D01*
X404462D01*
Y2214242D01*
X403658D01*
Y2214376D01*
X402720D01*
Y2214510D01*
X401916D01*
Y2214644D01*
X401246D01*
Y2214778D01*
X400308D01*
Y2214912D01*
X399772D01*
Y2215046D01*
X399102D01*
Y2215180D01*
X398432D01*
Y2215314D01*
X397896D01*
Y2215448D01*
X397226D01*
Y2215582D01*
X396556D01*
Y2215716D01*
X396288D01*
Y2215851D01*
X395618D01*
Y2215985D01*
X395082D01*
Y2216119D01*
X394680D01*
Y2216253D01*
X394010D01*
Y2216387D01*
X393742D01*
Y2216521D01*
X393206D01*
Y2216655D01*
X392670D01*
Y2216789D01*
X392268D01*
Y2216923D01*
X391732D01*
Y2217057D01*
X391330D01*
Y2217191D01*
X390928D01*
Y2217325D01*
X390526D01*
Y2217459D01*
X390124D01*
Y2217593D01*
X389722D01*
Y2217727D01*
X389320D01*
Y2217861D01*
X388918D01*
Y2217995D01*
X388516D01*
Y2218129D01*
X388248D01*
Y2218262D01*
X387846D01*
Y2218397D01*
X387444D01*
Y2218530D01*
X387176D01*
Y2218665D01*
X386774D01*
Y2218799D01*
X386372D01*
Y2218933D01*
X386104D01*
Y2219067D01*
X385702D01*
Y2219201D01*
X385434D01*
Y2219335D01*
X385032D01*
Y2219469D01*
X384630D01*
Y2219603D01*
X384496D01*
Y2219737D01*
X384094D01*
Y2219871D01*
X383692D01*
Y2220005D01*
X383558D01*
Y2220139D01*
X383156D01*
Y2220273D01*
X382888D01*
Y2220407D01*
X382620D01*
Y2220541D01*
X382217D01*
Y2220675D01*
X381950D01*
Y2220809D01*
X381682D01*
Y2220943D01*
X381279D01*
Y2221077D01*
X381146D01*
Y2221211D01*
X380743D01*
Y2221345D01*
X380475D01*
Y2221479D01*
X380341D01*
Y2221613D01*
X379939D01*
Y2221747D01*
X379805D01*
Y2221881D01*
X379404D01*
Y2222015D01*
X379135D01*
Y2222149D01*
X379001D01*
Y2222283D01*
X378599D01*
Y2222417D01*
X378331D01*
Y2222551D01*
X378197D01*
Y2222685D01*
X377795D01*
Y2222819D01*
X377661D01*
Y2222953D01*
X377393D01*
Y2223087D01*
X377125D01*
Y2223221D01*
X376857D01*
Y2223355D01*
X376589D01*
Y2223489D01*
X376455D01*
Y2223623D01*
X376187D01*
Y2223757D01*
X375919D01*
Y2223891D01*
X375651D01*
Y2224025D01*
X375383D01*
Y2224159D01*
X375115D01*
Y2224293D01*
X374981D01*
Y2224427D01*
X374713D01*
Y2224561D01*
X374445D01*
Y2224695D01*
X374311D01*
Y2224829D01*
X374043D01*
Y2224963D01*
X373909D01*
Y2225097D01*
X373641D01*
Y2225231D01*
X373373D01*
Y2225365D01*
X373239D01*
Y2225499D01*
X372971D01*
Y2225633D01*
X372703D01*
Y2225767D01*
X372569D01*
Y2225901D01*
X372301D01*
Y2226035D01*
X372167D01*
Y2226169D01*
X371899D01*
Y2226303D01*
X371631D01*
Y2226437D01*
X371497D01*
Y2226571D01*
X371229D01*
Y2226705D01*
X371095D01*
Y2226839D01*
X370827D01*
Y2226973D01*
X370693D01*
Y2227107D01*
X370425D01*
Y2227241D01*
X370291D01*
Y2227375D01*
X370023D01*
Y2227509D01*
X369889D01*
Y2227643D01*
X369621D01*
Y2227777D01*
X369487D01*
Y2227911D01*
X369219D01*
Y2228045D01*
X369085D01*
Y2228179D01*
X368951D01*
Y2228313D01*
X368683D01*
Y2228447D01*
X368549D01*
Y2228581D01*
X368281D01*
Y2228715D01*
X368147D01*
Y2228849D01*
X367879D01*
Y2228983D01*
X367745D01*
Y2229117D01*
X367477D01*
Y2229251D01*
X367343D01*
Y2229385D01*
X367209D01*
Y2229519D01*
X367075D01*
Y2229653D01*
X366941D01*
Y2229787D01*
X366673D01*
Y2229921D01*
X366539D01*
Y2230055D01*
X366271D01*
Y2230189D01*
X366137D01*
Y2230323D01*
X366003D01*
Y2230457D01*
X365735D01*
Y2230591D01*
X365601D01*
Y2230725D01*
X365467D01*
Y2230859D01*
X365333D01*
Y2230993D01*
X365065D01*
Y2231127D01*
X364931D01*
Y2231261D01*
X364797D01*
Y2231395D01*
X364663D01*
Y2231529D01*
X364395D01*
Y2231663D01*
X364261D01*
Y2231797D01*
X364127D01*
Y2231931D01*
X363993D01*
Y2232065D01*
X363725D01*
Y2232199D01*
X363591D01*
Y2232333D01*
X363457D01*
Y2232467D01*
X363323D01*
Y2232601D01*
X363189D01*
Y2232735D01*
X362921D01*
Y2232869D01*
X362787D01*
Y2233003D01*
X362653D01*
Y2233137D01*
X362519D01*
Y2233271D01*
X362385D01*
Y2233405D01*
X362117D01*
Y2233673D01*
X361849D01*
Y2233807D01*
X361715D01*
Y2233941D01*
X361581D01*
Y2234075D01*
X361447D01*
Y2234209D01*
X361313D01*
Y2234343D01*
X361179D01*
Y2234477D01*
X361045D01*
Y2234611D01*
X360911D01*
Y2234745D01*
X360643D01*
Y2234879D01*
X360509D01*
Y2235013D01*
X360375D01*
Y2235147D01*
X360241D01*
Y2235281D01*
X360107D01*
Y2235415D01*
X359973D01*
Y2235549D01*
X359839D01*
Y2235683D01*
X359705D01*
Y2235817D01*
X359571D01*
Y2235951D01*
X359437D01*
Y2236085D01*
X359303D01*
Y2236219D01*
X359169D01*
Y2236353D01*
X359035D01*
Y2236487D01*
X358901D01*
Y2236621D01*
X358767D01*
Y2236755D01*
X358633D01*
Y2236889D01*
X358499D01*
Y2237023D01*
X358365D01*
Y2237157D01*
X358231D01*
Y2237291D01*
X358097D01*
Y2237425D01*
X357963D01*
Y2237559D01*
X357829D01*
Y2237693D01*
X357695D01*
Y2237827D01*
X357561D01*
Y2237961D01*
X357427D01*
Y2238095D01*
X357293D01*
Y2238229D01*
X357159D01*
Y2238363D01*
X357025D01*
Y2238497D01*
X356891D01*
Y2238631D01*
X356757D01*
Y2238765D01*
X356623D01*
Y2238899D01*
X356489D01*
Y2239033D01*
X356355D01*
Y2239167D01*
X356221D01*
Y2239301D01*
X356087D01*
Y2239435D01*
X355953D01*
Y2239569D01*
X355819D01*
Y2239703D01*
X355685D01*
Y2239971D01*
X355551D01*
Y2240105D01*
X355417D01*
Y2240239D01*
X355283D01*
Y2240373D01*
X355149D01*
Y2240507D01*
X355015D01*
Y2241445D01*
X355149D01*
Y2241981D01*
X355283D01*
Y2242651D01*
X355417D01*
Y2243321D01*
X355551D01*
Y2243723D01*
X355685D01*
Y2244393D01*
X355819D01*
Y2245063D01*
X355953D01*
Y2245599D01*
X356087D01*
Y2245867D01*
X356221D01*
Y2245733D01*
D02*
G37*
G36*
X477593Y2306357D02*
X460023D01*
X460174Y2307813D01*
X460023Y2309269D01*
X460350Y2309218D01*
X460651Y2309168D01*
X460952Y2309118D01*
X461203Y2309093D01*
X461429Y2309043D01*
X461630Y2309018D01*
X461956Y2308968D01*
X462207Y2308942D01*
X462383Y2308917D01*
X462483Y2308892D01*
X462508D01*
X462784Y2308867D01*
X463412D01*
X463738Y2308842D01*
X464918D01*
X465169Y2308817D01*
X465771D01*
X466424Y2308792D01*
X467101Y2308767D01*
X467679D01*
X467905Y2308742D01*
X468231D01*
X468858Y2308716D01*
X469461D01*
X470013Y2308691D01*
X470515D01*
X470967Y2308666D01*
X472071D01*
X472373Y2308641D01*
X473301D01*
Y2322898D01*
X465596D01*
X465319Y2322873D01*
X465018Y2322848D01*
X464692Y2322823D01*
X464366Y2322798D01*
X464115Y2322773D01*
X464014D01*
X463939Y2322747D01*
X463864D01*
X463311Y2322697D01*
X462834Y2322672D01*
X462408Y2322647D01*
X462056D01*
X461780Y2322622D01*
X461429D01*
X461579Y2323977D01*
X461429Y2325257D01*
X461605D01*
X461881Y2325232D01*
X462182Y2325207D01*
X462508D01*
X462809Y2325182D01*
X463060Y2325157D01*
X463161Y2325132D01*
X463311D01*
X463864Y2325107D01*
X464341Y2325082D01*
X464767Y2325057D01*
X465119D01*
X465395Y2325032D01*
X473301D01*
Y2337255D01*
X464315D01*
X463939Y2337230D01*
X463613Y2337205D01*
X463311D01*
X463060Y2337180D01*
X462860Y2337155D01*
X462759Y2337130D01*
X462709D01*
X462332Y2337079D01*
X461956Y2337004D01*
X461554Y2336929D01*
X461178Y2336879D01*
X460827Y2336803D01*
X460575Y2336753D01*
X460475Y2336728D01*
X460400D01*
X460350Y2336703D01*
X460325D01*
X460475Y2338134D01*
X460325Y2339539D01*
X477593D01*
Y2306357D01*
D02*
G37*
G36*
X422951Y2306206D02*
X421595Y2306357D01*
X420215Y2306232D01*
Y2332461D01*
X419738D01*
X398704Y2309168D01*
X396169Y2306232D01*
X394688Y2306206D01*
Y2339539D01*
X396068Y2339389D01*
X397424Y2339514D01*
Y2314439D01*
X397951Y2314414D01*
X421068Y2339514D01*
X422951Y2339539D01*
Y2306206D01*
D02*
G37*
G36*
X495665Y2340217D02*
X497071Y2340066D01*
X498376Y2339866D01*
X499606Y2339564D01*
X500761Y2339238D01*
X501840Y2338836D01*
X502844Y2338435D01*
X503722Y2338033D01*
X504526Y2337607D01*
X505228Y2337205D01*
X505555Y2337004D01*
X505831Y2336829D01*
X506107Y2336653D01*
X506333Y2336477D01*
X506559Y2336327D01*
X506734Y2336201D01*
X506910Y2336075D01*
X507036Y2335975D01*
X507136Y2335875D01*
X507211Y2335825D01*
X507236Y2335799D01*
X507262Y2335774D01*
X507738Y2335323D01*
X508190Y2334846D01*
X508617Y2334369D01*
X509019Y2333867D01*
X509370Y2333365D01*
X509721Y2332838D01*
X510022Y2332336D01*
X510324Y2331809D01*
X510826Y2330729D01*
X511252Y2329675D01*
X511604Y2328646D01*
X511905Y2327642D01*
X512106Y2326713D01*
X512282Y2325835D01*
X512332Y2325433D01*
X512407Y2325057D01*
X512432Y2324705D01*
X512482Y2324379D01*
X512507Y2324078D01*
X512533Y2323827D01*
Y2323601D01*
X512558Y2323400D01*
Y2323249D01*
Y2323149D01*
Y2323074D01*
Y2323049D01*
X512533Y2322321D01*
X512507Y2321593D01*
X512357Y2320212D01*
X512131Y2318907D01*
X511855Y2317702D01*
X511503Y2316573D01*
X511102Y2315519D01*
X510700Y2314565D01*
X510274Y2313711D01*
X509847Y2312933D01*
X509445Y2312256D01*
X509044Y2311678D01*
X508868Y2311427D01*
X508692Y2311201D01*
X508542Y2311001D01*
X508416Y2310825D01*
X508291Y2310699D01*
X508190Y2310574D01*
X508090Y2310474D01*
X508040Y2310398D01*
X507989Y2310373D01*
Y2310348D01*
X507563Y2309921D01*
X507086Y2309520D01*
X506634Y2309143D01*
X506132Y2308792D01*
X505128Y2308164D01*
X504099Y2307612D01*
X503045Y2307160D01*
X501990Y2306784D01*
X500986Y2306457D01*
X499983Y2306232D01*
X499054Y2306031D01*
X498175Y2305880D01*
X497799Y2305830D01*
X497422Y2305780D01*
X497071Y2305730D01*
X496745Y2305704D01*
X496443Y2305679D01*
X496192Y2305654D01*
X495966D01*
X495766Y2305629D01*
X495414D01*
X494310Y2305654D01*
X493256Y2305730D01*
X492754Y2305780D01*
X492277Y2305830D01*
X491825Y2305905D01*
X491423Y2305956D01*
X491022Y2306006D01*
X490695Y2306081D01*
X490394Y2306131D01*
X490118Y2306181D01*
X489917Y2306232D01*
X489767Y2306257D01*
X489666Y2306282D01*
X489641D01*
X488612Y2306558D01*
X487658Y2306884D01*
X487232Y2307060D01*
X486830Y2307236D01*
X486454Y2307411D01*
X486102Y2307587D01*
X485776Y2307738D01*
X485500Y2307888D01*
X485249Y2308039D01*
X485048Y2308164D01*
X484897Y2308265D01*
X484772Y2308315D01*
X484697Y2308365D01*
X484671Y2308390D01*
X484421Y2311477D01*
X485249Y2310825D01*
X486077Y2310248D01*
X486905Y2309746D01*
X487683Y2309319D01*
X488035Y2309143D01*
X488336Y2308993D01*
X488637Y2308867D01*
X488863Y2308767D01*
X489064Y2308666D01*
X489215Y2308616D01*
X489315Y2308591D01*
X489340Y2308566D01*
X490369Y2308215D01*
X491348Y2307963D01*
X491825Y2307863D01*
X492277Y2307788D01*
X492704Y2307713D01*
X493080Y2307662D01*
X493431Y2307612D01*
X493758Y2307587D01*
X494034Y2307562D01*
X494285D01*
X494486Y2307537D01*
X494737D01*
X495816Y2307587D01*
X496820Y2307713D01*
X497774Y2307913D01*
X498677Y2308189D01*
X499531Y2308516D01*
X500309Y2308867D01*
X501012Y2309244D01*
X501664Y2309620D01*
X502241Y2310022D01*
X502743Y2310398D01*
X503170Y2310750D01*
X503547Y2311051D01*
X503823Y2311327D01*
X504024Y2311528D01*
X504149Y2311653D01*
X504199Y2311703D01*
X504827Y2312532D01*
X505379Y2313385D01*
X505856Y2314289D01*
X506283Y2315217D01*
X506634Y2316146D01*
X506910Y2317075D01*
X507161Y2317978D01*
X507337Y2318857D01*
X507487Y2319685D01*
X507588Y2320438D01*
X507688Y2321116D01*
X507713Y2321442D01*
X507738Y2321718D01*
Y2321969D01*
X507764Y2322195D01*
Y2322396D01*
X507789Y2322572D01*
Y2322697D01*
Y2322798D01*
Y2322848D01*
Y2322873D01*
X507738Y2324078D01*
X507638Y2325232D01*
X507487Y2326337D01*
X507262Y2327366D01*
X507010Y2328320D01*
X506734Y2329223D01*
X506433Y2330052D01*
X506107Y2330805D01*
X505806Y2331457D01*
X505505Y2332059D01*
X505228Y2332561D01*
X504977Y2332988D01*
X504752Y2333340D01*
X504601Y2333566D01*
X504475Y2333716D01*
X504450Y2333766D01*
X504099Y2334193D01*
X503748Y2334595D01*
X503371Y2334946D01*
X502969Y2335297D01*
X502191Y2335925D01*
X501363Y2336452D01*
X500510Y2336904D01*
X499681Y2337280D01*
X498853Y2337581D01*
X498075Y2337832D01*
X497322Y2338033D01*
X496644Y2338159D01*
X496017Y2338259D01*
X495464Y2338334D01*
X495239Y2338360D01*
X495038Y2338385D01*
X494837D01*
X494686Y2338410D01*
X494410D01*
X493682Y2338385D01*
X492980Y2338309D01*
X492302Y2338184D01*
X491624Y2338008D01*
X490972Y2337832D01*
X490369Y2337607D01*
X489792Y2337381D01*
X489265Y2337155D01*
X488763Y2336904D01*
X488336Y2336678D01*
X487935Y2336452D01*
X487608Y2336276D01*
X487357Y2336101D01*
X487156Y2335975D01*
X487056Y2335900D01*
X487006Y2335875D01*
X486529Y2335523D01*
X486127Y2335197D01*
X485801Y2334921D01*
X485525Y2334670D01*
X485349Y2334494D01*
X485199Y2334344D01*
X485123Y2334243D01*
X485098Y2334218D01*
X484747Y2334268D01*
X484621Y2334921D01*
X484546Y2335247D01*
X484496Y2335523D01*
X484421Y2335799D01*
X484370Y2336000D01*
X484320Y2336126D01*
Y2336176D01*
X484220Y2336577D01*
X484094Y2336929D01*
X483994Y2337230D01*
X483918Y2337506D01*
X483843Y2337732D01*
X483793Y2337883D01*
X483743Y2337983D01*
Y2338008D01*
X484671Y2338385D01*
X485600Y2338711D01*
X486479Y2339012D01*
X486880Y2339138D01*
X487282Y2339238D01*
X487633Y2339338D01*
X487960Y2339414D01*
X488236Y2339489D01*
X488487Y2339564D01*
X488662Y2339615D01*
X488813Y2339640D01*
X488913Y2339665D01*
X488938D01*
X489942Y2339866D01*
X490896Y2340016D01*
X491775Y2340117D01*
X492202Y2340167D01*
X492578Y2340192D01*
X492929Y2340217D01*
X493256Y2340242D01*
X493532D01*
X493758Y2340267D01*
X494937D01*
X495665Y2340217D01*
D02*
G37*
G36*
X453221Y2306206D02*
X451088Y2306357D01*
X448929Y2306232D01*
Y2322471D01*
X447097D01*
X443181Y2317903D01*
X437458Y2310423D01*
X434396Y2306206D01*
X431610Y2306357D01*
X428774Y2306232D01*
X429702Y2307436D01*
X432062Y2310172D01*
X442077Y2322873D01*
X441299Y2323023D01*
X440546Y2323224D01*
X439843Y2323425D01*
X439190Y2323651D01*
X438588Y2323877D01*
X438011Y2324103D01*
X437509Y2324329D01*
X437032Y2324580D01*
X436630Y2324780D01*
X436254Y2325006D01*
X435952Y2325182D01*
X435701Y2325358D01*
X435501Y2325483D01*
X435350Y2325584D01*
X435250Y2325659D01*
X435224Y2325684D01*
X434672Y2326161D01*
X434195Y2326663D01*
X433769Y2327190D01*
X433417Y2327742D01*
X433116Y2328269D01*
X432840Y2328822D01*
X432639Y2329324D01*
X432489Y2329826D01*
X432338Y2330302D01*
X432263Y2330729D01*
X432187Y2331131D01*
X432137Y2331457D01*
X432112Y2331733D01*
X432087Y2331934D01*
Y2332059D01*
Y2332110D01*
X432112Y2332787D01*
X432187Y2333440D01*
X432338Y2334017D01*
X432489Y2334570D01*
X432689Y2335072D01*
X432915Y2335548D01*
X433166Y2335950D01*
X433392Y2336327D01*
X433643Y2336653D01*
X433894Y2336929D01*
X434120Y2337180D01*
X434321Y2337356D01*
X434471Y2337506D01*
X434597Y2337632D01*
X434697Y2337682D01*
X434723Y2337707D01*
X435250Y2338033D01*
X435827Y2338309D01*
X436454Y2338560D01*
X437107Y2338761D01*
X437785Y2338937D01*
X438462Y2339088D01*
X439140Y2339213D01*
X439793Y2339313D01*
X440420Y2339389D01*
X441023Y2339439D01*
X441550Y2339489D01*
X442002Y2339514D01*
X442378Y2339539D01*
X453221D01*
Y2306206D01*
D02*
G37*
G36*
X1465977Y2290708D02*
X1422328D01*
Y2304952D01*
X1465977D01*
Y2290708D01*
D02*
G37*
G36*
X1672978Y2256138D02*
X1587012D01*
Y2269716D01*
X1657734D01*
Y2308950D01*
X1594010D01*
Y2322528D01*
X1657734D01*
Y2357847D01*
X1589678D01*
Y2371425D01*
X1672978D01*
Y2256138D01*
D02*
G37*
G36*
X1565938D02*
X1550694D01*
Y2303036D01*
X1518956D01*
X1516791Y2303119D01*
X1514708Y2303286D01*
X1512709Y2303453D01*
X1510793Y2303702D01*
X1508960Y2303952D01*
X1505545Y2304619D01*
X1502546Y2305369D01*
X1499714Y2306285D01*
X1497298Y2307201D01*
X1495132Y2308117D01*
X1493217Y2309034D01*
X1491634Y2309950D01*
X1490301Y2310866D01*
X1489218Y2311616D01*
X1488385Y2312282D01*
X1487802Y2312782D01*
X1487469Y2313115D01*
X1487386Y2313199D01*
X1485720Y2315115D01*
X1484303Y2317197D01*
X1483054Y2319280D01*
X1481971Y2321362D01*
X1481055Y2323445D01*
X1480305Y2325527D01*
X1479639Y2327526D01*
X1479139Y2329442D01*
X1478722Y2331191D01*
X1478473Y2332858D01*
X1478223Y2334274D01*
X1478139Y2335606D01*
X1478056Y2336606D01*
X1477973Y2337356D01*
Y2337856D01*
Y2338022D01*
X1478139Y2341188D01*
X1478556Y2344103D01*
X1478806Y2345519D01*
X1479056Y2346769D01*
X1479389Y2348018D01*
X1479722Y2349101D01*
X1480055Y2350101D01*
X1480388Y2351017D01*
X1480638Y2351850D01*
X1480888Y2352516D01*
X1481138Y2353016D01*
X1481305Y2353433D01*
X1481388Y2353682D01*
X1481471Y2353766D01*
X1482887Y2356265D01*
X1484387Y2358514D01*
X1485969Y2360430D01*
X1486719Y2361263D01*
X1487386Y2362012D01*
X1488052Y2362679D01*
X1488718Y2363262D01*
X1489302Y2363762D01*
X1489801Y2364095D01*
X1490134Y2364428D01*
X1490468Y2364678D01*
X1490634Y2364761D01*
X1490718Y2364845D01*
X1492967Y2366261D01*
X1495382Y2367344D01*
X1497715Y2368343D01*
X1499964Y2369093D01*
X1501047Y2369343D01*
X1501963Y2369593D01*
X1502796Y2369843D01*
X1503546Y2370009D01*
X1504129Y2370093D01*
X1504545Y2370176D01*
X1504879Y2370259D01*
X1504962D01*
X1506128Y2370426D01*
X1507461Y2370676D01*
X1510293Y2370926D01*
X1513209Y2371175D01*
X1516041Y2371259D01*
X1517374Y2371342D01*
X1518540D01*
X1519706Y2371425D01*
X1565938D01*
Y2256138D01*
D02*
G37*
G36*
X1404585D02*
X1318620Y2256138D01*
Y2269716D01*
X1389341Y2269716D01*
Y2308950D01*
X1325617Y2308950D01*
Y2322528D01*
X1389341Y2322528D01*
Y2357847D01*
X1321285Y2357847D01*
Y2371425D01*
X1404585Y2371425D01*
Y2256138D01*
D02*
G37*
G36*
X1189838Y2256138D02*
X1103872D01*
Y2269716D01*
X1174594D01*
Y2308950D01*
X1110870D01*
Y2322528D01*
X1174594D01*
Y2357847D01*
X1106538D01*
Y2371425D01*
X1189838D01*
Y2256138D01*
D02*
G37*
G36*
X1259977Y2373341D02*
X1262059Y2373258D01*
X1264058Y2373091D01*
X1266057Y2372841D01*
X1267890Y2372508D01*
X1269639Y2372175D01*
X1271222Y2371842D01*
X1272722Y2371425D01*
X1274138Y2371092D01*
X1275387Y2370676D01*
X1276387Y2370342D01*
X1277303Y2370093D01*
X1278053Y2369759D01*
X1278553Y2369593D01*
X1278886Y2369509D01*
X1278969Y2369426D01*
X1280718Y2368676D01*
X1282301Y2367843D01*
X1283800Y2366927D01*
X1285216Y2366011D01*
X1286549Y2365011D01*
X1287716Y2364095D01*
X1288798Y2363095D01*
X1289715Y2362179D01*
X1290548Y2361346D01*
X1291297Y2360513D01*
X1291964Y2359847D01*
X1292464Y2359180D01*
X1292880Y2358680D01*
X1293130Y2358264D01*
X1293297Y2358014D01*
X1293380Y2357931D01*
X1294213Y2356515D01*
X1294963Y2355015D01*
X1295629Y2353599D01*
X1296212Y2352183D01*
X1296712Y2350767D01*
X1297128Y2349434D01*
X1297378Y2348185D01*
X1297711Y2346935D01*
X1297878Y2345769D01*
X1298045Y2344769D01*
X1298128Y2343853D01*
X1298211Y2343103D01*
X1298295Y2342437D01*
Y2342020D01*
Y2341687D01*
Y2341604D01*
X1298211Y2340104D01*
X1298128Y2338688D01*
X1297628Y2336023D01*
X1297045Y2333607D01*
X1296629Y2332524D01*
X1296295Y2331441D01*
X1295879Y2330525D01*
X1295546Y2329692D01*
X1295213Y2329026D01*
X1294879Y2328443D01*
X1294629Y2327943D01*
X1294463Y2327610D01*
X1294380Y2327360D01*
X1294296Y2327276D01*
X1293463Y2326110D01*
X1292630Y2324944D01*
X1290631Y2322861D01*
X1288632Y2321029D01*
X1286633Y2319529D01*
X1285633Y2318863D01*
X1284800Y2318280D01*
X1283967Y2317697D01*
X1283301Y2317280D01*
X1282717Y2316947D01*
X1282301Y2316697D01*
X1282051Y2316614D01*
X1281968Y2316531D01*
X1280635Y2315864D01*
X1279219Y2315281D01*
X1277553Y2314615D01*
X1275804Y2313948D01*
X1272138Y2312699D01*
X1268473Y2311616D01*
X1266807Y2311116D01*
X1265141Y2310700D01*
X1263642Y2310283D01*
X1262392Y2309950D01*
X1261309Y2309700D01*
X1260476Y2309450D01*
X1260226Y2309367D01*
X1259977D01*
X1259893Y2309284D01*
X1259810D01*
X1256978Y2308617D01*
X1254396Y2307951D01*
X1251980Y2307368D01*
X1249897Y2306785D01*
X1247981Y2306285D01*
X1246315Y2305868D01*
X1244899Y2305452D01*
X1243566Y2305035D01*
X1242484Y2304702D01*
X1241567Y2304452D01*
X1240901Y2304202D01*
X1240318Y2304036D01*
X1239818Y2303869D01*
X1239568Y2303786D01*
X1239401Y2303702D01*
X1239318D01*
X1237985Y2303119D01*
X1236819Y2302619D01*
X1235653Y2302036D01*
X1234653Y2301453D01*
X1233654Y2300870D01*
X1232821Y2300287D01*
X1232071Y2299704D01*
X1231405Y2299204D01*
X1230822Y2298704D01*
X1230322Y2298205D01*
X1229489Y2297455D01*
X1229072Y2296955D01*
X1228906Y2296872D01*
Y2296789D01*
X1227823Y2295206D01*
X1226990Y2293623D01*
X1226407Y2292040D01*
X1226073Y2290624D01*
X1225824Y2289291D01*
X1225740Y2288792D01*
Y2288292D01*
X1225657Y2287875D01*
Y2287626D01*
Y2287459D01*
Y2287376D01*
X1225824Y2285460D01*
X1226157Y2283544D01*
X1226740Y2281878D01*
X1227323Y2280462D01*
X1227906Y2279212D01*
X1228239Y2278712D01*
X1228489Y2278296D01*
X1228656Y2277963D01*
X1228822Y2277713D01*
X1228989Y2277546D01*
Y2277463D01*
X1230322Y2275880D01*
X1231905Y2274464D01*
X1233571Y2273215D01*
X1235153Y2272215D01*
X1236653Y2271465D01*
X1237236Y2271132D01*
X1237819Y2270882D01*
X1238235Y2270632D01*
X1238569Y2270466D01*
X1238818Y2270382D01*
X1238902D01*
X1241484Y2269549D01*
X1244066Y2268883D01*
X1246649Y2268466D01*
X1249064Y2268133D01*
X1250147Y2268050D01*
X1251147Y2267967D01*
X1251980Y2267883D01*
X1252729D01*
X1253396Y2267800D01*
X1254229D01*
X1257811Y2267967D01*
X1261143Y2268300D01*
X1262726Y2268633D01*
X1264142Y2268883D01*
X1265558Y2269216D01*
X1266807Y2269549D01*
X1267890Y2269799D01*
X1268973Y2270133D01*
X1269806Y2270466D01*
X1270556Y2270716D01*
X1271139Y2270882D01*
X1271639Y2271049D01*
X1271889Y2271215D01*
X1271972D01*
X1273388Y2271882D01*
X1274721Y2272548D01*
X1275970Y2273298D01*
X1277053Y2274048D01*
X1278136Y2274797D01*
X1279052Y2275547D01*
X1279969Y2276297D01*
X1280718Y2276963D01*
X1281385Y2277630D01*
X1281968Y2278213D01*
X1282468Y2278712D01*
X1282801Y2279212D01*
X1283134Y2279629D01*
X1283384Y2279879D01*
X1283467Y2280045D01*
X1283551Y2280128D01*
X1284800Y2282378D01*
X1285800Y2284710D01*
X1286633Y2287126D01*
X1287216Y2289375D01*
X1287466Y2290458D01*
X1287716Y2291374D01*
X1287882Y2292290D01*
X1287965Y2293040D01*
X1288132Y2293623D01*
Y2294040D01*
X1288215Y2294373D01*
Y2294456D01*
X1302626Y2293207D01*
X1302543Y2291041D01*
X1302293Y2288958D01*
X1301960Y2286959D01*
X1301543Y2285043D01*
X1301043Y2283294D01*
X1300544Y2281545D01*
X1299961Y2279962D01*
X1299378Y2278463D01*
X1298878Y2277130D01*
X1298295Y2275963D01*
X1297795Y2274964D01*
X1297295Y2274048D01*
X1296962Y2273381D01*
X1296629Y2272881D01*
X1296462Y2272548D01*
X1296379Y2272465D01*
X1295213Y2270799D01*
X1293963Y2269216D01*
X1292630Y2267800D01*
X1291214Y2266467D01*
X1289881Y2265218D01*
X1288465Y2264052D01*
X1287132Y2263052D01*
X1285800Y2262136D01*
X1284633Y2261386D01*
X1283467Y2260636D01*
X1282468Y2260053D01*
X1281551Y2259553D01*
X1280802Y2259220D01*
X1280302Y2258970D01*
X1279885Y2258804D01*
X1279802Y2258720D01*
X1277803Y2257971D01*
X1275637Y2257221D01*
X1273471Y2256638D01*
X1271222Y2256138D01*
X1266807Y2255305D01*
X1264725Y2255055D01*
X1262726Y2254805D01*
X1260810Y2254639D01*
X1259060Y2254472D01*
X1257478Y2254389D01*
X1256145Y2254305D01*
X1255062Y2254222D01*
X1253562D01*
X1251313Y2254305D01*
X1249064Y2254389D01*
X1246899Y2254639D01*
X1244899Y2254889D01*
X1242983Y2255305D01*
X1241151Y2255638D01*
X1239401Y2256055D01*
X1237819Y2256471D01*
X1236403Y2256888D01*
X1235153Y2257304D01*
X1234070Y2257721D01*
X1233154Y2258054D01*
X1232404Y2258304D01*
X1231821Y2258554D01*
X1231488Y2258637D01*
X1231405Y2258720D01*
X1229572Y2259637D01*
X1227906Y2260553D01*
X1226323Y2261553D01*
X1224907Y2262552D01*
X1223574Y2263635D01*
X1222325Y2264718D01*
X1221159Y2265718D01*
X1220159Y2266717D01*
X1219243Y2267633D01*
X1218493Y2268466D01*
X1217827Y2269300D01*
X1217327Y2269966D01*
X1216910Y2270549D01*
X1216577Y2270965D01*
X1216411Y2271215D01*
X1216327Y2271299D01*
X1215411Y2272881D01*
X1214578Y2274381D01*
X1213828Y2275963D01*
X1213245Y2277463D01*
X1212745Y2278962D01*
X1212329Y2280378D01*
X1211912Y2281794D01*
X1211663Y2283044D01*
X1211413Y2284294D01*
X1211246Y2285376D01*
X1211163Y2286293D01*
X1211080Y2287126D01*
X1210996Y2287792D01*
Y2288292D01*
Y2288625D01*
Y2288708D01*
X1211080Y2290458D01*
X1211163Y2292040D01*
X1211413Y2293623D01*
X1211746Y2295122D01*
X1212079Y2296622D01*
X1212496Y2297955D01*
X1212995Y2299204D01*
X1213412Y2300370D01*
X1213828Y2301370D01*
X1214328Y2302286D01*
X1214745Y2303119D01*
X1215078Y2303786D01*
X1215411Y2304285D01*
X1215578Y2304702D01*
X1215744Y2304952D01*
X1215828Y2305035D01*
X1216827Y2306368D01*
X1217827Y2307617D01*
X1220159Y2309950D01*
X1222658Y2311949D01*
X1223908Y2312865D01*
X1225074Y2313615D01*
X1226240Y2314365D01*
X1227323Y2315031D01*
X1228239Y2315531D01*
X1229072Y2316031D01*
X1229739Y2316364D01*
X1230322Y2316614D01*
X1230655Y2316780D01*
X1230738Y2316864D01*
X1232154Y2317447D01*
X1233820Y2318030D01*
X1235653Y2318696D01*
X1237652Y2319280D01*
X1239735Y2319946D01*
X1241817Y2320529D01*
X1246065Y2321612D01*
X1248065Y2322195D01*
X1249981Y2322611D01*
X1251730Y2323028D01*
X1253229Y2323445D01*
X1254479Y2323694D01*
X1254979Y2323861D01*
X1255395Y2323944D01*
X1255728Y2324028D01*
X1255978D01*
X1256145Y2324111D01*
X1256228D01*
X1259560Y2324944D01*
X1262559Y2325694D01*
X1265225Y2326443D01*
X1267640Y2327193D01*
X1269723Y2327943D01*
X1271639Y2328609D01*
X1273221Y2329276D01*
X1274637Y2329859D01*
X1275804Y2330442D01*
X1276720Y2330941D01*
X1277553Y2331358D01*
X1278136Y2331774D01*
X1278636Y2332024D01*
X1278886Y2332274D01*
X1279052Y2332358D01*
X1279136Y2332441D01*
X1279885Y2333191D01*
X1280552Y2334024D01*
X1281218Y2334857D01*
X1281718Y2335773D01*
X1282468Y2337439D01*
X1282967Y2339105D01*
X1283301Y2340521D01*
X1283384Y2341104D01*
X1283467Y2341687D01*
X1283551Y2342104D01*
Y2342437D01*
Y2342604D01*
Y2342687D01*
X1283467Y2344020D01*
X1283301Y2345269D01*
X1282967Y2346519D01*
X1282551Y2347602D01*
X1281551Y2349684D01*
X1280968Y2350684D01*
X1280385Y2351517D01*
X1279802Y2352266D01*
X1279302Y2352933D01*
X1278719Y2353516D01*
X1278303Y2354016D01*
X1277886Y2354432D01*
X1277553Y2354682D01*
X1277386Y2354849D01*
X1277303Y2354932D01*
X1276053Y2355848D01*
X1274637Y2356598D01*
X1273055Y2357264D01*
X1271472Y2357847D01*
X1269806Y2358347D01*
X1268140Y2358764D01*
X1264808Y2359347D01*
X1263309Y2359597D01*
X1261809Y2359763D01*
X1260560Y2359847D01*
X1259393Y2359930D01*
X1258477Y2360013D01*
X1257144D01*
X1254729Y2359930D01*
X1252480Y2359763D01*
X1250397Y2359513D01*
X1248398Y2359180D01*
X1246649Y2358680D01*
X1244983Y2358264D01*
X1243483Y2357764D01*
X1242150Y2357264D01*
X1240984Y2356681D01*
X1239985Y2356181D01*
X1239152Y2355765D01*
X1238402Y2355348D01*
X1237819Y2354932D01*
X1237486Y2354682D01*
X1237236Y2354515D01*
X1237152Y2354432D01*
X1235986Y2353349D01*
X1234903Y2352100D01*
X1233904Y2350850D01*
X1233071Y2349517D01*
X1232321Y2348101D01*
X1231655Y2346769D01*
X1231072Y2345436D01*
X1230655Y2344103D01*
X1230238Y2342853D01*
X1229905Y2341687D01*
X1229655Y2340604D01*
X1229489Y2339771D01*
X1229322Y2339022D01*
X1229239Y2338439D01*
X1229156Y2338105D01*
Y2337939D01*
X1214495Y2339022D01*
X1214661Y2340854D01*
X1214828Y2342687D01*
X1215161Y2344436D01*
X1215578Y2346102D01*
X1215994Y2347685D01*
X1216494Y2349184D01*
X1216994Y2350600D01*
X1217494Y2351850D01*
X1218077Y2353016D01*
X1218493Y2354016D01*
X1218993Y2354932D01*
X1219409Y2355682D01*
X1219743Y2356265D01*
X1219993Y2356765D01*
X1220159Y2357014D01*
X1220243Y2357098D01*
X1221242Y2358597D01*
X1222408Y2359930D01*
X1223574Y2361263D01*
X1224824Y2362429D01*
X1226073Y2363512D01*
X1227323Y2364511D01*
X1228489Y2365428D01*
X1229739Y2366177D01*
X1230822Y2366927D01*
X1231905Y2367510D01*
X1232821Y2368093D01*
X1233654Y2368510D01*
X1234320Y2368843D01*
X1234820Y2369093D01*
X1235153Y2369176D01*
X1235236Y2369260D01*
X1237069Y2370009D01*
X1238985Y2370676D01*
X1240901Y2371175D01*
X1242900Y2371675D01*
X1246649Y2372425D01*
X1248481Y2372675D01*
X1250147Y2372925D01*
X1251813Y2373091D01*
X1253229Y2373175D01*
X1254562Y2373341D01*
X1255645D01*
X1256561Y2373425D01*
X1257811D01*
X1259977Y2373341D01*
D02*
G37*
%LPC*%
G36*
X448929Y2337832D02*
X443759D01*
X443282Y2337807D01*
X442855Y2337782D01*
X442478Y2337757D01*
X442202Y2337732D01*
X441976Y2337707D01*
X441851Y2337682D01*
X441801D01*
X441324Y2337581D01*
X440847Y2337481D01*
X440420Y2337331D01*
X440019Y2337155D01*
X439667Y2336979D01*
X439316Y2336778D01*
X438990Y2336577D01*
X438688Y2336352D01*
X438186Y2335875D01*
X437735Y2335348D01*
X437383Y2334820D01*
X437107Y2334268D01*
X436881Y2333741D01*
X436705Y2333239D01*
X436580Y2332787D01*
X436505Y2332361D01*
X436454Y2332034D01*
X436429Y2331758D01*
Y2331658D01*
Y2331583D01*
Y2331557D01*
Y2331532D01*
X436454Y2331030D01*
X436505Y2330553D01*
X436580Y2330102D01*
X436705Y2329675D01*
X436831Y2329273D01*
X436981Y2328897D01*
X437132Y2328546D01*
X437308Y2328219D01*
X437458Y2327943D01*
X437634Y2327692D01*
X437785Y2327466D01*
X437910Y2327291D01*
X438036Y2327140D01*
X438111Y2327039D01*
X438161Y2326989D01*
X438186Y2326964D01*
X438538Y2326638D01*
X438889Y2326337D01*
X439240Y2326061D01*
X439617Y2325810D01*
X440019Y2325584D01*
X440370Y2325408D01*
X441098Y2325082D01*
X441424Y2324931D01*
X441725Y2324831D01*
X442002Y2324755D01*
X442227Y2324680D01*
X442403Y2324630D01*
X442554Y2324580D01*
X442654Y2324555D01*
X442679D01*
X443307Y2324429D01*
X443608Y2324379D01*
X443884Y2324354D01*
X444110Y2324329D01*
X444311Y2324304D01*
X444461D01*
X445164Y2324278D01*
X448929D01*
Y2337832D01*
D02*
G37*
G36*
X1550694Y2357847D02*
X1519373D01*
X1517707Y2357764D01*
X1516124D01*
X1514708Y2357681D01*
X1513375Y2357598D01*
X1512209Y2357514D01*
X1511209Y2357431D01*
X1510293Y2357348D01*
X1509460Y2357181D01*
X1508794Y2357098D01*
X1508211Y2357015D01*
X1507794Y2356931D01*
X1507461Y2356848D01*
X1507211D01*
X1507128Y2356765D01*
X1507044D01*
X1504879Y2356015D01*
X1502963Y2355015D01*
X1501380Y2353849D01*
X1499964Y2352766D01*
X1498881Y2351683D01*
X1498048Y2350767D01*
X1497798Y2350434D01*
X1497548Y2350184D01*
X1497382Y2350017D01*
Y2349934D01*
X1496715Y2348934D01*
X1496132Y2347935D01*
X1495299Y2345852D01*
X1494633Y2343770D01*
X1494133Y2341854D01*
X1494050Y2341021D01*
X1493883Y2340188D01*
X1493800Y2339438D01*
Y2338855D01*
X1493716Y2338272D01*
Y2337939D01*
Y2337689D01*
Y2337606D01*
X1493800Y2335773D01*
X1493966Y2334107D01*
X1494300Y2332441D01*
X1494716Y2330942D01*
X1495132Y2329609D01*
X1495716Y2328276D01*
X1496215Y2327193D01*
X1496799Y2326110D01*
X1497382Y2325194D01*
X1497965Y2324361D01*
X1498548Y2323695D01*
X1498964Y2323111D01*
X1499381Y2322695D01*
X1499714Y2322362D01*
X1499881Y2322195D01*
X1499964Y2322112D01*
X1501213Y2321112D01*
X1502630Y2320279D01*
X1504212Y2319530D01*
X1505878Y2318946D01*
X1507628Y2318363D01*
X1509377Y2317947D01*
X1512792Y2317280D01*
X1514458Y2317114D01*
X1515957Y2316947D01*
X1517374Y2316781D01*
X1518540Y2316697D01*
X1519539Y2316614D01*
X1550694D01*
Y2357847D01*
D02*
G37*
%LPD*%
D26*
X0Y0D02*
X1721435D01*
Y2434848D01*
X0D02*
X1721435D01*
X0Y0D02*
Y2434848D01*
D27*
X118461Y118461D02*
D03*
D29*
X810174Y1961884D02*
D03*
D30*
X910174D02*
D03*
D31*
X960717Y2238223D02*
D03*
D32*
X760717D02*
D03*
D51*
X895450Y1140812D02*
D03*
X885528D02*
D03*
D52*
X923115Y1288063D02*
D03*
X942800D02*
D03*
X800447D02*
D03*
X780762D02*
D03*
D53*
X801662Y2121604D02*
D03*
X919772D02*
D03*
D55*
X1177450Y68898D02*
D03*
Y155906D02*
D03*
X1081781D02*
D03*
Y68898D02*
D03*
X639654Y68897D02*
D03*
Y155905D02*
D03*
X543985D02*
D03*
Y68897D02*
D03*
X1652537Y447835D02*
D03*
X1565529D02*
D03*
Y352165D02*
D03*
X1652537D02*
D03*
Y985630D02*
D03*
X1565529D02*
D03*
Y889961D02*
D03*
X1652537D02*
D03*
Y1523425D02*
D03*
X1565529D02*
D03*
Y1427756D02*
D03*
X1652537D02*
D03*
Y2061221D02*
D03*
X1565529D02*
D03*
Y1965552D02*
D03*
X1652537D02*
D03*
X68897D02*
D03*
X155905D02*
D03*
Y2061221D02*
D03*
X68897D02*
D03*
Y1427756D02*
D03*
X155905D02*
D03*
Y1523425D02*
D03*
X68897D02*
D03*
Y889961D02*
D03*
X155905D02*
D03*
Y985630D02*
D03*
X68897D02*
D03*
Y352165D02*
D03*
X155905D02*
D03*
Y447835D02*
D03*
X68897D02*
D03*
M02*
