G04*
G04 #@! TF.GenerationSoftware,Altium Limited,Altium Designer,24.2.2 (26)*
G04*
G04 Layer_Physical_Order=2*
G04 Layer_Color=32768*
%FSLAX26Y26*%
%MOIN*%
G70*
G04*
G04 #@! TF.SameCoordinates,B184214D-E36B-41BB-B0D7-08C86D9F1EC7*
G04*
G04*
G04 #@! TF.FilePolarity,Negative*
G04*
G01*
G75*
%ADD44C,0.000100*%
%ADD45C,0.051370*%
G04:AMPARAMS|DCode=46|XSize=97.307mil|YSize=97.307mil|CornerRadius=0mil|HoleSize=0mil|Usage=FLASHONLY|Rotation=0.000|XOffset=0mil|YOffset=0mil|HoleType=Round|Shape=Relief|Width=25mil|Gap=7mil|Entries=4|*
%AMTHD46*
7,0,0,0.097307,0.083307,0.025000,45*
%
%ADD46THD46*%
%ADD47C,0.055307*%
G04:AMPARAMS|DCode=48|XSize=98.882mil|YSize=98.882mil|CornerRadius=0mil|HoleSize=0mil|Usage=FLASHONLY|Rotation=0.000|XOffset=0mil|YOffset=0mil|HoleType=Round|Shape=Relief|Width=12mil|Gap=7mil|Entries=4|*
%AMTHD48*
7,0,0,0.098882,0.084882,0.012000,45*
%
%ADD48THD48*%
%ADD49C,0.021843*%
D44*
X0Y0D02*
X1721435D01*
Y2434848D01*
X0D02*
X1721435D01*
X0Y0D02*
Y2434848D01*
D45*
X910174Y1961884D02*
D03*
X810174D02*
D03*
D46*
X760717Y2238223D02*
D03*
D47*
X960717D02*
D03*
D48*
X1081781Y68898D02*
D03*
Y155906D02*
D03*
X1177450D02*
D03*
Y68898D02*
D03*
X543985Y68897D02*
D03*
Y155905D02*
D03*
X639654D02*
D03*
Y68897D02*
D03*
X1652537Y1965552D02*
D03*
X1565529D02*
D03*
Y2061221D02*
D03*
X1652537D02*
D03*
Y1427756D02*
D03*
X1565529D02*
D03*
Y1523425D02*
D03*
X1652537D02*
D03*
Y889961D02*
D03*
X1565529D02*
D03*
Y985630D02*
D03*
X1652537D02*
D03*
Y352165D02*
D03*
X1565529D02*
D03*
Y447835D02*
D03*
X1652537D02*
D03*
X68897D02*
D03*
X155905D02*
D03*
Y352165D02*
D03*
X68897D02*
D03*
Y985630D02*
D03*
X155905D02*
D03*
Y889961D02*
D03*
X68897D02*
D03*
Y1523425D02*
D03*
X155905D02*
D03*
Y1427756D02*
D03*
X68897D02*
D03*
Y2061221D02*
D03*
X155905D02*
D03*
Y1965552D02*
D03*
X68897D02*
D03*
D49*
X1017704Y2263053D02*
D03*
Y2194134D02*
D03*
Y2228594D02*
D03*
X898818Y2194709D02*
D03*
Y2229168D02*
D03*
Y2263628D02*
D03*
X1013683Y2066059D02*
D03*
Y2100519D02*
D03*
X1012822Y2134978D02*
D03*
X978362Y2066059D02*
D03*
Y2100519D02*
D03*
Y2134978D02*
D03*
X1012822Y2169438D02*
D03*
X978362D02*
D03*
X860717Y1140800D02*
D03*
X764338Y1303543D02*
D03*
X764254Y1282629D02*
D03*
X745933Y1271211D02*
D03*
X745741Y1292542D02*
D03*
X745239Y1314054D02*
D03*
X976195D02*
D03*
X975694Y1292542D02*
D03*
X975502Y1271211D02*
D03*
X957181Y1282629D02*
D03*
X957096Y1303543D02*
D03*
X937890Y1171473D02*
D03*
M02*
